<?xml version="1.0" encoding="UTF-8" standalone="no"?>
<svg
   fill="none"
   height="66"
   viewBox="0 0 80 66"
   width="80"
   version="1.1"
   id="svg43"
   sodipodi:docname="Google_Meet_text_logo_(2020).svg"
   inkscape:version="1.1.1 (1:1.1+202109281949+c3084ef5ed)"
   xmlns:inkscape="http://www.inkscape.org/namespaces/inkscape"
   xmlns:sodipodi="http://sodipodi.sourceforge.net/DTD/sodipodi-0.dtd"
   xmlns="http://www.w3.org/2000/svg"
   xmlns:svg="http://www.w3.org/2000/svg">
  <defs
     id="defs47" />
  <sodipodi:namedview
     id="namedview45"
     pagecolor="#505050"
     bordercolor="#eeeeee"
     borderopacity="1"
     inkscape:pageshadow="0"
     inkscape:pageopacity="0"
     inkscape:pagecheckerboard="0"
     showgrid="false"
     inkscape:zoom="13.924564"
     inkscape:cx="20.718782"
     inkscape:cy="43.125228"
     inkscape:window-width="1366"
     inkscape:window-height="715"
     inkscape:window-x="0"
     inkscape:window-y="25"
     inkscape:window-maximized="1"
     inkscape:current-layer="svg43"
     fit-margin-top="0"
     fit-margin-left="0"
     fit-margin-right="0"
     fit-margin-bottom="0"
     inkscape:snap-global="false" />
  <clipPath
     id="a">
    <path
       d="M 0,0 H 494 V 96 H 0 Z"
       id="path2" />
  </clipPath>
  <path
     id="path5"
     style="fill:#ffffff"
     d="m 77.560547,6.501953 c -0.576803,-0.0176 -1.175125,0.166359 -1.691406,0.599609 L 63.478516,16.916016 63.396484,17.087891 63.5,17 v 30.988281 l 12.314453,9.910157 C 77.466653,59.284838 80,58.121784 80,55.958984 V 9.041016 C 80,7.554091 78.829514,6.540683 77.560547,6.501953 Z" />
  <path
     d="M 18.562502,0 0,18.562502 h 18.562502 z"
     fill="#ea4335"
     id="path7"
     style="fill:#ffffff;stroke-width:0.928125" />
  <path
     d="M 20,20 H 0 v 26 h 20 z"
     fill="#2684fc"
     id="path9"
     style="fill:#ffffff" />
  <path
     d="M 0,47.225975 V 59.74196 C 0,63.183897 2.8161038,66 6.2580396,66 H 18.774025 V 47.225975 Z"
     fill="#0066da"
     id="path11"
     style="fill:#ffffff;stroke-width:0.938702" />
  <path
     id="path13"
     style="fill:#ffffff"
     d="m 20,0 v 20 h 24.5 v 13 l 19,-16 V 6.589844 C 63.5,2.965244 60.563409,0 56.974609,0 H 43.925781 Z" />
  <path
     id="path15"
     style="fill:#ffffff"
     d="M 44.5,33 V 46 H 20 V 66 H 43.925781 56.974609 C 60.563409,66 63.5,63.039222 63.5,59.419922 V 48 Z" />
  <path
     d="M 63.5,17 V 48 L 44.5,33 Z"
     fill="#00832d"
     id="path17"
     style="fill:none" />
  <g
     fill="#5f6368"
     id="g39"
     transform="translate(-40.776321,-191.44268)">
    <path
       d="M 352.098,72.204 H 346.21 V 26.38 h 5.888 l 15.936,27.904 h 0.256 L 384.226,26.38 h 5.888 v 45.824 h -5.888 v -27.2 l 0.256,-7.68 h -0.256 L 369.89,62.476 h -3.456 L 352.098,37.324 h -0.256 l 0.256,7.68 z"
       id="path19" />
    <path
       d="m 412.391,73.228 c -4.608,0 -8.405,-1.5787 -11.392,-4.736 -2.987,-3.1573 -4.48,-7.1467 -4.48,-11.968 0,-4.7787 1.451,-8.7467 4.352,-11.904 2.901,-3.2 6.613,-4.8 11.136,-4.8 4.651,0 8.341,1.5147 11.072,4.544 2.773,2.9867 4.16,7.1893 4.16,12.608 l -0.064,0.64 h -24.64 c 0.085,3.072 1.109,5.5467 3.072,7.424 1.963,1.8773 4.309,2.816 7.04,2.816 3.755,0 6.699,-1.8773 8.832,-5.632 l 5.248,2.56 c -1.408,2.6453 -3.371,4.7147 -5.888,6.208 -2.475,1.4933 -5.291,2.24 -8.448,2.24 z m -9.408,-20.48 h 17.984 c -0.171,-2.176 -1.067,-3.968 -2.688,-5.376 -1.579,-1.4507 -3.712,-2.176 -6.4,-2.176 -2.219,0 -4.139,0.6827 -5.76,2.048 -1.579,1.3653 -2.624,3.2 -3.136,5.504 z"
       id="path21" />
    <path
       d="m 447.016,73.228 c -4.608,0 -8.405,-1.5787 -11.392,-4.736 -2.987,-3.1573 -4.48,-7.1467 -4.48,-11.968 0,-4.7787 1.451,-8.7467 4.352,-11.904 2.901,-3.2 6.613,-4.8 11.136,-4.8 4.651,0 8.341,1.5147 11.072,4.544 2.773,2.9867 4.16,7.1893 4.16,12.608 l -0.064,0.64 h -24.64 c 0.085,3.072 1.109,5.5467 3.072,7.424 1.963,1.8773 4.309,2.816 7.04,2.816 3.755,0 6.699,-1.8773 8.832,-5.632 l 5.248,2.56 c -1.408,2.6453 -3.371,4.7147 -5.888,6.208 -2.475,1.4933 -5.291,2.24 -8.448,2.24 z m -9.408,-20.48 h 17.984 c -0.171,-2.176 -1.067,-3.968 -2.688,-5.376 -1.579,-1.4507 -3.712,-2.176 -6.4,-2.176 -2.219,0 -4.139,0.6827 -5.76,2.048 -1.579,1.3653 -2.624,3.2 -3.136,5.504 z"
       id="path23" />
    <path
       d="m 478.727,72.716 c -2.56,0 -4.693,-0.7893 -6.4,-2.368 -1.664,-1.5787 -2.517,-3.776 -2.56,-6.592 V 46.22 h -5.504 v -5.376 h 5.504 v -9.6 h 5.888 v 9.6 h 7.68 v 5.376 h -7.68 v 15.616 c 0,2.0907 0.405,3.52 1.216,4.288 0.811,0.7253 1.728,1.088 2.752,1.088 0.469,0 0.917,-0.0427 1.344,-0.128 0.469,-0.128 0.896,-0.2773 1.28,-0.448 l 1.856,5.248 c -1.536,0.5547 -3.328,0.832 -5.376,0.832 z"
       id="path25" />
    <path
       d="m 152.078,52.7876 v -6.9955 h 23.415 c 0.239,1.2328 0.38,2.7002 0.38,4.2888 0,5.2469 -1.437,11.7421 -6.057,16.3648 -4.497,4.6847 -10.241,7.1824 -17.859,7.1824 -14.113,0 -25.977,-11.4931 -25.977,-25.609 0,-14.116 11.864,-25.6091 25.977,-25.6091 7.805,0 13.362,3.0612 17.547,7.0586 l -4.934,4.9349 c -2.998,-2.8111 -7.056,-4.9968 -12.613,-4.9968 -10.303,0 -18.359,8.3069 -18.359,18.6137 0,10.3068 8.056,18.6136 18.359,18.6136 6.682,0 10.491,-2.686 12.925,-5.1218 1.985,-1.9845 3.291,-4.8317 3.799,-8.7233 z"
       id="path27" />
    <path
       d="m 211.554,57.1396 c 0,9.4944 -7.431,16.4899 -16.548,16.4899 -9.117,0 -16.548,-6.9955 -16.548,-16.4899 0,-9.5563 7.431,-16.4899 16.548,-16.4899 9.118,0 16.548,6.9323 16.548,16.4899 z m -7.243,0 c 0,-5.9342 -4.308,-9.9935 -9.304,-9.9935 -4.995,0 -9.305,4.0593 -9.305,9.9935 0,5.871 4.308,9.9935 9.305,9.9935 4.996,0 9.304,-4.1225 9.304,-9.9935 z"
       id="path29" />
    <path
       d="m 247.653,57.1396 c 0,9.4944 -7.431,16.4899 -16.548,16.4899 -9.117,0 -16.548,-6.9955 -16.548,-16.4899 0,-9.5563 7.431,-16.4899 16.548,-16.4899 9.118,0 16.548,6.9323 16.548,16.4899 z m -7.243,0 c 0,-5.9342 -4.308,-9.9935 -9.304,-9.9935 -4.995,0 -9.305,4.0593 -9.305,9.9935 0,5.871 4.309,9.9935 9.305,9.9935 4.996,0 9.304,-4.1225 9.304,-9.9935 z"
       id="path31" />
    <path
       d="m 282.255,41.6478 v 29.6064 c 0,12.1804 -7.181,17.1772 -15.674,17.1772 -7.993,0 -12.8,-5.372 -14.612,-9.7434 l 6.307,-2.624 c 1.124,2.6859 3.871,5.871 8.305,5.871 5.433,0 8.805,-3.3733 8.805,-9.6815 v -2.3739 h -0.25 c -1.624,1.9987 -4.746,3.7472 -8.68,3.7472 -8.243,0 -15.799,-7.1824 -15.799,-16.4266 0,-9.3075 7.556,-16.5518 15.799,-16.5518 3.934,0 7.056,1.7485 8.68,3.6853 h 0.25 v -2.6859 z m -6.37,15.5537 c 0,-5.8092 -3.872,-10.0567 -8.805,-10.0567 -4.995,0 -9.18,4.2475 -9.18,10.0567 0,5.7459 4.184,9.9315 9.18,9.9315 4.934,0 8.805,-4.1856 8.805,-9.9315 z"
       id="path33" />
    <path
       d="M 294.523,24.3223 V 72.6301 H 287.28 V 24.3223 Z"
       id="path35" />
    <path
       d="m 322.495,62.5722 5.62,3.7472 c -1.812,2.686 -6.182,7.3075 -13.738,7.3075 -9.367,0 -16.361,-7.2456 -16.361,-16.4899 0,-9.8065 7.056,-16.4899 15.548,-16.4899 8.556,0 12.739,6.8085 14.114,10.4938 l 0.749,1.8736 -22.044,9.1192 c 1.687,3.3101 4.31,4.9968 7.994,4.9968 3.684,0.0026 6.245,-1.8092 8.118,-4.5583 z m -17.298,-5.9329 14.736,-6.1212 c -0.812,-2.0606 -3.247,-3.4971 -6.12,-3.4971 -3.682,-0.0013 -8.803,3.2469 -8.616,9.6183 z"
       id="path37" />
  </g>
</svg>
