<?xml version="1.0" encoding="UTF-8" standalone="no"?>
<!-- Created with Inkscape (http://www.inkscape.org/) -->

<svg
   width="277.6312"
   height="277.63141"
   viewBox="0 0 277.6312 277.63141"
   version="1.1"
   id="svg5"
   inkscape:version="1.1.1 (1:1.1+202109281949+c3084ef5ed)"
   sodipodi:docname="classroom.svg"
   xmlns:inkscape="http://www.inkscape.org/namespaces/inkscape"
   xmlns:sodipodi="http://sodipodi.sourceforge.net/DTD/sodipodi-0.dtd"
   xmlns:xlink="http://www.w3.org/1999/xlink"
   xmlns="http://www.w3.org/2000/svg"
   xmlns:svg="http://www.w3.org/2000/svg">
  <sodipodi:namedview
     id="namedview7"
     pagecolor="#505050"
     bordercolor="#eeeeee"
     borderopacity="1"
     inkscape:pageshadow="0"
     inkscape:pageopacity="0"
     inkscape:pagecheckerboard="0"
     inkscape:document-units="px"
     showgrid="false"
     inkscape:zoom="0.79991455"
     inkscape:cx="-10.001068"
     inkscape:cy="136.88962"
     inkscape:window-width="1366"
     inkscape:window-height="743"
     inkscape:window-x="0"
     inkscape:window-y="25"
     inkscape:window-maximized="0"
     inkscape:current-layer="layer1"
     inkscape:snap-page="true"
     fit-margin-top="0"
     fit-margin-left="0"
     fit-margin-right="0"
     fit-margin-bottom="0"
     inkscape:snap-global="false" />
  <defs
     id="defs2">
    <style
       id="style1171">.cls-1{fill:url(#linear-gradient);}.cls-2{fill:#f6b756;}.cls-3{fill:url(#linear-gradient-2);}.cls-4{fill:#cf4055;}.cls-5{fill:url(#linear-gradient-3);}.cls-6{fill:url(#linear-gradient-4);}.cls-7{fill:url(#linear-gradient-5);}.cls-8{fill:url(#linear-gradient-6);}.cls-9{fill:url(#linear-gradient-7);}.cls-10{fill:url(#linear-gradient-8);}.cls-11{fill:url(#linear-gradient-9);}.cls-12{fill:#eab39b;}.cls-13{fill:url(#linear-gradient-13);}.cls-14{fill:#c7cdd8;}.cls-15{fill:#dfe3ea;}</style>
    <linearGradient
       id="linear-gradient"
       x1="32"
       y1="36"
       x2="32"
       y2="1"
       gradientUnits="userSpaceOnUse">
      <stop
         offset="0"
         stop-color="#fbcc88"
         id="stop1173" />
      <stop
         offset="1"
         stop-color="#ffe5c3"
         id="stop1175" />
    </linearGradient>
    <linearGradient
       id="linear-gradient-2"
       x1="32"
       y1="25.09"
       x2="32"
       y2="9.0900002"
       gradientUnits="userSpaceOnUse">
      <stop
         offset="0"
         stop-color="#da5466"
         id="stop1178" />
      <stop
         offset="1"
         stop-color="#f4929c"
         id="stop1180" />
    </linearGradient>
    <linearGradient
       id="linear-gradient-3"
       x1="21"
       y1="15.09"
       x2="32"
       y2="15.09"
       gradientUnits="userSpaceOnUse">
      <stop
         offset="0"
         stop-color="#d4d8e1"
         id="stop1183" />
      <stop
         offset="1"
         stop-color="#f3f4f5"
         id="stop1185" />
    </linearGradient>
    <linearGradient
       id="linear-gradient-4"
       x1="32"
       y1="15.09"
       x2="43"
       y2="15.09"
       xlink:href="#linear-gradient-3" />
    <linearGradient
       id="linear-gradient-5"
       x1="32"
       y1="53"
       x2="32"
       y2="41"
       gradientUnits="userSpaceOnUse">
      <stop
         offset="0"
         stop-color="#f2c4b0"
         id="stop1189" />
      <stop
         offset="1"
         stop-color="#ffe3d7"
         id="stop1191" />
    </linearGradient>
    <linearGradient
       id="linear-gradient-6"
       x1="32"
       y1="63"
       y2="53"
       xlink:href="#linear-gradient-3" />
    <linearGradient
       id="linear-gradient-7"
       x1="52"
       x2="52"
       xlink:href="#linear-gradient-5" />
    <linearGradient
       id="linear-gradient-8"
       x1="52"
       y1="63"
       x2="52"
       y2="53"
       xlink:href="#linear-gradient-3" />
    <linearGradient
       id="linear-gradient-9"
       x1="12"
       x2="12"
       xlink:href="#linear-gradient-5" />
    <linearGradient
       id="linear-gradient-13"
       x1="12"
       y1="63"
       x2="12"
       y2="53"
       xlink:href="#linear-gradient-3" />
    <style
       id="style1327">.cls-1{fill:url(#linear-gradient);}.cls-2{fill:#42455e;}.cls-3{fill:#575f7c;}.cls-4{fill:url(#linear-gradient-2);}.cls-5{fill:url(#linear-gradient-3);}</style>
    <linearGradient
       id="linear-gradient-36"
       x1="32"
       y1="53"
       x2="32"
       y2="29.450001"
       gradientUnits="userSpaceOnUse">
      <stop
         offset="0"
         stop-color="#474f72"
         id="stop1329" />
      <stop
         offset="1"
         stop-color="#878c9f"
         id="stop1331" />
    </linearGradient>
    <linearGradient
       id="linear-gradient-2-7"
       y1="37"
       y2="11"
       xlink:href="#linear-gradient-36" />
    <linearGradient
       id="linear-gradient-3-5"
       x1="54"
       y1="53"
       x2="54"
       y2="47"
       gradientUnits="userSpaceOnUse">
      <stop
         offset="0"
         stop-color="#e9a254"
         id="stop1335" />
      <stop
         offset="1"
         stop-color="#f4bb79"
         id="stop1337" />
    </linearGradient>
    <style
       id="style1376">.cls-1{fill:url(#linear-gradient);}.cls-2{fill:#c7cdd8;}.cls-3{fill:url(#linear-gradient-2);}.cls-4{fill:url(#linear-gradient-3);}.cls-5{fill:url(#linear-gradient-4);}.cls-6{fill:#5b8dc9;}.cls-7{fill:#42455e;}</style>
    <linearGradient
       id="linear-gradient-35"
       x1="5"
       y1="59"
       x2="53"
       y2="59"
       gradientUnits="userSpaceOnUse">
      <stop
         offset="0"
         stop-color="#d4d8e1"
         id="stop1378" />
      <stop
         offset="1"
         stop-color="#f3f4f5"
         id="stop1380" />
    </linearGradient>
    <linearGradient
       id="linear-gradient-2-6"
       x1="29"
       y1="59"
       x2="29"
       y2="1"
       gradientUnits="userSpaceOnUse">
      <stop
         offset="0"
         stop-color="#7aa8d7"
         id="stop1383" />
      <stop
         offset="1"
         stop-color="#c3d2e7"
         id="stop1385" />
    </linearGradient>
    <linearGradient
       id="linear-gradient-3-2"
       x1="32"
       y1="34"
       x2="32"
       y2="8"
       xlink:href="#linear-gradient-35" />
    <linearGradient
       id="linear-gradient-4-9"
       x1="8"
       y1="59"
       x2="8"
       y2="1"
       gradientUnits="userSpaceOnUse">
      <stop
         offset="0"
         stop-color="#474f72"
         id="stop1389" />
      <stop
         offset="1"
         stop-color="#878c9f"
         id="stop1391" />
    </linearGradient>
    <style
       id="style1454">.cls-1{fill:url(#linear-gradient);}.cls-2{fill:#5b8dc9;}.cls-3{fill:url(#linear-gradient-2);}.cls-4{fill:#cf4055;}.cls-5{fill:url(#linear-gradient-3);}.cls-6{fill:#f6b756;}.cls-7{fill:url(#linear-gradient-4);}.cls-8{fill:url(#linear-gradient-5);}.cls-9{fill:url(#linear-gradient-6);}.cls-10{fill:url(#linear-gradient-7);}.cls-11{fill:#4da67f;}.cls-12{fill:url(#linear-gradient-8);}.cls-13{fill:#c7cdd8;}.cls-14{fill:url(#linear-gradient-9);}.cls-15{fill:url(#linear-gradient-10);}.cls-16{fill:url(#linear-gradient-11);}.cls-17{fill:#ffd39f;}.cls-18{fill:url(#linear-gradient-12);}.cls-19{fill:#fff;}.cls-20{fill:#7ece67;}</style>
    <linearGradient
       id="linear-gradient-1"
       x1="23"
       y1="63"
       x2="23"
       y2="1"
       gradientUnits="userSpaceOnUse">
      <stop
         offset="0"
         stop-color="#7aa8d7"
         id="stop1456" />
      <stop
         offset="1"
         stop-color="#c3d2e7"
         id="stop1458" />
    </linearGradient>
    <linearGradient
       id="linear-gradient-2-2"
       x1="9"
       y1="63"
       x2="9"
       y2="11"
       gradientUnits="userSpaceOnUse">
      <stop
         offset="0"
         stop-color="#da5466"
         id="stop1461" />
      <stop
         offset="1"
         stop-color="#f4929c"
         id="stop1463" />
    </linearGradient>
    <linearGradient
       id="linear-gradient-3-7"
       x1="9"
       y1="58"
       x2="9"
       y2="16"
       gradientUnits="userSpaceOnUse">
      <stop
         offset="0"
         stop-color="#fbcc88"
         id="stop1466" />
      <stop
         offset="1"
         stop-color="#ffe5c3"
         id="stop1468" />
    </linearGradient>
    <linearGradient
       id="linear-gradient-4-0"
       x1="33"
       y1="63"
       x2="33"
       y2="15"
       gradientUnits="userSpaceOnUse">
      <stop
         offset="0"
         stop-color="#8cdd79"
         id="stop1471" />
      <stop
         offset="1"
         stop-color="#d4e6b6"
         id="stop1473" />
    </linearGradient>
    <linearGradient
       id="linear-gradient-5-9"
       x1="33"
       y1="57"
       x2="33"
       y2="53"
       gradientUnits="userSpaceOnUse">
      <stop
         offset="0"
         stop-color="#6ab891"
         id="stop1476" />
      <stop
         offset="1"
         stop-color="#85cba9"
         id="stop1478" />
    </linearGradient>
    <linearGradient
       id="linear-gradient-6-3"
       y1="53"
       y2="49"
       xlink:href="#linear-gradient-5-9" />
    <linearGradient
       id="linear-gradient-7-6"
       x1="54.290001"
       y1="63"
       x2="54.290001"
       y2="7.4499998"
       gradientTransform="rotate(10,54.276582,35.217281)"
       xlink:href="#linear-gradient-5-9" />
    <linearGradient
       id="linear-gradient-8-0"
       x1="54.290001"
       y1="57.23"
       x2="54.290001"
       y2="13.21"
       gradientTransform="rotate(10,54.276582,35.217281)"
       gradientUnits="userSpaceOnUse">
      <stop
         offset="0"
         stop-color="#d4d8e1"
         id="stop1483" />
      <stop
         offset="1"
         stop-color="#f3f4f5"
         id="stop1485" />
    </linearGradient>
    <linearGradient
       id="linear-gradient-9-6"
       x1="54.290001"
       y1="53.009998"
       x2="54.290001"
       y2="17.43"
       gradientTransform="rotate(10,54.276582,35.217281)"
       xlink:href="#linear-gradient-5-9" />
    <linearGradient
       id="linear-gradient-10"
       x1="42"
       y1="63"
       x2="42"
       y2="18"
       xlink:href="#linear-gradient-3-7" />
    <linearGradient
       id="linear-gradient-11"
       x1="42"
       y1="59"
       x2="42"
       y2="22"
       gradientUnits="userSpaceOnUse">
      <stop
         offset="0"
         stop-color="#e9a254"
         id="stop1490" />
      <stop
         offset="1"
         stop-color="#f4bb79"
         id="stop1492" />
    </linearGradient>
    <linearGradient
       id="linear-gradient-12"
       x1="23"
       y1="58"
       x2="23"
       y2="6"
       xlink:href="#linear-gradient-8-0" />
    <style
       id="style1614">.cls-1{fill:url(#linear-gradient);}.cls-2{fill:url(#linear-gradient-2);}.cls-3{fill:url(#linear-gradient-3);}.cls-4{fill:#42455e;}.cls-5{fill:url(#linear-gradient-4);}.cls-6{fill:url(#linear-gradient-5);}.cls-7{fill:#f2a961;}.cls-8{fill:url(#linear-gradient-6);}.cls-9{fill:url(#linear-gradient-7);}.cls-10{fill:#c7cdd8;}.cls-11{fill:#dd8b37;}</style>
    <linearGradient
       id="linear-gradient-26"
       x1="27"
       y1="63"
       x2="27"
       y2="1"
       gradientUnits="userSpaceOnUse">
      <stop
         offset="0"
         stop-color="#e9a254"
         id="stop1616" />
      <stop
         offset="1"
         stop-color="#f4bb79"
         id="stop1618" />
    </linearGradient>
    <linearGradient
       id="linear-gradient-2-1"
       x1="60"
       y1="61"
       x2="60"
       y2="3"
       xlink:href="#linear-gradient-26" />
    <linearGradient
       id="linear-gradient-3-8"
       x1="56.98"
       y1="57.5"
       x2="63.02"
       y2="57.5"
       gradientUnits="userSpaceOnUse">
      <stop
         offset="0"
         stop-color="#d1a788"
         id="stop1622" />
      <stop
         offset="1"
         stop-color="#f2d3b8"
         id="stop1624" />
    </linearGradient>
    <linearGradient
       id="linear-gradient-4-7"
       x1="60"
       y1="10"
       x2="60"
       y2="3"
       gradientUnits="userSpaceOnUse">
      <stop
         offset="0"
         stop-color="#d96bb0"
         id="stop1627" />
      <stop
         offset="1"
         stop-color="#e49fc6"
         id="stop1629" />
    </linearGradient>
    <linearGradient
       id="linear-gradient-5-92"
       x1="57"
       y1="12"
       x2="63"
       y2="12"
       gradientUnits="userSpaceOnUse">
      <stop
         offset="0"
         stop-color="#949aaf"
         id="stop1632" />
      <stop
         offset="1"
         stop-color="#c6ccda"
         id="stop1634" />
    </linearGradient>
    <linearGradient
       id="linear-gradient-6-0"
       x1="6"
       y1="63"
       x2="6"
       y2="1"
       gradientUnits="userSpaceOnUse">
      <stop
         offset="0"
         stop-color="#474f72"
         id="stop1637" />
      <stop
         offset="1"
         stop-color="#878c9f"
         id="stop1639" />
    </linearGradient>
    <linearGradient
       id="linear-gradient-7-2"
       x1="30"
       y1="26"
       x2="30"
       y2="8"
       gradientUnits="userSpaceOnUse">
      <stop
         offset="0"
         stop-color="#d4d8e1"
         id="stop1642" />
      <stop
         offset="1"
         stop-color="#f3f4f5"
         id="stop1644" />
    </linearGradient>
    <style
       id="style1728">.cls-1{fill:#c7cdd8;}.cls-2{fill:url(#linear-gradient);}.cls-3{fill:#dfe3ea;}</style>
    <linearGradient
       id="linear-gradient-37"
       x1="29"
       y1="63"
       x2="29"
       y2="5"
       gradientUnits="userSpaceOnUse">
      <stop
         offset="0"
         stop-color="#d4d8e1"
         id="stop1730" />
      <stop
         offset="1"
         stop-color="#f3f4f5"
         id="stop1732" />
    </linearGradient>
    <style
       id="style1797">.cls-1{fill:url(#linear-gradient);}.cls-2{fill:#42455e;}.cls-3{fill:url(#linear-gradient-2);}.cls-4{fill:url(#linear-gradient-3);}.cls-5{fill:#c7cdd8;}.cls-6{fill:#dfe3ea;}.cls-7{fill:#e8677d;}</style>
    <linearGradient
       id="linear-gradient-59"
       x1="32"
       y1="63"
       x2="32"
       y2="1"
       gradientUnits="userSpaceOnUse">
      <stop
         offset="0"
         stop-color="#474f72"
         id="stop1799" />
      <stop
         offset="1"
         stop-color="#878c9f"
         id="stop1801" />
    </linearGradient>
    <linearGradient
       id="linear-gradient-2-22"
       x1="32"
       y1="55"
       x2="32"
       y2="5"
       gradientUnits="userSpaceOnUse">
      <stop
         offset="0"
         stop-color="#d4d8e1"
         id="stop1804" />
      <stop
         offset="1"
         stop-color="#f3f4f5"
         id="stop1806" />
    </linearGradient>
    <linearGradient
       id="linear-gradient-3-89"
       x1="46"
       y1="50"
       x2="46"
       y2="5"
       gradientUnits="userSpaceOnUse">
      <stop
         offset="0"
         stop-color="#da5466"
         id="stop1809" />
      <stop
         offset="1"
         stop-color="#f4929c"
         id="stop1811" />
    </linearGradient>
    <style
       id="style1897">.cls-1{fill:url(#linear-gradient);}.cls-2{fill:#8a6762;}.cls-3{fill:url(#linear-gradient-2);}.cls-4{fill:url(#linear-gradient-3);}.cls-5{fill:#231f20;}</style>
    <linearGradient
       id="linear-gradient-73"
       x1="15.44"
       y1="29.17"
       x2="15.44"
       y2="3.72"
       gradientUnits="userSpaceOnUse">
      <stop
         offset="0"
         stop-color="#9b756d"
         id="stop1899" />
      <stop
         offset="1"
         stop-color="#bc9388"
         id="stop1901" />
    </linearGradient>
    <linearGradient
       id="linear-gradient-2-61"
       x1="26.809999"
       y1="63"
       x2="26.809999"
       y2="5.4299998"
       gradientUnits="userSpaceOnUse">
      <stop
         offset="0"
         stop-color="#d1a788"
         id="stop1904" />
      <stop
         offset="1"
         stop-color="#f2d3b8"
         id="stop1906" />
    </linearGradient>
    <linearGradient
       id="linear-gradient-3-29"
       x1="33.759998"
       y1="51.540001"
       x2="33.759998"
       y2="1"
       xlink:href="#linear-gradient-2-61" />
    <style
       id="style1943">.cls-1{fill:url(#linear-gradient);}.cls-2{fill:#c7cdd8;}.cls-3{fill:none;stroke:#231f20;stroke-linecap:round;stroke-linejoin:round;stroke-width:2px;}.cls-4{fill:url(#linear-gradient-3);}.cls-5{fill:#42455e;}.cls-6{fill:url(#linear-gradient-4);}.cls-7{fill:#cba07a;}.cls-8{fill:url(#linear-gradient-5);}.cls-9{fill:url(#linear-gradient-6);}.cls-10{fill:#231f20;}</style>
    <linearGradient
       id="linear-gradient-31"
       x1="32"
       y1="43.77"
       x2="32"
       y2="8"
       gradientUnits="userSpaceOnUse">
      <stop
         offset="0"
         stop-color="#d4d8e1"
         id="stop1945" />
      <stop
         offset="1"
         stop-color="#f3f4f5"
         id="stop1947" />
    </linearGradient>
    <linearGradient
       id="linear-gradient-3-9"
       x1="32"
       y1="44"
       x2="32"
       y2="26"
       gradientUnits="userSpaceOnUse">
      <stop
         offset="0"
         stop-color="#474f72"
         id="stop1950" />
      <stop
         offset="1"
         stop-color="#878c9f"
         id="stop1952" />
    </linearGradient>
    <linearGradient
       id="linear-gradient-4-4"
       x1="32"
       y1="50"
       x2="32"
       y2="44"
       gradientUnits="userSpaceOnUse">
      <stop
         offset="0"
         stop-color="#d1a788"
         id="stop1955" />
      <stop
         offset="1"
         stop-color="#f2d3b8"
         id="stop1957" />
    </linearGradient>
    <linearGradient
       id="linear-gradient-5-7"
       x1="9"
       y1="56"
       x2="9"
       y2="50"
       xlink:href="#linear-gradient-4-4" />
    <linearGradient
       id="linear-gradient-6-8"
       x1="55"
       y1="56"
       x2="55"
       y2="50"
       xlink:href="#linear-gradient-4-4" />
    <style
       id="style2032">.cls-1{fill:url(#linear-gradient);}.cls-2{fill:#c7cdd8;}.cls-3{fill:url(#linear-gradient-3);}.cls-4{fill:#cf4055;}.cls-5{fill:url(#linear-gradient-4);}.cls-6{fill:#cba07a;}.cls-7{fill:url(#linear-gradient-5);}.cls-8{fill:url(#linear-gradient-6);}.cls-9{fill:#231f20;}</style>
    <linearGradient
       id="linear-gradient-45"
       x1="31.98"
       y1="37"
       x2="31.98"
       y2="23"
       gradientUnits="userSpaceOnUse">
      <stop
         offset="0"
         stop-color="#d4d8e1"
         id="stop2034" />
      <stop
         offset="1"
         stop-color="#f3f4f5"
         id="stop2036" />
    </linearGradient>
    <linearGradient
       id="linear-gradient-3-0"
       x1="31.93"
       y1="29.940001"
       x2="31.93"
       y2="14.99"
       gradientUnits="userSpaceOnUse">
      <stop
         offset="0"
         stop-color="#da5466"
         id="stop2039" />
      <stop
         offset="1"
         stop-color="#f4929c"
         id="stop2041" />
    </linearGradient>
    <linearGradient
       id="linear-gradient-4-3"
       x1="32"
       y1="43"
       x2="32"
       y2="37"
       gradientUnits="userSpaceOnUse">
      <stop
         offset="0"
         stop-color="#d1a788"
         id="stop2044" />
      <stop
         offset="1"
         stop-color="#f2d3b8"
         id="stop2046" />
    </linearGradient>
    <linearGradient
       id="linear-gradient-5-6"
       x1="9"
       y1="49"
       x2="9"
       y2="43"
       xlink:href="#linear-gradient-4-3" />
    <linearGradient
       id="linear-gradient-6-1"
       x1="55"
       y1="49"
       x2="55"
       y2="43"
       xlink:href="#linear-gradient-4-3" />
    <style
       id="style2118">.cls-1{fill:url(#linear-gradient);}.cls-2{fill:url(#linear-gradient-2);}.cls-3{fill:#c7cdd8;}.cls-4{fill:url(#linear-gradient-3);}.cls-5{fill:url(#linear-gradient-4);}.cls-6{fill:#cf4055;}.cls-7{fill:url(#linear-gradient-5);}.cls-8{fill:url(#linear-gradient-6);}.cls-9{fill:#adb3c4;}.cls-10{fill:#42455e;}</style>
    <linearGradient
       id="linear-gradient-0"
       x1="32"
       y1="51"
       x2="32"
       y2="7"
       gradientUnits="userSpaceOnUse">
      <stop
         offset="0"
         stop-color="#474f72"
         id="stop2120" />
      <stop
         offset="1"
         stop-color="#878c9f"
         id="stop2122" />
    </linearGradient>
    <linearGradient
       id="linear-gradient-2-63"
       x1="32"
       y1="51"
       x2="32"
       y2="43"
       gradientUnits="userSpaceOnUse">
      <stop
         offset="0"
         stop-color="#d4d8e1"
         id="stop2125" />
      <stop
         offset="1"
         stop-color="#f3f4f5"
         id="stop2127" />
    </linearGradient>
    <linearGradient
       id="linear-gradient-3-20"
       x1="32"
       y1="63"
       x2="32"
       y2="51"
       gradientUnits="userSpaceOnUse">
      <stop
         offset="0"
         stop-color="#949aaf"
         id="stop2130" />
      <stop
         offset="1"
         stop-color="#c6ccda"
         id="stop2132" />
    </linearGradient>
    <linearGradient
       id="linear-gradient-4-6"
       x1="32"
       y1="37"
       x2="32"
       y2="5"
       gradientUnits="userSpaceOnUse">
      <stop
         offset="0"
         stop-color="#da5466"
         id="stop2135" />
      <stop
         offset="1"
         stop-color="#f4929c"
         id="stop2137" />
    </linearGradient>
    <linearGradient
       id="linear-gradient-5-1"
       x1="13"
       y1="19"
       x2="32"
       y2="19"
       xlink:href="#linear-gradient-2-63" />
    <linearGradient
       id="linear-gradient-6-5"
       x1="32"
       y1="19"
       x2="51"
       y2="19"
       xlink:href="#linear-gradient-2-63" />
    <style
       id="style1344">.cls-1{fill:url(#linear-gradient);}.cls-2{fill:#77cacb;}.cls-3{fill:url(#linear-gradient-2);}.cls-4{fill:url(#linear-gradient-3);}.cls-5{fill:#42455e;}.cls-6{fill:#575f7c;}.cls-7{fill:url(#linear-gradient-4);}.cls-8{fill:url(#linear-gradient-5);}</style>
    <linearGradient
       id="linear-gradient-367"
       x1="32"
       y1="59"
       x2="32"
       y2="5"
       gradientUnits="userSpaceOnUse">
      <stop
         offset="0"
         stop-color="#9dd5df"
         id="stop1346" />
      <stop
         offset="1"
         stop-color="#c3e1f5"
         id="stop1348" />
    </linearGradient>
    <linearGradient
       id="linear-gradient-2-5"
       x1="32"
       y1="59"
       x2="32"
       y2="49"
       gradientUnits="userSpaceOnUse">
      <stop
         offset="0"
         stop-color="#949aaf"
         id="stop1351" />
      <stop
         offset="1"
         stop-color="#c6ccda"
         id="stop1353" />
    </linearGradient>
    <linearGradient
       id="linear-gradient-3-3"
       x1="32"
       y1="40.64"
       x2="32"
       y2="24.86"
       gradientUnits="userSpaceOnUse">
      <stop
         offset="0"
         stop-color="#474f72"
         id="stop1356" />
      <stop
         offset="1"
         stop-color="#878c9f"
         id="stop1358" />
    </linearGradient>
    <linearGradient
       id="linear-gradient-4-5"
       y1="30"
       y2="12"
       xlink:href="#linear-gradient-3-3" />
    <linearGradient
       id="linear-gradient-5-62"
       x1="48"
       y1="42"
       x2="48"
       y2="37.91"
       gradientUnits="userSpaceOnUse">
      <stop
         offset="0"
         stop-color="#e9a254"
         id="stop1362" />
      <stop
         offset="1"
         stop-color="#f4bb79"
         id="stop1364" />
    </linearGradient>
    <style
       id="style1430">.cls-1{fill:url(#linear-gradient);}.cls-2{fill:#c7cdd8;}.cls-3{fill:url(#linear-gradient-2);}.cls-4{fill:#5b8dc9;}.cls-5{fill:url(#linear-gradient-3);}.cls-6{fill:#77cacb;}.cls-7{fill:url(#linear-gradient-4);}.cls-8{fill:#dd8b37;}.cls-9{fill:url(#linear-gradient-5);}.cls-10{fill:url(#linear-gradient-6);}.cls-11{fill:url(#linear-gradient-7);}.cls-12{fill:#cba07a;}.cls-13{fill:#d861b0;}.cls-14{fill:#8288a1;}</style>
    <linearGradient
       id="linear-gradient-91"
       x1="11"
       y1="14"
       x2="11"
       y2="6"
       gradientTransform="translate(22 20) rotate(-180)"
       gradientUnits="userSpaceOnUse">
      <stop
         offset="0"
         stop-color="#d4d8e1"
         id="stop1432" />
      <stop
         offset="1"
         stop-color="#f3f4f5"
         id="stop1434" />
    </linearGradient>
    <linearGradient
       id="linear-gradient-2-27"
       x1="8.5"
       y1="14"
       x2="8.5"
       y2="6"
       gradientUnits="userSpaceOnUse">
      <stop
         offset="0"
         stop-color="#7aa8d7"
         id="stop1437" />
      <stop
         offset="1"
         stop-color="#c3d2e7"
         id="stop1439" />
    </linearGradient>
    <linearGradient
       id="linear-gradient-3-09"
       x1="32"
       y1="63"
       x2="32"
       y2="21"
       gradientUnits="userSpaceOnUse">
      <stop
         offset="0"
         stop-color="#9dd5df"
         id="stop1442" />
      <stop
         offset="1"
         stop-color="#c3e1f5"
         id="stop1444" />
    </linearGradient>
    <linearGradient
       id="linear-gradient-4-36"
       x1="25.5"
       y1="50"
       x2="25.5"
       y2="0.94"
       gradientUnits="userSpaceOnUse">
      <stop
         offset="0"
         stop-color="#e9a254"
         id="stop1447" />
      <stop
         offset="1"
         stop-color="#f4bb79"
         id="stop1449" />
    </linearGradient>
    <linearGradient
       id="linear-gradient-5-0"
       x1="5.29"
       y1="50"
       x2="5.29"
       y2="41.43"
       gradientUnits="userSpaceOnUse">
      <stop
         offset="0"
         stop-color="#d1a788"
         id="stop1452" />
      <stop
         offset="1"
         stop-color="#f2d3b8"
         id="stop1454" />
    </linearGradient>
    <linearGradient
       id="linear-gradient-6-6"
       x1="44.75"
       y1="11.5"
       x2="44.75"
       y2="1"
       gradientUnits="userSpaceOnUse">
      <stop
         offset="0"
         stop-color="#d96bb0"
         id="stop1457" />
      <stop
         offset="1"
         stop-color="#e49fc6"
         id="stop1459" />
    </linearGradient>
    <linearGradient
       id="linear-gradient-7-26"
       x1="40.5"
       y1="14.5"
       x2="40.5"
       y2="6.5"
       gradientTransform="translate(19.29 -25.56) rotate(45)"
       gradientUnits="userSpaceOnUse">
      <stop
         offset="0"
         stop-color="#949aaf"
         id="stop1462" />
      <stop
         offset="1"
         stop-color="#c6ccda"
         id="stop1464" />
    </linearGradient>
    <style
       id="style1553">.cls-1{fill:url(#linear-gradient);}.cls-2{fill:#4da67f;}.cls-3{fill:url(#linear-gradient-2);}.cls-4{fill:#5b8dc9;}.cls-5{fill:url(#linear-gradient-3);}.cls-6{fill:url(#linear-gradient-4);}.cls-7{fill:url(#linear-gradient-5);}.cls-8{fill:url(#linear-gradient-6);}.cls-9{fill:url(#linear-gradient-7);}.cls-10{fill:url(#linear-gradient-8);}.cls-11{fill:#eab39b;}.cls-12{fill:url(#linear-gradient-13);}.cls-13{fill:#c7cdd8;}</style>
    <linearGradient
       id="linear-gradient-18"
       x1="38"
       y1="35"
       x2="38"
       y2="1"
       gradientUnits="userSpaceOnUse">
      <stop
         offset="0"
         stop-color="#6ab891"
         id="stop1555" />
      <stop
         offset="1"
         stop-color="#85cba9"
         id="stop1557" />
    </linearGradient>
    <linearGradient
       id="linear-gradient-2-79"
       x1="20.5"
       y1="63"
       x2="20.5"
       y2="19.01"
       gradientUnits="userSpaceOnUse">
      <stop
         offset="0"
         stop-color="#7aa8d7"
         id="stop1560" />
      <stop
         offset="1"
         stop-color="#c3d2e7"
         id="stop1562" />
    </linearGradient>
    <linearGradient
       id="linear-gradient-3-202"
       x1="13.5"
       y1="26"
       x2="13.5"
       y2="13"
       gradientUnits="userSpaceOnUse">
      <stop
         offset="0"
         stop-color="#f2c4b0"
         id="stop1565" />
      <stop
         offset="1"
         stop-color="#ffe3d7"
         id="stop1567" />
    </linearGradient>
    <linearGradient
       id="linear-gradient-4-37"
       x1="31"
       y1="53"
       x2="31"
       y2="41"
       xlink:href="#linear-gradient-3-202" />
    <linearGradient
       id="linear-gradient-5-5"
       x1="31"
       y1="63"
       x2="31"
       y2="53"
       gradientUnits="userSpaceOnUse">
      <stop
         offset="0"
         stop-color="#d4d8e1"
         id="stop1571" />
      <stop
         offset="1"
         stop-color="#f3f4f5"
         id="stop1573" />
    </linearGradient>
    <linearGradient
       id="linear-gradient-6-9"
       x1="51"
       y1="53"
       x2="51"
       y2="41"
       xlink:href="#linear-gradient-3-202" />
    <linearGradient
       id="linear-gradient-7-22"
       x1="51"
       x2="51"
       y2="53"
       xlink:href="#linear-gradient-5-5" />
    <linearGradient
       id="linear-gradient-8-8"
       x1="11"
       y1="53"
       x2="11"
       y2="41"
       xlink:href="#linear-gradient-3-202" />
    <linearGradient
       id="linear-gradient-13-9"
       x1="11"
       x2="11"
       y2="53"
       xlink:href="#linear-gradient-5-5" />
    <style
       id="style1695">.cls-1{fill:#c7cdd8;}.cls-2{fill:url(#linear-gradient);}.cls-3{fill:#dfe3ea;}</style>
    <style
       id="style1761">.cls-1{fill:url(#linear-gradient);}.cls-2{fill:#eab39b;}.cls-3{fill:url(#linear-gradient-2);}.cls-4{fill:url(#linear-gradient-3);}.cls-5{fill:url(#linear-gradient-4);}.cls-6{fill:url(#linear-gradient-5);}.cls-7{fill:#f6b756;}.cls-8{fill:url(#linear-gradient-6);}.cls-9{fill:#cba07a;}.cls-10{fill:#e8c4a6;}.cls-11{fill:#c7cdd8;}.cls-12{fill:#dfe3ea;}</style>
    <linearGradient
       id="linear-gradient-129"
       x1="19.5"
       y1="26"
       x2="19.5"
       y2="13"
       gradientUnits="userSpaceOnUse">
      <stop
         offset="0"
         stop-color="#f2c4b0"
         id="stop1763" />
      <stop
         offset="1"
         stop-color="#ffe3d7"
         id="stop1765" />
    </linearGradient>
    <linearGradient
       id="linear-gradient-2-3"
       x1="15"
       y1="62.98"
       x2="15"
       y2="52"
       gradientUnits="userSpaceOnUse">
      <stop
         offset="0"
         stop-color="#d4d8e1"
         id="stop1768" />
      <stop
         offset="1"
         stop-color="#f3f4f5"
         id="stop1770" />
    </linearGradient>
    <linearGradient
       id="linear-gradient-3-1"
       x1="24"
       y1="62.98"
       x2="24"
       xlink:href="#linear-gradient-2-3" />
    <linearGradient
       id="linear-gradient-4-94"
       x1="20.19"
       y1="37"
       x2="20.19"
       y2="13"
       xlink:href="#linear-gradient-2-3" />
    <linearGradient
       id="linear-gradient-5-78"
       x1="51"
       y1="25"
       x2="51"
       y2="1"
       gradientUnits="userSpaceOnUse">
      <stop
         offset="0"
         stop-color="#fbcc88"
         id="stop1775" />
      <stop
         offset="1"
         stop-color="#ffe5c3"
         id="stop1777" />
    </linearGradient>
    <linearGradient
       id="linear-gradient-6-4"
       x1="20"
       y1="52"
       x2="20"
       y2="37"
       gradientTransform="translate(40 89) rotate(-180)"
       gradientUnits="userSpaceOnUse">
      <stop
         offset="0"
         stop-color="#d1a788"
         id="stop1780" />
      <stop
         offset="1"
         stop-color="#f2d3b8"
         id="stop1782" />
    </linearGradient>
    <style
       id="style1861">.cls-1{fill:url(#linear-gradient);}.cls-2{fill:url(#linear-gradient-2);}.cls-3{fill:#42455e;}.cls-4{fill:#c7cdd8;}.cls-5{fill:#575f7c;}.cls-6{fill:url(#linear-gradient-3);}.cls-7{fill:url(#linear-gradient-4);}.cls-8{fill:url(#linear-gradient-5);}.cls-9{fill:#5b8dc9;}.cls-10{fill:#dfe3ea;}</style>
    <linearGradient
       id="linear-gradient-50"
       x1="32"
       y1="51"
       x2="32"
       y2="7"
       gradientUnits="userSpaceOnUse">
      <stop
         offset="0"
         stop-color="#d4d8e1"
         id="stop1863" />
      <stop
         offset="1"
         stop-color="#f3f4f5"
         id="stop1865" />
    </linearGradient>
    <linearGradient
       id="linear-gradient-2-36"
       x1="32"
       y1="42.64"
       x2="32"
       y2="26.86"
       gradientUnits="userSpaceOnUse">
      <stop
         offset="0"
         stop-color="#474f72"
         id="stop1868" />
      <stop
         offset="1"
         stop-color="#878c9f"
         id="stop1870" />
    </linearGradient>
    <linearGradient
       id="linear-gradient-3-10"
       y1="32"
       y2="14"
       xlink:href="#linear-gradient-2-36" />
    <linearGradient
       id="linear-gradient-4-63"
       x1="48"
       y1="44"
       x2="48"
       y2="39.91"
       gradientUnits="userSpaceOnUse">
      <stop
         offset="0"
         stop-color="#e9a254"
         id="stop1874" />
      <stop
         offset="1"
         stop-color="#f4bb79"
         id="stop1876" />
    </linearGradient>
    <linearGradient
       id="linear-gradient-5-2"
       x1="32"
       y1="7"
       x2="32"
       y2="1"
       gradientUnits="userSpaceOnUse">
      <stop
         offset="0"
         stop-color="#7aa8d7"
         id="stop1879" />
      <stop
         offset="1"
         stop-color="#c3d2e7"
         id="stop1881" />
    </linearGradient>
    <style
       id="style1944">.cls-1{fill:url(#linear-gradient);}.cls-2{fill:#42455e;}.cls-3{fill:url(#linear-gradient-2);}.cls-4{fill:url(#linear-gradient-3);}.cls-5{fill:#c7cdd8;}.cls-6{fill:#dfe3ea;}.cls-7{fill:#e8677d;}</style>
    <style
       id="style2035">.cls-1{fill:url(#linear-gradient);}.cls-2{fill:#cf4055;}.cls-3{fill:url(#linear-gradient-2);}.cls-4{fill:url(#linear-gradient-3);}.cls-5{fill:#c7cdd8;}</style>
    <linearGradient
       id="linear-gradient-76"
       x1="32"
       y1="55"
       x2="32"
       y2="13"
       gradientUnits="userSpaceOnUse">
      <stop
         offset="0"
         stop-color="#da5466"
         id="stop2037" />
      <stop
         offset="1"
         stop-color="#f4929c"
         id="stop2039-5" />
    </linearGradient>
    <linearGradient
       id="linear-gradient-2-69"
       x1="5"
       y1="32"
       x2="32"
       y2="32"
       gradientUnits="userSpaceOnUse">
      <stop
         offset="0"
         stop-color="#d4d8e1"
         id="stop2042" />
      <stop
         offset="1"
         stop-color="#f3f4f5"
         id="stop2044-3" />
    </linearGradient>
    <linearGradient
       id="linear-gradient-3-74"
       x1="32"
       x2="59"
       xlink:href="#linear-gradient-2-69" />
  </defs>
  <g
     inkscape:label="Layer 1"
     inkscape:groupmode="layer"
     id="layer1"
     transform="translate(-133.184,-864.03958)">
    <path
       id="rect35401"
       style="opacity:1;fill:#ffffff;fill-opacity:0.99591;stroke-width:4.04395;stroke-linecap:round;paint-order:stroke fill markers;stop-color:#000000"
       d="M 133.184,864.03958 H 410.81519 V 1141.671 H 133.184 Z" />
    <g
       id="g3144">
      <rect
         style="opacity:0.05;fill:#000000;fill-opacity:1;stroke:none;stroke-width:1.18447;stroke-linecap:round;paint-order:stroke fill markers;stop-color:#000000"
         id="rect34060"
         width="277.6312"
         height="277.63141"
         x="133.18399"
         y="864.03961" />
    </g>
    <path
       id="rect5101"
       style="fill:#ff2929;fill-opacity:1;stroke-linecap:round;paint-order:stroke fill markers;stop-color:#000000"
       d="m 101.13433,873.63288 h 34.91571 c 3.84564,0 6.94159,3.0959 6.94159,6.9416 v 34.9157 c 0,3.8456 -3.09595,6.9416 -6.94159,6.9416 h -34.91571 c -3.845641,0 -6.941581,-3.096 -6.941581,-6.9416 v -34.9157 c 0,-3.8457 3.09594,-6.9416 6.941581,-6.9416 z" />
    <path
       id="path5373"
       style="fill:#37c871;fill-opacity:1;stroke-linecap:round;paint-order:stroke fill markers;stop-color:#000000"
       d="m 170.4105,873.63288 h 34.91572 c 3.84564,0 6.94159,3.0959 6.94159,6.9416 v 34.9157 c 0,3.8456 -3.09595,6.9416 -6.94159,6.9416 H 170.4105 c -3.84564,0 -6.94157,-3.096 -6.94157,-6.9416 v -34.9157 c 0,-3.8457 3.09594,-6.9416 6.94157,-6.9416 z" />
    <path
       id="path5375"
       style="fill:#ff2929;fill-opacity:1;stroke-linecap:round;paint-order:stroke fill markers;stop-color:#000000"
       d="m 238.57121,873.63288 h 34.91573 c 3.84564,0 6.94159,3.0959 6.94159,6.9416 v 34.9157 c 0,3.8456 -3.09595,6.9416 -6.94159,6.9416 h -34.91572 c -3.84564,0 -6.94158,-3.096 -6.94158,-6.9416 v -34.9157 c 0,-3.8457 3.09594,-6.9416 6.94157,-6.9416 z" />
    <path
       id="path5377"
       style="fill:#37c871;fill-opacity:1;stroke-linecap:round;paint-order:stroke fill markers;stop-color:#000000"
       d="m 306.73192,873.63288 h 34.91572 c 3.84564,0 6.94159,3.0959 6.94159,6.9416 v 34.9157 c 0,3.8456 -3.09595,6.9416 -6.94159,6.9416 h -34.91572 c -3.84565,0 -6.94158,-3.096 -6.94158,-6.9416 v -34.9157 c 0,-3.8457 3.09593,-6.9416 6.94158,-6.9416 z" />
    <path
       id="path5379"
       style="fill:#ff2929;fill-opacity:1;stroke-linecap:round;paint-order:stroke fill markers;stop-color:#000000"
       d="m 374.89262,873.63288 h 34.91573 c 3.84564,0 6.94159,3.0959 6.94159,6.9416 v 34.9157 c 0,3.8456 -3.09595,6.9416 -6.94159,6.9416 h -34.91573 c -3.84564,0 -6.94157,-3.096 -6.94157,-6.9416 v -34.9157 c 0,-3.8457 3.09593,-6.9416 6.94157,-6.9416 z" />
    <path
       id="path5381"
       style="fill:#00ccff;fill-opacity:1;stroke-linecap:round;paint-order:stroke fill markers;stop-color:#000000"
       d="m 134.19083,943.51488 h 34.91572 c 3.84564,0 6.94159,3.0959 6.94159,6.9416 v 34.9157 c 0,3.8456 -3.09595,6.9416 -6.94159,6.9416 h -34.91572 c -3.84564,0 -6.94157,-3.096 -6.94157,-6.9416 v -34.9157 c 0,-3.8457 3.09594,-6.9416 6.94157,-6.9416 z" />
    <path
       id="path5383"
       style="fill:#ff297e;fill-opacity:1;stroke-linecap:round;paint-order:stroke fill markers;stop-color:#000000"
       d="m 202.35154,943.51488 h 34.91572 c 3.84564,0 6.94159,3.0959 6.94159,6.9416 v 34.9157 c 0,3.8456 -3.09595,6.9416 -6.94159,6.9416 h -34.91572 c -3.84564,0 -6.94158,-3.096 -6.94158,-6.9416 v -34.9157 c 0,-3.8457 3.09595,-6.9416 6.94158,-6.9416 z" />
    <path
       id="path5385"
       style="fill:#00ccff;fill-opacity:1;stroke-linecap:round;paint-order:stroke fill markers;stop-color:#000000"
       d="m 270.51225,943.51488 h 34.91572 c 3.84564,0 6.9416,3.0959 6.9416,6.9416 v 34.9157 c 0,3.8456 -3.09596,6.9416 -6.9416,6.9416 h -34.91572 c -3.84564,0 -6.94158,-3.096 -6.94158,-6.9416 v -34.9157 c 0,-3.8457 3.09594,-6.9416 6.94158,-6.9416 z" />
    <path
       id="path5387"
       style="fill:#ff297e;fill-opacity:1;stroke-linecap:round;paint-order:stroke fill markers;stop-color:#000000"
       d="m 338.67295,943.51488 h 34.91573 c 3.84564,0 6.94159,3.0959 6.94159,6.9416 v 34.9157 c 0,3.8456 -3.09595,6.9416 -6.94159,6.9416 h -34.91573 c -3.84564,0 -6.94157,-3.096 -6.94157,-6.9416 v -34.9157 c 0,-3.8457 3.09593,-6.9416 6.94157,-6.9416 z" />
    <path
       id="path5389"
       style="fill:#00ccff;fill-opacity:1;stroke-linecap:round;paint-order:stroke fill markers;stop-color:#000000"
       d="m 406.83366,943.51488 h 34.91573 c 3.84564,0 6.94159,3.0959 6.94159,6.9416 v 34.9157 c 0,3.8456 -3.09595,6.9416 -6.94159,6.9416 h -34.91573 c -3.84564,0 -6.94158,-3.096 -6.94158,-6.9416 v -34.9157 c 0,-3.8457 3.09594,-6.9416 6.94158,-6.9416 z" />
    <path
       id="path5391"
       style="fill:#3737c8;fill-opacity:1;stroke-linecap:round;paint-order:stroke fill markers;stop-color:#000000"
       d="m 102.2498,1013.3968 h 34.91571 c 3.84564,0 6.94159,3.0959 6.94159,6.9416 v 34.9157 c 0,3.8456 -3.09595,6.9416 -6.94159,6.9416 H 102.2498 c -3.845645,0 -6.941585,-3.096 -6.941585,-6.9416 v -34.9157 c 0,-3.8457 3.09594,-6.9416 6.941585,-6.9416 z" />
    <path
       id="path5393"
       style="fill:#ff2929;fill-opacity:1;stroke-linecap:round;paint-order:stroke fill markers;stop-color:#000000"
       d="m 170.4105,1013.3968 h 34.91572 c 3.84564,0 6.94159,3.0959 6.94159,6.9416 v 34.9157 c 0,3.8456 -3.09595,6.9416 -6.94159,6.9416 H 170.4105 c -3.84564,0 -6.94157,-3.096 -6.94157,-6.9416 v -34.9157 c 0,-3.8457 3.09594,-6.9416 6.94157,-6.9416 z" />
    <path
       id="path5395"
       style="fill:#3737c8;fill-opacity:1;stroke-linecap:round;paint-order:stroke fill markers;stop-color:#000000"
       d="m 238.57121,1013.3968 h 34.91573 c 3.84564,0 6.94159,3.0959 6.94159,6.9416 v 34.9157 c 0,3.8456 -3.09595,6.9416 -6.94159,6.9416 h -34.91572 c -3.84564,0 -6.94158,-3.096 -6.94158,-6.9416 v -34.9157 c 0,-3.8457 3.09594,-6.9416 6.94157,-6.9416 z" />
    <path
       id="path5397"
       style="fill:#ff2929;fill-opacity:1;stroke-linecap:round;paint-order:stroke fill markers;stop-color:#000000"
       d="m 306.73192,1013.3968 h 34.91572 c 3.84564,0 6.94159,3.0959 6.94159,6.9416 v 34.9157 c 0,3.8456 -3.09595,6.9416 -6.94159,6.9416 h -34.91572 c -3.84565,0 -6.94158,-3.096 -6.94158,-6.9416 v -34.9157 c 0,-3.8457 3.09593,-6.9416 6.94158,-6.9416 z" />
    <path
       id="path5399"
       style="fill:#3737c8;fill-opacity:1;stroke-linecap:round;paint-order:stroke fill markers;stop-color:#000000"
       d="m 374.89262,1013.3968 h 34.91573 c 3.84564,0 6.94159,3.0959 6.94159,6.9416 v 34.9157 c 0,3.8456 -3.09595,6.9416 -6.94159,6.9416 h -34.91573 c -3.84564,0 -6.94157,-3.096 -6.94157,-6.9416 v -34.9157 c 0,-3.8457 3.09593,-6.9416 6.94157,-6.9416 z" />
    <path
       id="path5422"
       style="fill:#37c871;fill-opacity:1;stroke-linecap:round;paint-order:stroke fill markers;stop-color:#000000"
       d="m 134.19083,1083.2788 h 34.91572 c 3.84564,0 6.94159,3.0959 6.94159,6.9416 v 34.9157 c 0,3.8456 -3.09595,6.9416 -6.94159,6.9416 h -34.91572 c -3.84564,0 -6.94157,-3.096 -6.94157,-6.9416 v -34.9157 c 0,-3.8457 3.09594,-6.9416 6.94157,-6.9416 z" />
    <path
       id="path5424"
       style="fill:#00ccff;fill-opacity:1;stroke-linecap:round;paint-order:stroke fill markers;stop-color:#000000"
       d="m 202.35154,1083.2788 h 34.91572 c 3.84564,0 6.94159,3.0959 6.94159,6.9416 v 34.9157 c 0,3.8456 -3.09595,6.9416 -6.94159,6.9416 h -34.91572 c -3.84564,0 -6.94158,-3.096 -6.94158,-6.9416 v -34.9157 c 0,-3.8457 3.09595,-6.9416 6.94158,-6.9416 z" />
    <path
       id="path5426"
       style="fill:#37c871;fill-opacity:1;stroke-linecap:round;paint-order:stroke fill markers;stop-color:#000000"
       d="m 270.51225,1083.2788 h 34.91572 c 3.84564,0 6.9416,3.0959 6.9416,6.9416 v 34.9157 c 0,3.8456 -3.09596,6.9416 -6.9416,6.9416 h -34.91572 c -3.84564,0 -6.94158,-3.096 -6.94158,-6.9416 v -34.9157 c 0,-3.8457 3.09594,-6.9416 6.94158,-6.9416 z" />
    <path
       id="path5428"
       style="fill:#00ccff;fill-opacity:1;stroke-linecap:round;paint-order:stroke fill markers;stop-color:#000000"
       d="m 338.67295,1083.2788 h 34.91573 c 3.84564,0 6.94159,3.0959 6.94159,6.9416 v 34.9157 c 0,3.8456 -3.09595,6.9416 -6.94159,6.9416 h -34.91573 c -3.84564,0 -6.94157,-3.096 -6.94157,-6.9416 v -34.9157 c 0,-3.8457 3.09593,-6.9416 6.94157,-6.9416 z" />
    <path
       id="path5430"
       style="fill:#37c871;fill-opacity:1;stroke-linecap:round;paint-order:stroke fill markers;stop-color:#000000"
       d="m 406.83366,1083.2788 h 34.91573 c 3.84564,0 6.94159,3.0959 6.94159,6.9416 v 34.9157 c 0,3.8456 -3.09595,6.9416 -6.94159,6.9416 h -34.91573 c -3.84564,0 -6.94158,-3.096 -6.94158,-6.9416 v -34.9157 c 0,-3.8457 3.09594,-6.9416 6.94158,-6.9416 z" />
    <text
       xml:space="preserve"
       style="font-size:40px;line-height:1.25;font-family:Montserrat;-inkscape-font-specification:Montserrat"
       x="157.42043"
       y="822.27533"
       id="text1530"><tspan
         sodipodi:role="line"
         id="tspan1528" /></text>
    <g
       id="Bag"
       transform="matrix(0.52259155,0,0,0.52259155,239.30616,881.30823)"
       style="fill:#ffffff">
      <path
         d="M 32,21.41 28.41,25 32,28.59 35.59,25 Z m 0,0 L 28.41,25 32,28.59 35.59,25 Z M 53.82,26 A 21.84,21.84 0 0 0 10.18,26 L 9,56 a 7,7 0 0 0 7,7 h 32 a 7,7 0 0 0 7,-7 z M 48,55 a 5,5 0 0 1 -5,5 H 21 A 5,5 0 0 1 16,55 V 45 a 5,5 0 0 1 5,-5 h 22 a 5,5 0 0 1 5,5 z m -21.71,-30.71 5,-5 a 1,1 0 0 1 1.42,0 l 5,5 a 1,1 0 0 1 0,1.42 C 32.3,31.12 32.58,31 32,31 c -0.58,0 -0.36,0.06 -5.71,-5.29 a 1,1 0 0 1 0,-1.42 z M 49.18,35 48.83,26.14 a 16.84,16.84 0 0 0 -33.66,0 L 14.82,35 a 1.0007997,1.0007997 0 0 1 -2,-0.08 l 0.35,-8.86 a 18.84,18.84 0 0 1 37.66,0 L 51.18,35 a 1,1 0 0 1 -2,0 z M 43,42 H 21 a 3,3 0 0 0 -3,3 v 10 a 3,3 0 0 0 3,3 h 22 a 3,3 0 0 0 3,-3 V 45 A 3,3 0 0 0 43,42 Z M 35.59,25 32,21.41 28.41,25 32,28.59 Z"
         id="path2229"
         style="fill:#ffffff" />
      <path
         d="m 37.88,7.81 c -1.37,0 -0.58,-1.6 -2.34,-3.34 A 5,5 0 0 0 27.1,7 1,1 0 0 1 25.93,7.79 C 24.15,7.45 25.75,4.34 27.06,3.05 a 7,7 0 0 1 9.89,0 c 1.5,1.48 2.93,4.76 0.93,4.76 z"
         id="path2231"
         style="fill:#ffffff" />
      <path
         d="M 53,5 V 15.52 A 23.69,23.69 0 0 0 43,5.67 V 5 a 2,2 0 0 1 2,-2 h 6 a 2,2 0 0 1 2,2 z"
         id="path2233"
         style="fill:#ffffff" />
      <path
         d="M 21,5 V 5.67 A 23.69,23.69 0 0 0 11,15.52 V 5 a 2,2 0 0 1 2,-2 h 6 a 2,2 0 0 1 2,2 z"
         id="path2235"
         style="fill:#ffffff" />
      <path
         d="m 60,39 v 16 a 4,4 0 0 1 -3.52,4 c 0.77,-2.15 0.57,-1.79 -0.15,-20 z"
         id="path2237"
         style="fill:#ffffff" />
      <path
         d="M 7.51,59 A 4,4 0 0 1 4,55 V 39 H 7.67 C 7,57 6.74,56.79 7.51,59 Z"
         id="path2239"
         style="fill:#ffffff" />
    </g>
    <g
       id="Certificate"
       transform="matrix(0.52259155,0,0,0.52259155,375.62757,1021.0733)"
       style="fill:#ffffff">
      <path
         d="m 32,39 c -5.9,0 -6.88,8.56 -1.23,9.84 a 4.75,4.75 0 0 0 2.43,0 C 38.89,47.54 37.89,39 32,39 Z"
         id="path2257"
         style="fill:#ffffff" />
      <rect
         x="16"
         y="17"
         width="32"
         height="4"
         id="rect2259"
         style="fill:#ffffff" />
      <path
         d="M 1,6 V 54 H 27 V 51 H 9 A 1,1 0 0 1 8,50 3,3 0 0 0 5,47 1,1 0 0 1 4,46 V 14 A 1,1 0 0 1 5,13 3,3 0 0 0 8,10 1,1 0 0 1 9,9 h 46 a 1,1 0 0 1 1,1 3,3 0 0 0 3,3 1,1 0 0 1 1,1 v 32 a 1,1 0 0 1 -1,1 3,3 0 0 0 -3,3 1,1 0 0 1 -1,1 H 37 v 3 H 63 V 6 Z"
         id="path2261"
         style="fill:#ffffff" />
      <path
         d="M 54.1,49 A 5,5 0 0 1 58,45.1 V 14.9 A 5,5 0 0 1 54.1,11 H 9.9 A 5,5 0 0 1 6,14.9 V 45.1 A 5,5 0 0 1 9.9,49 c 19.24,0 17.25,0.07 17.1,-0.12 a 7,7 0 1 1 10,0 C 36.86,49.07 34.93,49 54.1,49 Z M 49,44 h -6 a 1,1 0 0 1 0,-2 h 6 a 1,1 0 0 1 0,2 z M 14,16 a 1,1 0 0 1 1,-1 h 34 a 1,1 0 0 1 1,1 v 6 a 1,1 0 0 1 -1,1 H 15 a 1,1 0 0 1 -1,-1 z m 1,11 h 34 a 1,1 0 0 1 0,2 H 15 a 1,1 0 0 1 0,-2 z m 6,17 h -6 a 1,1 0 0 1 0,-2 h 6 a 1,1 0 0 1 0,2 z M 15,34 a 1,1 0 0 1 0,-2 h 34 a 1,1 0 0 1 0,2 z"
         id="path2263"
         style="fill:#ffffff" />
      <path
         d="M 29,50.32 V 58 l 3,-2 3,2 v -7.68 a 6.93,6.93 0 0 1 -6,0 z"
         id="path2265"
         style="fill:#ffffff" />
    </g>
    <g
       id="g2308"
       transform="matrix(0.52259155,0,0,0.52259155,307.46686,881.3094)"
       style="fill:#ffffff">
      <path
         d="m 44,10.09 v 11 a 1,1 0 0 1 -1,1 c -4.3,0 -5.88,-0.36 -8.52,2 H 46 v -14 z m 0,0 v 11 a 1,1 0 0 1 -1,1 c -4.3,0 -5.88,-0.36 -8.52,2 H 46 v -14 z M 33,9.5 v 13.23 c 3.13,-2.85 5.13,-2.64 9,-2.64 v -14 c -4.68,0 -5.37,-0.2 -9,3.41 z M 21,22.09 a 1,1 0 0 1 -1,-1 v -11 h -2 v 14 h 11.52 c -2.67,-2.39 -4.33,-2 -8.52,-2 z m 0,0 a 1,1 0 0 1 -1,-1 v -11 h -2 v 14 h 11.52 c -2.67,-2.39 -4.33,-2 -8.52,-2 z m 23,-12 v 11 a 1,1 0 0 1 -1,1 c -4.3,0 -5.88,-0.36 -8.52,2 H 46 v -14 z m 0,0 v 11 a 1,1 0 0 1 -1,1 c -4.3,0 -5.88,-0.36 -8.52,2 H 46 v -14 z M 33,9.5 v 13.23 c 3.13,-2.85 5.13,-2.64 9,-2.64 v -14 c -4.68,0 -5.37,-0.2 -9,3.41 z M 22,6.09 v 14 c 3.9,0 5.88,-0.2 9,2.64 V 9.5 C 27.37,5.89 26.68,6.09 22,6.09 Z m -1,16 a 1,1 0 0 1 -1,-1 v -11 h -2 v 14 h 11.52 c -2.67,-2.39 -4.33,-2 -8.52,-2 z m 0,0 a 1,1 0 0 1 -1,-1 v -11 h -2 v 14 h 11.52 c -2.67,-2.39 -4.33,-2 -8.52,-2 z m 1,-16 v 14 c 3.9,0 5.88,-0.2 9,2.64 V 9.5 C 27.37,5.89 26.68,6.09 22,6.09 Z M 33,9.5 v 13.23 c 3.13,-2.85 5.13,-2.64 9,-2.64 v -14 c -4.68,0 -5.37,-0.2 -9,3.41 z m 11,0.59 v 11 a 1,1 0 0 1 -1,1 c -4.3,0 -5.88,-0.36 -8.52,2 H 46 v -14 z m 0,0 v 11 a 1,1 0 0 1 -1,1 c -4.3,0 -5.88,-0.36 -8.52,2 H 46 v -14 z m -2,10 v -14 c -4.68,0 -5.37,-0.2 -9,3.41 v 13.23 c 3.13,-2.85 5.13,-2.64 9,-2.64 z m -20,-14 v 14 c 3.9,0 5.88,-0.2 9,2.64 V 9.5 C 27.37,5.89 26.68,6.09 22,6.09 Z m -1,16 a 1,1 0 0 1 -1,-1 v -11 h -2 v 14 h 11.52 c -2.67,-2.39 -4.33,-2 -8.52,-2 z M 59,1 H 5 C 2.79,1 1,1.79 1,4 v 22 a 4,4 0 0 0 4,4 h 4 l 3,6 3,-6 h 14 l 3,6 3,-6 h 14 l 3,6 3,-6 h 4 a 4,4 0 0 0 4,-4 V 4 C 63,1.79 61.21,1 59,1 Z M 48,25.09 a 1,1 0 0 1 -1,1 H 17 a 1,1 0 0 1 -1,-1 v -16 a 1,1 0 0 1 1,-1 h 3 v -3 a 1,1 0 0 1 1,-1 c 5.57,0 7,-0.33 11,3.59 4,-3.92 5.42,-3.59 11,-3.59 a 1,1 0 0 1 1,1 v 3 h 3 a 1,1 0 0 1 1,1 z m -4,-4 a 1,1 0 0 1 -1,1 c -4.3,0 -5.88,-0.36 -8.52,2 H 46 v -14 h -2 z m -2,-1 v -14 c -4.68,0 -5.37,-0.2 -9,3.41 v 13.23 c 3.13,-2.85 5.13,-2.64 9,-2.64 z m -20,-14 v 14 c 3.9,0 5.88,-0.2 9,2.64 V 9.5 C 27.37,5.89 26.68,6.09 22,6.09 Z m -1,16 a 1,1 0 0 1 -1,-1 v -11 h -2 v 14 h 11.52 c -2.67,-2.39 -4.33,-2 -8.52,-2 z m 0,0 a 1,1 0 0 1 -1,-1 v -11 h -2 v 14 h 11.52 c -2.67,-2.39 -4.33,-2 -8.52,-2 z m 1,-16 v 14 c 3.9,0 5.88,-0.2 9,2.64 V 9.5 C 27.37,5.89 26.68,6.09 22,6.09 Z M 33,9.5 v 13.23 c 3.13,-2.85 5.13,-2.64 9,-2.64 v -14 c -4.68,0 -5.37,-0.2 -9,3.41 z m 11,0.59 v 11 a 1,1 0 0 1 -1,1 c -4.3,0 -5.88,-0.36 -8.52,2 H 46 v -14 z m 0,0 v 11 a 1,1 0 0 1 -1,1 c -4.3,0 -5.88,-0.36 -8.52,2 H 46 v -14 z m -22,-4 v 14 c 3.9,0 5.88,-0.2 9,2.64 V 9.5 C 27.37,5.89 26.68,6.09 22,6.09 Z m -1,16 a 1,1 0 0 1 -1,-1 v -11 h -2 v 14 h 11.52 c -2.67,-2.39 -4.33,-2 -8.52,-2 z m 0,0 a 1,1 0 0 1 -1,-1 v -11 h -2 v 14 h 11.52 c -2.67,-2.39 -4.33,-2 -8.52,-2 z m 1,-16 v 14 c 3.9,0 5.88,-0.2 9,2.64 V 9.5 C 27.37,5.89 26.68,6.09 22,6.09 Z M 33,9.5 v 13.23 c 3.13,-2.85 5.13,-2.64 9,-2.64 v -14 c -4.68,0 -5.37,-0.2 -9,3.41 z m 11,0.59 v 11 a 1,1 0 0 1 -1,1 c -4.3,0 -5.88,-0.36 -8.52,2 H 46 v -14 z m 0,0 v 11 a 1,1 0 0 1 -1,1 c -4.3,0 -5.88,-0.36 -8.52,2 H 46 v -14 z m -23,12 a 1,1 0 0 1 -1,-1 v -11 h -2 v 14 h 11.52 c -2.67,-2.39 -4.33,-2 -8.52,-2 z m 23,-12 v 11 a 1,1 0 0 1 -1,1 c -4.3,0 -5.88,-0.36 -8.52,2 H 46 v -14 z"
         id="path2282"
         style="fill:#ffffff" />
      <path
         d="m 36,48 v -2 a 5,5 0 0 0 -10,0 v 2 a 5,5 0 0 0 10,0 z"
         id="path2284"
         style="fill:#ffffff" />
      <path
         d="M 31,53 A 10,10 0 0 0 21,63 h 4 v -2 a 1,1 0 0 1 2,0 v 2 h 8 v -2 a 1,1 0 0 1 2,0 v 2 h 4 A 10,10 0 0 0 31,53 Z"
         id="path2286"
         style="fill:#ffffff" />
      <path
         d="m 56,48 v -2 a 5,5 0 0 0 -10,0 v 2 a 5,5 0 0 0 10,0 z"
         id="path2288"
         style="fill:#ffffff" />
      <path
         d="M 51,53 A 10,10 0 0 0 41,63 h 4 v -2 a 1,1 0 0 1 2,0 v 2 h 8 v -2 a 1,1 0 0 1 2,0 v 2 h 4 A 10,10 0 0 0 51,53 Z"
         id="path2290"
         style="fill:#ffffff" />
      <path
         d="M 16,48 V 46 A 5,5 0 0 0 6,46 v 2 a 5,5 0 0 0 10,0 z"
         id="path2292"
         style="fill:#ffffff" />
      <path
         d="M 11,53 A 10,10 0 0 0 1,63 h 4 v -2 a 1,1 0 0 1 2,0 v 2 h 8 v -2 a 1,1 0 0 1 2,0 v 2 h 4 A 10,10 0 0 0 11,53 Z"
         id="path2294"
         style="fill:#ffffff" />
    </g>
    <g
       id="Graduation_Cap"
       data-name="Graduation Cap"
       transform="matrix(0.52259155,0,0,0.52259155,339.4079,1090.9553)"
       style="fill:#ffffff">
      <path
         d="M 31.23,38.85 14,31.62 V 44 c 0,3.31 8.06,9 18,9 9.94,0 18,-5.69 18,-9 V 31.62 C 31.49,39.38 32.32,39.3 31.23,38.85 Z"
         id="path2312"
         style="fill:#ffffff" />
      <path
         d="M 56,47.23 V 26.94 L 63,24 32,11 1,24 32,37 51.94,28.64 31.82,25 a 1.0160709,1.0160709 0 0 1 0.36,-2 L 54,27 v 20.23 c -1.49,0.7 -1.36,1.9 -2,5.77 h 6 c -0.63,-3.77 -0.5,-5.06 -2,-5.77 z"
         id="path2314"
         style="fill:#ffffff" />
    </g>
    <g
       id="Language"
       transform="matrix(0.52259155,0,0,0.52259155,240.87393,1021.0733)"
       style="fill:#ffffff">
      <path
         d="m 9,60 h 44 v 3 H 9 a 4,4 0 0 1 0,-8 h 44 v 3 H 9 a 1,1 0 0 0 0,2 z"
         id="path2328"
         style="fill:#ffffff" />
      <path
         d="m 9,1 h 1 V 53 C 8.31,53 6.75,53 5,54.54 V 5 A 4,4 0 0 1 9,1 Z"
         id="path2330"
         style="fill:#ffffff" />
      <path
         d="M 39,21.69 37.68,25 h 2.64 z m 0,0 -1.32,3.31 h 2.64 z m 0,0 -1.32,3.31 h 2.64 z m 0,0 -1.32,3.31 h 2.64 z M 17,9 V 33 H 47 V 9 Z m 14,7 h -6.87 a 10.11,10.11 0 0 0 1.87,3.87 10.76,10.76 0 0 0 1.32,-2.26 1,1 0 0 1 1.84,0.78 13.32,13.32 0 0 1 -1.81,3 15.69,15.69 0 0 0 2.22,1.78 1,1 0 0 1 -1.1,1.66 c -3.82,-2.55 -1.12,-2.52 -4.95,0 A 1,1 0 0 1 22.42,23.17 15.46,15.46 0 0 0 24.65,21.38 12.05,12.05 0 0 1 22.1,16 H 21 a 1,1 0 0 1 0,-2 h 4 v -1 a 1,1 0 0 1 2,0 v 1 h 4 a 1,1 0 0 1 0,2 z M 42.07,29.37 C 41,26.72 41.18,27 41,27 c -3.76,0 -4,0 -4.12,0 l -1,2.38 a 1.0008996,1.0008996 0 0 1 -1.86,-0.74 l 4,-10 a 1,1 0 0 1 1.86,0 l 4,10 a 1,1 0 0 1 -1.81,0.73 z M 37.68,25 h 2.64 L 39,21.69 Z M 39,21.69 37.68,25 h 2.64 z m 0,0 -1.32,3.31 h 2.64 z m 0,0 -1.32,3.31 h 2.64 z"
         id="path2332"
         style="fill:#ffffff" />
      <path
         d="M 12,1 V 53 H 53 V 1 Z m 37,33 a 1,1 0 0 1 -1,1 H 16 A 1,1 0 0 1 15,34 V 8 a 1,1 0 0 1 1,-1 h 32 a 1,1 0 0 1 1,1 z"
         id="path2334"
         style="fill:#ffffff" />
      <path
         d="m 12,55 a 1,1 0 0 1 -2,0 z"
         id="path2336"
         style="fill:#ffffff" />
    </g>
    <g
       id="Library"
       transform="matrix(0.52259155,0,0,0.52259155,203.0869,951.1911)"
       style="fill:#ffffff">
      <rect
         x="21"
         y="7"
         width="2"
         height="50"
         id="rect2353"
         style="fill:#ffffff" />
      <path
         d="M 16,1 V 63 H 28 V 1 Z m 9,57 a 1,1 0 0 1 -1,1 H 20 A 1,1 0 0 1 19,58 V 6 a 1,1 0 0 1 1,-1 h 4 a 1,1 0 0 1 1,1 z"
         id="path2355"
         style="fill:#ffffff" />
      <path
         d="M 10,18.83 V 55.17 A 3,3 0 0 0 8.17,57 H 5.83 A 3,3 0 0 0 4,55.17 V 18.83 A 3,3 0 0 0 5.83,17 H 8.17 A 3,3 0 0 0 10,18.83 Z"
         id="path2357"
         style="fill:#ffffff" />
      <path
         d="M 0,11 V 63 H 14 V 11 Z m 12,45 a 1,1 0 0 1 -1,1 1,1 0 0 0 -1,1 1,1 0 0 1 -1,1 H 5 A 1,1 0 0 1 4,58 1,1 0 0 0 3,57 1,1 0 0 1 2,56 V 18 a 1,1 0 0 1 1,-1 1,1 0 0 0 1,-1 1,1 0 0 1 1,-1 h 4 a 1,1 0 0 1 1,1 1,1 0 0 0 1,1 1,1 0 0 1 1,1 z"
         id="path2359"
         style="fill:#ffffff" />
      <rect
         x="30"
         y="15"
         width="6"
         height="33"
         id="rect2361"
         style="fill:#ffffff" />
      <rect
         x="30"
         y="50"
         width="6"
         height="2"
         id="rect2363"
         style="fill:#ffffff" />
      <rect
         x="30"
         y="54"
         width="6"
         height="2"
         id="rect2365"
         style="fill:#ffffff" />
      <rect
         x="30"
         y="58"
         width="6"
         height="5"
         id="rect2367"
         style="fill:#ffffff" />
      <rect
         x="46.93"
         y="8.1099997"
         width="8"
         height="4.8499999"
         transform="rotate(-10,50.962386,10.562928)"
         id="rect2369"
         style="fill:#ffffff" />
      <polygon
         points="47.76,15.59 55.64,14.2 56.04,16.45 48.16,17.84 "
         id="polygon2371"
         style="fill:#ffffff" />
      <polygon
         points="48.51,19.81 56.38,18.42 62.07,50.64 54.19,52.03 "
         id="polygon2373"
         style="fill:#ffffff" />
      <polygon
         points="54.53,54 62.41,52.61 62.81,54.86 54.93,56.25 "
         id="polygon2375"
         style="fill:#ffffff" />
      <rect
         x="55.639999"
         y="57.490002"
         width="8"
         height="4.8499999"
         transform="rotate(-10,59.658345,59.927748)"
         id="rect2377"
         style="fill:#ffffff" />
      <rect
         x="38"
         y="18"
         width="8"
         height="3"
         id="rect2379"
         style="fill:#ffffff" />
      <path
         d="m 38,23 v 35 h 8 V 23 Z m 5,31 a 1,1 0 0 1 -2,0 V 26 a 1,1 0 0 1 2,0 z"
         id="path2381"
         style="fill:#ffffff" />
      <rect
         x="38"
         y="60"
         width="8"
         height="3"
         id="rect2383"
         style="fill:#ffffff" />
    </g>
    <g
       id="Notebook"
       transform="matrix(0.52259155,0,0,0.52259155,375.62757,881.3094)"
       style="fill:#ffffff">
      <rect
         x="16"
         y="9"
         width="28"
         height="16"
         id="rect2411"
         style="fill:#ffffff" />
      <path
         d="M 3,3 V 6 H 5 A 1,1 0 0 1 5,8 H 2 a 1,1 0 0 0 0,2 h 1 v 2 h 2 a 1,1 0 0 1 0,2 H 2 a 1,1 0 0 0 0,2 h 1 v 2 h 2 a 1,1 0 0 1 0,2 H 2 a 1,1 0 0 0 0,2 h 1 v 2 h 2 a 1,1 0 0 1 0,2 H 2 a 1,1 0 0 0 0,2 h 1 v 2 h 2 a 1,1 0 0 1 0,2 H 2 a 1,1 0 0 0 0,2 h 1 v 2 h 2 a 1,1 0 0 1 0,2 H 2 a 1,1 0 0 0 0,2 h 1 v 2 h 2 a 1,1 0 0 1 0,2 H 2 a 1,1 0 0 0 0,2 h 1 v 2 h 2 a 1,1 0 0 1 0,2 H 2 a 1,1 0 0 0 0,2 h 1 v 2 h 2 a 1,1 0 0 1 0,2 H 2 a 1,1 0 0 0 0,2 h 1 v 3 a 2,2 0 0 0 2,2 H 8 V 1 H 5 A 2,2 0 0 0 3,3 Z"
         id="path2413"
         style="fill:#ffffff" />
      <path
         d="M 49,1 H 10 v 62 h 39 a 2,2 0 0 0 2,-2 V 3 A 2,2 0 0 0 49,1 Z M 42,45 H 18 a 1,1 0 0 1 0,-2 h 24 a 1,1 0 0 1 0,2 z m 0,-6 H 18 a 1,1 0 0 1 0,-2 h 24 a 1,1 0 0 1 0,2 z m 4,-13 a 1,1 0 0 1 -1,1 H 15 A 1,1 0 0 1 14,26 V 8 a 1,1 0 0 1 1,-1 h 30 a 1,1 0 0 1 1,1 z"
         id="path2415"
         style="fill:#ffffff" />
      <path
         d="m 61,3 h -2 a 2,2 0 0 0 -2,2 v 4 h 6 V 5 A 2,2 0 0 0 61,3 Z"
         id="path2417"
         style="fill:#ffffff" />
      <rect
         x="57"
         y="11"
         width="6"
         height="2"
         id="rect2419"
         style="fill:#ffffff" />
      <path
         d="m 59,59.08 1,1.92 1,-1.92 a 6.18,6.18 0 0 0 -2,0 z"
         id="path2421"
         style="fill:#ffffff" />
      <path
         d="m 57.43,55.58 c -0.16,0.08 -0.25,-0.23 0.69,1.67 a 7.43,7.43 0 0 1 3.5,-0.09 c 0.37,0.08 0.09,0.44 1.07,-1.54 a 6.14,6.14 0 0 0 -5.26,-0.04 z"
         id="path2423"
         style="fill:#ffffff" />
      <path
         d="m 57,53.59 a 7.89,7.89 0 0 1 6,0 V 15 h -6 z"
         id="path2425"
         style="fill:#ffffff" />
    </g>
    <g
       id="Notes"
       transform="matrix(0.52259155,0,0,0.52259155,407.5686,1090.9553)"
       style="fill:#ffffff">
      <path
         d="M 61,59.08 60,61 59,59.08 a 6.18,6.18 0 0 1 2,0 z"
         id="path2445"
         style="fill:#ffffff" />
      <path
         d="m 62.69,55.63 c -1,2 -0.71,1.61 -1.07,1.53 a 7.27,7.27 0 0 0 -3.49,0.09 c -1,-1.89 -0.87,-1.58 -0.69,-1.67 a 6.08,6.08 0 0 1 5.25,0.05 z"
         id="path2447"
         style="fill:#ffffff" />
      <path
         d="M 63,5 V 9 H 57 V 5 a 2,2 0 0 1 2,-2 h 2 a 2,2 0 0 1 2,2 z"
         id="path2449"
         style="fill:#ffffff" />
      <rect
         x="57"
         y="11"
         width="6"
         height="2"
         id="rect2451"
         style="fill:#ffffff" />
      <path
         d="m 57,15 h 6 v 38.59 a 7.89,7.89 0 0 0 -6,0 z"
         id="path2453"
         style="fill:#ffffff" />
      <path
         d="M 5,15 V 63 H 46 V 15 Z m 6,19 h 20 a 1,1 0 0 1 0,2 H 11 a 1,1 0 0 1 0,-2 z m 0,-6 h 9 a 1,1 0 0 1 0,2 h -9 a 1,1 0 0 1 0,-2 z m 0,12 h 5 a 1,1 0 0 1 0,2 h -5 a 1,1 0 0 1 0,-2 z m 0,6 h 25 a 1,1 0 0 1 0,2 H 11 a 1,1 0 0 1 0,-2 z m 13,8 H 11 a 1,1 0 0 1 0,-2 h 13 a 1,1 0 0 1 0,2 z m 17,0 H 28 a 1,1 0 0 1 0,-2 h 13 a 1,1 0 0 1 0,2 z m 0,-6 h -1 a 1,1 0 0 1 0,-2 h 1 a 1,1 0 0 1 0,2 z m 0,-6 H 20 a 1,1 0 0 1 0,-2 h 21 a 1,1 0 0 1 0,2 z m 0,-6 h -6 a 1,1 0 0 1 0,-2 h 6 a 1,1 0 0 1 0,2 z m 0,-6 H 24 a 1,1 0 0 1 0,-2 h 17 a 1,1 0 0 1 0,2 z m 0,-6 H 11 a 1,1 0 0 1 0,-2 h 30 a 1,1 0 0 1 0,2 z"
         id="path2455"
         style="fill:#ffffff" />
      <path
         d="M 43.06,8 H 46 v 4.8 C 44.48,12.22 43.32,10.34 43.06,8 Z"
         id="path2457"
         style="fill:#ffffff" />
      <path
         d="M 51,7 V 51 H 48 V 7 A 1,1 0 0 0 47,6 h -3.94 c 0.31,-2.84 2,-5 3.94,-5 2.21,0 4,2.69 4,6 z"
         id="path2459"
         style="fill:#ffffff" />
      <path
         d="M 43,13 H 5 C 2.79,13 1,10.31 1,7 1,3.69 2.79,1 5,1 h 38 a 10,10 0 0 0 0,12 z"
         id="path2461"
         style="fill:#ffffff" />
    </g>
    <g
       id="Online_LEarning"
       data-name="Online LEarning"
       transform="matrix(0.52259155,0,0,0.52259155,203.08648,1090.9724)"
       style="fill:#ffffff">
      <path
         d="M 31,34.83 V 4.42 C 26.48,0.17 21.91,1 14,1 v 31 c 7.71,0 12.17,-0.73 17,2.83 z M 27,18 h -9 a 1,1 0 0 1 0,-2 h 9 a 1,1 0 0 1 0,2 z m 0,5 h -9 a 1,1 0 0 1 0,-2 h 9 a 1,1 0 0 1 0,2 z m 0,-10 h -9 a 1,1 0 0 1 0,-2 h 9 a 1,1 0 0 1 0,2 z M 18,6 h 9 a 1,1 0 0 1 0,2 h -9 a 1,1 0 0 1 0,-2 z m 0,20 h 9 a 1,1 0 0 1 0,2 h -9 a 1,1 0 0 1 0,-2 z"
         id="path2482"
         style="fill:#ffffff" />
      <path
         d="M 13,34 A 1,1 0 0 1 12,33 V 5 H 10 V 36 H 29.17 C 25.23,33.46 22.38,34 13,34 Z"
         id="path2484"
         style="fill:#ffffff" />
      <path
         d="M 50,32 V 1 C 42.19,1 37.52,0.17 33,4.42 V 34.83 C 37.83,31.27 42.09,32 50,32 Z M 46,18 h -9 a 1,1 0 0 1 0,-2 h 9 a 1,1 0 0 1 0,2 z m 0,5 h -9 a 1,1 0 0 1 0,-2 h 9 a 1,1 0 0 1 0,2 z m 0,-10 h -9 a 1,1 0 0 1 0,-2 h 9 a 1,1 0 0 1 0,2 z M 37,6 h 9 a 1,1 0 0 1 0,2 h -9 a 1,1 0 0 1 0,-2 z m 0,20 h 9 a 1,1 0 0 1 0,2 h -9 a 1,1 0 0 1 0,-2 z"
         id="path2486"
         style="fill:#ffffff" />
      <path
         d="M 34.83,36 H 54 V 5 h -2 v 28 a 1,1 0 0 1 -1,1 c -9.39,0 -12.24,-0.53 -16.17,2 z"
         id="path2488"
         style="fill:#ffffff" />
      <path
         d="m 57,7 h -1 v 30 a 1,1 0 0 1 -1,1 H 9 A 1,1 0 0 1 8,37 V 7 H 7 A 4,4 0 0 0 3,11 V 42 H 61 V 11 A 4,4 0 0 0 57,7 Z"
         id="path2490"
         style="fill:#ffffff" />
      <path
         d="m 3,47 a 4,4 0 0 0 4,4 h 50 a 4,4 0 0 0 4,-4 V 44 H 3 Z m 28,-1 h 2 a 1,1 0 0 1 0,2 h -2 a 1,1 0 0 1 0,-2 z"
         id="path2492"
         style="fill:#ffffff" />
      <path
         d="M 44,61 H 42 A 3.32,3.32 0 0 1 38.7,58 L 38.2,53 H 25.8 c -0.51,5.1 -0.33,6 -1.58,7.14 C 22.97,61.28 22,61 20,61 a 1,1 0 0 0 0,2 h 24 a 1,1 0 0 0 0,-2 z"
         id="path2494"
         style="fill:#ffffff" />
    </g>
    <g
       id="Open_Book"
       data-name="Open Book"
       transform="matrix(0.52259155,0,0,0.52259155,342.61648,950.52232)"
       style="fill:#ffffff">
      <g
         id="g3377"
         transform="translate(-6.139756,1.2803144)">
        <path
           d="M 5,52 A 1,1 0 0 1 4,51 V 13 H 1 v 42 h 29.51 a 12.55,12.55 0 0 0 -8.17,-3 z"
           id="path2513"
           style="fill:#ffffff" />
        <path
           d="m 60,13 v 38 a 1,1 0 0 1 -1,1 H 41.66 a 12.55,12.55 0 0 0 -8.17,3 H 63 V 13 Z"
           id="path2515"
           style="fill:#ffffff" />
        <path
           d="M 6,9 V 50 H 22.34 A 14.5,14.5 0 0 1 31,52.83 V 12.09 A 13.65,13.65 0 0 0 22.34,9 Z m 3,10 h 10 a 1,1 0 0 1 0,2 H 9 A 1,1 0 0 1 9,19 Z M 22.34,46 H 9 a 1,1 0 0 1 0,-2 h 13.34 a 1,1 0 0 1 0,2 z M 9,39 h 2 a 1,1 0 0 1 0,2 H 9 a 1,1 0 0 1 0,-2 z m 18.59,3.14 C 24.26,40.63 21.86,41 15,41 a 1,1 0 0 1 0,-2 c 6.78,0 9.67,-0.37 13.41,1.32 a 1,1 0 0 1 -0.82,1.82 z m 0,-5 C 24.25,35.62 22.83,36 9,36 a 1,1 0 0 1 0,-2 c 13.69,0 15.56,-0.42 19.41,1.32 a 1,1 0 0 1 -0.82,1.82 z M 9,29 h 6 a 1,1 0 0 1 0,2 H 9 a 1,1 0 0 1 0,-2 z m 18.59,3.14 C 24.6,30.78 22.46,31 19,31 a 1,1 0 0 1 0,-2 c 3.68,0 6,-0.21 9.41,1.32 a 1,1 0 0 1 -0.82,1.82 z m 0,-5 C 24.25,25.62 22.83,26 9,26 a 1,1 0 0 1 0,-2 c 13.69,0 15.56,-0.42 19.41,1.32 a 1,1 0 0 1 -0.82,1.82 z m 0,-5 A 12.54,12.54 0 0 0 23,21 a 1.0012492,1.0012492 0 0 1 0.1,-2 14.5,14.5 0 0 1 5.36,1.3 1.0176566,1.0176566 0 0 1 -0.87,1.84 z m 0,-5 C 24.33,15.66 22.69,16 12,16 a 1,1 0 0 1 0,-2 c 11.13,0 12.74,-0.34 16.41,1.32 a 1,1 0 0 1 -0.82,1.82 z"
           id="path2517"
           style="fill:#ffffff" />
        <path
           d="M 58,50 V 9 H 41.66 A 13.65,13.65 0 0 0 33,12.09 V 52.83 A 14.5,14.5 0 0 1 41.66,50 Z m -3,-9 h -8 a 1,1 0 0 1 0,-2 h 8 a 1,1 0 0 1 0,2 z M 41.66,36 A 16.66,16.66 0 0 0 36,37.23 1,1 0 0 1 35.59,35.32 C 39.39,33.6 41.91,34 50,34 a 1,1 0 0 1 0,2 z M 43,41 H 41.66 A 16.66,16.66 0 0 0 36,42.23 1,1 0 0 1 35.59,40.32 16,16 0 0 1 43,39 a 1,1 0 0 1 0,2 z m 12,-5 h -1 a 1,1 0 0 1 0,-2 h 1 a 1,1 0 0 1 0,2 z m 0,-5 C 41.09,31 39.73,30.63 36.41,32.14 A 1,1 0 0 1 35.59,30.32 C 39.51,28.55 41.66,29 55,29 a 1,1 0 0 1 0,2 z M 35.59,25.32 C 39,23.79 41.33,24 45,24 a 1,1 0 0 1 0,2 c -3.45,0 -5.61,-0.22 -8.59,1.14 A 1,1 0 0 1 35.59,25.32 Z M 55,26 h -6 a 1,1 0 0 1 0,-2 h 6 a 1,1 0 0 1 0,2 z m 0,-5 C 41.09,21 39.73,20.63 36.41,22.14 A 1,1 0 0 1 35.59,20.32 C 39.51,18.55 41.66,19 55,19 a 1,1 0 0 1 0,2 z m 0,-5 H 41.66 a 1,1 0 0 1 0,-2 H 55 a 1,1 0 0 1 0,2 z M 35.59,45.32 C 39.46,43.57 41.86,44 52,44 a 1,1 0 0 1 0,2 C 41.25,46 39.64,45.67 36.41,47.14 a 1,1 0 0 1 -0.82,-1.82 z"
           id="path2519"
           style="fill:#ffffff" />
      </g>
    </g>
    <g
       id="Presentation"
       transform="matrix(0.52259155,0,0,0.52259155,271.24719,950.9279)"
       style="fill:#ffffff">
      <rect
         x="1"
         y="1"
         width="62"
         height="5"
         id="rect2548"
         style="fill:#ffffff" />
      <path
         d="M 31.61,32.92 21,28.37 v 8.13 c 0,1.49 4.76,5.14 11,5.14 6.24,0 11,-3.64 11,-5.14 v -8.13 c -11.48,4.92 -10.83,4.78 -11.39,4.55 z m 0,0 L 21,28.37 v 8.13 c 0,1.49 4.76,5.14 11,5.14 6.24,0 11,-3.64 11,-5.14 v -8.13 c -11.48,4.92 -10.83,4.78 -11.39,4.55 z m 0,0 L 21,28.37 v 8.13 c 0,1.49 4.76,5.14 11,5.14 6.24,0 11,-3.64 11,-5.14 v -8.13 c -11.48,4.92 -10.83,4.78 -11.39,4.55 z m 0.52,-11 16,2.14 2.35,-1 L 32,15.09 13.54,23 32,30.91 44.52,25.55 31.87,23.85 a 1,1 0 0 1 0.26,-1.98 z m 0,0 16,2.14 2.35,-1 L 32,15.09 13.54,23 32,30.91 44.52,25.55 31.87,23.85 a 1,1 0 0 1 0.26,-1.98 z M 31.61,32.97 21,28.37 v 8.13 c 0,1.49 4.76,5.14 11,5.14 6.24,0 11,-3.64 11,-5.14 v -8.13 c -11.48,4.92 -10.83,4.78 -11.39,4.55 z m 0,0 L 21,28.37 v 8.13 c 0,1.49 4.76,5.14 11,5.14 6.24,0 11,-3.64 11,-5.14 v -8.13 c -11.48,4.92 -10.83,4.78 -11.39,4.55 z m 17,8.5 a 0.57,0.57 0 0 0 -1.14,0 L 47.18,43 h 1.64 z m -16.48,-19.6 16,2.14 2.35,-1 L 32,15.09 13.54,23 32,30.91 44.52,25.55 31.87,23.85 a 1,1 0 0 1 0.26,-1.98 z m 0,0 16,2.14 2.35,-1 L 32,15.09 13.54,23 32,30.91 44.52,25.55 31.87,23.85 a 1,1 0 0 1 0.26,-1.98 z M 48.23,41 a 0.47,0.47 0 0 0 -0.46,0 c -0.38,0.16 -0.34,0.47 -0.59,2 h 1.64 C 48.57,41.4 48.61,41.13 48.23,41 Z M 32,33 c -0.29,0 0.53,0.31 -11,-4.63 v 8.13 c 0,1.49 4.76,5.14 11,5.14 6.24,0 11,-3.64 11,-5.14 V 28.37 C 31.49,33.31 32.29,33 32,33 Z M 3,8 V 48 H 61 V 8 Z m 46,17.8 v 13.32 c 1.7,0.71 1.61,2.4 2,4.72 A 1,1 0 0 1 50,45 c -5.83,0 -5.27,0.53 -4.54,-3.91 a 2.58,2.58 0 0 1 1.54,-2 V 26.66 l -2,0.86 v 9 c 0,3.15 -6.12,7.14 -13,7.14 -6.88,0 -13,-4 -13,-7.14 v -9 l -8.39,-3.6 a 1,1 0 0 1 0,-1.84 c 22.92,-9.82 21.23,-9.24 21.78,-9 C 54.78,22.68 54,22.05 54,23 c 0,0.95 -0.41,0.83 -5,2.8 z M 13.54,23 32,30.91 44.52,25.55 31.87,23.85 a 1.0084146,1.0084146 0 0 1 0.26,-2 l 16,2.14 2.35,-1 L 32,15.09 Z m 34.69,18 a 0.47,0.47 0 0 0 -0.46,0 c -0.38,0.16 -0.34,0.47 -0.59,2 h 1.64 C 48.57,41.4 48.61,41.13 48.23,41 Z M 32,33 c -0.29,0 0.53,0.31 -11,-4.63 v 8.13 c 0,1.49 4.76,5.14 11,5.14 6.24,0 11,-3.64 11,-5.14 V 28.37 C 31.49,33.31 32.29,33 32,33 Z M 31.61,32.92 21,28.37 v 8.13 c 0,1.49 4.76,5.14 11,5.14 6.24,0 11,-3.64 11,-5.14 v -8.13 c -11.48,4.92 -10.83,4.78 -11.39,4.55 z m 17,8.5 a 0.57,0.57 0 0 0 -1.14,0 L 47.18,43 h 1.64 z m -16.48,-19.55 16,2.14 2.35,-1 L 32,15.09 13.54,23 32,30.91 44.52,25.55 31.87,23.85 a 1,1 0 0 1 0.26,-1.98 z m 0,0 16,2.14 2.35,-1 L 32,15.09 13.54,23 32,30.91 44.52,25.55 31.87,23.85 a 1,1 0 0 1 0.26,-1.98 z m 16.44,19.55 a 0.57,0.57 0 0 0 -1.14,0 L 47.18,43 h 1.64 z m -17,-8.5 L 21,28.37 v 8.13 c 0,1.49 4.76,5.14 11,5.14 6.24,0 11,-3.64 11,-5.14 v -8.13 c -11.48,4.92 -10.83,4.78 -11.39,4.55 z m 0,0 L 21,28.37 v 8.13 c 0,1.49 4.76,5.14 11,5.14 6.24,0 11,-3.64 11,-5.14 v -8.13 c -11.48,4.92 -10.83,4.78 -11.39,4.55 z m 0.52,-11 16,2.14 2.35,-1 L 32,15.09 13.54,23 32,30.91 44.52,25.55 31.87,23.85 a 1,1 0 0 1 0.26,-1.98 z m 0,0 16,2.14 2.35,-1 L 32,15.09 13.54,23 32,30.91 44.52,25.55 31.87,23.85 a 1,1 0 0 1 0.26,-1.98 z M 31.57,32.97 21,28.37 v 8.13 c 0,1.49 4.76,5.14 11,5.14 6.24,0 11,-3.64 11,-5.14 v -8.13 c -11.48,4.92 -10.83,4.78 -11.39,4.55 z m 0,0 L 21,28.37 v 8.13 c 0,1.49 4.76,5.14 11,5.14 6.24,0 11,-3.64 11,-5.14 v -8.13 c -11.48,4.92 -10.83,4.78 -11.39,4.55 z"
         id="path2550"
         style="fill:#ffffff" />
      <rect
         x="3"
         y="50"
         width="58"
         height="1"
         id="rect2552"
         style="fill:#ffffff" />
      <path
         d="m 48.23,41 a 0.9,0.9 0 0 1 -0.46,0 0.47,0.47 0 0 1 0.46,0 z"
         id="path2554"
         style="fill:#ffffff" />
      <path
         d="m 33,58.18 a 2.87,2.87 0 0 0 -2,0 3,3 0 1 0 2,0 z M 32,62 a 1,1 0 0 1 0,-2 1,1 0 0 1 0,2 z"
         id="path2556"
         style="fill:#ffffff" />
      <path
         d="m 31,59 v -8 a 1,1 0 0 1 2,0 v 8 a 1,1 0 0 1 -2,0 z"
         id="path2558"
         style="fill:#ffffff" />
      <path
         d="M 62,52 H 2 a 1,1 0 0 1 0,-2 h 60 a 1,1 0 0 1 0,2 z"
         id="path2560"
         style="fill:#ffffff" />
    </g>
    <g
       id="Student_Question"
       data-name="Student Question"
       transform="matrix(0.52259155,0,0,0.52259155,171.14544,1021.0733)"
       style="fill:#ffffff">
      <path
         d="M 3,52 H 37 V 42 H 3 Z"
         id="path2579"
         style="fill:#ffffff" />
      <path
         d="M 38,38 H 2 a 1,1 0 0 0 0,2 h 36 a 1,1 0 0 0 0,-2 z"
         id="path2581"
         style="fill:#ffffff" />
      <path
         d="m 13,61 a 2,2 0 0 0 4,0 v -7 h -4 z"
         id="path2583"
         style="fill:#ffffff" />
      <path
         d="m 22,61 a 2,2 0 0 0 4,0 v -7 h -4 z"
         id="path2585"
         style="fill:#ffffff" />
      <path
         d="m 3,62 a 1,1 0 0 0 2,0 V 54 H 3 Z"
         id="path2587"
         style="fill:#ffffff" />
      <path
         d="m 35,62 a 1,1 0 0 0 2,0 v -8 h -2 z"
         id="path2589"
         style="fill:#ffffff" />
      <path
         d="M 51,1 A 12,12 0 0 0 42.51,21.49 L 39,25 H 51 A 12,12 0 0 0 51,1 Z m 0,19 a 1,1 0 0 1 0,-2 1,1 0 0 1 0,2 z m 2.65,-6.76 A 3.32,3.32 0 0 0 52,16 1,1 0 0 1 50,16 5.28,5.28 0 0 1 52.59,11.55 3,3 0 1 0 48,9 a 1,1 0 0 1 -2,0 5,5 0 1 1 7.65,4.24 z"
         id="path2591"
         style="fill:#ffffff" />
      <path
         d="m 10,36 v 0 c 7.54,0 6.94,0 6.94,0 A 3.44,3.44 0 0 0 13.45,32.62 H 11 a 1,1 0 0 1 0,-2 h 2.45 A 5.44,5.44 0 0 1 18.94,36 c 0,0.1 -0.54,0 7.06,0 0,-1.5 0,0.11 0,-6 h 4 a 4,4 0 0 0 4,-4 V 14 a 2,2 0 0 0 -4,0 V 25 H 19.54 A 5.45,5.45 0 0 0 25,19.54 v -2.08 a 5.5,5.5 0 0 0 -11,0 v 2.08 A 5.45,5.45 0 0 0 19.46,25 H 16.82 A 11.22,11.22 0 0 0 6.67,31.3 C 5.69,33.32 7,36 10,36 Z"
         id="path2593"
         style="fill:#ffffff" />
    </g>
    <g
       id="Teaching"
       transform="matrix(0.52259155,0,0,0.52259155,307.46686,1021.0733)"
       style="fill:#ffffff">
      <path
         d="M 4,47.46 C 4,45.66 3.89,44.23 5,42.4 V 32 a 1,1 0 0 1 2,0 v 8.26 A 7,7 0 0 1 18,46 c 0,2.17 0.21,4.17 -1.51,6.33 a 12.1,12.1 0 0 1 4.51,4 V 31 H 31.82 C 39,22.06 39,22.29 39,21.22 A 2.21,2.21 0 0 0 36.78,19 c -2.31,0 -2.83,1.26 -7.6,7 H 8 a 6,6 0 0 0 -6,6 v 12 a 4,4 0 0 0 2,3.46 z"
         id="path2613"
         style="fill:#ffffff" />
      <path
         d="m 19,20.5 v -2 a 5.5,5.5 0 0 0 -11,0 v 2 a 5.5,5.5 0 0 0 11,0 z"
         id="path2615"
         style="fill:#ffffff" />
      <path
         d="m 36,48 v -2 a 5,5 0 0 0 -10,0 v 2 a 5,5 0 0 0 10,0 z"
         id="path2617"
         style="fill:#ffffff" />
      <path
         d="m 13,1 v 10 a 7.47,7.47 0 0 1 8,7.47 c 0,2.13 0.15,3.62 -0.88,5.5 h 8.12 c 4.1,-4.93 4.9,-6.56 7.76,-6.94 V 5 a 1,1 0 0 1 2,0 v 12.18 a 4.21,4.21 0 0 1 3,4 c 0,2 -0.34,1.9 -8.22,11.78 H 23 v 2 H 63 V 1 Z"
         id="path2619"
         style="fill:#ffffff" />
      <path
         d="M 31,53 A 10,10 0 0 0 21,63 h 4 v -2 a 1,1 0 0 1 2,0 v 2 h 8 v -2 a 1,1 0 0 1 2,0 v 2 h 4 A 10,10 0 0 0 31,53 Z"
         id="path2621"
         style="fill:#ffffff" />
      <path
         d="m 56,48 v -2 a 5,5 0 0 0 -10,0 v 2 a 5,5 0 0 0 10,0 z"
         id="path2623"
         style="fill:#ffffff" />
      <path
         d="M 51,53 A 10,10 0 0 0 41,63 h 4 v -2 a 1,1 0 0 1 2,0 v 2 h 8 v -2 a 1,1 0 0 1 2,0 v 2 h 4 A 10,10 0 0 0 51,53 Z"
         id="path2625"
         style="fill:#ffffff" />
      <path
         d="M 16,48 V 46 A 5,5 0 0 0 6,46 v 2 a 5,5 0 0 0 10,0 z"
         id="path2627"
         style="fill:#ffffff" />
      <path
         d="M 11,53 A 10,10 0 0 0 1,63 h 4 v -2 a 1,1 0 0 1 2,0 v 2 h 8 v -2 a 1,1 0 0 1 2,0 v 2 h 4 A 10,10 0 0 0 11,53 Z"
         id="path2629"
         style="fill:#ffffff" />
    </g>
    <g
       id="Test"
       transform="matrix(0.52259155,0,0,0.52259155,171.14544,881.3094)"
       style="fill:#ffffff">
      <path
         d="M 16,7.41 9.42,14 H 16 Z"
         id="path2650"
         style="fill:#ffffff" />
      <polygon
         points="35,13.69 33.68,17 36.32,17 "
         id="polygon2652"
         style="fill:#ffffff" />
      <path
         d="m 18,15 a 1,1 0 0 1 -1,1 H 7 V 63 H 50 V 6 H 18 Z m -5,18 h 21 a 1,1 0 0 1 0,2 H 13 a 1,1 0 0 1 0,-2 z m 32,6 a 1,1 0 0 1 0,2 H 23 a 1,1 0 0 1 0,-2 z m -7,-6 h 7 a 1,1 0 0 1 0,2 h -7 a 1,1 0 0 1 0,-2 z m -25,6 h 6 a 1,1 0 0 1 0,2 h -6 a 1,1 0 0 1 0,-2 z m 0,6 h 24 a 1,1 0 0 1 0,2 H 13 a 1,1 0 0 1 0,-2 z m 10,8 H 13 a 1,1 0 0 1 0,-2 h 10 a 1,1 0 0 1 0,2 z m 17,0 H 27 a 1,1 0 0 1 0,-2 h 13 a 1,1 0 0 1 0,2 z m 1,-6 A 1,1 0 0 1 40.48,45.15 C 40.79,44.95 40.66,45 45,45 a 1,1 0 0 1 0,2 z m 0,-32 h 1 v -1 a 1,1 0 0 1 2,0 v 1 h 1 a 1,1 0 0 1 0,2 h -1 v 1 a 1,1 0 0 1 -2,0 v -1 h -1 a 1,1 0 0 1 0,-2 z M 30.07,20.63 C 34.41,9.77 34.07,10 35,10 c 0.93,0 0.54,-0.34 4.93,10.63 A 1,1 0 0 1 39,22 c -0.86,0 -0.91,-0.59 -1.88,-3 -0.1,0 -0.41,0 -4.12,0 -0.18,0 0,-0.29 -1.07,2.37 A 1.0008996,1.0008996 0 0 1 30.07,20.63 Z M 45,27 a 1,1 0 0 1 0,2 H 17 a 1,1 0 0 1 0,-2 z"
         id="path2654"
         style="fill:#ffffff" />
      <path
         d="M 13,1 V 7.58 L 16.29,4.29 C 16.72,3.86 14.63,4 51,4 a 1,1 0 0 1 1,1 v 54 h 5 V 1 Z"
         id="path2656"
         style="fill:#ffffff" />
    </g>
    <g
       id="Tools"
       transform="matrix(0.52259155,0,0,0.52259155,268.02098,1087.3788)"
       style="fill:#ffffff">
      <g
         id="g3371"
         transform="translate(6.1734837,6.8446988)">
        <path
           d="m 1,63 h 11 v -2 a 1,1 0 0 1 2,0 v 2 h 3 v -4 a 1,1 0 0 1 2,0 v 4 h 3 v -2 a 1,1 0 0 1 2,0 v 2 h 3 v -4 a 1,1 0 0 1 2,0 v 4 h 3 v -2 a 1,1 0 0 1 2,0 v 2 h 3 v -4 a 1,1 0 0 1 2,0 v 4 h 3 v -2 a 1,1 0 0 1 2,0 v 2 h 3 v -4 a 1,1 0 0 1 2,0 v 4 h 3 v -2 a 1,1 0 0 1 2,0 v 2 h 3 v -4 a 1,1 0 0 1 2,0 v 4 h 4 V 21 Z M 53,53 H 33.59 L 53,39.85 Z"
           id="path2672"
           style="fill:#ffffff" />
        <path
           d="M 2.84,49.24 1,50 1.76,48.16 a 1.91,1.91 0 0 1 1.08,1.08 z"
           id="path2674"
           style="fill:#ffffff" />
        <path
           d="m 8.52,46.46 c 0,0.62 0.94,0 -3.82,2 A 4,4 0 0 0 2.52,46.29 C 4.42,41.68 4,42.39 4.44,42.43 a 7,7 0 0 1 4.08,4.03 z"
           id="path2676"
           style="fill:#ffffff" />
        <path
           d="m 35.79,10.21 5,5 -30.44,30.44 a 9,9 0 0 0 -5,-5 z"
           id="path2678"
           style="fill:#ffffff" />
        <rect
           x="39.380001"
           y="6.96"
           width="2.23"
           height="7.0700002"
           transform="rotate(-45,40.497356,10.495446)"
           id="rect2680"
           style="fill:#ffffff" />
        <path
           d="m 50,5 c 0,1.33 -0.51,1.51 -4.79,5.79 l -5,-5 4.08,-4.08 a 2.41,2.41 0 0 1 3.42,0 C 49.23,3.23 50,3.74 50,5 Z"
           id="path2682"
           style="fill:#ffffff" />
        <rect
           x="4"
           y="6"
           width="8"
           height="8"
           id="rect2684"
           style="fill:#ffffff" />
        <path
           d="m 18,8 v 4 a 2,2 0 0 1 -2,2 H 14 V 6 h 2 a 2,2 0 0 1 2,2 z"
           id="path2686"
           style="fill:#ffffff" />
      </g>
    </g>
    <g
       id="Tutorial"
       transform="matrix(0.52259155,0,0,0.52259155,134.92577,951.1914)"
       style="fill:#ffffff">
      <path
         d="m 48.23,39 c -0.66,0.19 -0.62,-0.68 -1,2 h 1.64 c -0.3,-1.6 -0.26,-1.87 -0.64,-2 z m 0.34,0.45 a 0.57,0.57 0 0 0 -1.14,0 L 47.18,41 h 1.64 z m 0,0 a 0.57,0.57 0 0 0 -1.14,0 L 47.18,41 h 1.64 z m 0,0 a 0.57,0.57 0 0 0 -1.14,0 L 47.18,41 h 1.64 z m -16.44,-19.58 16,2.14 2.35,-1 L 32,13.09 13.54,21 32,28.91 44.52,23.55 31.87,21.85 a 1,1 0 0 1 0.26,-1.98 z m 0,0 16,2.14 2.35,-1 L 32,13.09 13.54,21 32,28.91 44.52,23.55 31.87,21.85 a 1,1 0 0 1 0.26,-1.98 z M 48.23,39 a 0.47,0.47 0 0 0 -0.46,0 c -0.38,0.16 -0.34,0.46 -0.59,2 h 1.64 C 48.57,39.4 48.61,39.13 48.23,39 Z M 32,31 c -0.29,0 0.53,0.31 -11,-4.63 v 8.13 c 0,1.49 4.76,5.14 11,5.14 6.24,0 11,-3.64 11,-5.14 V 26.37 C 31.51,31.3 32.29,31 32,31 Z M 1,5 V 46 H 63 V 5 Z m 48,18.8 v 13.31 c 1.7,0.73 1.61,2.4 2,4.73 A 1,1 0 0 1 50,43 c -5.83,0 -5.27,0.53 -4.54,-3.91 a 2.61,2.61 0 0 1 1.54,-2 V 24.66 l -2,0.86 v 9 c 0,3.15 -6.12,7.14 -13,7.14 -6.88,0 -13,-4 -13,-7.14 v -9 l -8.39,-3.6 a 1,1 0 0 1 0,-1.84 c 22.92,-9.82 21.23,-9.24 21.78,-9 C 54.78,20.68 54,20.05 54,21 c 0,0.95 -0.41,0.83 -5,2.8 z M 13.54,21 32,28.91 44.52,23.55 31.87,21.85 a 1.0084146,1.0084146 0 0 1 0.26,-2 l 16,2.14 2.35,-1 L 32,13.09 Z m 34.69,18 a 0.47,0.47 0 0 0 -0.46,0 c -0.38,0.16 -0.34,0.46 -0.59,2 h 1.64 C 48.57,39.4 48.61,39.13 48.23,39 Z M 32,31 c -0.29,0 0.53,0.31 -11,-4.63 v 8.13 c 0,1.49 4.76,5.14 11,5.14 6.24,0 11,-3.64 11,-5.14 V 26.37 C 31.51,31.3 32.29,31 32,31 Z m 16.57,8.42 a 0.57,0.57 0 0 0 -1.14,0 L 47.18,41 h 1.64 z m -16.44,-19.55 16,2.14 2.35,-1 L 32,13.09 13.54,21 32,28.91 44.52,23.55 31.87,21.85 a 1,1 0 0 1 0.26,-1.98 z m 16.44,19.55 a 0.57,0.57 0 0 0 -1.14,0 L 47.18,41 h 1.64 z m 0,0 a 0.57,0.57 0 0 0 -1.14,0 L 47.18,41 h 1.64 z m 0,0 a 0.57,0.57 0 0 0 -1.14,0 L 47.18,41 h 1.64 z"
         id="path2706"
         style="fill:#ffffff" />
      <path
         d="M 1,49 V 59 H 63 V 49 Z m 6.45,5.89 C 5.28,56 5.31,56 5,56 A 1,1 0 0 1 4,55 c 0,-2.09 -0.12,-2.48 0.47,-2.85 0.59,-0.37 1,0 3,1 A 1,1 0 0 1 7.45,54.89 Z M 36,55 a 1,1 0 0 1 -2,0 H 11 a 1,1 0 0 1 0,-2 h 23 a 1,1 0 0 1 2,0 z m 23,0 H 38 a 1,1 0 0 1 0,-2 h 21 a 1,1 0 0 1 0,2 z"
         id="path2708"
         style="fill:#ffffff" />
      <path
         d="m 48.23,39 a 0.9,0.9 0 0 1 -0.46,0 0.47,0.47 0 0 1 0.46,0 z"
         id="path2710"
         style="fill:#ffffff" />
    </g>
    <g
       id="g3313"
       transform="matrix(0.52259155,0,0,0.52259155,134.92577,1090.9541)"
       style="fill:#ffffff">
      <path
         d="M 32,21.41 28.41,25 32,28.59 35.59,25 Z m 0,0 L 28.41,25 32,28.59 35.59,25 Z M 53.82,26 A 21.84,21.84 0 0 0 10.18,26 L 9,56 a 7,7 0 0 0 7,7 h 32 a 7,7 0 0 0 7,-7 z M 48,55 a 5,5 0 0 1 -5,5 H 21 A 5,5 0 0 1 16,55 V 45 a 5,5 0 0 1 5,-5 h 22 a 5,5 0 0 1 5,5 z m -21.71,-30.71 5,-5 a 1,1 0 0 1 1.42,0 l 5,5 a 1,1 0 0 1 0,1.42 C 32.3,31.12 32.58,31 32,31 c -0.58,0 -0.36,0.06 -5.71,-5.29 a 1,1 0 0 1 0,-1.42 z M 49.18,35 48.83,26.14 a 16.84,16.84 0 0 0 -33.66,0 L 14.82,35 a 1.0007997,1.0007997 0 0 1 -2,-0.08 l 0.35,-8.86 a 18.84,18.84 0 0 1 37.66,0 L 51.18,35 a 1,1 0 0 1 -2,0 z M 43,42 H 21 a 3,3 0 0 0 -3,3 v 10 a 3,3 0 0 0 3,3 h 22 a 3,3 0 0 0 3,-3 V 45 A 3,3 0 0 0 43,42 Z M 35.59,25 32,21.41 28.41,25 32,28.59 Z"
         id="path3301"
         style="fill:#ffffff" />
      <path
         d="m 37.88,7.81 c -1.37,0 -0.58,-1.6 -2.34,-3.34 A 5,5 0 0 0 27.1,7 1,1 0 0 1 25.93,7.79 C 24.15,7.45 25.75,4.34 27.06,3.05 a 7,7 0 0 1 9.89,0 c 1.5,1.48 2.93,4.76 0.93,4.76 z"
         id="path3303"
         style="fill:#ffffff" />
      <path
         d="M 53,5 V 15.52 A 23.69,23.69 0 0 0 43,5.67 V 5 a 2,2 0 0 1 2,-2 h 6 a 2,2 0 0 1 2,2 z"
         id="path3305"
         style="fill:#ffffff" />
      <path
         d="M 21,5 V 5.67 A 23.69,23.69 0 0 0 11,15.52 V 5 a 2,2 0 0 1 2,-2 h 6 a 2,2 0 0 1 2,2 z"
         id="path3307"
         style="fill:#ffffff" />
      <path
         d="m 60,39 v 16 a 4,4 0 0 1 -3.52,4 c 0.77,-2.15 0.57,-1.79 -0.15,-20 z"
         id="path3309"
         style="fill:#ffffff" />
      <path
         d="M 7.51,59 A 4,4 0 0 1 4,55 V 39 H 7.67 C 7,57 6.74,56.79 7.51,59 Z"
         id="path3311"
         style="fill:#ffffff" />
    </g>
    <g
       id="g3331"
       transform="matrix(0.52259155,0,0,0.52259155,407.5686,951.19186)"
       style="fill:#ffffff">
      <path
         d="m 1,63 h 11 v -2 a 1,1 0 0 1 2,0 v 2 h 3 v -4 a 1,1 0 0 1 2,0 v 4 h 3 v -2 a 1,1 0 0 1 2,0 v 2 h 3 v -4 a 1,1 0 0 1 2,0 v 4 h 3 v -2 a 1,1 0 0 1 2,0 v 2 h 3 v -4 a 1,1 0 0 1 2,0 v 4 h 3 v -2 a 1,1 0 0 1 2,0 v 2 h 3 v -4 a 1,1 0 0 1 2,0 v 4 h 3 v -2 a 1,1 0 0 1 2,0 v 2 h 3 v -4 a 1,1 0 0 1 2,0 v 4 h 4 V 21 Z M 53,53 H 33.59 L 53,39.85 Z"
         id="path3315"
         style="fill:#ffffff" />
      <path
         d="M 2.84,49.24 1,50 1.76,48.16 a 1.91,1.91 0 0 1 1.08,1.08 z"
         id="path3317"
         style="fill:#ffffff" />
      <path
         d="m 8.52,46.46 c 0,0.62 0.94,0 -3.82,2 A 4,4 0 0 0 2.52,46.29 C 4.42,41.68 4,42.39 4.44,42.43 a 7,7 0 0 1 4.08,4.03 z"
         id="path3319"
         style="fill:#ffffff" />
      <path
         d="m 35.79,10.21 5,5 -30.44,30.44 a 9,9 0 0 0 -5,-5 z"
         id="path3321"
         style="fill:#ffffff" />
      <rect
         x="39.380001"
         y="6.96"
         width="2.23"
         height="7.0700002"
         transform="rotate(-45,40.497356,10.495446)"
         id="rect3323"
         style="fill:#ffffff" />
      <path
         d="m 50,5 c 0,1.33 -0.51,1.51 -4.79,5.79 l -5,-5 4.08,-4.08 a 2.41,2.41 0 0 1 3.42,0 C 49.23,3.23 50,3.74 50,5 Z"
         id="path3325"
         style="fill:#ffffff" />
      <rect
         x="4"
         y="6"
         width="8"
         height="8"
         id="rect3327"
         style="fill:#ffffff" />
      <path
         d="m 18,8 v 4 a 2,2 0 0 1 -2,2 H 14 V 6 h 2 a 2,2 0 0 1 2,2 z"
         id="path3329"
         style="fill:#ffffff" />
    </g>
    <g
       id="g3343"
       transform="matrix(0.52259155,0,0,0.52259155,103.43703,881.3094)"
       style="fill:#ffffff">
      <path
         d="m 9,60 h 44 v 3 H 9 a 4,4 0 0 1 0,-8 h 44 v 3 H 9 a 1,1 0 0 0 0,2 z"
         id="path3333"
         style="fill:#ffffff" />
      <path
         d="m 9,1 h 1 V 53 C 8.31,53 6.75,53 5,54.54 V 5 A 4,4 0 0 1 9,1 Z"
         id="path3335"
         style="fill:#ffffff" />
      <path
         d="M 39,21.69 37.68,25 h 2.64 z m 0,0 -1.32,3.31 h 2.64 z m 0,0 -1.32,3.31 h 2.64 z m 0,0 -1.32,3.31 h 2.64 z M 17,9 V 33 H 47 V 9 Z m 14,7 h -6.87 a 10.11,10.11 0 0 0 1.87,3.87 10.76,10.76 0 0 0 1.32,-2.26 1,1 0 0 1 1.84,0.78 13.32,13.32 0 0 1 -1.81,3 15.69,15.69 0 0 0 2.22,1.78 1,1 0 0 1 -1.1,1.66 c -3.82,-2.55 -1.12,-2.52 -4.95,0 A 1,1 0 0 1 22.42,23.17 15.46,15.46 0 0 0 24.65,21.38 12.05,12.05 0 0 1 22.1,16 H 21 a 1,1 0 0 1 0,-2 h 4 v -1 a 1,1 0 0 1 2,0 v 1 h 4 a 1,1 0 0 1 0,2 z M 42.07,29.37 C 41,26.72 41.18,27 41,27 c -3.76,0 -4,0 -4.12,0 l -1,2.38 a 1.0008996,1.0008996 0 0 1 -1.86,-0.74 l 4,-10 a 1,1 0 0 1 1.86,0 l 4,10 a 1,1 0 0 1 -1.81,0.73 z M 37.68,25 h 2.64 L 39,21.69 Z M 39,21.69 37.68,25 h 2.64 z m 0,0 -1.32,3.31 h 2.64 z m 0,0 -1.32,3.31 h 2.64 z"
         id="path3337"
         style="fill:#ffffff" />
      <path
         d="M 12,1 V 53 H 53 V 1 Z m 37,33 a 1,1 0 0 1 -1,1 H 16 A 1,1 0 0 1 15,34 V 8 a 1,1 0 0 1 1,-1 h 32 a 1,1 0 0 1 1,1 z"
         id="path3339"
         style="fill:#ffffff" />
      <path
         d="m 12,55 a 1,1 0 0 1 -2,0 z"
         id="path3341"
         style="fill:#ffffff" />
    </g>
    <g
       id="g3361"
       transform="matrix(0.52259155,0,0,0.52259155,102.98473,1021.0733)"
       style="fill:#ffffff">
      <rect
         x="16"
         y="9"
         width="28"
         height="16"
         id="rect3345"
         style="fill:#ffffff" />
      <path
         d="M 3,3 V 6 H 5 A 1,1 0 0 1 5,8 H 2 a 1,1 0 0 0 0,2 h 1 v 2 h 2 a 1,1 0 0 1 0,2 H 2 a 1,1 0 0 0 0,2 h 1 v 2 h 2 a 1,1 0 0 1 0,2 H 2 a 1,1 0 0 0 0,2 h 1 v 2 h 2 a 1,1 0 0 1 0,2 H 2 a 1,1 0 0 0 0,2 h 1 v 2 h 2 a 1,1 0 0 1 0,2 H 2 a 1,1 0 0 0 0,2 h 1 v 2 h 2 a 1,1 0 0 1 0,2 H 2 a 1,1 0 0 0 0,2 h 1 v 2 h 2 a 1,1 0 0 1 0,2 H 2 a 1,1 0 0 0 0,2 h 1 v 2 h 2 a 1,1 0 0 1 0,2 H 2 a 1,1 0 0 0 0,2 h 1 v 2 h 2 a 1,1 0 0 1 0,2 H 2 a 1,1 0 0 0 0,2 h 1 v 3 a 2,2 0 0 0 2,2 H 8 V 1 H 5 A 2,2 0 0 0 3,3 Z"
         id="path3347"
         style="fill:#ffffff" />
      <path
         d="M 49,1 H 10 v 62 h 39 a 2,2 0 0 0 2,-2 V 3 A 2,2 0 0 0 49,1 Z M 42,45 H 18 a 1,1 0 0 1 0,-2 h 24 a 1,1 0 0 1 0,2 z m 0,-6 H 18 a 1,1 0 0 1 0,-2 h 24 a 1,1 0 0 1 0,2 z m 4,-13 a 1,1 0 0 1 -1,1 H 15 A 1,1 0 0 1 14,26 V 8 a 1,1 0 0 1 1,-1 h 30 a 1,1 0 0 1 1,1 z"
         id="path3349"
         style="fill:#ffffff" />
      <path
         d="m 61,3 h -2 a 2,2 0 0 0 -2,2 v 4 h 6 V 5 A 2,2 0 0 0 61,3 Z"
         id="path3351"
         style="fill:#ffffff" />
      <rect
         x="57"
         y="11"
         width="6"
         height="2"
         id="rect3353"
         style="fill:#ffffff" />
      <path
         d="m 59,59.08 1,1.92 1,-1.92 a 6.18,6.18 0 0 0 -2,0 z"
         id="path3355"
         style="fill:#ffffff" />
      <path
         d="m 57.43,55.58 c -0.16,0.08 -0.25,-0.23 0.69,1.67 a 7.43,7.43 0 0 1 3.5,-0.09 c 0.37,0.08 0.09,0.44 1.07,-1.54 a 6.14,6.14 0 0 0 -5.26,-0.04 z"
         id="path3357"
         style="fill:#ffffff" />
      <path
         d="m 57,53.59 a 7.89,7.89 0 0 1 6,0 V 15 h -6 z"
         id="path3359"
         style="fill:#ffffff" />
    </g>
  </g>
</svg>
