<?xml version="1.0" encoding="UTF-8" standalone="no"?>
<!-- Created with Inkscape (http://www.inkscape.org/) -->

<svg
   width="277.6312"
   height="277.63141"
   viewBox="0 0 277.6312 277.63141"
   version="1.1"
   id="svg5"
   inkscape:version="1.1.1 (1:1.1+202109281949+c3084ef5ed)"
   sodipodi:docname="hiragana.svg"
   xmlns:inkscape="http://www.inkscape.org/namespaces/inkscape"
   xmlns:sodipodi="http://sodipodi.sourceforge.net/DTD/sodipodi-0.dtd"
   xmlns:xlink="http://www.w3.org/1999/xlink"
   xmlns="http://www.w3.org/2000/svg"
   xmlns:svg="http://www.w3.org/2000/svg">
  <sodipodi:namedview
     id="namedview7"
     pagecolor="#505050"
     bordercolor="#eeeeee"
     borderopacity="1"
     inkscape:pageshadow="0"
     inkscape:pageopacity="0"
     inkscape:pagecheckerboard="0"
     inkscape:document-units="px"
     showgrid="false"
     inkscape:zoom="1.5998291"
     inkscape:cx="108.44908"
     inkscape:cy="160.32963"
     inkscape:window-width="1366"
     inkscape:window-height="715"
     inkscape:window-x="0"
     inkscape:window-y="25"
     inkscape:window-maximized="1"
     inkscape:current-layer="layer1"
     inkscape:snap-page="true"
     fit-margin-top="0"
     fit-margin-left="0"
     fit-margin-right="0"
     fit-margin-bottom="0"
     inkscape:snap-global="false" />
  <defs
     id="defs2">
    <style
       id="style1171">.cls-1{fill:url(#linear-gradient);}.cls-2{fill:#f6b756;}.cls-3{fill:url(#linear-gradient-2);}.cls-4{fill:#cf4055;}.cls-5{fill:url(#linear-gradient-3);}.cls-6{fill:url(#linear-gradient-4);}.cls-7{fill:url(#linear-gradient-5);}.cls-8{fill:url(#linear-gradient-6);}.cls-9{fill:url(#linear-gradient-7);}.cls-10{fill:url(#linear-gradient-8);}.cls-11{fill:url(#linear-gradient-9);}.cls-12{fill:#eab39b;}.cls-13{fill:url(#linear-gradient-13);}.cls-14{fill:#c7cdd8;}.cls-15{fill:#dfe3ea;}</style>
    <linearGradient
       id="linear-gradient"
       x1="32"
       y1="36"
       x2="32"
       y2="1"
       gradientUnits="userSpaceOnUse">
      <stop
         offset="0"
         stop-color="#fbcc88"
         id="stop1173" />
      <stop
         offset="1"
         stop-color="#ffe5c3"
         id="stop1175" />
    </linearGradient>
    <linearGradient
       id="linear-gradient-2"
       x1="32"
       y1="25.09"
       x2="32"
       y2="9.0900002"
       gradientUnits="userSpaceOnUse">
      <stop
         offset="0"
         stop-color="#da5466"
         id="stop1178" />
      <stop
         offset="1"
         stop-color="#f4929c"
         id="stop1180" />
    </linearGradient>
    <linearGradient
       id="linear-gradient-3"
       x1="21"
       y1="15.09"
       x2="32"
       y2="15.09"
       gradientUnits="userSpaceOnUse">
      <stop
         offset="0"
         stop-color="#d4d8e1"
         id="stop1183" />
      <stop
         offset="1"
         stop-color="#f3f4f5"
         id="stop1185" />
    </linearGradient>
    <linearGradient
       id="linear-gradient-4"
       x1="32"
       y1="15.09"
       x2="43"
       y2="15.09"
       xlink:href="#linear-gradient-3" />
    <linearGradient
       id="linear-gradient-5"
       x1="32"
       y1="53"
       x2="32"
       y2="41"
       gradientUnits="userSpaceOnUse">
      <stop
         offset="0"
         stop-color="#f2c4b0"
         id="stop1189" />
      <stop
         offset="1"
         stop-color="#ffe3d7"
         id="stop1191" />
    </linearGradient>
    <linearGradient
       id="linear-gradient-6"
       x1="32"
       y1="63"
       y2="53"
       xlink:href="#linear-gradient-3" />
    <linearGradient
       id="linear-gradient-7"
       x1="52"
       x2="52"
       xlink:href="#linear-gradient-5" />
    <linearGradient
       id="linear-gradient-8"
       x1="52"
       y1="63"
       x2="52"
       y2="53"
       xlink:href="#linear-gradient-3" />
    <linearGradient
       id="linear-gradient-9"
       x1="12"
       x2="12"
       xlink:href="#linear-gradient-5" />
    <linearGradient
       id="linear-gradient-13"
       x1="12"
       y1="63"
       x2="12"
       y2="53"
       xlink:href="#linear-gradient-3" />
    <style
       id="style1327">.cls-1{fill:url(#linear-gradient);}.cls-2{fill:#42455e;}.cls-3{fill:#575f7c;}.cls-4{fill:url(#linear-gradient-2);}.cls-5{fill:url(#linear-gradient-3);}</style>
    <linearGradient
       id="linear-gradient-36"
       x1="32"
       y1="53"
       x2="32"
       y2="29.450001"
       gradientUnits="userSpaceOnUse">
      <stop
         offset="0"
         stop-color="#474f72"
         id="stop1329" />
      <stop
         offset="1"
         stop-color="#878c9f"
         id="stop1331" />
    </linearGradient>
    <linearGradient
       id="linear-gradient-2-7"
       y1="37"
       y2="11"
       xlink:href="#linear-gradient-36" />
    <linearGradient
       id="linear-gradient-3-5"
       x1="54"
       y1="53"
       x2="54"
       y2="47"
       gradientUnits="userSpaceOnUse">
      <stop
         offset="0"
         stop-color="#e9a254"
         id="stop1335" />
      <stop
         offset="1"
         stop-color="#f4bb79"
         id="stop1337" />
    </linearGradient>
    <style
       id="style1376">.cls-1{fill:url(#linear-gradient);}.cls-2{fill:#c7cdd8;}.cls-3{fill:url(#linear-gradient-2);}.cls-4{fill:url(#linear-gradient-3);}.cls-5{fill:url(#linear-gradient-4);}.cls-6{fill:#5b8dc9;}.cls-7{fill:#42455e;}</style>
    <linearGradient
       id="linear-gradient-35"
       x1="5"
       y1="59"
       x2="53"
       y2="59"
       gradientUnits="userSpaceOnUse">
      <stop
         offset="0"
         stop-color="#d4d8e1"
         id="stop1378" />
      <stop
         offset="1"
         stop-color="#f3f4f5"
         id="stop1380" />
    </linearGradient>
    <linearGradient
       id="linear-gradient-2-6"
       x1="29"
       y1="59"
       x2="29"
       y2="1"
       gradientUnits="userSpaceOnUse">
      <stop
         offset="0"
         stop-color="#7aa8d7"
         id="stop1383" />
      <stop
         offset="1"
         stop-color="#c3d2e7"
         id="stop1385" />
    </linearGradient>
    <linearGradient
       id="linear-gradient-3-2"
       x1="32"
       y1="34"
       x2="32"
       y2="8"
       xlink:href="#linear-gradient-35" />
    <linearGradient
       id="linear-gradient-4-9"
       x1="8"
       y1="59"
       x2="8"
       y2="1"
       gradientUnits="userSpaceOnUse">
      <stop
         offset="0"
         stop-color="#474f72"
         id="stop1389" />
      <stop
         offset="1"
         stop-color="#878c9f"
         id="stop1391" />
    </linearGradient>
    <style
       id="style1454">.cls-1{fill:url(#linear-gradient);}.cls-2{fill:#5b8dc9;}.cls-3{fill:url(#linear-gradient-2);}.cls-4{fill:#cf4055;}.cls-5{fill:url(#linear-gradient-3);}.cls-6{fill:#f6b756;}.cls-7{fill:url(#linear-gradient-4);}.cls-8{fill:url(#linear-gradient-5);}.cls-9{fill:url(#linear-gradient-6);}.cls-10{fill:url(#linear-gradient-7);}.cls-11{fill:#4da67f;}.cls-12{fill:url(#linear-gradient-8);}.cls-13{fill:#c7cdd8;}.cls-14{fill:url(#linear-gradient-9);}.cls-15{fill:url(#linear-gradient-10);}.cls-16{fill:url(#linear-gradient-11);}.cls-17{fill:#ffd39f;}.cls-18{fill:url(#linear-gradient-12);}.cls-19{fill:#fff;}.cls-20{fill:#7ece67;}</style>
    <linearGradient
       id="linear-gradient-1"
       x1="23"
       y1="63"
       x2="23"
       y2="1"
       gradientUnits="userSpaceOnUse">
      <stop
         offset="0"
         stop-color="#7aa8d7"
         id="stop1456" />
      <stop
         offset="1"
         stop-color="#c3d2e7"
         id="stop1458" />
    </linearGradient>
    <linearGradient
       id="linear-gradient-2-2"
       x1="9"
       y1="63"
       x2="9"
       y2="11"
       gradientUnits="userSpaceOnUse">
      <stop
         offset="0"
         stop-color="#da5466"
         id="stop1461" />
      <stop
         offset="1"
         stop-color="#f4929c"
         id="stop1463" />
    </linearGradient>
    <linearGradient
       id="linear-gradient-3-7"
       x1="9"
       y1="58"
       x2="9"
       y2="16"
       gradientUnits="userSpaceOnUse">
      <stop
         offset="0"
         stop-color="#fbcc88"
         id="stop1466" />
      <stop
         offset="1"
         stop-color="#ffe5c3"
         id="stop1468" />
    </linearGradient>
    <linearGradient
       id="linear-gradient-4-0"
       x1="33"
       y1="63"
       x2="33"
       y2="15"
       gradientUnits="userSpaceOnUse">
      <stop
         offset="0"
         stop-color="#8cdd79"
         id="stop1471" />
      <stop
         offset="1"
         stop-color="#d4e6b6"
         id="stop1473" />
    </linearGradient>
    <linearGradient
       id="linear-gradient-5-9"
       x1="33"
       y1="57"
       x2="33"
       y2="53"
       gradientUnits="userSpaceOnUse">
      <stop
         offset="0"
         stop-color="#6ab891"
         id="stop1476" />
      <stop
         offset="1"
         stop-color="#85cba9"
         id="stop1478" />
    </linearGradient>
    <linearGradient
       id="linear-gradient-6-3"
       y1="53"
       y2="49"
       xlink:href="#linear-gradient-5-9" />
    <linearGradient
       id="linear-gradient-7-6"
       x1="54.290001"
       y1="63"
       x2="54.290001"
       y2="7.4499998"
       gradientTransform="rotate(10,54.276582,35.217281)"
       xlink:href="#linear-gradient-5-9" />
    <linearGradient
       id="linear-gradient-8-0"
       x1="54.290001"
       y1="57.23"
       x2="54.290001"
       y2="13.21"
       gradientTransform="rotate(10,54.276582,35.217281)"
       gradientUnits="userSpaceOnUse">
      <stop
         offset="0"
         stop-color="#d4d8e1"
         id="stop1483" />
      <stop
         offset="1"
         stop-color="#f3f4f5"
         id="stop1485" />
    </linearGradient>
    <linearGradient
       id="linear-gradient-9-6"
       x1="54.290001"
       y1="53.009998"
       x2="54.290001"
       y2="17.43"
       gradientTransform="rotate(10,54.276582,35.217281)"
       xlink:href="#linear-gradient-5-9" />
    <linearGradient
       id="linear-gradient-10"
       x1="42"
       y1="63"
       x2="42"
       y2="18"
       xlink:href="#linear-gradient-3-7" />
    <linearGradient
       id="linear-gradient-11"
       x1="42"
       y1="59"
       x2="42"
       y2="22"
       gradientUnits="userSpaceOnUse">
      <stop
         offset="0"
         stop-color="#e9a254"
         id="stop1490" />
      <stop
         offset="1"
         stop-color="#f4bb79"
         id="stop1492" />
    </linearGradient>
    <linearGradient
       id="linear-gradient-12"
       x1="23"
       y1="58"
       x2="23"
       y2="6"
       xlink:href="#linear-gradient-8-0" />
    <style
       id="style1614">.cls-1{fill:url(#linear-gradient);}.cls-2{fill:url(#linear-gradient-2);}.cls-3{fill:url(#linear-gradient-3);}.cls-4{fill:#42455e;}.cls-5{fill:url(#linear-gradient-4);}.cls-6{fill:url(#linear-gradient-5);}.cls-7{fill:#f2a961;}.cls-8{fill:url(#linear-gradient-6);}.cls-9{fill:url(#linear-gradient-7);}.cls-10{fill:#c7cdd8;}.cls-11{fill:#dd8b37;}</style>
    <linearGradient
       id="linear-gradient-26"
       x1="27"
       y1="63"
       x2="27"
       y2="1"
       gradientUnits="userSpaceOnUse">
      <stop
         offset="0"
         stop-color="#e9a254"
         id="stop1616" />
      <stop
         offset="1"
         stop-color="#f4bb79"
         id="stop1618" />
    </linearGradient>
    <linearGradient
       id="linear-gradient-2-1"
       x1="60"
       y1="61"
       x2="60"
       y2="3"
       xlink:href="#linear-gradient-26" />
    <linearGradient
       id="linear-gradient-3-8"
       x1="56.98"
       y1="57.5"
       x2="63.02"
       y2="57.5"
       gradientUnits="userSpaceOnUse">
      <stop
         offset="0"
         stop-color="#d1a788"
         id="stop1622" />
      <stop
         offset="1"
         stop-color="#f2d3b8"
         id="stop1624" />
    </linearGradient>
    <linearGradient
       id="linear-gradient-4-7"
       x1="60"
       y1="10"
       x2="60"
       y2="3"
       gradientUnits="userSpaceOnUse">
      <stop
         offset="0"
         stop-color="#d96bb0"
         id="stop1627" />
      <stop
         offset="1"
         stop-color="#e49fc6"
         id="stop1629" />
    </linearGradient>
    <linearGradient
       id="linear-gradient-5-92"
       x1="57"
       y1="12"
       x2="63"
       y2="12"
       gradientUnits="userSpaceOnUse">
      <stop
         offset="0"
         stop-color="#949aaf"
         id="stop1632" />
      <stop
         offset="1"
         stop-color="#c6ccda"
         id="stop1634" />
    </linearGradient>
    <linearGradient
       id="linear-gradient-6-0"
       x1="6"
       y1="63"
       x2="6"
       y2="1"
       gradientUnits="userSpaceOnUse">
      <stop
         offset="0"
         stop-color="#474f72"
         id="stop1637" />
      <stop
         offset="1"
         stop-color="#878c9f"
         id="stop1639" />
    </linearGradient>
    <linearGradient
       id="linear-gradient-7-2"
       x1="30"
       y1="26"
       x2="30"
       y2="8"
       gradientUnits="userSpaceOnUse">
      <stop
         offset="0"
         stop-color="#d4d8e1"
         id="stop1642" />
      <stop
         offset="1"
         stop-color="#f3f4f5"
         id="stop1644" />
    </linearGradient>
    <style
       id="style1728">.cls-1{fill:#c7cdd8;}.cls-2{fill:url(#linear-gradient);}.cls-3{fill:#dfe3ea;}</style>
    <linearGradient
       id="linear-gradient-37"
       x1="29"
       y1="63"
       x2="29"
       y2="5"
       gradientUnits="userSpaceOnUse">
      <stop
         offset="0"
         stop-color="#d4d8e1"
         id="stop1730" />
      <stop
         offset="1"
         stop-color="#f3f4f5"
         id="stop1732" />
    </linearGradient>
    <style
       id="style1797">.cls-1{fill:url(#linear-gradient);}.cls-2{fill:#42455e;}.cls-3{fill:url(#linear-gradient-2);}.cls-4{fill:url(#linear-gradient-3);}.cls-5{fill:#c7cdd8;}.cls-6{fill:#dfe3ea;}.cls-7{fill:#e8677d;}</style>
    <linearGradient
       id="linear-gradient-59"
       x1="32"
       y1="63"
       x2="32"
       y2="1"
       gradientUnits="userSpaceOnUse">
      <stop
         offset="0"
         stop-color="#474f72"
         id="stop1799" />
      <stop
         offset="1"
         stop-color="#878c9f"
         id="stop1801" />
    </linearGradient>
    <linearGradient
       id="linear-gradient-2-22"
       x1="32"
       y1="55"
       x2="32"
       y2="5"
       gradientUnits="userSpaceOnUse">
      <stop
         offset="0"
         stop-color="#d4d8e1"
         id="stop1804" />
      <stop
         offset="1"
         stop-color="#f3f4f5"
         id="stop1806" />
    </linearGradient>
    <linearGradient
       id="linear-gradient-3-89"
       x1="46"
       y1="50"
       x2="46"
       y2="5"
       gradientUnits="userSpaceOnUse">
      <stop
         offset="0"
         stop-color="#da5466"
         id="stop1809" />
      <stop
         offset="1"
         stop-color="#f4929c"
         id="stop1811" />
    </linearGradient>
    <style
       id="style1897">.cls-1{fill:url(#linear-gradient);}.cls-2{fill:#8a6762;}.cls-3{fill:url(#linear-gradient-2);}.cls-4{fill:url(#linear-gradient-3);}.cls-5{fill:#231f20;}</style>
    <linearGradient
       id="linear-gradient-73"
       x1="15.44"
       y1="29.17"
       x2="15.44"
       y2="3.72"
       gradientUnits="userSpaceOnUse">
      <stop
         offset="0"
         stop-color="#9b756d"
         id="stop1899" />
      <stop
         offset="1"
         stop-color="#bc9388"
         id="stop1901" />
    </linearGradient>
    <linearGradient
       id="linear-gradient-2-61"
       x1="26.809999"
       y1="63"
       x2="26.809999"
       y2="5.4299998"
       gradientUnits="userSpaceOnUse">
      <stop
         offset="0"
         stop-color="#d1a788"
         id="stop1904" />
      <stop
         offset="1"
         stop-color="#f2d3b8"
         id="stop1906" />
    </linearGradient>
    <linearGradient
       id="linear-gradient-3-29"
       x1="33.759998"
       y1="51.540001"
       x2="33.759998"
       y2="1"
       xlink:href="#linear-gradient-2-61" />
    <style
       id="style1943">.cls-1{fill:url(#linear-gradient);}.cls-2{fill:#c7cdd8;}.cls-3{fill:none;stroke:#231f20;stroke-linecap:round;stroke-linejoin:round;stroke-width:2px;}.cls-4{fill:url(#linear-gradient-3);}.cls-5{fill:#42455e;}.cls-6{fill:url(#linear-gradient-4);}.cls-7{fill:#cba07a;}.cls-8{fill:url(#linear-gradient-5);}.cls-9{fill:url(#linear-gradient-6);}.cls-10{fill:#231f20;}</style>
    <linearGradient
       id="linear-gradient-31"
       x1="32"
       y1="43.77"
       x2="32"
       y2="8"
       gradientUnits="userSpaceOnUse">
      <stop
         offset="0"
         stop-color="#d4d8e1"
         id="stop1945" />
      <stop
         offset="1"
         stop-color="#f3f4f5"
         id="stop1947" />
    </linearGradient>
    <linearGradient
       id="linear-gradient-3-9"
       x1="32"
       y1="44"
       x2="32"
       y2="26"
       gradientUnits="userSpaceOnUse">
      <stop
         offset="0"
         stop-color="#474f72"
         id="stop1950" />
      <stop
         offset="1"
         stop-color="#878c9f"
         id="stop1952" />
    </linearGradient>
    <linearGradient
       id="linear-gradient-4-4"
       x1="32"
       y1="50"
       x2="32"
       y2="44"
       gradientUnits="userSpaceOnUse">
      <stop
         offset="0"
         stop-color="#d1a788"
         id="stop1955" />
      <stop
         offset="1"
         stop-color="#f2d3b8"
         id="stop1957" />
    </linearGradient>
    <linearGradient
       id="linear-gradient-5-7"
       x1="9"
       y1="56"
       x2="9"
       y2="50"
       xlink:href="#linear-gradient-4-4" />
    <linearGradient
       id="linear-gradient-6-8"
       x1="55"
       y1="56"
       x2="55"
       y2="50"
       xlink:href="#linear-gradient-4-4" />
    <style
       id="style2032">.cls-1{fill:url(#linear-gradient);}.cls-2{fill:#c7cdd8;}.cls-3{fill:url(#linear-gradient-3);}.cls-4{fill:#cf4055;}.cls-5{fill:url(#linear-gradient-4);}.cls-6{fill:#cba07a;}.cls-7{fill:url(#linear-gradient-5);}.cls-8{fill:url(#linear-gradient-6);}.cls-9{fill:#231f20;}</style>
    <linearGradient
       id="linear-gradient-45"
       x1="31.98"
       y1="37"
       x2="31.98"
       y2="23"
       gradientUnits="userSpaceOnUse">
      <stop
         offset="0"
         stop-color="#d4d8e1"
         id="stop2034" />
      <stop
         offset="1"
         stop-color="#f3f4f5"
         id="stop2036" />
    </linearGradient>
    <linearGradient
       id="linear-gradient-3-0"
       x1="31.93"
       y1="29.940001"
       x2="31.93"
       y2="14.99"
       gradientUnits="userSpaceOnUse">
      <stop
         offset="0"
         stop-color="#da5466"
         id="stop2039" />
      <stop
         offset="1"
         stop-color="#f4929c"
         id="stop2041" />
    </linearGradient>
    <linearGradient
       id="linear-gradient-4-3"
       x1="32"
       y1="43"
       x2="32"
       y2="37"
       gradientUnits="userSpaceOnUse">
      <stop
         offset="0"
         stop-color="#d1a788"
         id="stop2044" />
      <stop
         offset="1"
         stop-color="#f2d3b8"
         id="stop2046" />
    </linearGradient>
    <linearGradient
       id="linear-gradient-5-6"
       x1="9"
       y1="49"
       x2="9"
       y2="43"
       xlink:href="#linear-gradient-4-3" />
    <linearGradient
       id="linear-gradient-6-1"
       x1="55"
       y1="49"
       x2="55"
       y2="43"
       xlink:href="#linear-gradient-4-3" />
    <style
       id="style2118">.cls-1{fill:url(#linear-gradient);}.cls-2{fill:url(#linear-gradient-2);}.cls-3{fill:#c7cdd8;}.cls-4{fill:url(#linear-gradient-3);}.cls-5{fill:url(#linear-gradient-4);}.cls-6{fill:#cf4055;}.cls-7{fill:url(#linear-gradient-5);}.cls-8{fill:url(#linear-gradient-6);}.cls-9{fill:#adb3c4;}.cls-10{fill:#42455e;}</style>
    <linearGradient
       id="linear-gradient-0"
       x1="32"
       y1="51"
       x2="32"
       y2="7"
       gradientUnits="userSpaceOnUse">
      <stop
         offset="0"
         stop-color="#474f72"
         id="stop2120" />
      <stop
         offset="1"
         stop-color="#878c9f"
         id="stop2122" />
    </linearGradient>
    <linearGradient
       id="linear-gradient-2-63"
       x1="32"
       y1="51"
       x2="32"
       y2="43"
       gradientUnits="userSpaceOnUse">
      <stop
         offset="0"
         stop-color="#d4d8e1"
         id="stop2125" />
      <stop
         offset="1"
         stop-color="#f3f4f5"
         id="stop2127" />
    </linearGradient>
    <linearGradient
       id="linear-gradient-3-20"
       x1="32"
       y1="63"
       x2="32"
       y2="51"
       gradientUnits="userSpaceOnUse">
      <stop
         offset="0"
         stop-color="#949aaf"
         id="stop2130" />
      <stop
         offset="1"
         stop-color="#c6ccda"
         id="stop2132" />
    </linearGradient>
    <linearGradient
       id="linear-gradient-4-6"
       x1="32"
       y1="37"
       x2="32"
       y2="5"
       gradientUnits="userSpaceOnUse">
      <stop
         offset="0"
         stop-color="#da5466"
         id="stop2135" />
      <stop
         offset="1"
         stop-color="#f4929c"
         id="stop2137" />
    </linearGradient>
    <linearGradient
       id="linear-gradient-5-1"
       x1="13"
       y1="19"
       x2="32"
       y2="19"
       xlink:href="#linear-gradient-2-63" />
    <linearGradient
       id="linear-gradient-6-5"
       x1="32"
       y1="19"
       x2="51"
       y2="19"
       xlink:href="#linear-gradient-2-63" />
    <linearGradient
       inkscape:collect="always"
       xlink:href="#linear-gradient"
       id="linearGradient14682"
       gradientUnits="userSpaceOnUse"
       x1="32"
       y1="36"
       x2="32"
       y2="1" />
    <linearGradient
       inkscape:collect="always"
       xlink:href="#linear-gradient-2"
       id="linearGradient14684"
       gradientUnits="userSpaceOnUse"
       x1="32"
       y1="25.09"
       x2="32"
       y2="9.0900002" />
    <linearGradient
       inkscape:collect="always"
       xlink:href="#linear-gradient-3"
       id="linearGradient14686"
       gradientUnits="userSpaceOnUse"
       x1="21"
       y1="15.09"
       x2="32"
       y2="15.09" />
    <linearGradient
       inkscape:collect="always"
       xlink:href="#linear-gradient-3"
       id="linearGradient14688"
       x1="32"
       y1="15.09"
       x2="43"
       y2="15.09" />
    <linearGradient
       inkscape:collect="always"
       xlink:href="#linear-gradient-5"
       id="linearGradient14690"
       gradientUnits="userSpaceOnUse"
       x1="32"
       y1="53"
       x2="32"
       y2="41" />
    <linearGradient
       inkscape:collect="always"
       xlink:href="#linear-gradient-3"
       id="linearGradient14692"
       x1="32"
       y1="63"
       y2="53" />
    <linearGradient
       inkscape:collect="always"
       xlink:href="#linear-gradient-5"
       id="linearGradient14694"
       gradientUnits="userSpaceOnUse"
       x1="32"
       y1="53"
       x2="32"
       y2="41" />
    <linearGradient
       inkscape:collect="always"
       xlink:href="#linear-gradient-3"
       id="linearGradient14696"
       x1="52"
       y1="63"
       x2="52"
       y2="53" />
    <linearGradient
       inkscape:collect="always"
       xlink:href="#linear-gradient-3"
       id="linearGradient14698"
       x1="52"
       y1="63"
       x2="52"
       y2="53" />
    <linearGradient
       inkscape:collect="always"
       xlink:href="#linear-gradient-3"
       id="linearGradient14700"
       x1="52"
       y1="63"
       x2="52"
       y2="53" />
    <linearGradient
       inkscape:collect="always"
       xlink:href="#linear-gradient-5"
       id="linearGradient14702"
       x1="12"
       x2="12" />
    <linearGradient
       inkscape:collect="always"
       xlink:href="#linear-gradient-5"
       id="linearGradient14704"
       x1="12"
       x2="12" />
    <linearGradient
       inkscape:collect="always"
       xlink:href="#linear-gradient-5"
       id="linearGradient14706"
       x1="12"
       x2="12" />
    <linearGradient
       inkscape:collect="always"
       xlink:href="#linear-gradient-3-7"
       id="linearGradient14708"
       x1="42"
       y1="63"
       x2="42"
       y2="18" />
    <linearGradient
       inkscape:collect="always"
       xlink:href="#linear-gradient-3-7"
       id="linearGradient14710"
       x1="42"
       y1="63"
       x2="42"
       y2="18" />
    <linearGradient
       inkscape:collect="always"
       xlink:href="#linear-gradient-3-7"
       id="linearGradient14712"
       x1="42"
       y1="63"
       x2="42"
       y2="18" />
  </defs>
  <g
     inkscape:label="Layer 1"
     inkscape:groupmode="layer"
     id="layer1"
     transform="translate(-133.184,-864.03958)">
    <path
       id="rect35401"
       style="opacity:1;fill:#ffffff;fill-opacity:0.99591;stroke-width:4.04395;stroke-linecap:round;paint-order:stroke fill markers;stop-color:#000000"
       d="M 133.184,864.03958 H 410.81519 V 1141.671 H 133.184 Z" />
    <g
       id="g14275"
       data-name="Discussion Class"
       transform="matrix(1.064052,-0.10156545,0.10156545,1.064052,681.75757,459.80717)">
      <path
         class="cls-1"
         d="M 59,1 H 5 C 2.79,1 1,1.79 1,4 v 22 a 4,4 0 0 0 4,4 h 4 l 3,6 3,-6 h 14 l 3,6 3,-6 h 14 l 3,6 3,-6 h 4 a 4,4 0 0 0 4,-4 V 4 C 63,1.79 61.21,1 59,1 Z"
         id="path14209"
         style="fill:url(#linearGradient14682)" />
      <path
         class="cls-2"
         d="m 63,25 v 1 a 4,4 0 0 1 -4,4 h -4 l -3,6 -3,-6 H 35 l -3,6 -3,-6 H 15 L 12,36 9,30 H 5 A 4,4 0 0 1 1,26 v -1 a 3,3 0 0 0 3,3 h 56 a 3,3 0 0 0 3,-3 z"
         id="path14211"
         style="fill:url(#linearGradient14684)" />
      <path
         class="cls-3"
         d="m 17,9.09 v 16 h 30 v -16 z"
         id="path14213" />
      <path
         class="cls-4"
         d="m 17,23 v 2.09 H 47 V 23 Z"
         id="path14215"
         style="fill:url(#linearGradient14686)" />
      <path
         class="cls-5"
         d="m 32,9.09 v 16 c -4.31,-4.31 -5,-4 -11,-4 v -16 c 6,0 6.69,-0.31 11,4 z"
         id="path14217"
         style="fill:url(#linearGradient14688)" />
      <path
         class="cls-6"
         d="m 32,9.09 v 16 c 4.31,-4.31 5,-4 11,-4 v -16 c -6,0 -6.69,-0.31 -11,4 z"
         id="path14219" />
      <path
         class="cls-7"
         d="m 32,53 a 5,5 0 0 1 -5,-5 v -2 a 5,5 0 0 1 10,0 v 2 a 5,5 0 0 1 -5,5 z"
         id="path14221"
         style="fill:url(#linearGradient14690)" />
      <path
         class="cls-8"
         d="M 42,63 H 22 a 10,10 0 0 1 20,0 z"
         id="path14223"
         style="fill:url(#linearGradient14692)" />
      <path
         class="cls-9"
         d="m 52,53 a 5,5 0 0 1 -5,-5 v -2 a 5,5 0 0 1 10,0 v 2 a 5,5 0 0 1 -5,5 z"
         id="path14225" />
      <path
         class="cls-10"
         d="M 62,63 H 42 a 10,10 0 0 1 20,0 z"
         id="path14227" />
      <path
         class="cls-11"
         d="M 12,53 A 5,5 0 0 1 7,48 v -2 a 5,5 0 0 1 10,0 v 2 a 5,5 0 0 1 -5,5 z"
         id="path14229" />
      <path
         class="cls-7"
         d="m 32,53 a 5,5 0 0 1 -5,-5 v -2 a 5,5 0 0 1 10,0 v 2 a 5,5 0 0 1 -5,5 z"
         id="path14231"
         style="fill:url(#linearGradient14694)" />
      <path
         class="cls-9"
         d="m 52,53 a 5,5 0 0 1 -5,-5 v -2 a 5,5 0 0 1 10,0 v 2 a 5,5 0 0 1 -5,5 z"
         id="path14233" />
      <path
         class="cls-11"
         d="M 12,53 A 5,5 0 0 1 7,48 v -2 a 5,5 0 0 1 10,0 v 2 a 5,5 0 0 1 -5,5 z"
         id="path14235" />
      <path
         class="cls-12"
         d="m 37,46 v 2 a 5,5 0 0 1 -10,0 v -2 a 5,5 0 0 0 10,0 z"
         id="path14237"
         style="fill:url(#linearGradient14696)" />
      <path
         class="cls-12"
         d="m 57,46 v 2 a 5,5 0 0 1 -10,0 v -2 a 5,5 0 0 0 10,0 z"
         id="path14239"
         style="fill:url(#linearGradient14698)" />
      <path
         class="cls-12"
         d="m 17,46 v 2 A 5,5 0 0 1 7,48 v -2 a 5,5 0 0 0 10,0 z"
         id="path14241"
         style="fill:url(#linearGradient14700)" />
      <path
         class="cls-13"
         d="M 22,63 H 2 a 10,10 0 0 1 20,0 z"
         id="path14243" />
      <path
         class="cls-14"
         d="M 21.8,61 A 10.2,10.2 0 0 1 22,63 H 2 a 10,10 0 0 1 0.2,-2 z"
         id="path14245"
         style="fill:url(#linearGradient14702)" />
      <path
         class="cls-14"
         d="M 41.8,61 A 10.2,10.2 0 0 1 42,63 H 22 a 10,10 0 0 1 0.2,-2 z"
         id="path14247"
         style="fill:url(#linearGradient14704)" />
      <path
         class="cls-14"
         d="M 62,63 H 42 a 10,10 0 0 1 0.2,-2 h 19.6 a 10.2,10.2 0 0 1 0.2,2 z"
         id="path14249"
         style="fill:url(#linearGradient14706)" />
      <path
         class="cls-15"
         d="m 36.92,54.3 a 8,8 0 0 1 -9.84,0 10,10 0 0 1 9.84,0 z"
         id="path14251"
         style="fill:url(#linearGradient14708)" />
      <path
         class="cls-15"
         d="m 56.92,54.3 a 8,8 0 0 1 -9.84,0 10,10 0 0 1 9.84,0 z"
         id="path14253"
         style="fill:url(#linearGradient14710)" />
      <path
         class="cls-15"
         d="m 16.92,54.3 a 8,8 0 0 1 -9.84,0 10,10 0 0 1 9.84,0 z"
         id="path14255"
         style="fill:url(#linearGradient14712)" />
      <path
         d="M 55.75,52.67 C 58.27,50.67 58,48.17 58,46 a 6,6 0 0 0 -12,0 c 0,2.24 -0.27,4.65 2.25,6.67 A 11.08,11.08 0 0 0 42,58.44 11.08,11.08 0 0 0 35.75,52.67 C 38.27,50.67 38,48.17 38,46 a 6,6 0 0 0 -12,0 c 0,2.24 -0.27,4.65 2.25,6.67 A 11.08,11.08 0 0 0 22,58.44 11.08,11.08 0 0 0 15.75,52.67 C 18.27,50.67 18,48.17 18,46 A 6,6 0 0 0 6,46 c 0,2.24 -0.27,4.65 2.25,6.67 A 11,11 0 0 0 1,63 a 1,1 0 0 0 2,0 9,9 0 0 1 18,0 1,1 0 0 0 2,0 9,9 0 0 1 18,0 1,1 0 0 0 2,0 9,9 0 0 1 18,0 1,1 0 0 0 2,0 11,11 0 0 0 -7.25,-10.33 z M 8,48 v -2 a 4,4 0 0 1 8,0 v 2 a 4,4 0 0 1 -8,0 z m 20,0 v -2 a 4,4 0 0 1 8,0 v 2 a 4,4 0 0 1 -8,0 z m 20,0 v -2 a 4,4 0 0 1 8,0 v 2 a 4,4 0 0 1 -8,0 z"
         id="path14257" />
      <path
         d="m 6,61 v 2 a 1,1 0 0 0 2,0 v -2 a 1,1 0 0 0 -2,0 z"
         id="path14259" />
      <path
         d="m 16,61 v 2 a 1,1 0 0 0 2,0 v -2 a 1,1 0 0 0 -2,0 z"
         id="path14261" />
      <path
         d="m 26,61 v 2 a 1,1 0 0 0 2,0 v -2 a 1,1 0 0 0 -2,0 z"
         id="path14263" />
      <path
         d="m 36,61 v 2 a 1,1 0 0 0 2,0 v -2 a 1,1 0 0 0 -2,0 z"
         id="path14265" />
      <path
         d="m 46,61 v 2 a 1,1 0 0 0 2,0 v -2 a 1,1 0 0 0 -2,0 z"
         id="path14267" />
      <path
         d="m 56,61 v 2 a 1,1 0 0 0 2,0 v -2 a 1,1 0 0 0 -2,0 z"
         id="path14269" />
      <path
         d="m 47,8.09 h -3 v -3 a 1,1 0 0 0 -1,-1 C 37.46,4.09 36,3.75 32,7.68 28,3.75 26.54,4.09 21,4.09 a 1,1 0 0 0 -1,1 v 3 h -3 a 1,1 0 0 0 -1,1 v 16 a 1,1 0 0 0 1,1 h 30 a 1,1 0 0 0 1,-1 v -16 a 1,1 0 0 0 -1,-1 z m -5,-2 v 14 c -3.9,0 -5.86,-0.21 -9,2.64 V 9.5 c 3.59,-3.58 4.29,-3.41 9,-3.41 z m -20,0 c 4.68,0 5.38,-0.2 9,3.41 v 13.23 c -3.14,-2.85 -5.11,-2.64 -9,-2.64 z m -4,4 h 2 v 11 a 1,1 0 0 0 1,1 c 4.27,0 5.85,-0.37 8.52,2 H 18 Z m 28,14 H 34.48 c 2.69,-2.39 4.32,-2 8.52,-2 a 1,1 0 0 0 1,-1 v -11 h 2 z"
         id="path14271" />
      <path
         d="M 59,0 H 5 C 1.87,0 0,1.5 0,4 v 22 a 5,5 0 0 0 5,5 h 3.38 l 2.73,5.45 a 1,1 0 0 0 1.78,0 L 15.62,31 h 12.76 l 2.73,5.45 a 1,1 0 0 0 1.78,0 L 35.62,31 h 12.76 l 2.73,5.45 a 1,1 0 0 0 1.78,0 L 55.62,31 H 59 a 5,5 0 0 0 5,-5 V 4 C 64,1.5 62.13,0 59,0 Z m 3,26 a 3,3 0 0 1 -3,3 h -4 c -0.82,0 -0.78,0.31 -3,4.76 C 49.73,29.23 49.81,29 49,29 34,29 34.49,28.78 34.11,29.55 L 32,33.76 29.89,29.55 C 29.51,28.77 30,29 15,29 14.18,29 14.22,29.31 12,33.76 9.73,29.23 9.81,29 9,29 H 5 A 3,3 0 0 1 2,26 V 4 C 2,3.5 2,2 5,2 h 54 c 3,0 3,1.5 3,2 z"
         id="path14273" />
    </g>
    <rect
       style="opacity:0.05;fill:#000000;fill-opacity:1;stroke:none;stroke-width:1.18447;stroke-linecap:round;paint-order:stroke fill markers;stop-color:#000000"
       id="rect34060"
       width="277.6312"
       height="277.63141"
       x="133.18399"
       y="864.03961" />
    <path
       id="rect5101"
       style="fill:#ff2929;fill-opacity:1;stroke-linecap:round;paint-order:stroke fill markers;stop-color:#000000"
       d="m 102.2498,873.63288 h 34.91571 c 3.84564,0 6.94159,3.0959 6.94159,6.9416 v 34.9157 c 0,3.8456 -3.09595,6.9416 -6.94159,6.9416 H 102.2498 c -3.845645,0 -6.941585,-3.096 -6.941585,-6.9416 v -34.9157 c 0,-3.8457 3.09594,-6.9416 6.941585,-6.9416 z" />
    <path
       id="path5373"
       style="fill:#37c871;fill-opacity:1;stroke-linecap:round;paint-order:stroke fill markers;stop-color:#000000"
       d="m 170.4105,873.63288 h 34.91572 c 3.84564,0 6.94159,3.0959 6.94159,6.9416 v 34.9157 c 0,3.8456 -3.09595,6.9416 -6.94159,6.9416 H 170.4105 c -3.84564,0 -6.94157,-3.096 -6.94157,-6.9416 v -34.9157 c 0,-3.8457 3.09594,-6.9416 6.94157,-6.9416 z" />
    <path
       id="path5375"
       style="fill:#ff2929;fill-opacity:1;stroke-linecap:round;paint-order:stroke fill markers;stop-color:#000000"
       d="m 238.57121,873.63288 h 34.91573 c 3.84564,0 6.94159,3.0959 6.94159,6.9416 v 34.9157 c 0,3.8456 -3.09595,6.9416 -6.94159,6.9416 h -34.91572 c -3.84564,0 -6.94158,-3.096 -6.94158,-6.9416 v -34.9157 c 0,-3.8457 3.09594,-6.9416 6.94157,-6.9416 z" />
    <path
       id="path5377"
       style="fill:#37c871;fill-opacity:1;stroke-linecap:round;paint-order:stroke fill markers;stop-color:#000000"
       d="m 306.73192,873.63288 h 34.91572 c 3.84564,0 6.94159,3.0959 6.94159,6.9416 v 34.9157 c 0,3.8456 -3.09595,6.9416 -6.94159,6.9416 h -34.91572 c -3.84565,0 -6.94158,-3.096 -6.94158,-6.9416 v -34.9157 c 0,-3.8457 3.09593,-6.9416 6.94158,-6.9416 z" />
    <path
       id="path5379"
       style="fill:#ff2929;fill-opacity:1;stroke-linecap:round;paint-order:stroke fill markers;stop-color:#000000"
       d="m 374.89262,873.63288 h 34.91573 c 3.84564,0 6.94159,3.0959 6.94159,6.9416 v 34.9157 c 0,3.8456 -3.09595,6.9416 -6.94159,6.9416 h -34.91573 c -3.84564,0 -6.94157,-3.096 -6.94157,-6.9416 v -34.9157 c 0,-3.8457 3.09593,-6.9416 6.94157,-6.9416 z" />
    <path
       id="path5381"
       style="fill:#00ccff;fill-opacity:1;stroke-linecap:round;paint-order:stroke fill markers;stop-color:#000000"
       d="m 134.19083,943.51488 h 34.91572 c 3.84564,0 6.94159,3.0959 6.94159,6.9416 v 34.9157 c 0,3.8456 -3.09595,6.9416 -6.94159,6.9416 h -34.91572 c -3.84564,0 -6.94157,-3.096 -6.94157,-6.9416 v -34.9157 c 0,-3.8457 3.09594,-6.9416 6.94157,-6.9416 z" />
    <path
       id="path5383"
       style="fill:#ff297e;fill-opacity:1;stroke-linecap:round;paint-order:stroke fill markers;stop-color:#000000"
       d="m 202.35154,943.51488 h 34.91572 c 3.84564,0 6.94159,3.0959 6.94159,6.9416 v 34.9157 c 0,3.8456 -3.09595,6.9416 -6.94159,6.9416 h -34.91572 c -3.84564,0 -6.94158,-3.096 -6.94158,-6.9416 v -34.9157 c 0,-3.8457 3.09595,-6.9416 6.94158,-6.9416 z" />
    <path
       id="path5385"
       style="fill:#00ccff;fill-opacity:1;stroke-linecap:round;paint-order:stroke fill markers;stop-color:#000000"
       d="m 270.51225,943.51488 h 34.91572 c 3.84564,0 6.9416,3.0959 6.9416,6.9416 v 34.9157 c 0,3.8456 -3.09596,6.9416 -6.9416,6.9416 h -34.91572 c -3.84564,0 -6.94158,-3.096 -6.94158,-6.9416 v -34.9157 c 0,-3.8457 3.09594,-6.9416 6.94158,-6.9416 z" />
    <path
       id="path5387"
       style="fill:#ff297e;fill-opacity:1;stroke-linecap:round;paint-order:stroke fill markers;stop-color:#000000"
       d="m 338.67295,943.51488 h 34.91573 c 3.84564,0 6.94159,3.0959 6.94159,6.9416 v 34.9157 c 0,3.8456 -3.09595,6.9416 -6.94159,6.9416 h -34.91573 c -3.84564,0 -6.94157,-3.096 -6.94157,-6.9416 v -34.9157 c 0,-3.8457 3.09593,-6.9416 6.94157,-6.9416 z" />
    <path
       id="path5389"
       style="fill:#00ccff;fill-opacity:1;stroke-linecap:round;paint-order:stroke fill markers;stop-color:#000000"
       d="m 406.83366,943.51488 h 34.91573 c 3.84564,0 6.94159,3.0959 6.94159,6.9416 v 34.9157 c 0,3.8456 -3.09595,6.9416 -6.94159,6.9416 h -34.91573 c -3.84564,0 -6.94158,-3.096 -6.94158,-6.9416 v -34.9157 c 0,-3.8457 3.09594,-6.9416 6.94158,-6.9416 z" />
    <path
       id="path5391"
       style="fill:#3737c8;fill-opacity:1;stroke-linecap:round;paint-order:stroke fill markers;stop-color:#000000"
       d="m 102.2498,1013.3968 h 34.91571 c 3.84564,0 6.94159,3.0959 6.94159,6.9416 v 34.9157 c 0,3.8456 -3.09595,6.9416 -6.94159,6.9416 H 102.2498 c -3.845645,0 -6.941585,-3.096 -6.941585,-6.9416 v -34.9157 c 0,-3.8457 3.09594,-6.9416 6.941585,-6.9416 z" />
    <path
       id="path5393"
       style="fill:#ff2929;fill-opacity:1;stroke-linecap:round;paint-order:stroke fill markers;stop-color:#000000"
       d="m 170.4105,1013.3968 h 34.91572 c 3.84564,0 6.94159,3.0959 6.94159,6.9416 v 34.9157 c 0,3.8456 -3.09595,6.9416 -6.94159,6.9416 H 170.4105 c -3.84564,0 -6.94157,-3.096 -6.94157,-6.9416 v -34.9157 c 0,-3.8457 3.09594,-6.9416 6.94157,-6.9416 z" />
    <path
       id="path5395"
       style="fill:#3737c8;fill-opacity:1;stroke-linecap:round;paint-order:stroke fill markers;stop-color:#000000"
       d="m 238.57121,1013.3968 h 34.91573 c 3.84564,0 6.94159,3.0959 6.94159,6.9416 v 34.9157 c 0,3.8456 -3.09595,6.9416 -6.94159,6.9416 h -34.91572 c -3.84564,0 -6.94158,-3.096 -6.94158,-6.9416 v -34.9157 c 0,-3.8457 3.09594,-6.9416 6.94157,-6.9416 z" />
    <path
       id="path5397"
       style="fill:#ff2929;fill-opacity:1;stroke-linecap:round;paint-order:stroke fill markers;stop-color:#000000"
       d="m 306.73192,1013.3968 h 34.91572 c 3.84564,0 6.94159,3.0959 6.94159,6.9416 v 34.9157 c 0,3.8456 -3.09595,6.9416 -6.94159,6.9416 h -34.91572 c -3.84565,0 -6.94158,-3.096 -6.94158,-6.9416 v -34.9157 c 0,-3.8457 3.09593,-6.9416 6.94158,-6.9416 z" />
    <path
       id="path5399"
       style="fill:#3737c8;fill-opacity:1;stroke-linecap:round;paint-order:stroke fill markers;stop-color:#000000"
       d="m 374.89262,1013.3968 h 34.91573 c 3.84564,0 6.94159,3.0959 6.94159,6.9416 v 34.9157 c 0,3.8456 -3.09595,6.9416 -6.94159,6.9416 h -34.91573 c -3.84564,0 -6.94157,-3.096 -6.94157,-6.9416 v -34.9157 c 0,-3.8457 3.09593,-6.9416 6.94157,-6.9416 z" />
    <path
       id="path5422"
       style="fill:#37c871;fill-opacity:1;stroke-linecap:round;paint-order:stroke fill markers;stop-color:#000000"
       d="m 134.19083,1083.2788 h 34.91572 c 3.84564,0 6.94159,3.0959 6.94159,6.9416 v 34.9157 c 0,3.8456 -3.09595,6.9416 -6.94159,6.9416 h -34.91572 c -3.84564,0 -6.94157,-3.096 -6.94157,-6.9416 v -34.9157 c 0,-3.8457 3.09594,-6.9416 6.94157,-6.9416 z" />
    <path
       id="path5424"
       style="fill:#00ccff;fill-opacity:1;stroke-linecap:round;paint-order:stroke fill markers;stop-color:#000000"
       d="m 202.35154,1083.2788 h 34.91572 c 3.84564,0 6.94159,3.0959 6.94159,6.9416 v 34.9157 c 0,3.8456 -3.09595,6.9416 -6.94159,6.9416 h -34.91572 c -3.84564,0 -6.94158,-3.096 -6.94158,-6.9416 v -34.9157 c 0,-3.8457 3.09595,-6.9416 6.94158,-6.9416 z" />
    <path
       id="path5426"
       style="fill:#37c871;fill-opacity:1;stroke-linecap:round;paint-order:stroke fill markers;stop-color:#000000"
       d="m 270.51225,1083.2788 h 34.91572 c 3.84564,0 6.9416,3.0959 6.9416,6.9416 v 34.9157 c 0,3.8456 -3.09596,6.9416 -6.9416,6.9416 h -34.91572 c -3.84564,0 -6.94158,-3.096 -6.94158,-6.9416 v -34.9157 c 0,-3.8457 3.09594,-6.9416 6.94158,-6.9416 z" />
    <path
       id="path5428"
       style="fill:#00ccff;fill-opacity:1;stroke-linecap:round;paint-order:stroke fill markers;stop-color:#000000"
       d="m 338.67295,1083.2788 h 34.91573 c 3.84564,0 6.94159,3.0959 6.94159,6.9416 v 34.9157 c 0,3.8456 -3.09595,6.9416 -6.94159,6.9416 h -34.91573 c -3.84564,0 -6.94157,-3.096 -6.94157,-6.9416 v -34.9157 c 0,-3.8457 3.09593,-6.9416 6.94157,-6.9416 z" />
    <path
       id="path5430"
       style="fill:#37c871;fill-opacity:1;stroke-linecap:round;paint-order:stroke fill markers;stop-color:#000000"
       d="m 406.83366,1083.2788 h 34.91573 c 3.84564,0 6.94159,3.0959 6.94159,6.9416 v 34.9157 c 0,3.8456 -3.09595,6.9416 -6.94159,6.9416 h -34.91573 c -3.84564,0 -6.94158,-3.096 -6.94158,-6.9416 v -34.9157 c 0,-3.8457 3.09594,-6.9416 6.94158,-6.9416 z" />
    <path
       d="m 119.24766,880.71238 -5.2,-0.12 c 0.04,0.68 -0.04,1.64 -0.08,2.4 -0.08,0.68 -0.15999,1.4 -0.23999,2.16 -0.52,0 -1.04001,0 -1.6,0 -2.44,0 -5.96,-0.32 -7.36,-0.56 l 0.12,4.64 c 1.88,0.08 5,0.24 7.08,0.24 0.44,0 0.84,0 1.28,0 -0.16,1.64 -0.28,3.32 -0.36,5.04 -5.6,2.64 -9.84,8 -9.84,13.16 0,4.04 2.48,5.8 5.4,5.8 2.12,0 4.24,-0.64 6.2,-1.6 0.16,0.56 0.36,1.12 0.52,1.64 l 4.6,-1.4 c -0.32,-0.96 -0.64,-1.96 -0.92,-2.96 3.04,-2.52 6.24,-6.72 8.4,-12.16 2.75999,1.08 4.15999,3.2 4.15999,5.6 0,3.92 -3.12,7.84 -10.83999,8.68 l 2.64,4.2 c 9.83999,-1.48 13.15999,-6.96 13.15999,-12.64 0,-4.64 -3.08,-8.28 -7.72,-9.8 0.24,-0.76 0.56,-1.6 0.72,-2.04 l -4.87999,-1.16 c -0.04,0.6 -0.2,1.6 -0.36001,2.4 -0.24,0 -0.47999,0 -0.72,0 -1.96,0 -4.03999,0.28 -5.95999,0.72 0.04,-1.2 0.15999,-2.44 0.28,-3.64 4.92,-0.2 10.27999,-0.68 14.19999,-1.4 l -0.04,-4.64 c -4.39999,1.04 -8.71999,1.56 -13.59999,1.76 0.12,-0.8 0.28,-1.52 0.4,-2.2 0.16,-0.6 0.32,-1.32 0.55999,-2.12 z m -11.48,25.92 c 0,-2.28 2,-5.32 5,-7.36 0.08,2.76 0.40001,5.52 0.84,8 -1.43999,0.84 -2.87999,1.32 -4,1.32 -1.28,0 -1.84,-0.68 -1.84,-1.96 z m 9.52,-9.32 v -0.12 c 1.56,-0.48 3.4,-0.84 5.52001,-0.88 -1.36001,3.24 -3.16,5.68 -5.04001,7.64 -0.31999,-2 -0.48,-4.2 -0.48,-6.64 z"
       style="font-weight:bold;font-size:40px;line-height:1.25;font-family:Montserrat;-inkscape-font-specification:Montserrat;fill:#ffffff"
       id="path32472" />
    <path
       d="m 141.0887,953.21438 -6.16,-0.08 c 0.24001,1.24 0.32,2.96 0.32,4.08 0,2.44 0.04,7.12 0.44,10.8 1.12,10.72 4.92,14.68 9.32,14.68 3.2,0 5.72,-2.44 8.36,-9.4 l -4,-4.8801 c -0.76,3.2001 -2.36,7.8801 -4.24,7.8801 -2.52,0 -3.72,-3.96 -4.28,-9.72 -0.24,-2.8801 -0.28,-5.8801 -0.24,-8.48 0,-1.12 0.2,-3.4401 0.48,-4.88 z m 20,0.92 -5.08,1.64 c 4.36,4.96 6.48,14.68 7.12,21.12 l 5.24,-2.04 c -0.44,-6.12 -3.47999,-16.12 -7.28,-20.72 z"
       style="font-weight:bold;font-size:40px;line-height:1.25;font-family:Montserrat;-inkscape-font-specification:Montserrat;fill:#ffffff"
       id="path32474" />
    <path
       d="m 195.88836,1039.5963 c 0,6.24 -6.4,9.52 -16.32,10.64 l 2.88,4.96 c 11.12,-1.52 19.04,-6.84 19.04,-15.4 0,-6.28 -4.44,-9.88 -10.76,-9.88 -4.68,0 -9.16,1.16 -12.08,1.84 -1.32,0.28 -3.04,0.56 -4.4,0.68 l 1.52,5.72 c 1.16,-0.44 2.72,-1.08 3.88,-1.4 2.04,-0.6 6,-1.96 10.4,-1.96 3.76,0 5.84,2.16 5.84,4.8 z m -15.72,-19.2 -0.8,4.8 c 4.6,0.8 13.28,1.6 17.96,1.92 l 0.8,-4.92 c -4.24,-0.04 -13.32,-0.8 -17.96,-1.8 z"
       style="font-weight:bold;font-size:40px;line-height:1.25;font-family:Montserrat;-inkscape-font-specification:Montserrat;fill:#ffffff"
       id="path32476" />
    <path
       d="m 211.86941,1090.2783 -0.75999,4.64 c 4.75999,0.8 12.24,1.68 16.43999,2 l 0.64,-4.68 c -4.16,-0.28 -11.84,-1.12 -16.32,-1.96 z m 17.72,12.72 -2.91999,-3.32 c -0.44,0.16 -1.52001,0.36 -2.28,0.44 -3.32,0.44 -12.40001,0.84 -14.28,0.84 -1.48,0.04 -2.92,-0.04 -3.84001,-0.12 l 0.48,5.52 c 0.84,-0.12 2.04,-0.32 3.44,-0.44 2.28,-0.2 7.08,-0.64 9.88,-0.72 -3.64,3.84 -11.84,12 -13.88,14.08 -1.08,1.04 -2.04,1.88 -2.76,2.48 l 4.72,3.32 c 2.76,-3.52 5.76,-6.8 7.12,-8.2001 0.96001,-0.96 1.80001,-1.5999 2.64,-1.5999 0.8,0 1.68,0.52 2.12,1.92 0.28,1 0.76,2.88 1.16,4.08 1,2.5999 3.04,3.44 6.84,3.44 2.08001,0 6.2,-0.28 7.84,-0.6 l 0.32,-5.24 c -2,0.4 -4.76,0.72 -7.84,0.72 -1.56,0 -2.44,-0.64 -2.8,-1.88 -0.36,-1.04 -0.8,-2.56 -1.16,-3.64 -0.52,-1.48 -1.24,-2.36 -2.4,-2.7201 -0.44,-0.1599 -1.16,-0.3199 -1.52,-0.2799 0.96,-1.04 4.68,-4.48 6.52,-6.04 0.72,-0.6 1.56,-1.32 2.6,-2.04 z"
       style="font-weight:bold;font-size:40px;line-height:1.25;font-family:Montserrat;-inkscape-font-specification:Montserrat;fill:#ffffff"
       id="path32478" />
    <path
       d="m 184.34836,880.77238 h -5.52 c 0.12,0.72 0.28,2.68 0.28,3.52 0,0.68 0,1.84 -0.04,3.24 -0.8,0.04 -1.6,0.08 -2.32,0.08 -1.44,0 -3.16,-0.04 -5.52,-0.32 l 0.08,4.84 c 1.36001,0.16 2.92,0.2 5.6,0.2 0.64,0 1.36001,-0.04 2.12,-0.08 0,1.12 0,2.24 0,3.36 0,0.92 0,1.88 0.04,2.84 -4.92,2.12 -8.92,5.76 -8.92,9.24 0,4.24 5.48,7.6 9.36001,7.6 2.63999,0 4.4,-1.32 4.4,-6.28 0,-1.36 -0.08,-4.48 -0.16,-7.64 2.44,-0.72 5.04,-1.12 7.52,-1.12 3.48,0 5.88,1.6 5.88,4.32 0,2.92 -2.56,4.52 -5.8,5.12 -1.4,0.24 -3.12,0.28 -4.92,0.28 l 1.84,5.16 c 1.64,-0.12 3.4,-0.24 5.24,-0.64 6.36,-1.6 8.84,-5.16 8.84,-9.88 0,-5.52 -4.84,-8.72 -11,-8.72 -2.2,0 -4.96,0.36 -7.68,1.04 0,-0.52 0,-1 0,-1.48 0,-1.16 0,-2.4 0.04,-3.6 2.6,-0.32 5.36,-0.72 7.64,-1.24 l -0.12,-4.96 c -2.08001,0.6 -4.72,1.12 -7.36001,1.44 0.04,-1 0.08,-1.96 0.12001,-2.84 0.08,-1.04 0.24,-2.76 0.35999,-3.48 z m 11.4,4.32 -2.19999,3.88 c 2.47999,1.2 7.72,4.2 9.64,5.84 l 2.4,-4.08 c -2.12,-1.52 -6.76,-4.16 -9.84001,-5.64 z m -20.68,22.4 c 0,-1.4 1.64,-3.04 4.08,-4.36 0.08,2.16 0.12001,4 0.12001,5 0,1.36 -0.56,1.68 -1.28,1.68 -1.04,0 -2.92,-1.08 -2.92001,-2.32 z"
       style="font-weight:bold;font-size:40px;line-height:1.25;font-family:Montserrat;-inkscape-font-specification:Montserrat;fill:#ffffff"
       id="path32480" />
    <path
       d="m 217.52941,951.49438 -5.96,-0.6 c 0.04,2.52 -0.28,5.44 -0.84,8.48 -2.04,0.16 -3.92,0.28 -5.16,0.32 -1.48,0.04 -2.84,0.12 -4.28,0 l 0.48,5.44 c 1.2,-0.2 3.32,-0.48 4.44,-0.68 0.76,-0.08 2,-0.24 3.44,-0.4 -1.44,5.48 -4.2,13.56 -8.08,18.8 l 5.2,2.08 c 3.68,-5.88 6.64,-15.36 8.16,-21.44 1.12,-0.08 2.12,-0.1601 2.76,-0.1601 2.52,0 3.88,0.44 3.88,3.6401 0,3.96 -0.52,8.7999 -1.6,11.08 -0.64,1.3199 -1.68,1.7199 -3,1.7199 -1.08,0 -3.36,-0.4 -4.92,-0.8399 l 0.88,5.2799 c 1.36,0.2801 3.24,0.56 4.8,0.56 3,0 5.24,-0.88 6.56,-3.6799 1.72,-3.48 2.28,-9.96 2.28,-14.6801 0,-5.76 -3,-7.64 -7.24,-7.64 -0.84,0 -2.04,0.08 -3.36,0.16 0.28,-1.44 0.56,-2.92 0.84,-4.12 0.2,-1 0.48,-2.2799 0.72,-3.3199 z m 13.76,3.76 -4.76,2.04 c 2.84,3.52 5.68,10.76 6.72,15.2 l 5.08,-2.36 c -1.19999,-3.8 -4.56,-11.44 -7.04,-14.88 z"
       style="font-weight:bold;font-size:40px;line-height:1.25;font-family:Montserrat;-inkscape-font-specification:Montserrat;fill:#ffffff"
       id="path32482" />
    <path
       d="m 255.98908,1024.5763 c 0.24,0.68 0.48,1.52 0.8,2.44 -4.24,0.28 -9.36001,0.16 -15.36001,-0.56 l 0.08,5.12 c 6.84,0.56 12.32,0.52 17.08,0.16 1.12,2.68 2.56,5.32 3.76,7.24 -1.24,-0.08 -3.88,-0.32 -5.84,-0.48 l -0.4,4.24 c 3.36,0.28 8.4,0.8 10.64,1.24 l 2.48,-3.6 c -0.72,-0.8 -1.48,-1.68 -2.16,-2.68 -1,-1.44 -2.4,-3.92 -3.56,-6.52 2.52,-0.36 5.08,-0.84 7.12,-1.44 l -0.64,-5.04 c -2.52,0.76 -5.32,1.4 -8.2,1.84 -0.68,-2 -1.28,-4.16 -1.68,-6.28 l -5.4,0.64 c 0.52,1.32 0.96,2.76 1.27999,3.68 z m -6.56001,15.52 -5,-1.16 c -1.36,2.72 -2.12,5 -2.12,7.44 0,5.76 5.16001,8.92 13.32,8.96 4.88,0 8.48001,-0.52 10.76,-0.96 l 0.28,-5.04 c -2.84,0.56 -6.36,0.96 -10.72,0.96 -5.48,0 -8.48,-1.44 -8.48,-4.8 0,-1.76 0.68,-3.52 1.96,-5.4 z"
       style="font-weight:bold;font-size:40px;line-height:1.25;font-family:Montserrat;-inkscape-font-specification:Montserrat;fill:#ffffff"
       id="path32484" />
    <path
       d="m 291.31011,1113.0983 -4.76,-0.48 c -0.32,1.6 -0.72,3.52 -0.72,5.36 0,4.04 3.64,6.3599 10.36,6.3599 3.2,0 5.92,-0.2799 8.16001,-0.5599 l 0.19999,-5.12 c -2.88,0.52 -5.63999,0.84 -8.32,0.84 -4.27998,0 -5.48,-1.32 -5.48,-3.08 0,-0.88 0.24,-2.2 0.56,-3.32 z m -4.51999,-22.16 -6.12001,-0.48 c 0.12001,0.92 0.04,2.56 -0.12,4.04 -0.08,0.64 -0.19999,1.4 -0.36,2.28 -1.24,0.08 -2.44,0.1199 -3.6,0.1199 -1.64,0 -3,-0.08 -5.04,-0.32 l 0.12,5 c 1.4,0.08 2.92,0.1601 4.84,0.1601 0.84,0 1.72,-0.04 2.64,-0.08 -0.24,1.16 -0.56,2.28 -0.84,3.36 -1.48,5.5999 -4.52,14 -6.92,18 l 5.56,1.88 c 2.24,-4.76 4.92,-12.92 6.36,-18.52 0.44,-1.64 0.84,-3.4 1.2,-5.12 2.68,-0.32 5.4,-0.76 7.8,-1.32 v -5 c -2.2,0.52 -4.44,0.96 -6.68,1.28 0.12,-0.56 0.24,-1.08 0.32,-1.52 0.16,-0.88 0.52,-2.68 0.84001,-3.76 z m 2.36,12.08 v 4.68 c 2.51999,-0.28 5,-0.4 7.72001,-0.4 2.44,0 4.88,0.24 6.88,0.48 l 0.12,-4.8 c -2.36,-0.24 -4.76,-0.36 -7.04001,-0.36 -2.56,0 -5.44,0.2 -7.68,0.4 z"
       style="font-weight:bold;font-size:40px;line-height:1.25;font-family:Montserrat;-inkscape-font-specification:Montserrat;fill:#ffffff"
       id="path32486" />
    <path
       d="m 254.62908,880.93238 -5.52,-0.56 c -0.08,2.08 -0.52,4.48 -1.08,6.68 -1.24,0.12 -2.44,0.16 -3.63999,0.16 -1.48,0 -3.6,-0.08 -5.32,-0.28 l 0.36,4.64 c 1.72,0.12 3.36,0.16 5,0.16 0.68,0 1.36,0 2.08,-0.04 -1.76,4.32 -5,10.2 -8.16,14.12 l 4.84,2.48 c 3.24,-4.52 6.64,-11.52 8.56,-17.12 2.68,-0.4 5.16,-0.92 7,-1.4 l -0.16001,-4.64 c -1.56,0.48 -3.43999,0.92 -5.39999,1.28 0.6,-2.16 1.12,-4.2 1.43999,-5.48 z m -2.08,27.68 c 0,-1.4 1.48,-2.44 3.8,-2.44 1.12,0 2.2,0.16 3.24,0.4 0,0.32 0,0.56 0,0.8 0,2.2 -0.83999,3.72 -3.6,3.72 -2.2,0 -3.44,-1 -3.44,-2.48 z m 11.44,-15.24 h -5 c 0.08,2.44 0.28,6 0.44,8.96 -0.92,-0.08 -1.8,-0.16 -2.76,-0.16 -5.56,0 -8.83999,3 -8.83999,6.92 0,4.4 3.92,6.6 8.88,6.6 5.68,0 7.72,-2.88 7.72,-6.6 0,-0.12 0,-0.28 0,-0.4 2.2,1.32 4,3 5.4,4.28 l 2.68,-4.28 c -2.04001,-1.84 -4.84,-3.84 -8.28,-5.12 -0.08,-2 -0.2,-3.92 -0.24,-5.08 -0.04,-1.76 -0.12,-3.44 -10e-6,-5.12 z m 6.88,2.12 2.84,-4.2 c -2.04,-1.48 -7,-4.2 -9.88,-5.44 l -2.56,3.96 c 2.72,1.24 7.27999,3.84 9.6,5.68 z"
       style="font-weight:bold;font-size:40px;line-height:1.25;font-family:Montserrat;-inkscape-font-specification:Montserrat;fill:#ffffff"
       id="path32488" />
    <path
       d="m 285.71011,977.37438 c 0,-1.52 1.52,-2.4801 3.8,-2.4801 1.08,0 2.16,0.1601 3.2,0.4401 0,0.28 0,0.52 0,0.72 0,2.3599 -0.84,3.64 -3.28,3.64 -2.12,0 -3.72,-0.68 -3.72,-2.32 z m 11.88,-26.12 h -5.72 c 0.16,0.8 0.28,2.04 0.28,2.64 0,0.84 0.04,2.48 0.04,4.44 -0.92,0.04 -1.88,0.04 -2.8,0.04 -2.4,0 -4.72,-0.12 -7,-0.36 v 4.76 c 2.36,0.16 4.64,0.24 7,0.24 0.92,0 1.88,0 2.84,-0.04 0.04,2.84 0.2,5.76 0.28,8.24 -0.8,-0.12 -1.68,-0.16 -2.6,-0.16 -5.44,0 -8.88,2.8 -8.88,6.84 0,4.2 3.44,6.52 8.96,6.52 5.4,0 7.56,-2.72 7.8,-6.56 1.6,1.08 3.2,2.48 4.88,4.04 l 2.76,-4.2 c -1.92,-1.76 -4.44,-3.8 -7.76,-5.16 -0.16,-2.72 -0.36,-5.92 -0.44,-9.8 2.2,-0.16 4.28,-0.4 6.2,-0.68 v -5 c -1.92,0.4 -4,0.72 -6.2,0.92 0.04,-1.76 0.08,-3.24 0.12,-4.12 0.04,-0.88 0.12,-1.84 0.24,-2.6 z m -19.52,0.44 -5.52,-0.48 c -0.04,1.28 -0.24,2.8 -0.39999,3.92 -0.44,3.08 -1.63999,10.64 -1.63999,16.68 0,5.44 0.75999,10 1.6,12.8 l 4.52,-0.36 c -0.04,-0.56 -0.08,-1.24 -0.08,-1.64 0,-0.44 0.08,-1.32 0.2,-1.88 0.48,-2.16 1.76,-6.24 2.88,-9.52 l -2.44,-2 c -0.60001,1.36 -1.28,2.72 -1.80001,4.12 -0.12,-0.8 -0.16001,-1.8 -0.16001,-2.6 0,-4 1.32,-12.8 1.92001,-15.48 0.12,-0.72 0.60001,-2.76 0.91999,-3.56 z"
       style="font-weight:bold;font-size:40px;line-height:1.25;font-family:Montserrat;-inkscape-font-specification:Montserrat;fill:#ffffff"
       id="path32490" />
    <path
       d="m 314.74977,1048.2363 c 0,-1.36 1.56,-2.48 4.4,-2.48 1.12,0 2.2,0.1199 3.28,0.28 0.04,0.72 0.04,1.28 0.04,1.72 0,2.32 -1.4,2.92 -3.52,2.92 -2.76,0 -4.2,-0.92 -4.2,-2.44 z m 12.52,-27.84 h -5.4 c 0.16001,0.76 0.24001,2 0.24001,2.76 0,0.48 0,1.12 0,1.88 -0.52,0 -1.04001,0 -1.56001,0 -2.43999,0 -7,-0.4 -9.87999,-0.88 l 0.12,4.56 c 2.63999,0.36 7.27999,0.72 9.8,0.72 0.48001,0 0.95999,0 1.48001,0 -0.04,1.36 -0.04,2.8 -0.04,4.12 -0.63999,0 -1.27999,0 -1.92,0 -2.12001,0 -7.04001,-0.28 -9.64,-0.76 l 0.04,4.72 c 2.63999,0.32 7.19999,0.52 9.51999,0.52 0.72001,0 1.39999,0 2.08,0 0.04,1.2 0.08,2.48 0.16001,3.72 -0.80001,-0.08 -1.64,-0.12 -2.48001,-0.12 -6.16001,0 -9.88,2.84 -9.88,6.88 0,4.24 3.36001,6.68 9.76,6.68 5.27999,0 7.87999,-2.64 7.87999,-6.04 0,-0.44 0,-0.92 -0.04,-1.48 3.2,1.44 5.92,3.56 8.08,5.56 l 2.88,-4.48 c -2.32,-1.92 -6.16,-4.6 -11.2,-6.04 -0.12,-1.6 -0.2,-3.24 -0.28,-4.76 3.84,-0.12 6.96,-0.4 10.56,-0.8 l 0.04,-4.72 c -3.24,0.44 -6.64,0.76 -10.68,0.96 0,-1.24 0,-2.72 0,-4.12 3.88,-0.2 7.51999,-0.56 10.16,-0.88 l 0.04,-4.6 c -3.52,0.6 -6.84,0.92 -10.12,1.08 0,-0.64 0,-1.24 0.04,-1.64 0.04,-1.04 0.12,-2.04 0.23999,-2.84 z"
       style="font-weight:bold;font-size:40px;line-height:1.25;font-family:Montserrat;-inkscape-font-specification:Montserrat;fill:#ffffff"
       id="path32492" />
    <path
       d="m 338.23082,1105.0183 2.36,5.0799 c 1.72001,-0.76 4.24,-2.1199 7.12,-3.5599 0.36001,0.7999 0.72001,1.64 1.08,2.48 2.04,4.8399 4.12,11.5999 5.36,16.64 l 5.48001,-1.44 c -1.32,-4.48 -4.4,-13.04 -6.28,-17.4 -0.36,-0.8 -0.72,-1.6401 -1.12,-2.4801 4.27999,-1.96 8.64,-3.5999 11.76,-3.5999 3,0 4.8,1.64 4.8,3.68 0,2.88 -2.2,4.52 -5.2,4.52 -1.76,0 -3.76,-0.6 -5.56,-1.36 l -0.12,5.04 c 1.52,0.56 4,1.12 6.16,1.12 6.12,0 9.96,-3.56 9.96,-9.1601 0,-4.64 -3.72,-8.4 -9.92,-8.4 -1.8,0 -3.76,0.36 -5.76,0.96 l 3.16,-2.3199 c -1.36,-1.4401 -4.36,-4.04 -5.8,-5.12 l -3.68,2.56 c 1.52,1.16 4.08,3.64 5.52,5.1199 -2.32,0.76 -4.76,1.76 -7.2,2.84 -0.64,-1.36 -1.28,-2.64 -1.88,-3.8 -0.44,-0.76 -1.24,-2.4 -1.6,-3.1199 l -5.2,2 c 0.8,1.0399 1.8,2.52 2.36,3.52 0.6,1.0399 1.2,2.2 1.76,3.4 -1.2,0.52 -2.44,1.04 -3.6,1.52 -0.64,0.28 -2.4,0.88 -3.96001,1.28 z"
       style="font-weight:bold;font-size:40px;line-height:1.25;font-family:Montserrat;-inkscape-font-specification:Montserrat;fill:#ffffff"
       id="path32494" />
    <path
       d="m 316.94979,880.80448 -1.28,4.8 c 3.12,0.8 12.04,2.68 16.08,3.2 l 1.2,-4.88 c -3.48001,-0.4 -12.2,-1.92 -16,-3.12 z m 0.24,8.04 -5.36,-0.76 c -0.28,4.96 -1.2,12.8 -2,16.72 l 4.6,1.16 c 0.36,-0.8 0.76,-1.44 1.48,-2.32 2.52,-3.04 6.6,-4.72 11.12,-4.72 3.48,0 5.96,1.92 5.96,4.52 0,5.08 -6.36,8 -18.36,6.36 l 1.51999,5.24 c 16.64,1.4 22.4,-4.2 22.4,-11.48 0,-4.84 -4.08,-9.16 -11.08,-9.16 -4.19999,0 -8.16,1.16 -11.8,3.8 0.28,-2.28 1,-7.16 1.52001,-9.36 z"
       style="font-weight:bold;font-size:40px;line-height:1.25;font-family:Montserrat;-inkscape-font-specification:Montserrat;fill:#ffffff"
       id="path32496" />
    <path
       d="m 358.91082,953.13438 -5.68001,-2.28 c -0.68,1.68 -1.44,3 -1.95999,4.08 -2.12,3.8 -10.32,20.12 -13.27999,28.12 l 5.64,1.92 c 0.6,-2.12 2,-6.6 3.04,-8.92 1.44,-3.24 3.68,-6.04 6.4,-6.04 1.43999,0 2.24,0.84 2.36,2.24 0.12,1.64 0.08,4.92 0.24,7.04 0.16,2.92 2.24,5.56 6.68,5.56 6.12,0 9.84,-4.56 11.92,-11.4001 l -4.32,-3.52 c -1.16,4.96 -3.28,9.4401 -6.76,9.4401 -1.32,0 -2.44,-0.6 -2.6,-2.1601 -0.2,-1.68 -0.08,-4.88 -0.16,-6.68 -0.16001,-3.32 -1.96,-5.2 -4.96,-5.2 -1.52,0 -3.12,0.36 -4.6,1.2 2,-3.52 4.8,-8.64 6.76,-11.52 0.44,-0.64 0.87999,-1.32 1.27999,-1.8799 z"
       style="font-weight:bold;font-size:40px;line-height:1.25;font-family:Montserrat;-inkscape-font-specification:Montserrat;fill:#ffffff"
       id="path32498" />
    <path
       d="m 391.89049,1020.4762 -5.2,-0.1199 c 0.04,0.68 -0.04,1.64 -0.08,2.4 -0.08,0.68 -0.16001,1.4 -0.24001,2.16 -0.51999,0 -1.04,0 -1.6,0 -2.44,0 -5.96,-0.32 -7.36,-0.56 l 0.12,4.64 c 1.88,0.08 5,0.24 7.08,0.24 0.44,0 0.83999,0 1.27999,0 -0.16,1.64 -0.27999,3.32 -0.36,5.04 -5.6,2.64 -9.83999,8 -9.83999,13.16 0,4.04 2.48,5.8 5.39999,5.8 2.12,0 4.24,-0.64 6.2,-1.6 0.16,0.56 0.36,1.12 0.52,1.64 l 4.6,-1.4 c -0.32,-0.96 -0.64,-1.96 -0.92,-2.96 3.04,-2.52 6.24,-6.72 8.4,-12.16 2.76,1.08 4.16,3.2 4.16,5.6 0,3.92 -3.12,7.84 -10.84,8.68 l 2.64,4.2 c 9.84,-1.48 13.16001,-6.96 13.16001,-12.64 0,-4.64 -3.08,-8.28 -7.72001,-9.8 0.24,-0.76 0.56,-1.6 0.72001,-2.04 l -4.88,-1.16 c -0.04,0.6 -0.2,1.6 -0.36001,2.4 -0.24,0 -0.48,0 -0.72,0 -1.96,0 -4.04,0.28 -5.96,0.72 0.04,-1.2 0.16001,-2.44 0.28,-3.64 4.92,-0.2 10.28,-0.68 14.2,-1.4 l -0.04,-4.64 c -4.4,1.04 -8.72,1.56 -13.6,1.76 0.12,-0.8 0.28,-1.52 0.4,-2.2 0.16,-0.6 0.32,-1.32 0.56001,-2.1201 z m -11.48,25.92 c 0,-2.2799 2,-5.3199 5,-7.3599 0.08,2.76 0.4,5.52 0.84,8 -1.44,0.8399 -2.88,1.32 -4,1.32 -1.28,0 -1.84,-0.68 -1.84,-1.9601 z m 9.52,-9.3199 v -0.12 c 1.56,-0.48 3.39999,-0.84 5.51999,-0.88 -1.36,3.24 -3.16,5.68 -5.04,7.64 -0.32,-2 -0.48,-4.2 -0.47999,-6.64 z"
       style="font-weight:bold;font-size:40px;line-height:1.25;font-family:Montserrat;-inkscape-font-specification:Montserrat;fill:#ffffff"
       id="path32551" />
    <path
       d="m 413.73152,1092.9783 -6.16,-0.08 c 0.24,1.24 0.32,2.96 0.32,4.08 0,2.44 0.04,7.1199 0.44,10.8 1.12,10.72 4.92,14.68 9.32,14.68 3.2,0 5.72,-2.44 8.36,-9.4 l -4,-4.8801 c -0.76,3.2 -2.36,7.8801 -4.24,7.8801 -2.52,0 -3.72,-3.9601 -4.28,-9.7201 -0.24,-2.88 -0.28,-5.88 -0.24,-8.48 0,-1.1199 0.2,-3.44 0.48,-4.8799 z m 20,0.92 -5.08,1.64 c 4.36,4.96 6.48,14.68 7.12,21.12 l 5.24,-2.04 c -0.44,-6.12 -3.48,-16.12 -7.28,-20.72 z"
       style="font-weight:bold;font-size:40px;line-height:1.25;font-family:Montserrat;-inkscape-font-specification:Montserrat;fill:#ffffff"
       id="path32553" />
    <path
       d="m 400.37049,899.83238 c 0,6.24 -6.39999,9.52 -16.32,10.64 l 2.88,4.96 c 11.12,-1.52 19.04001,-6.84 19.04001,-15.4 0,-6.28 -4.44,-9.88 -10.76,-9.88 -4.68,0 -9.16001,1.16 -12.08,1.84 -1.32,0.28 -3.04,0.56 -4.4,0.68 l 1.52,5.72 c 1.16,-0.44 2.72,-1.08 3.88,-1.4 2.04,-0.6 6,-1.96 10.4,-1.96 3.76,0 5.83999,2.16 5.83999,4.8 z m -15.72001,-19.2 -0.8,4.8 c 4.60001,0.8 13.28,1.6 17.96,1.92 l 0.8,-4.92 c -4.24,-0.04 -13.32,-0.8 -17.96,-1.8 z"
       style="font-weight:bold;font-size:40px;line-height:1.25;font-family:Montserrat;-inkscape-font-specification:Montserrat;fill:#ffffff"
       id="path32555" />
    <path
       d="m 416.35152,950.51438 -0.76,4.64 c 4.76,0.8 12.24,1.68 16.44,2 l 0.64,-4.68 c -4.16,-0.28 -11.84,-1.12 -16.32,-1.96 z m 17.72,12.72 -2.92,-3.32 c -0.44,0.16 -1.52,0.36 -2.27999,0.44 -3.32,0.44 -12.4,0.84 -14.28,0.84 -1.48,0.04 -2.92,-0.04 -3.84,-0.12 l 0.48,5.52 c 0.84,-0.12 2.04,-0.32 3.44,-0.44 2.28,-0.2 7.08,-0.64 9.88,-0.72 -3.64,3.84 -11.84,12 -13.88,14.08 -1.08,1.04 -2.04,1.88 -2.76,2.48 l 4.72,3.32 c 2.76,-3.52 5.76,-6.8 7.12,-8.2 0.96,-0.9601 1.80001,-1.6 2.64,-1.6 0.8,0 1.68,0.52 2.12,1.92 0.28,1 0.76,2.88 1.16001,4.08 1,2.6 3.04,3.44 6.83999,3.44 2.08,0 6.2,-0.28 7.84,-0.6 l 0.32,-5.24 c -2,0.4 -4.76,0.72 -7.84,0.72 -1.56,0 -2.44,-0.64 -2.8,-1.88 -0.36,-1.04 -0.8,-2.56 -1.16,-3.64 -0.52,-1.48 -1.24,-2.36 -2.4,-2.72 -0.44,-0.16 -1.16,-0.32 -1.52,-0.28 0.96,-1.04 4.68,-4.48 6.52,-6.04 0.72,-0.6 1.56,-1.32 2.59999,-2.04 z"
       style="font-weight:bold;font-size:40px;line-height:1.25;font-family:Montserrat;-inkscape-font-specification:Montserrat;fill:#ffffff"
       id="path32557" />
    <path
       d="m 116.18767,1020.5363 h -5.52 c 0.12,0.72 0.28,2.68 0.28,3.52 0,0.68 0,1.84 -0.04,3.24 -0.8,0.04 -1.6,0.08 -2.32,0.08 -1.44,0 -3.16,-0.04 -5.52,-0.32 l 0.08,4.84 c 1.36,0.16 2.92,0.2 5.6,0.2 0.64,0 1.36,-0.04 2.12,-0.08 0,1.12 0,2.24 0,3.36 0,0.92 0,1.88 0.04,2.84 -4.92,2.12 -8.92,5.76 -8.92,9.24 0,4.24 5.48,7.6 9.36,7.6 2.64,0 4.4,-1.32 4.4,-6.28 0,-1.36 -0.08,-4.48 -0.16,-7.64 2.44,-0.7201 5.04,-1.12 7.52,-1.12 3.48,0 5.88,1.6 5.88,4.32 0,2.92 -2.56,4.52 -5.8,5.1199 -1.4,0.2401 -3.12,0.2801 -4.92,0.2801 l 1.84,5.1599 c 1.63999,-0.1199 3.4,-0.2399 5.24,-0.6399 6.36,-1.6 8.83999,-5.1601 8.83999,-9.8801 0,-5.5199 -4.84,-8.72 -10.99999,-8.72 -2.2,0 -4.96,0.36 -7.68,1.04 0,-0.52 0,-1 0,-1.48 0,-1.16 0,-2.4 0.04,-3.6 2.6,-0.3199 5.36,-0.72 7.64,-1.24 l -0.12,-4.96 c -2.08,0.6 -4.72,1.12 -7.36,1.4401 0.04,-1 0.08,-1.9601 0.12,-2.8401 0.08,-1.04 0.24,-2.7599 0.36,-3.4799 z m 11.4,4.32 -2.2,3.88 c 2.48,1.2 7.71999,4.2 9.64,5.84 l 2.4,-4.08 c -2.12,-1.52 -6.76,-4.16 -9.84,-5.64 z m -20.68001,22.4 c 0,-1.4 1.64,-3.04 4.08,-4.36 0.08,2.16 0.12,4 0.12,5 0,1.36 -0.56,1.68 -1.28,1.68 -1.04,0 -2.92,-1.08 -2.92,-2.32 z"
       style="font-weight:bold;font-size:40px;line-height:1.25;font-family:Montserrat;-inkscape-font-specification:Montserrat;fill:#ffffff"
       id="path35215" />
    <path
       d="m 149.36869,1091.2583 -5.96,-0.6 c 0.04,2.52 -0.28,5.44 -0.84,8.48 -2.04,0.16 -3.92,0.28 -5.16,0.32 -1.48,0.04 -2.84,0.12 -4.28,0 l 0.48,5.44 c 1.2,-0.2 3.32,-0.48 4.44,-0.68 0.76,-0.08 2,-0.24 3.44,-0.4 -1.44,5.48 -4.2,13.5599 -8.08,18.8 l 5.2,2.08 c 3.68,-5.88 6.64,-15.3601 8.16,-21.44 1.12,-0.08 2.12,-0.1601 2.76,-0.1601 2.52,0 3.88,0.44 3.88,3.6401 0,3.96 -0.52,8.7999 -1.6,11.08 -0.64,1.3199 -1.68,1.7199 -3,1.7199 -1.08,0 -3.36,-0.4 -4.92,-0.8399 l 0.88,5.2799 c 1.36,0.2801 3.24,0.56 4.8,0.56 3,0 5.24,-0.88 6.56,-3.68 1.72,-3.48 2.28,-9.96 2.28,-14.68 0,-5.76 -3,-7.64 -7.24,-7.64 -0.84,0 -2.04,0.08 -3.36,0.16 0.28,-1.44 0.56,-2.92 0.84,-4.12 0.2,-1 0.48,-2.2799 0.72,-3.3199 z m 13.76,3.76 -4.76,2.04 c 2.84,3.52 5.68,10.76 6.72,15.2 l 5.08001,-2.36 c -1.2,-3.8 -4.56001,-11.44 -7.04001,-14.88 z"
       style="font-weight:bold;font-size:40px;line-height:1.25;font-family:Montserrat;-inkscape-font-specification:Montserrat;fill:#ffffff"
       id="path35217" />
  </g>
</svg>
