<?xml version="1.0" encoding="UTF-8" standalone="no"?>
<!-- Created with Inkscape (http://www.inkscape.org/) -->

<svg
   width="277.6312"
   height="277.63141"
   viewBox="0 0 277.6312 277.63141"
   version="1.1"
   id="svg5"
   inkscape:version="1.1.1 (1:1.1+202109281949+c3084ef5ed)"
   sodipodi:docname="kanji.svg"
   xmlns:inkscape="http://www.inkscape.org/namespaces/inkscape"
   xmlns:sodipodi="http://sodipodi.sourceforge.net/DTD/sodipodi-0.dtd"
   xmlns:xlink="http://www.w3.org/1999/xlink"
   xmlns="http://www.w3.org/2000/svg"
   xmlns:svg="http://www.w3.org/2000/svg">
  <sodipodi:namedview
     id="namedview7"
     pagecolor="#505050"
     bordercolor="#eeeeee"
     borderopacity="1"
     inkscape:pageshadow="0"
     inkscape:pageopacity="0"
     inkscape:pagecheckerboard="0"
     inkscape:document-units="px"
     showgrid="false"
     inkscape:zoom="0.565625"
     inkscape:cx="259.8895"
     inkscape:cy="-462.32044"
     inkscape:window-width="1366"
     inkscape:window-height="715"
     inkscape:window-x="0"
     inkscape:window-y="25"
     inkscape:window-maximized="1"
     inkscape:current-layer="layer1"
     inkscape:snap-page="true"
     fit-margin-top="0"
     fit-margin-left="0"
     fit-margin-right="0"
     fit-margin-bottom="0"
     inkscape:snap-global="false" />
  <defs
     id="defs2">
    <style
       id="style1171">.cls-1{fill:url(#linear-gradient);}.cls-2{fill:#f6b756;}.cls-3{fill:url(#linear-gradient-2);}.cls-4{fill:#cf4055;}.cls-5{fill:url(#linear-gradient-3);}.cls-6{fill:url(#linear-gradient-4);}.cls-7{fill:url(#linear-gradient-5);}.cls-8{fill:url(#linear-gradient-6);}.cls-9{fill:url(#linear-gradient-7);}.cls-10{fill:url(#linear-gradient-8);}.cls-11{fill:url(#linear-gradient-9);}.cls-12{fill:#eab39b;}.cls-13{fill:url(#linear-gradient-13);}.cls-14{fill:#c7cdd8;}.cls-15{fill:#dfe3ea;}</style>
    <linearGradient
       id="linear-gradient"
       x1="32"
       y1="36"
       x2="32"
       y2="1"
       gradientUnits="userSpaceOnUse">
      <stop
         offset="0"
         stop-color="#fbcc88"
         id="stop1173" />
      <stop
         offset="1"
         stop-color="#ffe5c3"
         id="stop1175" />
    </linearGradient>
    <linearGradient
       id="linear-gradient-2"
       x1="32"
       y1="25.09"
       x2="32"
       y2="9.0900002"
       gradientUnits="userSpaceOnUse">
      <stop
         offset="0"
         stop-color="#da5466"
         id="stop1178" />
      <stop
         offset="1"
         stop-color="#f4929c"
         id="stop1180" />
    </linearGradient>
    <linearGradient
       id="linear-gradient-3"
       x1="21"
       y1="15.09"
       x2="32"
       y2="15.09"
       gradientUnits="userSpaceOnUse">
      <stop
         offset="0"
         stop-color="#d4d8e1"
         id="stop1183" />
      <stop
         offset="1"
         stop-color="#f3f4f5"
         id="stop1185" />
    </linearGradient>
    <linearGradient
       id="linear-gradient-4"
       x1="32"
       y1="15.09"
       x2="43"
       y2="15.09"
       xlink:href="#linear-gradient-3" />
    <linearGradient
       id="linear-gradient-5"
       x1="32"
       y1="53"
       x2="32"
       y2="41"
       gradientUnits="userSpaceOnUse">
      <stop
         offset="0"
         stop-color="#f2c4b0"
         id="stop1189" />
      <stop
         offset="1"
         stop-color="#ffe3d7"
         id="stop1191" />
    </linearGradient>
    <linearGradient
       id="linear-gradient-6"
       x1="32"
       y1="63"
       y2="53"
       xlink:href="#linear-gradient-3" />
    <linearGradient
       id="linear-gradient-7"
       x1="52"
       x2="52"
       xlink:href="#linear-gradient-5" />
    <linearGradient
       id="linear-gradient-8"
       x1="52"
       y1="63"
       x2="52"
       y2="53"
       xlink:href="#linear-gradient-3" />
    <linearGradient
       id="linear-gradient-9"
       x1="12"
       x2="12"
       xlink:href="#linear-gradient-5" />
    <linearGradient
       id="linear-gradient-13"
       x1="12"
       y1="63"
       x2="12"
       y2="53"
       xlink:href="#linear-gradient-3" />
    <style
       id="style1327">.cls-1{fill:url(#linear-gradient);}.cls-2{fill:#42455e;}.cls-3{fill:#575f7c;}.cls-4{fill:url(#linear-gradient-2);}.cls-5{fill:url(#linear-gradient-3);}</style>
    <linearGradient
       id="linear-gradient-36"
       x1="32"
       y1="53"
       x2="32"
       y2="29.450001"
       gradientUnits="userSpaceOnUse">
      <stop
         offset="0"
         stop-color="#474f72"
         id="stop1329" />
      <stop
         offset="1"
         stop-color="#878c9f"
         id="stop1331" />
    </linearGradient>
    <linearGradient
       id="linear-gradient-2-7"
       y1="37"
       y2="11"
       xlink:href="#linear-gradient-36" />
    <linearGradient
       id="linear-gradient-3-5"
       x1="54"
       y1="53"
       x2="54"
       y2="47"
       gradientUnits="userSpaceOnUse">
      <stop
         offset="0"
         stop-color="#e9a254"
         id="stop1335" />
      <stop
         offset="1"
         stop-color="#f4bb79"
         id="stop1337" />
    </linearGradient>
    <style
       id="style1376">.cls-1{fill:url(#linear-gradient);}.cls-2{fill:#c7cdd8;}.cls-3{fill:url(#linear-gradient-2);}.cls-4{fill:url(#linear-gradient-3);}.cls-5{fill:url(#linear-gradient-4);}.cls-6{fill:#5b8dc9;}.cls-7{fill:#42455e;}</style>
    <linearGradient
       id="linear-gradient-35"
       x1="5"
       y1="59"
       x2="53"
       y2="59"
       gradientUnits="userSpaceOnUse">
      <stop
         offset="0"
         stop-color="#d4d8e1"
         id="stop1378" />
      <stop
         offset="1"
         stop-color="#f3f4f5"
         id="stop1380" />
    </linearGradient>
    <linearGradient
       id="linear-gradient-2-6"
       x1="29"
       y1="59"
       x2="29"
       y2="1"
       gradientUnits="userSpaceOnUse">
      <stop
         offset="0"
         stop-color="#7aa8d7"
         id="stop1383" />
      <stop
         offset="1"
         stop-color="#c3d2e7"
         id="stop1385" />
    </linearGradient>
    <linearGradient
       id="linear-gradient-3-2"
       x1="32"
       y1="34"
       x2="32"
       y2="8"
       xlink:href="#linear-gradient-35" />
    <linearGradient
       id="linear-gradient-4-9"
       x1="8"
       y1="59"
       x2="8"
       y2="1"
       gradientUnits="userSpaceOnUse">
      <stop
         offset="0"
         stop-color="#474f72"
         id="stop1389" />
      <stop
         offset="1"
         stop-color="#878c9f"
         id="stop1391" />
    </linearGradient>
    <style
       id="style1454">.cls-1{fill:url(#linear-gradient);}.cls-2{fill:#5b8dc9;}.cls-3{fill:url(#linear-gradient-2);}.cls-4{fill:#cf4055;}.cls-5{fill:url(#linear-gradient-3);}.cls-6{fill:#f6b756;}.cls-7{fill:url(#linear-gradient-4);}.cls-8{fill:url(#linear-gradient-5);}.cls-9{fill:url(#linear-gradient-6);}.cls-10{fill:url(#linear-gradient-7);}.cls-11{fill:#4da67f;}.cls-12{fill:url(#linear-gradient-8);}.cls-13{fill:#c7cdd8;}.cls-14{fill:url(#linear-gradient-9);}.cls-15{fill:url(#linear-gradient-10);}.cls-16{fill:url(#linear-gradient-11);}.cls-17{fill:#ffd39f;}.cls-18{fill:url(#linear-gradient-12);}.cls-19{fill:#fff;}.cls-20{fill:#7ece67;}</style>
    <linearGradient
       id="linear-gradient-1"
       x1="23"
       y1="63"
       x2="23"
       y2="1"
       gradientUnits="userSpaceOnUse">
      <stop
         offset="0"
         stop-color="#7aa8d7"
         id="stop1456" />
      <stop
         offset="1"
         stop-color="#c3d2e7"
         id="stop1458" />
    </linearGradient>
    <linearGradient
       id="linear-gradient-2-2"
       x1="9"
       y1="63"
       x2="9"
       y2="11"
       gradientUnits="userSpaceOnUse">
      <stop
         offset="0"
         stop-color="#da5466"
         id="stop1461" />
      <stop
         offset="1"
         stop-color="#f4929c"
         id="stop1463" />
    </linearGradient>
    <linearGradient
       id="linear-gradient-3-7"
       x1="9"
       y1="58"
       x2="9"
       y2="16"
       gradientUnits="userSpaceOnUse">
      <stop
         offset="0"
         stop-color="#fbcc88"
         id="stop1466" />
      <stop
         offset="1"
         stop-color="#ffe5c3"
         id="stop1468" />
    </linearGradient>
    <linearGradient
       id="linear-gradient-4-0"
       x1="33"
       y1="63"
       x2="33"
       y2="15"
       gradientUnits="userSpaceOnUse">
      <stop
         offset="0"
         stop-color="#8cdd79"
         id="stop1471" />
      <stop
         offset="1"
         stop-color="#d4e6b6"
         id="stop1473" />
    </linearGradient>
    <linearGradient
       id="linear-gradient-5-9"
       x1="33"
       y1="57"
       x2="33"
       y2="53"
       gradientUnits="userSpaceOnUse">
      <stop
         offset="0"
         stop-color="#6ab891"
         id="stop1476" />
      <stop
         offset="1"
         stop-color="#85cba9"
         id="stop1478" />
    </linearGradient>
    <linearGradient
       id="linear-gradient-6-3"
       y1="53"
       y2="49"
       xlink:href="#linear-gradient-5-9" />
    <linearGradient
       id="linear-gradient-7-6"
       x1="54.290001"
       y1="63"
       x2="54.290001"
       y2="7.4499998"
       gradientTransform="rotate(10,54.276582,35.217281)"
       xlink:href="#linear-gradient-5-9" />
    <linearGradient
       id="linear-gradient-8-0"
       x1="54.290001"
       y1="57.23"
       x2="54.290001"
       y2="13.21"
       gradientTransform="rotate(10,54.276582,35.217281)"
       gradientUnits="userSpaceOnUse">
      <stop
         offset="0"
         stop-color="#d4d8e1"
         id="stop1483" />
      <stop
         offset="1"
         stop-color="#f3f4f5"
         id="stop1485" />
    </linearGradient>
    <linearGradient
       id="linear-gradient-9-6"
       x1="54.290001"
       y1="53.009998"
       x2="54.290001"
       y2="17.43"
       gradientTransform="rotate(10,54.276582,35.217281)"
       xlink:href="#linear-gradient-5-9" />
    <linearGradient
       id="linear-gradient-10"
       x1="42"
       y1="63"
       x2="42"
       y2="18"
       xlink:href="#linear-gradient-3-7" />
    <linearGradient
       id="linear-gradient-11"
       x1="42"
       y1="59"
       x2="42"
       y2="22"
       gradientUnits="userSpaceOnUse">
      <stop
         offset="0"
         stop-color="#e9a254"
         id="stop1490" />
      <stop
         offset="1"
         stop-color="#f4bb79"
         id="stop1492" />
    </linearGradient>
    <linearGradient
       id="linear-gradient-12"
       x1="23"
       y1="58"
       x2="23"
       y2="6"
       xlink:href="#linear-gradient-8-0" />
    <style
       id="style1614">.cls-1{fill:url(#linear-gradient);}.cls-2{fill:url(#linear-gradient-2);}.cls-3{fill:url(#linear-gradient-3);}.cls-4{fill:#42455e;}.cls-5{fill:url(#linear-gradient-4);}.cls-6{fill:url(#linear-gradient-5);}.cls-7{fill:#f2a961;}.cls-8{fill:url(#linear-gradient-6);}.cls-9{fill:url(#linear-gradient-7);}.cls-10{fill:#c7cdd8;}.cls-11{fill:#dd8b37;}</style>
    <linearGradient
       id="linear-gradient-26"
       x1="27"
       y1="63"
       x2="27"
       y2="1"
       gradientUnits="userSpaceOnUse">
      <stop
         offset="0"
         stop-color="#e9a254"
         id="stop1616" />
      <stop
         offset="1"
         stop-color="#f4bb79"
         id="stop1618" />
    </linearGradient>
    <linearGradient
       id="linear-gradient-2-1"
       x1="60"
       y1="61"
       x2="60"
       y2="3"
       xlink:href="#linear-gradient-26" />
    <linearGradient
       id="linear-gradient-3-8"
       x1="56.98"
       y1="57.5"
       x2="63.02"
       y2="57.5"
       gradientUnits="userSpaceOnUse">
      <stop
         offset="0"
         stop-color="#d1a788"
         id="stop1622" />
      <stop
         offset="1"
         stop-color="#f2d3b8"
         id="stop1624" />
    </linearGradient>
    <linearGradient
       id="linear-gradient-4-7"
       x1="60"
       y1="10"
       x2="60"
       y2="3"
       gradientUnits="userSpaceOnUse">
      <stop
         offset="0"
         stop-color="#d96bb0"
         id="stop1627" />
      <stop
         offset="1"
         stop-color="#e49fc6"
         id="stop1629" />
    </linearGradient>
    <linearGradient
       id="linear-gradient-5-92"
       x1="57"
       y1="12"
       x2="63"
       y2="12"
       gradientUnits="userSpaceOnUse">
      <stop
         offset="0"
         stop-color="#949aaf"
         id="stop1632" />
      <stop
         offset="1"
         stop-color="#c6ccda"
         id="stop1634" />
    </linearGradient>
    <linearGradient
       id="linear-gradient-6-0"
       x1="6"
       y1="63"
       x2="6"
       y2="1"
       gradientUnits="userSpaceOnUse">
      <stop
         offset="0"
         stop-color="#474f72"
         id="stop1637" />
      <stop
         offset="1"
         stop-color="#878c9f"
         id="stop1639" />
    </linearGradient>
    <linearGradient
       id="linear-gradient-7-2"
       x1="30"
       y1="26"
       x2="30"
       y2="8"
       gradientUnits="userSpaceOnUse">
      <stop
         offset="0"
         stop-color="#d4d8e1"
         id="stop1642" />
      <stop
         offset="1"
         stop-color="#f3f4f5"
         id="stop1644" />
    </linearGradient>
    <style
       id="style1728">.cls-1{fill:#c7cdd8;}.cls-2{fill:url(#linear-gradient);}.cls-3{fill:#dfe3ea;}</style>
    <linearGradient
       id="linear-gradient-37"
       x1="29"
       y1="63"
       x2="29"
       y2="5"
       gradientUnits="userSpaceOnUse">
      <stop
         offset="0"
         stop-color="#d4d8e1"
         id="stop1730" />
      <stop
         offset="1"
         stop-color="#f3f4f5"
         id="stop1732" />
    </linearGradient>
    <style
       id="style1797">.cls-1{fill:url(#linear-gradient);}.cls-2{fill:#42455e;}.cls-3{fill:url(#linear-gradient-2);}.cls-4{fill:url(#linear-gradient-3);}.cls-5{fill:#c7cdd8;}.cls-6{fill:#dfe3ea;}.cls-7{fill:#e8677d;}</style>
    <linearGradient
       id="linear-gradient-59"
       x1="32"
       y1="63"
       x2="32"
       y2="1"
       gradientUnits="userSpaceOnUse">
      <stop
         offset="0"
         stop-color="#474f72"
         id="stop1799" />
      <stop
         offset="1"
         stop-color="#878c9f"
         id="stop1801" />
    </linearGradient>
    <linearGradient
       id="linear-gradient-2-22"
       x1="32"
       y1="55"
       x2="32"
       y2="5"
       gradientUnits="userSpaceOnUse">
      <stop
         offset="0"
         stop-color="#d4d8e1"
         id="stop1804" />
      <stop
         offset="1"
         stop-color="#f3f4f5"
         id="stop1806" />
    </linearGradient>
    <linearGradient
       id="linear-gradient-3-89"
       x1="46"
       y1="50"
       x2="46"
       y2="5"
       gradientUnits="userSpaceOnUse">
      <stop
         offset="0"
         stop-color="#da5466"
         id="stop1809" />
      <stop
         offset="1"
         stop-color="#f4929c"
         id="stop1811" />
    </linearGradient>
    <style
       id="style1897">.cls-1{fill:url(#linear-gradient);}.cls-2{fill:#8a6762;}.cls-3{fill:url(#linear-gradient-2);}.cls-4{fill:url(#linear-gradient-3);}.cls-5{fill:#231f20;}</style>
    <linearGradient
       id="linear-gradient-73"
       x1="15.44"
       y1="29.17"
       x2="15.44"
       y2="3.72"
       gradientUnits="userSpaceOnUse">
      <stop
         offset="0"
         stop-color="#9b756d"
         id="stop1899" />
      <stop
         offset="1"
         stop-color="#bc9388"
         id="stop1901" />
    </linearGradient>
    <linearGradient
       id="linear-gradient-2-61"
       x1="26.809999"
       y1="63"
       x2="26.809999"
       y2="5.4299998"
       gradientUnits="userSpaceOnUse">
      <stop
         offset="0"
         stop-color="#d1a788"
         id="stop1904" />
      <stop
         offset="1"
         stop-color="#f2d3b8"
         id="stop1906" />
    </linearGradient>
    <linearGradient
       id="linear-gradient-3-29"
       x1="33.759998"
       y1="51.540001"
       x2="33.759998"
       y2="1"
       xlink:href="#linear-gradient-2-61" />
    <style
       id="style1943">.cls-1{fill:url(#linear-gradient);}.cls-2{fill:#c7cdd8;}.cls-3{fill:none;stroke:#231f20;stroke-linecap:round;stroke-linejoin:round;stroke-width:2px;}.cls-4{fill:url(#linear-gradient-3);}.cls-5{fill:#42455e;}.cls-6{fill:url(#linear-gradient-4);}.cls-7{fill:#cba07a;}.cls-8{fill:url(#linear-gradient-5);}.cls-9{fill:url(#linear-gradient-6);}.cls-10{fill:#231f20;}</style>
    <linearGradient
       id="linear-gradient-31"
       x1="32"
       y1="43.77"
       x2="32"
       y2="8"
       gradientUnits="userSpaceOnUse">
      <stop
         offset="0"
         stop-color="#d4d8e1"
         id="stop1945" />
      <stop
         offset="1"
         stop-color="#f3f4f5"
         id="stop1947" />
    </linearGradient>
    <linearGradient
       id="linear-gradient-3-9"
       x1="32"
       y1="44"
       x2="32"
       y2="26"
       gradientUnits="userSpaceOnUse">
      <stop
         offset="0"
         stop-color="#474f72"
         id="stop1950" />
      <stop
         offset="1"
         stop-color="#878c9f"
         id="stop1952" />
    </linearGradient>
    <linearGradient
       id="linear-gradient-4-4"
       x1="32"
       y1="50"
       x2="32"
       y2="44"
       gradientUnits="userSpaceOnUse">
      <stop
         offset="0"
         stop-color="#d1a788"
         id="stop1955" />
      <stop
         offset="1"
         stop-color="#f2d3b8"
         id="stop1957" />
    </linearGradient>
    <linearGradient
       id="linear-gradient-5-7"
       x1="9"
       y1="56"
       x2="9"
       y2="50"
       xlink:href="#linear-gradient-4-4" />
    <linearGradient
       id="linear-gradient-6-8"
       x1="55"
       y1="56"
       x2="55"
       y2="50"
       xlink:href="#linear-gradient-4-4" />
    <style
       id="style2032">.cls-1{fill:url(#linear-gradient);}.cls-2{fill:#c7cdd8;}.cls-3{fill:url(#linear-gradient-3);}.cls-4{fill:#cf4055;}.cls-5{fill:url(#linear-gradient-4);}.cls-6{fill:#cba07a;}.cls-7{fill:url(#linear-gradient-5);}.cls-8{fill:url(#linear-gradient-6);}.cls-9{fill:#231f20;}</style>
    <linearGradient
       id="linear-gradient-45"
       x1="31.98"
       y1="37"
       x2="31.98"
       y2="23"
       gradientUnits="userSpaceOnUse">
      <stop
         offset="0"
         stop-color="#d4d8e1"
         id="stop2034" />
      <stop
         offset="1"
         stop-color="#f3f4f5"
         id="stop2036" />
    </linearGradient>
    <linearGradient
       id="linear-gradient-3-0"
       x1="31.93"
       y1="29.940001"
       x2="31.93"
       y2="14.99"
       gradientUnits="userSpaceOnUse">
      <stop
         offset="0"
         stop-color="#da5466"
         id="stop2039" />
      <stop
         offset="1"
         stop-color="#f4929c"
         id="stop2041" />
    </linearGradient>
    <linearGradient
       id="linear-gradient-4-3"
       x1="32"
       y1="43"
       x2="32"
       y2="37"
       gradientUnits="userSpaceOnUse">
      <stop
         offset="0"
         stop-color="#d1a788"
         id="stop2044" />
      <stop
         offset="1"
         stop-color="#f2d3b8"
         id="stop2046" />
    </linearGradient>
    <linearGradient
       id="linear-gradient-5-6"
       x1="9"
       y1="49"
       x2="9"
       y2="43"
       xlink:href="#linear-gradient-4-3" />
    <linearGradient
       id="linear-gradient-6-1"
       x1="55"
       y1="49"
       x2="55"
       y2="43"
       xlink:href="#linear-gradient-4-3" />
    <style
       id="style2118">.cls-1{fill:url(#linear-gradient);}.cls-2{fill:url(#linear-gradient-2);}.cls-3{fill:#c7cdd8;}.cls-4{fill:url(#linear-gradient-3);}.cls-5{fill:url(#linear-gradient-4);}.cls-6{fill:#cf4055;}.cls-7{fill:url(#linear-gradient-5);}.cls-8{fill:url(#linear-gradient-6);}.cls-9{fill:#adb3c4;}.cls-10{fill:#42455e;}</style>
    <linearGradient
       id="linear-gradient-0"
       x1="32"
       y1="51"
       x2="32"
       y2="7"
       gradientUnits="userSpaceOnUse">
      <stop
         offset="0"
         stop-color="#474f72"
         id="stop2120" />
      <stop
         offset="1"
         stop-color="#878c9f"
         id="stop2122" />
    </linearGradient>
    <linearGradient
       id="linear-gradient-2-63"
       x1="32"
       y1="51"
       x2="32"
       y2="43"
       gradientUnits="userSpaceOnUse">
      <stop
         offset="0"
         stop-color="#d4d8e1"
         id="stop2125" />
      <stop
         offset="1"
         stop-color="#f3f4f5"
         id="stop2127" />
    </linearGradient>
    <linearGradient
       id="linear-gradient-3-20"
       x1="32"
       y1="63"
       x2="32"
       y2="51"
       gradientUnits="userSpaceOnUse">
      <stop
         offset="0"
         stop-color="#949aaf"
         id="stop2130" />
      <stop
         offset="1"
         stop-color="#c6ccda"
         id="stop2132" />
    </linearGradient>
    <linearGradient
       id="linear-gradient-4-6"
       x1="32"
       y1="37"
       x2="32"
       y2="5"
       gradientUnits="userSpaceOnUse">
      <stop
         offset="0"
         stop-color="#da5466"
         id="stop2135" />
      <stop
         offset="1"
         stop-color="#f4929c"
         id="stop2137" />
    </linearGradient>
    <linearGradient
       id="linear-gradient-5-1"
       x1="13"
       y1="19"
       x2="32"
       y2="19"
       xlink:href="#linear-gradient-2-63" />
    <linearGradient
       id="linear-gradient-6-5"
       x1="32"
       y1="19"
       x2="51"
       y2="19"
       xlink:href="#linear-gradient-2-63" />
  </defs>
  <g
     inkscape:label="Layer 1"
     inkscape:groupmode="layer"
     id="layer1"
     transform="translate(-133.184,-864.03958)">
    <path
       id="rect35401"
       style="opacity:1;fill:#ffffff;fill-opacity:0.99591;stroke-width:4.04395;stroke-linecap:round;paint-order:stroke fill markers;stop-color:#000000"
       d="M 133.184,864.03958 H 410.81519 V 1141.671 H 133.184 Z" />
    <g
       id="g3144">
      <rect
         style="opacity:0.05;fill:#000000;fill-opacity:1;stroke:none;stroke-width:1.18447;stroke-linecap:round;paint-order:stroke fill markers;stop-color:#000000"
         id="rect34060"
         width="277.6312"
         height="277.63141"
         x="133.18399"
         y="864.03961" />
    </g>
    <path
       id="rect5101"
       style="fill:#ff2929;fill-opacity:1;stroke-linecap:round;paint-order:stroke fill markers;stop-color:#000000"
       d="m 101.13433,873.63288 h 34.91571 c 3.84564,0 6.94159,3.0959 6.94159,6.9416 v 34.9157 c 0,3.8456 -3.09595,6.9416 -6.94159,6.9416 h -34.91571 c -3.845641,0 -6.941581,-3.096 -6.941581,-6.9416 v -34.9157 c 0,-3.8457 3.09594,-6.9416 6.941581,-6.9416 z" />
    <path
       id="path5373"
       style="fill:#37c871;fill-opacity:1;stroke-linecap:round;paint-order:stroke fill markers;stop-color:#000000"
       d="m 170.4105,873.63288 h 34.91572 c 3.84564,0 6.94159,3.0959 6.94159,6.9416 v 34.9157 c 0,3.8456 -3.09595,6.9416 -6.94159,6.9416 H 170.4105 c -3.84564,0 -6.94157,-3.096 -6.94157,-6.9416 v -34.9157 c 0,-3.8457 3.09594,-6.9416 6.94157,-6.9416 z" />
    <path
       id="path5375"
       style="fill:#ff2929;fill-opacity:1;stroke-linecap:round;paint-order:stroke fill markers;stop-color:#000000"
       d="m 238.57121,873.63288 h 34.91573 c 3.84564,0 6.94159,3.0959 6.94159,6.9416 v 34.9157 c 0,3.8456 -3.09595,6.9416 -6.94159,6.9416 h -34.91572 c -3.84564,0 -6.94158,-3.096 -6.94158,-6.9416 v -34.9157 c 0,-3.8457 3.09594,-6.9416 6.94157,-6.9416 z" />
    <path
       id="path5377"
       style="fill:#37c871;fill-opacity:1;stroke-linecap:round;paint-order:stroke fill markers;stop-color:#000000"
       d="m 306.73192,873.63288 h 34.91572 c 3.84564,0 6.94159,3.0959 6.94159,6.9416 v 34.9157 c 0,3.8456 -3.09595,6.9416 -6.94159,6.9416 h -34.91572 c -3.84565,0 -6.94158,-3.096 -6.94158,-6.9416 v -34.9157 c 0,-3.8457 3.09593,-6.9416 6.94158,-6.9416 z" />
    <path
       id="path5379"
       style="fill:#ff2929;fill-opacity:1;stroke-linecap:round;paint-order:stroke fill markers;stop-color:#000000"
       d="m 374.89262,873.63288 h 34.91573 c 3.84564,0 6.94159,3.0959 6.94159,6.9416 v 34.9157 c 0,3.8456 -3.09595,6.9416 -6.94159,6.9416 h -34.91573 c -3.84564,0 -6.94157,-3.096 -6.94157,-6.9416 v -34.9157 c 0,-3.8457 3.09593,-6.9416 6.94157,-6.9416 z" />
    <path
       id="path5381"
       style="fill:#00ccff;fill-opacity:1;stroke-linecap:round;paint-order:stroke fill markers;stop-color:#000000"
       d="m 134.19083,943.51488 h 34.91572 c 3.84564,0 6.94159,3.0959 6.94159,6.9416 v 34.9157 c 0,3.8456 -3.09595,6.9416 -6.94159,6.9416 h -34.91572 c -3.84564,0 -6.94157,-3.096 -6.94157,-6.9416 v -34.9157 c 0,-3.8457 3.09594,-6.9416 6.94157,-6.9416 z" />
    <path
       id="path5383"
       style="fill:#ff297e;fill-opacity:1;stroke-linecap:round;paint-order:stroke fill markers;stop-color:#000000"
       d="m 202.35154,943.51488 h 34.91572 c 3.84564,0 6.94159,3.0959 6.94159,6.9416 v 34.9157 c 0,3.8456 -3.09595,6.9416 -6.94159,6.9416 h -34.91572 c -3.84564,0 -6.94158,-3.096 -6.94158,-6.9416 v -34.9157 c 0,-3.8457 3.09595,-6.9416 6.94158,-6.9416 z" />
    <path
       id="path5385"
       style="fill:#00ccff;fill-opacity:1;stroke-linecap:round;paint-order:stroke fill markers;stop-color:#000000"
       d="m 270.51225,943.51488 h 34.91572 c 3.84564,0 6.9416,3.0959 6.9416,6.9416 v 34.9157 c 0,3.8456 -3.09596,6.9416 -6.9416,6.9416 h -34.91572 c -3.84564,0 -6.94158,-3.096 -6.94158,-6.9416 v -34.9157 c 0,-3.8457 3.09594,-6.9416 6.94158,-6.9416 z" />
    <path
       id="path5387"
       style="fill:#ff297e;fill-opacity:1;stroke-linecap:round;paint-order:stroke fill markers;stop-color:#000000"
       d="m 338.67295,943.51488 h 34.91573 c 3.84564,0 6.94159,3.0959 6.94159,6.9416 v 34.9157 c 0,3.8456 -3.09595,6.9416 -6.94159,6.9416 h -34.91573 c -3.84564,0 -6.94157,-3.096 -6.94157,-6.9416 v -34.9157 c 0,-3.8457 3.09593,-6.9416 6.94157,-6.9416 z" />
    <path
       id="path5389"
       style="fill:#00ccff;fill-opacity:1;stroke-linecap:round;paint-order:stroke fill markers;stop-color:#000000"
       d="m 406.83366,943.51488 h 34.91573 c 3.84564,0 6.94159,3.0959 6.94159,6.9416 v 34.9157 c 0,3.8456 -3.09595,6.9416 -6.94159,6.9416 h -34.91573 c -3.84564,0 -6.94158,-3.096 -6.94158,-6.9416 v -34.9157 c 0,-3.8457 3.09594,-6.9416 6.94158,-6.9416 z" />
    <path
       id="path5391"
       style="fill:#3737c8;fill-opacity:1;stroke-linecap:round;paint-order:stroke fill markers;stop-color:#000000"
       d="m 102.2498,1013.3968 h 34.91571 c 3.84564,0 6.94159,3.0959 6.94159,6.9416 v 34.9157 c 0,3.8456 -3.09595,6.9416 -6.94159,6.9416 H 102.2498 c -3.845645,0 -6.941585,-3.096 -6.941585,-6.9416 v -34.9157 c 0,-3.8457 3.09594,-6.9416 6.941585,-6.9416 z" />
    <path
       id="path5393"
       style="fill:#ff2929;fill-opacity:1;stroke-linecap:round;paint-order:stroke fill markers;stop-color:#000000"
       d="m 170.4105,1013.3968 h 34.91572 c 3.84564,0 6.94159,3.0959 6.94159,6.9416 v 34.9157 c 0,3.8456 -3.09595,6.9416 -6.94159,6.9416 H 170.4105 c -3.84564,0 -6.94157,-3.096 -6.94157,-6.9416 v -34.9157 c 0,-3.8457 3.09594,-6.9416 6.94157,-6.9416 z" />
    <path
       id="path5395"
       style="fill:#3737c8;fill-opacity:1;stroke-linecap:round;paint-order:stroke fill markers;stop-color:#000000"
       d="m 238.57121,1013.3968 h 34.91573 c 3.84564,0 6.94159,3.0959 6.94159,6.9416 v 34.9157 c 0,3.8456 -3.09595,6.9416 -6.94159,6.9416 h -34.91572 c -3.84564,0 -6.94158,-3.096 -6.94158,-6.9416 v -34.9157 c 0,-3.8457 3.09594,-6.9416 6.94157,-6.9416 z" />
    <path
       id="path5397"
       style="fill:#ff2929;fill-opacity:1;stroke-linecap:round;paint-order:stroke fill markers;stop-color:#000000"
       d="m 306.73192,1013.3968 h 34.91572 c 3.84564,0 6.94159,3.0959 6.94159,6.9416 v 34.9157 c 0,3.8456 -3.09595,6.9416 -6.94159,6.9416 h -34.91572 c -3.84565,0 -6.94158,-3.096 -6.94158,-6.9416 v -34.9157 c 0,-3.8457 3.09593,-6.9416 6.94158,-6.9416 z" />
    <path
       id="path5399"
       style="fill:#3737c8;fill-opacity:1;stroke-linecap:round;paint-order:stroke fill markers;stop-color:#000000"
       d="m 374.89262,1013.3968 h 34.91573 c 3.84564,0 6.94159,3.0959 6.94159,6.9416 v 34.9157 c 0,3.8456 -3.09595,6.9416 -6.94159,6.9416 h -34.91573 c -3.84564,0 -6.94157,-3.096 -6.94157,-6.9416 v -34.9157 c 0,-3.8457 3.09593,-6.9416 6.94157,-6.9416 z" />
    <path
       id="path5422"
       style="fill:#37c871;fill-opacity:1;stroke-linecap:round;paint-order:stroke fill markers;stop-color:#000000"
       d="m 134.19083,1083.2788 h 34.91572 c 3.84564,0 6.94159,3.0959 6.94159,6.9416 v 34.9157 c 0,3.8456 -3.09595,6.9416 -6.94159,6.9416 h -34.91572 c -3.84564,0 -6.94157,-3.096 -6.94157,-6.9416 v -34.9157 c 0,-3.8457 3.09594,-6.9416 6.94157,-6.9416 z" />
    <path
       id="path5424"
       style="fill:#00ccff;fill-opacity:1;stroke-linecap:round;paint-order:stroke fill markers;stop-color:#000000"
       d="m 202.35154,1083.2788 h 34.91572 c 3.84564,0 6.94159,3.0959 6.94159,6.9416 v 34.9157 c 0,3.8456 -3.09595,6.9416 -6.94159,6.9416 h -34.91572 c -3.84564,0 -6.94158,-3.096 -6.94158,-6.9416 v -34.9157 c 0,-3.8457 3.09595,-6.9416 6.94158,-6.9416 z" />
    <path
       id="path5426"
       style="fill:#37c871;fill-opacity:1;stroke-linecap:round;paint-order:stroke fill markers;stop-color:#000000"
       d="m 270.51225,1083.2788 h 34.91572 c 3.84564,0 6.9416,3.0959 6.9416,6.9416 v 34.9157 c 0,3.8456 -3.09596,6.9416 -6.9416,6.9416 h -34.91572 c -3.84564,0 -6.94158,-3.096 -6.94158,-6.9416 v -34.9157 c 0,-3.8457 3.09594,-6.9416 6.94158,-6.9416 z" />
    <path
       id="path5428"
       style="fill:#00ccff;fill-opacity:1;stroke-linecap:round;paint-order:stroke fill markers;stop-color:#000000"
       d="m 338.67295,1083.2788 h 34.91573 c 3.84564,0 6.94159,3.0959 6.94159,6.9416 v 34.9157 c 0,3.8456 -3.09595,6.9416 -6.94159,6.9416 h -34.91573 c -3.84564,0 -6.94157,-3.096 -6.94157,-6.9416 v -34.9157 c 0,-3.8457 3.09593,-6.9416 6.94157,-6.9416 z" />
    <path
       id="path5430"
       style="fill:#37c871;fill-opacity:1;stroke-linecap:round;paint-order:stroke fill markers;stop-color:#000000"
       d="m 406.83366,1083.2788 h 34.91573 c 3.84564,0 6.94159,3.0959 6.94159,6.9416 v 34.9157 c 0,3.8456 -3.09595,6.9416 -6.94159,6.9416 h -34.91573 c -3.84564,0 -6.94158,-3.096 -6.94158,-6.9416 v -34.9157 c 0,-3.8457 3.09594,-6.9416 6.94158,-6.9416 z" />
    <text
       xml:space="preserve"
       style="font-size:40px;line-height:1.25;font-family:Montserrat;-inkscape-font-specification:Montserrat"
       x="157.42043"
       y="822.27533"
       id="text1530"><tspan
         sodipodi:role="line"
         id="tspan1528" /></text>
    <path
       d="m 178.88837,907.87233 v -8.96 h 17.76 v 8.96 z m 17.76,-22.28 v 8.6 h -17.76 v -8.6 z m -22.68,-4.8 v 34.48 h 4.92 v -2.6 h 17.76 v 2.52 h 5.12 v -34.4 z"
       style="font-weight:bold;font-size:40px;line-height:1.25;font-family:Montserrat;-inkscape-font-specification:Montserrat;fill:#ffffff"
       id="path5663" />
    <path
       d="m 222.1894,974.97433 v -8.8 c 1.8,3.24 3.96,6.24 6.36,8.8 z m -11.28,0 c 2.36,-2.56 4.48,-5.52 6.28,-8.72 v 8.72 z m 26.44,-13.2 v -4.8 h -15.16 v -7.72 h -5 v 7.72 h -15.04 v 4.8 h 12.2 c -3.08,6.16 -8.12,11.92 -13.76,15 1.12,0.92 2.64,2.76 3.48,3.96 2.2,-1.4 4.32,-3.12 6.24,-5.12 v 4.2 h 6.88 v 6.76 h 5 v -6.76 h 6.64 v -4.56 c 2,2.12 4.2,3.92 6.52,5.36 0.84,-1.36 2.48,-3.36 3.68,-4.32 -5.72,-3 -10.84,-8.52 -13.96,-14.52 z"
       style="font-weight:bold;font-size:40px;line-height:1.25;font-family:Montserrat;-inkscape-font-specification:Montserrat;fill:#ffffff"
       id="path5667" />
    <path
       d="m 250.68908,1019.7962 h -11.28 v 3.6 h 11.28 z m 1.44,5.52 h -14.84 v 3.76 h 14.84 z m -1.44,5.72 h -11.52 v 3.56 h 11.52 z m -11.52,9.1601 h 11.52 v -3.6 h -11.52 z m 7.72,5.7999 v 4.56 h -3.84 v -4.56 z m 4.08,-3.7599 h -11.92 v 13.6399 h 4 v -1.56 h 7.92 z m 16.64,2.96 v 4.96 h -8.36 v -4.96 z m -12.84,10.7199 h 4.48001 v -1.56 h 8.36 v 1.4001 h 4.67999 v -14.8 h -17.51999 z m 12.04,-25.3199 v 4.08 h -5.4 c 0.24001,-1.2401 0.48001,-2.6401 0.72001,-4.08 z m 4.56001,4.08 v -8.12 h -8.56001 l 0.4,-2.8 h 10.2 v -4.0801 h -20.04 v 4.0801 h 5.2 c -0.12,0.92 -0.28,1.84 -0.4,2.8 h -4.15999 v 4.04 h 3.51999 c -0.24,1.44 -0.48,2.8399 -0.72,4.08 h -4.91999 v 4.1599 h 22.88 v -4.1599 z"
       style="font-weight:bold;font-size:40px;line-height:1.25;font-family:Montserrat;-inkscape-font-specification:Montserrat;fill:#ffffff"
       id="path5671" />
    <path
       d="m 280.79012,1098.2182 1.2,-0.5199 c -0.24,-0.9201 -0.96,-2.1601 -1.72,-3.24 1.36,-0.08 2.72,-0.1601 4.08,-0.2401 0.76,1.2401 1.48,2.76 1.84,4 z m 7.52,0 2.12,-0.7999 c -0.24,-1 -0.88,-2.28 -1.6,-3.48 2.68,-0.24 5.28,-0.48 7.72,-0.8 -0.72,1.5999 -1.84,3.68 -2.76,5.0799 z m -13.08,3.6401 h 9.6 l -0.88,0.96 c 2,0.88 4.48,2.32 5.68,3.44 l 2.4,-2.64 c -0.68,-0.56 -1.68,-1.16 -2.72,-1.76 h 10.88 v 3.3599 c -0.96,-0.8399 -1.96,-1.68 -2.88,-2.3599 l -3.2,2.24 c 2.32,1.84 4.96,4.52 6.12,6.4 l 3.4,-2.56 c -0.6,-0.88 -1.48,-1.88 -2.56,-2.88 h 3.84 v -7.84 h -6.4 c 0.92,-1.2 1.96,-2.64 2.96,-4.12 l -3.6,-1.12 c 1.8,-0.28 3.52,-0.56 5.08,-0.88 l -3.12,-3.16 c -6.56,1.32 -18.16,2.08 -28,2.28 0.4,0.88 0.84,2.44 0.92,3.44 1.08,0 2.16,-0.04 3.24,-0.08 l -0.44,0.2 c 0.76,1.04 1.52,2.32 2.04,3.44 h -6.88 v 7.28 h 4.52 z m -0.12,10.04 c 2.6,-1.6801 4.24,-4.24 5.36,-6.8 l -3.56,-1.52 c -1,2.16 -2.8,4.4 -5.08,5.64 z m 17.24,3.88 c -1.28,1.12 -2.8,2.08 -4.56,2.92 -1.96,-0.84 -3.64,-1.8 -5,-2.92 z m 3.96,-3.4 -0.8,0.1199 h -9.28 c 0.56,-0.5599 1.08,-1.16 1.56,-1.76 l -0.24,-0.08 h 3.68 c 2.96,0 4.08,-0.84 4.52,-3.9201 -1.16,-0.2 -2.76,-0.72 -3.64,-1.24 -0.12,1.6401 -0.4,1.8801 -1.4,1.8801 h -4.2 c -1.32,0 -1.6,-0.08 -1.6,-1 v -2.76 h -4.36 v 2.76 c 0,2.28 0.48,3.48 2.24,3.96 -2.88,2.92 -7.48,5.28 -12.12,6.68 0.96,0.72 2.52,2.32 3.28,3.16 1.76,-0.68 3.56,-1.56 5.32,-2.52 1.08,1.04 2.28,1.96 3.6,2.8 -3.88,1.08 -8.32,1.76 -13,2.08 0.8,0.92 2,2.8 2.44,3.88 5.52,-0.6 10.84,-1.64 15.44,-3.44 4.48,1.8 9.76,2.88 15.6,3.4 0.6,-1.28 1.76,-3.2 2.72,-4.24 -4.76,-0.24 -9.24,-0.8 -13.12,-1.76 2.6,-1.64 4.72,-3.64 6.32,-6.12 z"
       style="font-weight:bold;font-size:40px;line-height:1.25;font-family:Montserrat;-inkscape-font-specification:Montserrat;fill:#ffffff"
       id="path5675" />
    <path
       d="m 261.00908,905.57233 c -1.36,1.12 -3,2.04 -4.88,2.84 -1.92,-0.8 -3.56,-1.72 -4.92,-2.84 z m -14.08,-8.96 h 17.92 v 1.6 h -17.92 z m 0,-4.24 h 17.92 v 1.6 h -17.92 z m 0,-4.2 h 17.92 v 1.56 h -17.92 z m 18.32,14 -0.84,0.2 h -11.36 c 0.48,-0.48 0.92,-0.96 1.36,-1.48 h 15.24001 v -15.36 h -12.08001 c 0.20001,-0.48 0.4,-1 0.56001,-1.56 h 14.91999 v -3.84 h -34.19999 v 3.84 h 14.12 c -0.08,0.52 -0.16,1.04 -0.28,1.56 h -10.32 v 15.36 h 6.36 c -2.4,2.12 -6.12,4 -11.24,5.36 0.88,0.68 2.2,2.24 2.76,3.32 2.48,-0.84 4.68,-1.76 6.64,-2.76 1.19999,1.24 2.56,2.36 4.04,3.36 -4.2,1.08 -9.04,1.68 -13.84001,1.96 0.68001,1 1.44,2.64 1.76,3.8 5.96,-0.56 11.88,-1.52 16.96,-3.28 4.6,1.8 10.12,2.84 16.48,3.28 0.60001,-1.28 1.76,-3.2 2.68001,-4.24 -5,-0.2 -9.56001,-0.72 -13.48,-1.6 2.72,-1.6 5.03999,-3.56 6.72,-6.08 z"
       style="font-weight:bold;font-size:40px;line-height:1.25;font-family:Montserrat;-inkscape-font-specification:Montserrat;fill:#ffffff"
       id="path5679" />
    <path
       d="m 287.71012,972.45433 c -0.96,-1 -4.84,-4.92 -6.24,-6.2 v -0.96 h 6.04 v -4.52 h -6.04 v -5.92 c 2.2,-0.56 4.32,-1.2 6.16,-1.92 l -3.36,-3.64 c -3.52,1.64 -9.4,3.04 -14.64,3.88 0.56,0.96 1.16,2.6 1.36,3.64 1.88,-0.24 3.84,-0.56 5.8,-0.92 v 4.88 h -6.88 v 4.52 h 5.88 c -1.68,3.92 -4.32,8.36 -6.84,11.04 0.76,1.2 1.84,3.24 2.32,4.56 1.96,-2.28 3.88,-5.68 5.52,-9.24 v 14.8 h 4.68 v -15.08 c 1.32,1.64 2.64,3.44 3.4,4.64 z m 19.28,12.48 c -0.64,-4.36 -2.96,-11.08 -5.36,-16.32 l -4.56,1.28 c 1.12,2.64 2.2,5.68 3.08,8.56 -2.72,0.32 -5.44,0.6 -8,0.88 2.2,-8.04 4.36,-18.96 5.68,-28.4 l -5.44,-0.88 c -0.92,9.56 -3.04,21.44 -5.2,29.76 -1.36,0.12 -2.64,0.24 -3.72,0.32 l 1.12,5 c 4.64,-0.56 10.76,-1.4 16.72,-2.28 0.28,1.32 0.52,2.6 0.64,3.68 z"
       style="font-weight:bold;font-size:40px;line-height:1.25;font-family:Montserrat;-inkscape-font-specification:Montserrat;fill:#ffffff"
       id="path5683" />
    <path
       d="m 311.30979,1051.7163 c 7.48,1.04 16.8,3.1199 22.24,5.04 l 2.72,-4.52 c -5.88,-1.76 -14.76,-3.76 -22.16,-4.6401 z m 6.56,-8.12 c 3.96,1.04 8.84,3.04 11.6,4.64 l 2.6,-3.8 c -2.88,-1.52 -7.64,-3.32 -11.64,-4.28 z m 1.16,-16.88 h 10.92 c -1.44,2 -3.24,3.76 -5.32,5.36 -2.32,-1.48 -4.32,-3.16 -5.92,-5 z m 14.8,-4.48 -0.84,0.24 h -10.64 c 0.44,-0.64 0.88,-1.3201 1.28,-2 l -4.64,-1.64 c -2.92,5.08 -8,9.88 -13.24,12.68 1.04,0.8 2.96,2.56 3.84,3.44 2,-1.28 4,-2.84 5.96,-4.64 1.48,1.6 3.16,3.12 4.96,4.48 -4.6,2.64 -10,4.48 -15.48,5.52 0.92,1.08 1.92,3.04 2.4,4.36 6.2,-1.48 12.24,-3.72 17.4,-7 4.56,2.64 9.75999,4.5999 15.44,5.8 0.68,-1.28 2,-3.32 3.07999,-4.4001 -5.2,-0.88 -10.07999,-2.44 -14.32,-4.52 3.4,-2.8399 6.2,-6.28 8.12,-10.3999 z"
       style="font-weight:bold;font-size:40px;line-height:1.25;font-family:Montserrat;-inkscape-font-specification:Montserrat;fill:#ffffff"
       id="path5687" />
    <path
       d="m 346.19083,1095.6983 v 7.04 h -3.68001 v -7.04 z m -3.68001,18.72 v -7.52 h 3.68001 v 7.52 z m 8.12,-22.96 h -12.52 v 30.72 h 4.4 v -3.52 h 8.12 z m 2.36,23.84 c 1.80001,2.04 3.84,4.88 4.56001,6.72 l 4.07999,-2.36 c -0.83999,-1.96 -3,-4.6 -4.83999,-6.56 z m 21.16001,-10.24 v -4.16 h -9.12 v -3.52 h 8 v -4.16 h -8 v -4.2 h -4.68001 v 4.2 h -7.67999 v 4.16 h 7.67999 v 3.52 h -9.03999 v 4.16 h 14.12 v 3.44 h -14.04001 v 4.12 h 14.04001 v 8.6 c 0,0.56 -0.20001,0.72 -0.84001,0.72 -0.6,0 -2.83999,0 -4.76,-0.08 0.64,1.28 1.36001,3.16 1.52,4.48 2.96001,0 5.12,-0.12 6.68001,-0.8 1.55999,-0.72 2,-1.92 2,-4.2 v -8.72 h 3.83999 v -4.12 h -3.83999 v -3.44 z"
       style="font-weight:bold;font-size:40px;line-height:1.25;font-family:Montserrat;-inkscape-font-specification:Montserrat;fill:#ffffff"
       id="path5691" />
    <path
       d="m 335.50979,888.65233 v 19.72 h -9.08 v -28.24 h -4.96 v 28.24 h -8.68 v -19.64 h -4.88 v 27.2 h 4.88 v -2.64 h 22.72 v 2.52 h 4.95999 v -27.16 z"
       style="font-weight:bold;font-size:40px;line-height:1.25;font-family:Montserrat;-inkscape-font-specification:Montserrat;fill:#ffffff"
       id="path5695" />
    <path
       d="m 343.97082,950.09433 v 13.76 c 0,6.6 -0.52,13.32 -5.08,18.52 1.24001,0.76 3.16001,2.36 4.08,3.44 5.32,-6.04 5.92,-14.16 5.92,-21.92 v -13.8 z m 12.2,1.72 v 29.76 h 4.88 v -29.76 z m 12.16,-1.8 v 35.32 h 5.04001 v -35.32 z"
       style="font-weight:bold;font-size:40px;line-height:1.25;font-family:Montserrat;-inkscape-font-specification:Montserrat;fill:#ffffff"
       id="path5699" />
    <path
       d="m 212.1294,1093.2133 c -1.48,-1.32 -4.44,-2.96 -6.68,-3.92 l -2.72,3.48 c 2.36,1.08 5.2,2.92 6.52,4.24 z m -1.92,10.44 c -1.44,-1.32 -4.36,-2.84 -6.63999,-3.76 l -2.6,3.52 c 2.24,1.04 5.12,2.76 6.44,4.08 z m -4.24,22.32 c 1.84,-3.92 3.8,-8.6 5.36,-12.88 l -3.8,-2.64 c -1.76,4.68 -4.16,9.8 -5.84,12.92 z m 20.44,-9.24 c 0.16,-1.28 0.32,-2.72 0.48,-4.2 h 4.12 c -0.12,1.64 -0.24,3.04 -0.36,4.2 z m -3.6,-4.2 c -0.16,1.48 -0.32,2.92 -0.48,4.2 h -3.75999 c 0.16,-1.36 0.36,-2.76 0.56,-4.2 z m -2.72,-8.08 h 3.44 c -0.08,1.24 -0.2,2.52 -0.28,3.8 h -3.6 z m 7.2,3.8 c 0.12,-1.28 0.24,-2.56 0.32,-3.8 h 3.8 c -0.04,1.36 -0.12,2.64 -0.16,3.8 z m 11.36,4.28 v -4.28 h -3.04 c 0.12,-1.8 0.2,-3.76 0.28,-5.92 0.04,-0.56 0.04,-1.92 0.04,-1.92 h -19 c 0.56,-0.84 1.08,-1.72 1.56,-2.64 h 19.32 v -4.24 h -17.4 c 0.44,-1.16 0.84,-2.36 1.2,-3.56 l -4.68,-0.96 c -1.24,4.52 -3.52,9.04 -6.36,11.84 1.12,0.56 3.16,1.92 4,2.72 0.48,-0.56 0.96,-1.12 1.44,-1.76 -0.2,2.04 -0.44,4.24 -0.72,6.44 h -4 v 4.28 h 3.44 c -0.52,3.68 -1.12,7.12 -1.64,9.8 l 4.56,0.36 0.32,-1.96 h 12.04 c -0.16,0.56 -0.36,0.96 -0.52,1.2 -0.4,0.52 -0.8,0.64 -1.48,0.64 -0.8,0 -2.36,-0.04 -4.08,-0.16 0.64,1.04 1.12,2.72 1.16,3.88 1.96,0.08 3.88,0.08 5.04,-0.12 1.36,-0.16 2.32,-0.56 3.2,-1.8 0.48,-0.64 0.88,-1.76 1.2,-3.64 h 3.68 v -4 h -3.16 c 0.12,-1.24 0.24,-2.6 0.32,-4.2 z"
       style="font-weight:bold;font-size:40px;line-height:1.25;font-family:Montserrat;-inkscape-font-specification:Montserrat;fill:#ffffff"
       id="path5703" />
    <path
       d="m 189.82838,1027.5763 v 6.3599 c 0,3.96 0.96,5.2401 5.43998,5.2401 h 4.76 c 3.2,0 4.48,-1.12 4.96,-5.3201 -1.24,-0.2799 -3.2,-0.96 -4.08,-1.6399 -0.16,2.52 -0.36,2.92 -1.36,2.92 h -3.56 c -1.24,0 -1.48,-0.1601 -1.48,-1.2401 v -6.3199 h 5.64 v 3.96 h 4.92 v -8.28 h -14.83998 v -3.6001 h -4.88 v 3.6001 h -14.48 v 8.96 h 4.68 v -4.64 h 5.52 c -0.64,4.7199 -2.04,7.52 -10.76,9.04 0.96,0.96 2.16,2.88 2.56,4 10.16,-2.2001 12.36,-6.4 13.08,-13.04 z m 0.4,24.04 v -5.96 h 11.79998 v -4.2801 h -27.39998 v 4.2801 h 10.72 v 5.96 h -14.92 v 4.3199 h 34.99998 v -4.3199 z"
       style="font-weight:bold;font-size:40px;line-height:1.25;font-family:Montserrat;-inkscape-font-specification:Montserrat;fill:#ffffff"
       id="path5707" />
    <path
       d="m 383.3705,907.87233 v -8.96 h 17.76 v 8.96 z m 17.76,-22.28 v 8.6 h -17.76 v -8.6 z m -22.68,-4.8 v 34.48 h 4.92 v -2.6 h 17.76 v 2.52 h 5.12 v -34.4 z"
       style="font-weight:bold;font-size:40px;line-height:1.25;font-family:Montserrat;-inkscape-font-specification:Montserrat;fill:#ffffff"
       id="path7708" />
    <path
       d="m 426.67153,974.97433 v -8.8 c 1.8,3.24 3.96,6.24 6.36,8.8 z m -11.28,0 c 2.36,-2.56 4.48,-5.52 6.28,-8.72 v 8.72 z m 26.44,-13.2 v -4.8 h -15.16 v -7.72 h -5 v 7.72 h -15.04 v 4.8 h 12.2 c -3.08,6.16 -8.12,11.92 -13.76,15 1.12,0.92 2.64,2.76 3.48,3.96 2.2,-1.4 4.32,-3.12 6.24,-5.12 v 4.2 h 6.88 v 6.76 h 5 v -6.76 h 6.64 v -4.56 c 2,2.12 4.2,3.92 6.52,5.36 0.84,-1.36 2.48,-3.36 3.68,-4.32 -5.72,-3 -10.84,-8.52 -13.96,-14.52 z"
       style="font-weight:bold;font-size:40px;line-height:1.25;font-family:Montserrat;-inkscape-font-specification:Montserrat;fill:#ffffff"
       id="path7710" />
    <path
       d="m 387.0105,1019.7962 h -11.28 v 3.6 h 11.28 z m 1.44,5.52 h -14.84 v 3.7601 h 14.84 z m -1.44,5.72 h -11.52 v 3.56 h 11.52 z m -11.52,9.1601 h 11.52 v -3.6 h -11.52 z m 7.72,5.7999 v 4.56 h -3.84 v -4.56 z m 4.08,-3.7599 h -11.92 v 13.6399 h 4 v -1.56 h 7.92 z m 16.64,2.96 v 4.96 h -8.36 v -4.96 z m -12.84,10.7199 h 4.48 v -1.56 h 8.36 v 1.4001 h 4.68 v -14.8 h -17.52 z m 12.04,-25.3199 v 4.08 h -5.4 c 0.24,-1.2401 0.48,-2.6401 0.72,-4.08 z m 4.56,4.08 v -8.12 h -8.56 l 0.4,-2.8 h 10.2 v -4.0801 h -20.04 v 4.0801 h 5.2 c -0.12,0.92 -0.28,1.84 -0.4,2.8 h -4.16 v 4.04 h 3.52 c -0.24,1.44 -0.48,2.8399 -0.72,4.08 h -4.92 v 4.1599 h 22.88 v -4.1599 z"
       style="font-weight:bold;font-size:40px;line-height:1.25;font-family:Montserrat;-inkscape-font-specification:Montserrat;fill:#ffffff"
       id="path7712" />
    <path
       d="m 280.79012,1098.2182 1.2,-0.5199 c -0.24,-0.9201 -0.96,-2.1601 -1.72,-3.24 1.36,-0.08 2.72,-0.1601 4.08,-0.2401 0.76,1.2401 1.48,2.76 1.84,4 z m 7.52,0 2.12,-0.7999 c -0.24,-1 -0.88,-2.28 -1.6,-3.48 2.68,-0.24 5.28,-0.48 7.72,-0.8 -0.72,1.5999 -1.84,3.68 -2.76,5.0799 z m -13.08,3.6401 h 9.6 l -0.88,0.96 c 2,0.88 4.48,2.32 5.68,3.44 l 2.4,-2.64 c -0.68,-0.56 -1.68,-1.16 -2.72,-1.76 h 10.88 v 3.3599 c -0.96,-0.8399 -1.96,-1.68 -2.88,-2.3599 l -3.2,2.24 c 2.32,1.84 4.96,4.52 6.12,6.4 l 3.4,-2.56 c -0.6,-0.88 -1.48,-1.88 -2.56,-2.88 h 3.84 v -7.84 h -6.4 c 0.92,-1.2 1.96,-2.64 2.96,-4.12 l -3.6,-1.12 c 1.8,-0.28 3.52,-0.56 5.08,-0.88 l -3.12,-3.16 c -6.56,1.32 -18.16,2.08 -28,2.28 0.4,0.88 0.84,2.44 0.92,3.44 1.08,0 2.16,-0.04 3.24,-0.08 l -0.44,0.2 c 0.76,1.04 1.52,2.32 2.04,3.44 h -6.88 v 7.28 h 4.52 z m -0.12,10.04 c 2.6,-1.6801 4.24,-4.24 5.36,-6.8 l -3.56,-1.52 c -1,2.16 -2.8,4.4 -5.08,5.64 z m 17.24,3.88 c -1.28,1.12 -2.8,2.08 -4.56,2.92 -1.96,-0.84 -3.64,-1.8 -5,-2.92 z m 3.96,-3.4 -0.8,0.1199 h -9.28 c 0.56,-0.5599 1.08,-1.16 1.56,-1.76 l -0.24,-0.08 h 3.68 c 2.96,0 4.08,-0.84 4.52,-3.9201 -1.16,-0.2 -2.76,-0.72 -3.64,-1.24 -0.12,1.6401 -0.4,1.8801 -1.4,1.8801 h -4.2 c -1.32,0 -1.6,-0.08 -1.6,-1 v -2.76 h -4.36 v 2.76 c 0,2.28 0.48,3.48 2.24,3.96 -2.88,2.92 -7.48,5.28 -12.12,6.68 0.96,0.72 2.52,2.32 3.28,3.16 1.76,-0.68 3.56,-1.56 5.32,-2.52 1.08,1.04 2.28,1.96 3.6,2.8 -3.88,1.08 -8.32,1.76 -13,2.08 0.8,0.92 2,2.8 2.44,3.88 5.52,-0.6 10.84,-1.64 15.44,-3.44 4.48,1.8 9.76,2.88 15.6,3.4 0.6,-1.28 1.76,-3.2 2.72,-4.24 -4.76,-0.24 -9.24,-0.8 -13.12,-1.76 2.6,-1.64 4.72,-3.64 6.32,-6.12 z"
       style="font-weight:bold;font-size:40px;line-height:1.25;font-family:Montserrat;-inkscape-font-specification:Montserrat;fill:#ffffff"
       id="path7714" />
    <path
       d="m 417.11153,1098.2182 1.2,-0.5199 c -0.24,-0.9201 -0.96,-2.1601 -1.72,-3.24 1.36,-0.08 2.72,-0.1601 4.08,-0.2401 0.76,1.2401 1.48,2.76 1.84,4 z m 7.52,0 2.12,-0.7999 c -0.24,-1 -0.88,-2.28 -1.6,-3.48 2.68,-0.24 5.28,-0.48 7.72,-0.8 -0.72,1.5999 -1.84,3.68 -2.76,5.0799 z m -13.08,3.6401 h 9.6 l -0.88,0.96 c 2,0.88 4.48,2.32 5.68,3.44 l 2.4,-2.64 c -0.68,-0.56 -1.68,-1.16 -2.72,-1.76 h 10.88 v 3.3599 c -0.96,-0.8399 -1.96,-1.68 -2.88,-2.3599 l -3.2,2.24 c 2.32,1.84 4.96,4.52 6.12,6.4 l 3.4,-2.56 c -0.6,-0.88 -1.48,-1.88 -2.56,-2.88 h 3.84 v -7.84 h -6.4 c 0.92,-1.2 1.96,-2.64 2.96,-4.12 l -3.6,-1.12 c 1.8,-0.28 3.52,-0.56 5.08,-0.88 l -3.12,-3.16 c -6.56,1.32 -18.16,2.08 -28,2.28 0.4,0.88 0.84,2.44 0.92,3.44 1.08,0 2.16,-0.04 3.24,-0.08 l -0.44,0.2 c 0.76,1.04 1.52,2.32 2.04,3.44 h -6.88 v 7.28 h 4.52 z m -0.12,10.04 c 2.6,-1.6801 4.24,-4.24 5.36,-6.8 l -3.56,-1.52 c -1,2.16 -2.8,4.4 -5.08,5.64 z m 17.24,3.88 c -1.28,1.12 -2.8,2.08 -4.56,2.92 -1.96,-0.84 -3.64,-1.8 -5,-2.92 z m 3.96,-3.4 -0.8,0.1199 h -9.28 c 0.56,-0.5599 1.08,-1.16 1.56,-1.76 l -0.24,-0.08 h 3.68 c 2.96,0 4.08,-0.84 4.52,-3.9201 -1.16,-0.2 -2.76,-0.72 -3.64,-1.24 -0.12,1.6401 -0.4,1.8801 -1.4,1.8801 h -4.2 c -1.32,0 -1.6,-0.08 -1.6,-1 v -2.76 h -4.36 v 2.76 c 0,2.28 0.48,3.48 2.24,3.96 -2.88,2.92 -7.48,5.28 -12.12,6.68 0.96,0.72 2.52,2.32 3.28,3.16 1.76,-0.68 3.56,-1.56 5.32,-2.52 1.08,1.04 2.28,1.96 3.6,2.8 -3.88,1.08 -8.32,1.76 -13,2.08 0.8,0.92 2,2.8 2.44,3.88 5.52,-0.6 10.84,-1.64 15.44,-3.44 4.48,1.8 9.76,2.88 15.6,3.4 0.6,-1.28 1.76,-3.2 2.72,-4.24 -4.76,-0.24 -9.24,-0.8 -13.12,-1.76 2.6,-1.64 4.72,-3.64 6.32,-6.12 z"
       style="font-weight:bold;font-size:40px;line-height:1.25;font-family:Montserrat;-inkscape-font-specification:Montserrat;fill:#ffffff"
       id="path7716" />
    <path
       d="m 129.91219,888.65233 v 19.72 h -9.08 v -28.24 h -4.96 v 28.24 h -8.68 v -19.64 h -4.88 v 27.2 h 4.88 v -2.64 h 22.72 v 2.52 h 4.96 v -27.16 z"
       style="font-weight:bold;font-size:40px;line-height:1.25;font-family:Montserrat;-inkscape-font-specification:Montserrat;fill:#ffffff"
       id="path7718" />
    <path
       d="m 139.4887,950.09433 v 13.76 c 0,6.6 -0.52,13.32 -5.08,18.52 1.24,0.76 3.16,2.36 4.08,3.44 5.32,-6.04 5.92,-14.16 5.92,-21.92 v -13.8 z m 12.2,1.72 v 29.76 h 4.88 v -29.76 z m 12.16,-1.8 v 35.32 h 5.04 v -35.32 z"
       style="font-weight:bold;font-size:40px;line-height:1.25;font-family:Montserrat;-inkscape-font-specification:Montserrat;fill:#ffffff"
       id="path7720" />
    <path
       d="m 119.44766,1042.3362 c -0.96,-1 -4.84,-4.92 -6.24,-6.1999 v -0.96 h 6.04 v -4.52 h -6.04 v -5.92 c 2.2,-0.56 4.32,-1.2001 6.16,-1.9201 l -3.36,-3.64 c -3.52,1.64 -9.4,3.04 -14.64,3.88 0.56,0.9601 1.16,2.6001 1.36,3.6401 1.88,-0.24 3.84,-0.56 5.8,-0.9201 v 4.8801 h -6.88 v 4.52 h 5.88 c -1.68,3.92 -4.32,8.36 -6.84,11.04 0.76,1.2 1.84,3.24 2.32,4.5599 1.96,-2.2799 3.88,-5.6799 5.52,-9.2399 v 14.7999 h 4.68 v -15.0799 c 1.32,1.64 2.64,3.44 3.4,4.64 z m 19.28,12.48 c -0.64,-4.3599 -2.96,-11.0799 -5.36,-16.3199 l -4.56,1.2799 c 1.12,2.6401 2.2,5.6801 3.08,8.56 -2.72,0.3201 -5.44,0.6 -8,0.8801 2.2,-8.04 4.36,-18.96 5.68,-28.4 l -5.44,-0.88 c -0.92,9.56 -3.04,21.44 -5.2,29.76 -1.36,0.1199 -2.64,0.24 -3.72,0.32 l 1.12,5 c 4.64,-0.56 10.76,-1.4 16.72,-2.28 0.28,1.32 0.52,2.5999 0.64,3.68 z"
       style="font-weight:bold;font-size:40px;line-height:1.25;font-family:Montserrat;-inkscape-font-specification:Montserrat;fill:#ffffff"
       id="path7722" />
    <path
       d="m 138.7687,1121.5983 c 7.48,1.04 16.8,3.12 22.24,5.04 l 2.72,-4.52 c -5.88,-1.76 -14.76,-3.76 -22.16,-4.64 z m 6.56,-8.12 c 3.96,1.04 8.84,3.04 11.6,4.64 l 2.6,-3.8 c -2.88,-1.52 -7.64,-3.32 -11.64,-4.28 z m 1.16,-16.88 h 10.92 c -1.44,2 -3.24,3.76 -5.32,5.36 -2.32,-1.48 -4.32,-3.16 -5.92,-5 z m 14.8,-4.48 -0.84,0.24 h -10.64 c 0.44,-0.64 0.88,-1.32 1.28,-2 l -4.64,-1.64 c -2.92,5.08 -8,9.88 -13.24,12.68 1.04,0.8 2.96,2.56 3.84,3.44 2,-1.28 4,-2.84 5.96,-4.64 1.48,1.6 3.16,3.12 4.96,4.48 -4.6,2.64 -10,4.48 -15.48,5.52 0.92,1.08 1.92,3.04 2.4,4.36 6.2,-1.48 12.24,-3.72 17.4,-7 4.56,2.64 9.76,4.6 15.44,5.8 0.68,-1.28 2,-3.32 3.08,-4.4 -5.2,-0.8801 -10.08,-2.4401 -14.32,-4.52 3.4,-2.84 6.2,-6.28 8.12,-10.4001 z"
       style="font-weight:bold;font-size:40px;line-height:1.25;font-family:Montserrat;-inkscape-font-specification:Montserrat;fill:#ffffff"
       id="path7724" />
  </g>
</svg>
