<?xml version="1.0" encoding="UTF-8" standalone="no"?>
<!-- Created with Inkscape (http://www.inkscape.org/) -->

<svg
   width="300"
   height="400.00009"
   viewBox="0 0 300.00001 400.00009"
   version="1.1"
   id="svg5"
   inkscape:version="1.1.1 (1:1.1+202109281949+c3084ef5ed)"
   sodipodi:docname="kanji_n1.svg"
   xmlns:inkscape="http://www.inkscape.org/namespaces/inkscape"
   xmlns:sodipodi="http://sodipodi.sourceforge.net/DTD/sodipodi-0.dtd"
   xmlns:xlink="http://www.w3.org/1999/xlink"
   xmlns="http://www.w3.org/2000/svg"
   xmlns:svg="http://www.w3.org/2000/svg">
  <sodipodi:namedview
     id="namedview7"
     pagecolor="#505050"
     bordercolor="#eeeeee"
     borderopacity="1"
     inkscape:pageshadow="0"
     inkscape:pageopacity="0"
     inkscape:pagecheckerboard="0"
     inkscape:document-units="px"
     showgrid="false"
     inkscape:zoom="1.8101934"
     inkscape:cx="124.0199"
     inkscape:cy="361.56358"
     inkscape:window-width="1366"
     inkscape:window-height="715"
     inkscape:window-x="0"
     inkscape:window-y="25"
     inkscape:window-maximized="1"
     inkscape:current-layer="layer1"
     inkscape:snap-page="true"
     fit-margin-top="0"
     fit-margin-left="0"
     fit-margin-right="0"
     fit-margin-bottom="0"
     inkscape:snap-global="false" />
  <defs
     id="defs2">
    <style
       id="style1171">.cls-1{fill:url(#linear-gradient);}.cls-2{fill:#f6b756;}.cls-3{fill:url(#linear-gradient-2);}.cls-4{fill:#cf4055;}.cls-5{fill:url(#linear-gradient-3);}.cls-6{fill:url(#linear-gradient-4);}.cls-7{fill:url(#linear-gradient-5);}.cls-8{fill:url(#linear-gradient-6);}.cls-9{fill:url(#linear-gradient-7);}.cls-10{fill:url(#linear-gradient-8);}.cls-11{fill:url(#linear-gradient-9);}.cls-12{fill:#eab39b;}.cls-13{fill:url(#linear-gradient-13);}.cls-14{fill:#c7cdd8;}.cls-15{fill:#dfe3ea;}</style>
    <linearGradient
       id="linear-gradient"
       x1="32"
       y1="36"
       x2="32"
       y2="1"
       gradientUnits="userSpaceOnUse">
      <stop
         offset="0"
         stop-color="#fbcc88"
         id="stop1173" />
      <stop
         offset="1"
         stop-color="#ffe5c3"
         id="stop1175" />
    </linearGradient>
    <linearGradient
       id="linear-gradient-2"
       x1="32"
       y1="25.09"
       x2="32"
       y2="9.0900002"
       gradientUnits="userSpaceOnUse">
      <stop
         offset="0"
         stop-color="#da5466"
         id="stop1178" />
      <stop
         offset="1"
         stop-color="#f4929c"
         id="stop1180" />
    </linearGradient>
    <linearGradient
       id="linear-gradient-3"
       x1="21"
       y1="15.09"
       x2="32"
       y2="15.09"
       gradientUnits="userSpaceOnUse">
      <stop
         offset="0"
         stop-color="#d4d8e1"
         id="stop1183" />
      <stop
         offset="1"
         stop-color="#f3f4f5"
         id="stop1185" />
    </linearGradient>
    <linearGradient
       id="linear-gradient-4"
       x1="32"
       y1="15.09"
       x2="43"
       y2="15.09"
       xlink:href="#linear-gradient-3" />
    <linearGradient
       id="linear-gradient-5"
       x1="32"
       y1="53"
       x2="32"
       y2="41"
       gradientUnits="userSpaceOnUse">
      <stop
         offset="0"
         stop-color="#f2c4b0"
         id="stop1189" />
      <stop
         offset="1"
         stop-color="#ffe3d7"
         id="stop1191" />
    </linearGradient>
    <linearGradient
       id="linear-gradient-6"
       x1="32"
       y1="63"
       y2="53"
       xlink:href="#linear-gradient-3" />
    <linearGradient
       id="linear-gradient-7"
       x1="52"
       x2="52"
       xlink:href="#linear-gradient-5" />
    <linearGradient
       id="linear-gradient-8"
       x1="52"
       y1="63"
       x2="52"
       y2="53"
       xlink:href="#linear-gradient-3" />
    <linearGradient
       id="linear-gradient-9"
       x1="12"
       x2="12"
       xlink:href="#linear-gradient-5" />
    <linearGradient
       id="linear-gradient-13"
       x1="12"
       y1="63"
       x2="12"
       y2="53"
       xlink:href="#linear-gradient-3" />
    <style
       id="style1327">.cls-1{fill:url(#linear-gradient);}.cls-2{fill:#42455e;}.cls-3{fill:#575f7c;}.cls-4{fill:url(#linear-gradient-2);}.cls-5{fill:url(#linear-gradient-3);}</style>
    <linearGradient
       id="linear-gradient-36"
       x1="32"
       y1="53"
       x2="32"
       y2="29.450001"
       gradientUnits="userSpaceOnUse">
      <stop
         offset="0"
         stop-color="#474f72"
         id="stop1329" />
      <stop
         offset="1"
         stop-color="#878c9f"
         id="stop1331" />
    </linearGradient>
    <linearGradient
       id="linear-gradient-2-7"
       y1="37"
       y2="11"
       xlink:href="#linear-gradient-36" />
    <linearGradient
       id="linear-gradient-3-5"
       x1="54"
       y1="53"
       x2="54"
       y2="47"
       gradientUnits="userSpaceOnUse">
      <stop
         offset="0"
         stop-color="#e9a254"
         id="stop1335" />
      <stop
         offset="1"
         stop-color="#f4bb79"
         id="stop1337" />
    </linearGradient>
    <style
       id="style1376">.cls-1{fill:url(#linear-gradient);}.cls-2{fill:#c7cdd8;}.cls-3{fill:url(#linear-gradient-2);}.cls-4{fill:url(#linear-gradient-3);}.cls-5{fill:url(#linear-gradient-4);}.cls-6{fill:#5b8dc9;}.cls-7{fill:#42455e;}</style>
    <linearGradient
       id="linear-gradient-35"
       x1="5"
       y1="59"
       x2="53"
       y2="59"
       gradientUnits="userSpaceOnUse">
      <stop
         offset="0"
         stop-color="#d4d8e1"
         id="stop1378" />
      <stop
         offset="1"
         stop-color="#f3f4f5"
         id="stop1380" />
    </linearGradient>
    <linearGradient
       id="linear-gradient-2-6"
       x1="29"
       y1="59"
       x2="29"
       y2="1"
       gradientUnits="userSpaceOnUse">
      <stop
         offset="0"
         stop-color="#7aa8d7"
         id="stop1383" />
      <stop
         offset="1"
         stop-color="#c3d2e7"
         id="stop1385" />
    </linearGradient>
    <linearGradient
       id="linear-gradient-3-2"
       x1="32"
       y1="34"
       x2="32"
       y2="8"
       xlink:href="#linear-gradient-35" />
    <linearGradient
       id="linear-gradient-4-9"
       x1="8"
       y1="59"
       x2="8"
       y2="1"
       gradientUnits="userSpaceOnUse">
      <stop
         offset="0"
         stop-color="#474f72"
         id="stop1389" />
      <stop
         offset="1"
         stop-color="#878c9f"
         id="stop1391" />
    </linearGradient>
    <style
       id="style1454">.cls-1{fill:url(#linear-gradient);}.cls-2{fill:#5b8dc9;}.cls-3{fill:url(#linear-gradient-2);}.cls-4{fill:#cf4055;}.cls-5{fill:url(#linear-gradient-3);}.cls-6{fill:#f6b756;}.cls-7{fill:url(#linear-gradient-4);}.cls-8{fill:url(#linear-gradient-5);}.cls-9{fill:url(#linear-gradient-6);}.cls-10{fill:url(#linear-gradient-7);}.cls-11{fill:#4da67f;}.cls-12{fill:url(#linear-gradient-8);}.cls-13{fill:#c7cdd8;}.cls-14{fill:url(#linear-gradient-9);}.cls-15{fill:url(#linear-gradient-10);}.cls-16{fill:url(#linear-gradient-11);}.cls-17{fill:#ffd39f;}.cls-18{fill:url(#linear-gradient-12);}.cls-19{fill:#fff;}.cls-20{fill:#7ece67;}</style>
    <linearGradient
       id="linear-gradient-1"
       x1="23"
       y1="63"
       x2="23"
       y2="1"
       gradientUnits="userSpaceOnUse">
      <stop
         offset="0"
         stop-color="#7aa8d7"
         id="stop1456" />
      <stop
         offset="1"
         stop-color="#c3d2e7"
         id="stop1458" />
    </linearGradient>
    <linearGradient
       id="linear-gradient-2-2"
       x1="9"
       y1="63"
       x2="9"
       y2="11"
       gradientUnits="userSpaceOnUse">
      <stop
         offset="0"
         stop-color="#da5466"
         id="stop1461" />
      <stop
         offset="1"
         stop-color="#f4929c"
         id="stop1463" />
    </linearGradient>
    <linearGradient
       id="linear-gradient-3-7"
       x1="9"
       y1="58"
       x2="9"
       y2="16"
       gradientUnits="userSpaceOnUse">
      <stop
         offset="0"
         stop-color="#fbcc88"
         id="stop1466" />
      <stop
         offset="1"
         stop-color="#ffe5c3"
         id="stop1468" />
    </linearGradient>
    <linearGradient
       id="linear-gradient-4-0"
       x1="33"
       y1="63"
       x2="33"
       y2="15"
       gradientUnits="userSpaceOnUse">
      <stop
         offset="0"
         stop-color="#8cdd79"
         id="stop1471" />
      <stop
         offset="1"
         stop-color="#d4e6b6"
         id="stop1473" />
    </linearGradient>
    <linearGradient
       id="linear-gradient-5-9"
       x1="33"
       y1="57"
       x2="33"
       y2="53"
       gradientUnits="userSpaceOnUse">
      <stop
         offset="0"
         stop-color="#6ab891"
         id="stop1476" />
      <stop
         offset="1"
         stop-color="#85cba9"
         id="stop1478" />
    </linearGradient>
    <linearGradient
       id="linear-gradient-6-3"
       y1="53"
       y2="49"
       xlink:href="#linear-gradient-5-9" />
    <linearGradient
       id="linear-gradient-7-6"
       x1="54.290001"
       y1="63"
       x2="54.290001"
       y2="7.4499998"
       gradientTransform="rotate(10,54.276582,35.217281)"
       xlink:href="#linear-gradient-5-9" />
    <linearGradient
       id="linear-gradient-8-0"
       x1="54.290001"
       y1="57.23"
       x2="54.290001"
       y2="13.21"
       gradientTransform="rotate(10,54.276582,35.217281)"
       gradientUnits="userSpaceOnUse">
      <stop
         offset="0"
         stop-color="#d4d8e1"
         id="stop1483" />
      <stop
         offset="1"
         stop-color="#f3f4f5"
         id="stop1485" />
    </linearGradient>
    <linearGradient
       id="linear-gradient-9-6"
       x1="54.290001"
       y1="53.009998"
       x2="54.290001"
       y2="17.43"
       gradientTransform="rotate(10,54.276582,35.217281)"
       xlink:href="#linear-gradient-5-9" />
    <linearGradient
       id="linear-gradient-10"
       x1="42"
       y1="63"
       x2="42"
       y2="18"
       xlink:href="#linear-gradient-3-7" />
    <linearGradient
       id="linear-gradient-11"
       x1="42"
       y1="59"
       x2="42"
       y2="22"
       gradientUnits="userSpaceOnUse">
      <stop
         offset="0"
         stop-color="#e9a254"
         id="stop1490" />
      <stop
         offset="1"
         stop-color="#f4bb79"
         id="stop1492" />
    </linearGradient>
    <linearGradient
       id="linear-gradient-12"
       x1="23"
       y1="58"
       x2="23"
       y2="6"
       xlink:href="#linear-gradient-8-0" />
    <style
       id="style1614">.cls-1{fill:url(#linear-gradient);}.cls-2{fill:url(#linear-gradient-2);}.cls-3{fill:url(#linear-gradient-3);}.cls-4{fill:#42455e;}.cls-5{fill:url(#linear-gradient-4);}.cls-6{fill:url(#linear-gradient-5);}.cls-7{fill:#f2a961;}.cls-8{fill:url(#linear-gradient-6);}.cls-9{fill:url(#linear-gradient-7);}.cls-10{fill:#c7cdd8;}.cls-11{fill:#dd8b37;}</style>
    <linearGradient
       id="linear-gradient-26"
       x1="27"
       y1="63"
       x2="27"
       y2="1"
       gradientUnits="userSpaceOnUse">
      <stop
         offset="0"
         stop-color="#e9a254"
         id="stop1616" />
      <stop
         offset="1"
         stop-color="#f4bb79"
         id="stop1618" />
    </linearGradient>
    <linearGradient
       id="linear-gradient-2-1"
       x1="60"
       y1="61"
       x2="60"
       y2="3"
       xlink:href="#linear-gradient-26" />
    <linearGradient
       id="linear-gradient-3-8"
       x1="56.98"
       y1="57.5"
       x2="63.02"
       y2="57.5"
       gradientUnits="userSpaceOnUse">
      <stop
         offset="0"
         stop-color="#d1a788"
         id="stop1622" />
      <stop
         offset="1"
         stop-color="#f2d3b8"
         id="stop1624" />
    </linearGradient>
    <linearGradient
       id="linear-gradient-4-7"
       x1="60"
       y1="10"
       x2="60"
       y2="3"
       gradientUnits="userSpaceOnUse">
      <stop
         offset="0"
         stop-color="#d96bb0"
         id="stop1627" />
      <stop
         offset="1"
         stop-color="#e49fc6"
         id="stop1629" />
    </linearGradient>
    <linearGradient
       id="linear-gradient-5-92"
       x1="57"
       y1="12"
       x2="63"
       y2="12"
       gradientUnits="userSpaceOnUse">
      <stop
         offset="0"
         stop-color="#949aaf"
         id="stop1632" />
      <stop
         offset="1"
         stop-color="#c6ccda"
         id="stop1634" />
    </linearGradient>
    <linearGradient
       id="linear-gradient-6-0"
       x1="6"
       y1="63"
       x2="6"
       y2="1"
       gradientUnits="userSpaceOnUse">
      <stop
         offset="0"
         stop-color="#474f72"
         id="stop1637" />
      <stop
         offset="1"
         stop-color="#878c9f"
         id="stop1639" />
    </linearGradient>
    <linearGradient
       id="linear-gradient-7-2"
       x1="30"
       y1="26"
       x2="30"
       y2="8"
       gradientUnits="userSpaceOnUse">
      <stop
         offset="0"
         stop-color="#d4d8e1"
         id="stop1642" />
      <stop
         offset="1"
         stop-color="#f3f4f5"
         id="stop1644" />
    </linearGradient>
    <style
       id="style1728">.cls-1{fill:#c7cdd8;}.cls-2{fill:url(#linear-gradient);}.cls-3{fill:#dfe3ea;}</style>
    <linearGradient
       id="linear-gradient-37"
       x1="29"
       y1="63"
       x2="29"
       y2="5"
       gradientUnits="userSpaceOnUse">
      <stop
         offset="0"
         stop-color="#d4d8e1"
         id="stop1730" />
      <stop
         offset="1"
         stop-color="#f3f4f5"
         id="stop1732" />
    </linearGradient>
    <style
       id="style1797">.cls-1{fill:url(#linear-gradient);}.cls-2{fill:#42455e;}.cls-3{fill:url(#linear-gradient-2);}.cls-4{fill:url(#linear-gradient-3);}.cls-5{fill:#c7cdd8;}.cls-6{fill:#dfe3ea;}.cls-7{fill:#e8677d;}</style>
    <linearGradient
       id="linear-gradient-59"
       x1="32"
       y1="63"
       x2="32"
       y2="1"
       gradientUnits="userSpaceOnUse">
      <stop
         offset="0"
         stop-color="#474f72"
         id="stop1799" />
      <stop
         offset="1"
         stop-color="#878c9f"
         id="stop1801" />
    </linearGradient>
    <linearGradient
       id="linear-gradient-2-22"
       x1="32"
       y1="55"
       x2="32"
       y2="5"
       gradientUnits="userSpaceOnUse">
      <stop
         offset="0"
         stop-color="#d4d8e1"
         id="stop1804" />
      <stop
         offset="1"
         stop-color="#f3f4f5"
         id="stop1806" />
    </linearGradient>
    <linearGradient
       id="linear-gradient-3-89"
       x1="46"
       y1="50"
       x2="46"
       y2="5"
       gradientUnits="userSpaceOnUse">
      <stop
         offset="0"
         stop-color="#da5466"
         id="stop1809" />
      <stop
         offset="1"
         stop-color="#f4929c"
         id="stop1811" />
    </linearGradient>
    <style
       id="style1897">.cls-1{fill:url(#linear-gradient);}.cls-2{fill:#8a6762;}.cls-3{fill:url(#linear-gradient-2);}.cls-4{fill:url(#linear-gradient-3);}.cls-5{fill:#231f20;}</style>
    <linearGradient
       id="linear-gradient-73"
       x1="15.44"
       y1="29.17"
       x2="15.44"
       y2="3.72"
       gradientUnits="userSpaceOnUse">
      <stop
         offset="0"
         stop-color="#9b756d"
         id="stop1899" />
      <stop
         offset="1"
         stop-color="#bc9388"
         id="stop1901" />
    </linearGradient>
    <linearGradient
       id="linear-gradient-2-61"
       x1="26.809999"
       y1="63"
       x2="26.809999"
       y2="5.4299998"
       gradientUnits="userSpaceOnUse">
      <stop
         offset="0"
         stop-color="#d1a788"
         id="stop1904" />
      <stop
         offset="1"
         stop-color="#f2d3b8"
         id="stop1906" />
    </linearGradient>
    <linearGradient
       id="linear-gradient-3-29"
       x1="33.759998"
       y1="51.540001"
       x2="33.759998"
       y2="1"
       xlink:href="#linear-gradient-2-61" />
    <style
       id="style1943">.cls-1{fill:url(#linear-gradient);}.cls-2{fill:#c7cdd8;}.cls-3{fill:none;stroke:#231f20;stroke-linecap:round;stroke-linejoin:round;stroke-width:2px;}.cls-4{fill:url(#linear-gradient-3);}.cls-5{fill:#42455e;}.cls-6{fill:url(#linear-gradient-4);}.cls-7{fill:#cba07a;}.cls-8{fill:url(#linear-gradient-5);}.cls-9{fill:url(#linear-gradient-6);}.cls-10{fill:#231f20;}</style>
    <linearGradient
       id="linear-gradient-31"
       x1="32"
       y1="43.77"
       x2="32"
       y2="8"
       gradientUnits="userSpaceOnUse">
      <stop
         offset="0"
         stop-color="#d4d8e1"
         id="stop1945" />
      <stop
         offset="1"
         stop-color="#f3f4f5"
         id="stop1947" />
    </linearGradient>
    <linearGradient
       id="linear-gradient-3-9"
       x1="32"
       y1="44"
       x2="32"
       y2="26"
       gradientUnits="userSpaceOnUse">
      <stop
         offset="0"
         stop-color="#474f72"
         id="stop1950" />
      <stop
         offset="1"
         stop-color="#878c9f"
         id="stop1952" />
    </linearGradient>
    <linearGradient
       id="linear-gradient-4-4"
       x1="32"
       y1="50"
       x2="32"
       y2="44"
       gradientUnits="userSpaceOnUse">
      <stop
         offset="0"
         stop-color="#d1a788"
         id="stop1955" />
      <stop
         offset="1"
         stop-color="#f2d3b8"
         id="stop1957" />
    </linearGradient>
    <linearGradient
       id="linear-gradient-5-7"
       x1="9"
       y1="56"
       x2="9"
       y2="50"
       xlink:href="#linear-gradient-4-4" />
    <linearGradient
       id="linear-gradient-6-8"
       x1="55"
       y1="56"
       x2="55"
       y2="50"
       xlink:href="#linear-gradient-4-4" />
    <style
       id="style2032">.cls-1{fill:url(#linear-gradient);}.cls-2{fill:#c7cdd8;}.cls-3{fill:url(#linear-gradient-3);}.cls-4{fill:#cf4055;}.cls-5{fill:url(#linear-gradient-4);}.cls-6{fill:#cba07a;}.cls-7{fill:url(#linear-gradient-5);}.cls-8{fill:url(#linear-gradient-6);}.cls-9{fill:#231f20;}</style>
    <linearGradient
       id="linear-gradient-45"
       x1="31.98"
       y1="37"
       x2="31.98"
       y2="23"
       gradientUnits="userSpaceOnUse">
      <stop
         offset="0"
         stop-color="#d4d8e1"
         id="stop2034" />
      <stop
         offset="1"
         stop-color="#f3f4f5"
         id="stop2036" />
    </linearGradient>
    <linearGradient
       id="linear-gradient-3-0"
       x1="31.93"
       y1="29.940001"
       x2="31.93"
       y2="14.99"
       gradientUnits="userSpaceOnUse">
      <stop
         offset="0"
         stop-color="#da5466"
         id="stop2039" />
      <stop
         offset="1"
         stop-color="#f4929c"
         id="stop2041" />
    </linearGradient>
    <linearGradient
       id="linear-gradient-4-3"
       x1="32"
       y1="43"
       x2="32"
       y2="37"
       gradientUnits="userSpaceOnUse">
      <stop
         offset="0"
         stop-color="#d1a788"
         id="stop2044" />
      <stop
         offset="1"
         stop-color="#f2d3b8"
         id="stop2046" />
    </linearGradient>
    <linearGradient
       id="linear-gradient-5-6"
       x1="9"
       y1="49"
       x2="9"
       y2="43"
       xlink:href="#linear-gradient-4-3" />
    <linearGradient
       id="linear-gradient-6-1"
       x1="55"
       y1="49"
       x2="55"
       y2="43"
       xlink:href="#linear-gradient-4-3" />
    <style
       id="style2118">.cls-1{fill:url(#linear-gradient);}.cls-2{fill:url(#linear-gradient-2);}.cls-3{fill:#c7cdd8;}.cls-4{fill:url(#linear-gradient-3);}.cls-5{fill:url(#linear-gradient-4);}.cls-6{fill:#cf4055;}.cls-7{fill:url(#linear-gradient-5);}.cls-8{fill:url(#linear-gradient-6);}.cls-9{fill:#adb3c4;}.cls-10{fill:#42455e;}</style>
    <linearGradient
       id="linear-gradient-0"
       x1="32"
       y1="51"
       x2="32"
       y2="7"
       gradientUnits="userSpaceOnUse">
      <stop
         offset="0"
         stop-color="#474f72"
         id="stop2120" />
      <stop
         offset="1"
         stop-color="#878c9f"
         id="stop2122" />
    </linearGradient>
    <linearGradient
       id="linear-gradient-2-63"
       x1="32"
       y1="51"
       x2="32"
       y2="43"
       gradientUnits="userSpaceOnUse">
      <stop
         offset="0"
         stop-color="#d4d8e1"
         id="stop2125" />
      <stop
         offset="1"
         stop-color="#f3f4f5"
         id="stop2127" />
    </linearGradient>
    <linearGradient
       id="linear-gradient-3-20"
       x1="32"
       y1="63"
       x2="32"
       y2="51"
       gradientUnits="userSpaceOnUse">
      <stop
         offset="0"
         stop-color="#949aaf"
         id="stop2130" />
      <stop
         offset="1"
         stop-color="#c6ccda"
         id="stop2132" />
    </linearGradient>
    <linearGradient
       id="linear-gradient-4-6"
       x1="32"
       y1="37"
       x2="32"
       y2="5"
       gradientUnits="userSpaceOnUse">
      <stop
         offset="0"
         stop-color="#da5466"
         id="stop2135" />
      <stop
         offset="1"
         stop-color="#f4929c"
         id="stop2137" />
    </linearGradient>
    <linearGradient
       id="linear-gradient-5-1"
       x1="13"
       y1="19"
       x2="32"
       y2="19"
       xlink:href="#linear-gradient-2-63" />
    <linearGradient
       id="linear-gradient-6-5"
       x1="32"
       y1="19"
       x2="51"
       y2="19"
       xlink:href="#linear-gradient-2-63" />
  </defs>
  <g
     inkscape:label="Layer 1"
     inkscape:groupmode="layer"
     id="layer1"
     transform="translate(260.566,-848.94472)">
    <path
       id="path2112"
       style="fill:#ff2929;fill-opacity:1;stroke-width:5.04577;stroke-linecap:round;paint-order:stroke fill markers;stop-color:#000000"
       d="M -260.566,848.94472 H 39.434002 V 1248.9448 H -260.566 Z" />
    <g
       id="g2116"
       transform="matrix(1.0805702,0,0,1.4407592,-404.48066,-395.92824)">
      <rect
         style="opacity:0.05;fill:#000000;fill-opacity:1;stroke:none;stroke-width:1.18447;stroke-linecap:round;paint-order:stroke fill markers;stop-color:#000000"
         id="rect2114"
         width="277.6312"
         height="277.63141"
         x="133.18399"
         y="864.03961" />
    </g>
    <path
       id="path2118"
       style="fill:#ffffff;fill-opacity:1;stroke-width:0.946982;stroke-linecap:round;paint-order:stroke fill markers;stop-color:#000000"
       d="m -271.84423,822.51215 h 33.06456 c 3.64175,0 6.57356,2.93176 6.57356,6.57357 v 33.06455 c 0,3.64172 -2.93181,6.57357 -6.57356,6.57357 h -33.06456 c -3.64175,0 -6.57355,-2.93185 -6.57355,-6.57357 v -33.06455 c 0,-3.64181 2.9318,-6.57357 6.57355,-6.57357 z" />
    <path
       id="path2120"
       style="fill:#000000;fill-opacity:1;stroke-width:0.946982;stroke-linecap:round;paint-order:stroke fill markers;stop-color:#000000"
       d="m -206.24092,822.51215 h 33.06457 c 3.64175,0 6.57356,2.93176 6.57356,6.57357 v 33.06455 c 0,3.64172 -2.93181,6.57357 -6.57356,6.57357 h -33.06457 c -3.64175,0 -6.57355,-2.93185 -6.57355,-6.57357 v -33.06455 c 0,-3.64181 2.93181,-6.57357 6.57355,-6.57357 z" />
    <path
       id="path2122"
       style="fill:#ffffff;fill-opacity:1;stroke-width:0.946982;stroke-linecap:round;paint-order:stroke fill markers;stop-color:#000000"
       d="m -141.69393,822.51215 h 33.06458 c 3.64175,0 6.57356,2.93176 6.57356,6.57357 v 33.06455 c 0,3.64172 -2.93181,6.57357 -6.57356,6.57357 h -33.06457 c -3.64176,0 -6.57356,-2.93185 -6.57356,-6.57357 v -33.06455 c 0,-3.64181 2.9318,-6.57357 6.57355,-6.57357 z" />
    <path
       id="path2124"
       style="fill:#000000;fill-opacity:1;stroke-width:0.946982;stroke-linecap:round;paint-order:stroke fill markers;stop-color:#000000"
       d="m -77.14695,822.51215 h 33.064572 c 3.64176,0 6.57357,2.93176 6.57357,6.57357 v 33.06455 c 0,3.64172 -2.93181,6.57357 -6.57357,6.57357 H -77.14695 c -3.64176,0 -6.57355,-2.93185 -6.57355,-6.57357 v -33.06455 c 0,-3.64181 2.93179,-6.57357 6.57355,-6.57357 z" />
    <path
       id="path2126"
       style="fill:#ffffff;fill-opacity:1;stroke-width:0.946982;stroke-linecap:round;paint-order:stroke fill markers;stop-color:#000000"
       d="m -12.599968,822.51215 h 33.06458 c 3.64176,0 6.573566,2.93176 6.573566,6.57357 v 33.06455 c 0,3.64172 -2.931806,6.57357 -6.573566,6.57357 h -33.06458 c -3.64175,0 -6.57354,-2.93185 -6.57354,-6.57357 v -33.06455 c 0,-3.64181 2.93179,-6.57357 6.57354,-6.57357 z" />
    <path
       id="path2128"
       style="fill:#ffffff;fill-opacity:1;stroke-width:0.946982;stroke-linecap:round;paint-order:stroke fill markers;stop-color:#000000"
       d="m -240.54031,888.68917 h 33.06457 c 3.64175,0 6.57356,2.93176 6.57356,6.57357 v 33.06455 c 0,3.64171 -2.93181,6.57358 -6.57356,6.57358 h -33.06457 c -3.64175,0 -6.57354,-2.93187 -6.57354,-6.57358 v -33.06455 c 0,-3.64181 2.9318,-6.57357 6.57354,-6.57357 z" />
    <path
       id="path2130"
       style="fill:#ffffff;fill-opacity:1;stroke-width:0.946982;stroke-linecap:round;paint-order:stroke fill markers;stop-color:#000000"
       d="m -175.99332,888.68917 h 33.06457 c 3.64175,0 6.57356,2.93176 6.57356,6.57357 v 33.06455 c 0,3.64171 -2.93181,6.57358 -6.57356,6.57358 h -33.06457 c -3.64175,0 -6.57355,-2.93187 -6.57355,-6.57358 v -33.06455 c 0,-3.64181 2.93181,-6.57357 6.57355,-6.57357 z" />
    <path
       id="path2132"
       style="fill:#ffffff;fill-opacity:1;stroke-width:0.946982;stroke-linecap:round;paint-order:stroke fill markers;stop-color:#000000"
       d="m -111.44633,888.68917 h 33.06457 c 3.641748,0 6.573568,2.93176 6.573568,6.57357 v 33.06455 c 0,3.64171 -2.93182,6.57358 -6.573568,6.57358 h -33.06457 c -3.64176,0 -6.57356,-2.93187 -6.57356,-6.57358 v -33.06455 c 0,-3.64181 2.9318,-6.57357 6.57356,-6.57357 z" />
    <path
       id="path2134"
       style="fill:#ffffff;fill-opacity:1;stroke-width:0.946982;stroke-linecap:round;paint-order:stroke fill markers;stop-color:#000000"
       d="m -46.899358,888.68917 h 33.06458 c 3.64176,0 6.57357,2.93176 6.57357,6.57357 v 33.06455 c 0,3.64171 -2.93181,6.57358 -6.57357,6.57358 h -33.06458 c -3.641754,0 -6.573544,-2.93187 -6.573544,-6.57358 v -33.06455 c 0,-3.64181 2.93179,-6.57357 6.573544,-6.57357 z" />
    <path
       id="path2136"
       style="fill:#ffffff;fill-opacity:1;stroke-width:0.946982;stroke-linecap:round;paint-order:stroke fill markers;stop-color:#000000"
       d="m 17.647632,888.68917 h 33.064583 c 3.641753,0 6.573563,2.93176 6.573563,6.57357 v 33.06455 c 0,3.64171 -2.93181,6.57358 -6.573563,6.57358 H 17.647632 c -3.64175,0 -6.57355,-2.93187 -6.57355,-6.57358 v -33.06455 c 0,-3.64181 2.9318,-6.57357 6.57355,-6.57357 z" />
    <path
       id="path2138"
       style="fill:#ffffff;fill-opacity:1;stroke-width:0.946982;stroke-linecap:round;paint-order:stroke fill markers;stop-color:#000000"
       d="m -270.7879,954.86611 h 33.06456 c 3.64175,0 6.57356,2.9318 6.57356,6.57361 v 33.06449 c 0,3.64175 -2.93181,6.57369 -6.57356,6.57369 h -33.06456 c -3.64175,0 -6.57355,-2.93195 -6.57355,-6.57369 v -33.06449 c 0,-3.6418 2.9318,-6.57361 6.57355,-6.57361 z" />
    <path
       id="path2140"
       style="fill:#000000;fill-opacity:1;stroke-width:0.946982;stroke-linecap:round;paint-order:stroke fill markers;stop-color:#000000"
       d="m -206.24092,954.86611 h 33.06457 c 3.64175,0 6.57356,2.9318 6.57356,6.57361 v 33.06449 c 0,3.64175 -2.93181,6.57369 -6.57356,6.57369 h -33.06457 c -3.64175,0 -6.57355,-2.93195 -6.57355,-6.57369 v -33.06449 c 0,-3.6418 2.93181,-6.57361 6.57355,-6.57361 z" />
    <path
       id="path2142"
       style="fill:#ffffff;fill-opacity:1;stroke-width:0.946982;stroke-linecap:round;paint-order:stroke fill markers;stop-color:#000000"
       d="m -141.69393,954.86611 h 33.06458 c 3.64175,0 6.57356,2.9318 6.57356,6.57361 v 33.06449 c 0,3.64175 -2.93181,6.57369 -6.57356,6.57369 h -33.06457 c -3.64176,0 -6.57356,-2.93195 -6.57356,-6.57369 v -33.06449 c 0,-3.6418 2.9318,-6.57361 6.57355,-6.57361 z" />
    <path
       id="path2144"
       style="fill:#000000;fill-opacity:1;stroke-width:0.946982;stroke-linecap:round;paint-order:stroke fill markers;stop-color:#000000"
       d="m -77.14695,954.86611 h 33.064572 c 3.64176,0 6.57357,2.9318 6.57357,6.57361 v 33.06449 c 0,3.64175 -2.93181,6.57369 -6.57357,6.57369 H -77.14695 c -3.64176,0 -6.57355,-2.93195 -6.57355,-6.57369 v -33.06449 c 0,-3.6418 2.93179,-6.57361 6.57355,-6.57361 z" />
    <path
       id="path2146"
       style="fill:#ffffff;fill-opacity:1;stroke-width:0.946982;stroke-linecap:round;paint-order:stroke fill markers;stop-color:#000000"
       d="m -12.599968,954.86611 h 33.06458 c 3.64176,0 6.573566,2.9318 6.573566,6.57361 v 33.06449 c 0,3.64175 -2.931806,6.57369 -6.573566,6.57369 h -33.06458 c -3.64175,0 -6.57354,-2.93195 -6.57354,-6.57369 v -33.06449 c 0,-3.6418 2.93179,-6.57361 6.57354,-6.57361 z" />
    <path
       id="path2148"
       style="fill:#ffffff;fill-opacity:1;stroke-width:0.946982;stroke-linecap:round;paint-order:stroke fill markers;stop-color:#000000"
       d="m -240.54031,1021.0431 h 33.06457 c 3.64175,0 6.57356,2.9318 6.57356,6.5736 v 33.0646 c 0,3.6418 -2.93181,6.5736 -6.57356,6.5736 h -33.06457 c -3.64175,0 -6.57354,-2.9318 -6.57354,-6.5736 v -33.0646 c 0,-3.6418 2.9318,-6.5736 6.57354,-6.5736 z" />
    <path
       id="path2150"
       style="fill:#ffffff;fill-opacity:1;stroke-width:0.946982;stroke-linecap:round;paint-order:stroke fill markers;stop-color:#000000"
       d="m -175.99332,1021.0431 h 33.06457 c 3.64175,0 6.57356,2.9318 6.57356,6.5736 v 33.0646 c 0,3.6418 -2.93181,6.5736 -6.57356,6.5736 h -33.06457 c -3.64175,0 -6.57355,-2.9318 -6.57355,-6.5736 v -33.0646 c 0,-3.6418 2.93181,-6.5736 6.57355,-6.5736 z" />
    <path
       id="path2152"
       style="fill:#ffffff;fill-opacity:1;stroke-width:0.946982;stroke-linecap:round;paint-order:stroke fill markers;stop-color:#000000"
       d="m -111.44633,1021.0431 h 33.06457 c 3.641748,0 6.573568,2.9318 6.573568,6.5736 v 33.0646 c 0,3.6418 -2.93182,6.5736 -6.573568,6.5736 h -33.06457 c -3.64176,0 -6.57356,-2.9318 -6.57356,-6.5736 v -33.0646 c 0,-3.6418 2.9318,-6.5736 6.57356,-6.5736 z" />
    <path
       id="path2154"
       style="fill:#ffffff;fill-opacity:1;stroke-width:0.946982;stroke-linecap:round;paint-order:stroke fill markers;stop-color:#000000"
       d="m -46.899358,1021.0431 h 33.06458 c 3.64176,0 6.57357,2.9318 6.57357,6.5736 v 33.0646 c 0,3.6418 -2.93181,6.5736 -6.57357,6.5736 h -33.06458 c -3.641754,0 -6.573544,-2.9318 -6.573544,-6.5736 v -33.0646 c 0,-3.6418 2.93179,-6.5736 6.573544,-6.5736 z" />
    <path
       id="path2156"
       style="fill:#ffffff;fill-opacity:1;stroke-width:0.946982;stroke-linecap:round;paint-order:stroke fill markers;stop-color:#000000"
       d="m 17.647632,1021.0431 h 33.064583 c 3.641753,0 6.573563,2.9318 6.573563,6.5736 v 33.0646 c 0,3.6418 -2.93181,6.5736 -6.573563,6.5736 H 17.647632 c -3.64175,0 -6.57355,-2.9318 -6.57355,-6.5736 v -33.0646 c 0,-3.6418 2.9318,-6.5736 6.57355,-6.5736 z" />
    <path
       id="path3060"
       style="fill:#ffffff;fill-opacity:1;stroke-width:0.946982;stroke-linecap:round;paint-order:stroke fill markers;stop-color:#000000"
       d="m -271.84423,1089.5013 h 33.06456 c 3.64175,0 6.57356,2.9318 6.57356,6.5736 v 33.0645 c 0,3.6418 -2.93181,6.5736 -6.57356,6.5736 h -33.06456 c -3.64175,0 -6.57355,-2.9318 -6.57355,-6.5736 v -33.0645 c 0,-3.6418 2.9318,-6.5736 6.57355,-6.5736 z" />
    <path
       id="path3062"
       style="fill:#000000;fill-opacity:1;stroke-width:0.946982;stroke-linecap:round;paint-order:stroke fill markers;stop-color:#000000"
       d="m -206.24092,1089.5013 h 33.06457 c 3.64175,0 6.57356,2.9318 6.57356,6.5736 v 33.0645 c 0,3.6418 -2.93181,6.5736 -6.57356,6.5736 h -33.06457 c -3.64175,0 -6.57355,-2.9318 -6.57355,-6.5736 v -33.0645 c 0,-3.6418 2.93181,-6.5736 6.57355,-6.5736 z" />
    <path
       id="path3064"
       style="fill:#ffffff;fill-opacity:1;stroke-width:0.946982;stroke-linecap:round;paint-order:stroke fill markers;stop-color:#000000"
       d="m -141.69393,1089.5013 h 33.06458 c 3.64175,0 6.57356,2.9318 6.57356,6.5736 v 33.0645 c 0,3.6418 -2.93181,6.5736 -6.57356,6.5736 h -33.06457 c -3.64176,0 -6.57356,-2.9318 -6.57356,-6.5736 v -33.0645 c 0,-3.6418 2.9318,-6.5736 6.57355,-6.5736 z" />
    <path
       id="path3066"
       style="fill:#000000;fill-opacity:1;stroke-width:0.946982;stroke-linecap:round;paint-order:stroke fill markers;stop-color:#000000"
       d="m -77.14695,1089.5013 h 33.064572 c 3.64176,0 6.57357,2.9318 6.57357,6.5736 v 33.0645 c 0,3.6418 -2.93181,6.5736 -6.57357,6.5736 H -77.14695 c -3.64176,0 -6.57355,-2.9318 -6.57355,-6.5736 v -33.0645 c 0,-3.6418 2.93179,-6.5736 6.57355,-6.5736 z" />
    <path
       id="path3068"
       style="fill:#ffffff;fill-opacity:1;stroke-width:0.946982;stroke-linecap:round;paint-order:stroke fill markers;stop-color:#000000"
       d="m -12.599968,1089.5013 h 33.06458 c 3.64176,0 6.573566,2.9318 6.573566,6.5736 v 33.0645 c 0,3.6418 -2.931806,6.5736 -6.573566,6.5736 h -33.06458 c -3.64175,0 -6.57354,-2.9318 -6.57354,-6.5736 v -33.0645 c 0,-3.6418 2.93179,-6.5736 6.57354,-6.5736 z" />
    <path
       id="path3070"
       style="fill:#ffffff;fill-opacity:1;stroke-width:0.946982;stroke-linecap:round;paint-order:stroke fill markers;stop-color:#000000"
       d="m -240.54031,1155.6783 h 33.06457 c 3.64175,0 6.57356,2.9318 6.57356,6.5736 v 33.0646 c 0,3.6417 -2.93181,6.5735 -6.57356,6.5735 h -33.06457 c -3.64175,0 -6.57354,-2.9318 -6.57354,-6.5735 v -33.0646 c 0,-3.6418 2.9318,-6.5736 6.57354,-6.5736 z" />
    <path
       id="path3072"
       style="fill:#ffffff;fill-opacity:1;stroke-width:0.946982;stroke-linecap:round;paint-order:stroke fill markers;stop-color:#000000"
       d="m -175.99332,1155.6783 h 33.06457 c 3.64175,0 6.57356,2.9318 6.57356,6.5736 v 33.0646 c 0,3.6417 -2.93181,6.5735 -6.57356,6.5735 h -33.06457 c -3.64175,0 -6.57355,-2.9318 -6.57355,-6.5735 v -33.0646 c 0,-3.6418 2.93181,-6.5736 6.57355,-6.5736 z" />
    <path
       id="path3074"
       style="fill:#ffffff;fill-opacity:1;stroke-width:0.946982;stroke-linecap:round;paint-order:stroke fill markers;stop-color:#000000"
       d="m -111.44633,1155.6783 h 33.06457 c 3.641748,0 6.573568,2.9318 6.573568,6.5736 v 33.0646 c 0,3.6417 -2.93182,6.5735 -6.573568,6.5735 h -33.06457 c -3.64176,0 -6.57356,-2.9318 -6.57356,-6.5735 v -33.0646 c 0,-3.6418 2.9318,-6.5736 6.57356,-6.5736 z" />
    <path
       id="path3076"
       style="fill:#ffffff;fill-opacity:1;stroke-width:0.946982;stroke-linecap:round;paint-order:stroke fill markers;stop-color:#000000"
       d="m -46.899358,1155.6783 h 33.06458 c 3.64176,0 6.57357,2.9318 6.57357,6.5736 v 33.0646 c 0,3.6417 -2.93181,6.5735 -6.57357,6.5735 h -33.06458 c -3.641754,0 -6.573544,-2.9318 -6.573544,-6.5735 v -33.0646 c 0,-3.6418 2.93179,-6.5736 6.573544,-6.5736 z" />
    <path
       id="path3078"
       style="fill:#ffffff;fill-opacity:1;stroke-width:0.946982;stroke-linecap:round;paint-order:stroke fill markers;stop-color:#000000"
       d="m 17.647632,1155.6783 h 33.064583 c 3.641753,0 6.573563,2.9318 6.573563,6.5736 v 33.0646 c 0,3.6417 -2.93181,6.5735 -6.573563,6.5735 H 17.647632 c -3.64175,0 -6.57355,-2.9318 -6.57355,-6.5735 v -33.0646 c 0,-3.6418 2.9318,-6.5736 6.57355,-6.5736 z" />
    <path
       id="path3080"
       style="fill:#ffffff;fill-opacity:1;stroke-width:0.946982;stroke-linecap:round;paint-order:stroke fill markers;stop-color:#000000"
       d="m -270.7879,1221.8553 h 33.06456 c 3.64175,0 6.57356,2.9317 6.57356,6.5735 v 33.0646 c 0,3.6417 -2.93181,6.5736 -6.57356,6.5736 h -33.06456 c -3.64175,0 -6.57355,-2.9319 -6.57355,-6.5736 v -33.0646 c 0,-3.6418 2.9318,-6.5735 6.57355,-6.5735 z" />
    <path
       id="path3082"
       style="fill:#000000;fill-opacity:1;stroke-width:0.946982;stroke-linecap:round;paint-order:stroke fill markers;stop-color:#000000"
       d="m -206.24092,1221.8553 h 33.06457 c 3.64175,0 6.57356,2.9317 6.57356,6.5735 v 33.0646 c 0,3.6417 -2.93181,6.5736 -6.57356,6.5736 h -33.06457 c -3.64175,0 -6.57355,-2.9319 -6.57355,-6.5736 v -33.0646 c 0,-3.6418 2.93181,-6.5735 6.57355,-6.5735 z" />
    <path
       id="path3084"
       style="fill:#ffffff;fill-opacity:1;stroke-width:0.946982;stroke-linecap:round;paint-order:stroke fill markers;stop-color:#000000"
       d="m -141.69393,1221.8553 h 33.06458 c 3.64175,0 6.57356,2.9317 6.57356,6.5735 v 33.0646 c 0,3.6417 -2.93181,6.5736 -6.57356,6.5736 h -33.06457 c -3.64176,0 -6.57356,-2.9319 -6.57356,-6.5736 v -33.0646 c 0,-3.6418 2.9318,-6.5735 6.57355,-6.5735 z" />
    <path
       id="path3086"
       style="fill:#000000;fill-opacity:1;stroke-width:0.946982;stroke-linecap:round;paint-order:stroke fill markers;stop-color:#000000"
       d="m -77.14695,1221.8553 h 33.064572 c 3.64176,0 6.57357,2.9317 6.57357,6.5735 v 33.0646 c 0,3.6417 -2.93181,6.5736 -6.57357,6.5736 H -77.14695 c -3.64176,0 -6.57355,-2.9319 -6.57355,-6.5736 v -33.0646 c 0,-3.6418 2.93179,-6.5735 6.57355,-6.5735 z" />
    <path
       id="path3088"
       style="fill:#ffffff;fill-opacity:1;stroke-width:0.946982;stroke-linecap:round;paint-order:stroke fill markers;stop-color:#000000"
       d="m -12.599968,1221.8553 h 33.06458 c 3.64176,0 6.573566,2.9317 6.573566,6.5735 v 33.0646 c 0,3.6417 -2.931806,6.5736 -6.573566,6.5736 h -33.06458 c -3.64175,0 -6.57354,-2.9319 -6.57354,-6.5736 v -33.0646 c 0,-3.6418 2.93179,-6.5735 6.57354,-6.5735 z" />
    <path
       id="path3141"
       style="font-weight:bold;font-size:28.443px;line-height:1.25;font-family:Montserrat;-inkscape-font-specification:Montserrat;fill:#ffffff;stroke-width:0.711074"
       d="M 56.152344 -13.28125 L 56.152344 6.6289062 L 60.703125 6.6289062 L 60.703125 -5.4589844 L 70.628906 6.6289062 L 74.412109 6.6289062 L 74.412109 -13.28125 L 69.861328 -13.28125 L 69.861328 -1.1933594 L 59.962891 -13.28125 L 56.152344 -13.28125 z M 76.972656 -13.28125 L 76.972656 -9.5839844 L 80.955078 -9.5839844 L 80.955078 6.6289062 L 85.5625 6.6289062 L 85.5625 -13.28125 L 76.972656 -13.28125 z "
       transform="translate(-260.566,848.94472)" />
    <path
       id="path3146"
       style="font-weight:bold;font-size:28.443px;line-height:1.25;font-family:Montserrat;-inkscape-font-specification:Montserrat;fill:#ffffff;stroke-width:0.711074"
       d="M 185.24609 -13.28125 L 185.24609 6.6289062 L 189.79688 6.6289062 L 189.79688 -5.4589844 L 199.72461 6.6289062 L 203.50586 6.6289062 L 203.50586 -13.28125 L 198.95508 -13.28125 L 198.95508 -1.1933594 L 189.05859 -13.28125 L 185.24609 -13.28125 z M 206.06641 -13.28125 L 206.06641 -9.5839844 L 210.04883 -9.5839844 L 210.04883 6.6289062 L 214.65625 6.6289062 L 214.65625 -13.28125 L 206.06641 -13.28125 z "
       transform="translate(-260.566,848.94472)" />
    <path
       id="path3151"
       style="font-weight:bold;font-size:28.443px;line-height:1.25;font-family:Montserrat;-inkscape-font-specification:Montserrat;fill:#ffffff;stroke-width:0.711074"
       d="M 56.152344 119.07227 L 56.152344 138.98242 L 60.703125 138.98242 L 60.703125 126.89453 L 70.628906 138.98242 L 74.412109 138.98242 L 74.412109 119.07227 L 69.861328 119.07227 L 69.861328 131.16016 L 59.962891 119.07227 L 56.152344 119.07227 z M 76.972656 119.07227 L 76.972656 122.76953 L 80.955078 122.76953 L 80.955078 138.98242 L 85.5625 138.98242 L 85.5625 119.07227 L 76.972656 119.07227 z "
       transform="translate(-260.566,848.94472)" />
    <path
       id="path3156"
       style="font-weight:bold;font-size:28.443px;line-height:1.25;font-family:Montserrat;-inkscape-font-specification:Montserrat;fill:#ffffff;stroke-width:0.711074"
       d="M 185.24609 119.07227 L 185.24609 138.98242 L 189.79688 138.98242 L 189.79688 126.89453 L 199.72461 138.98242 L 203.50586 138.98242 L 203.50586 119.07227 L 198.95508 119.07227 L 198.95508 131.16016 L 189.05859 119.07227 L 185.24609 119.07227 z M 206.06641 119.07227 L 206.06641 122.76953 L 210.04883 122.76953 L 210.04883 138.98242 L 214.65625 138.98242 L 214.65625 119.07227 L 206.06641 119.07227 z "
       transform="translate(-260.566,848.94472)" />
    <path
       id="path3161"
       style="font-weight:bold;font-size:28.443px;line-height:1.25;font-family:Montserrat;-inkscape-font-specification:Montserrat;fill:#ffffff;stroke-width:0.711074"
       d="M 56.152344 253.70703 L 56.152344 273.61719 L 60.703125 273.61719 L 60.703125 261.5293 L 70.628906 273.61719 L 74.412109 273.61719 L 74.412109 253.70703 L 69.861328 253.70703 L 69.861328 265.79492 L 59.962891 253.70703 L 56.152344 253.70703 z M 76.972656 253.70703 L 76.972656 257.4043 L 80.955078 257.4043 L 80.955078 273.61719 L 85.5625 273.61719 L 85.5625 253.70703 L 76.972656 253.70703 z "
       transform="translate(-260.566,848.94472)" />
    <path
       id="path3166"
       style="font-weight:bold;font-size:28.443px;line-height:1.25;font-family:Montserrat;-inkscape-font-specification:Montserrat;fill:#ffffff;stroke-width:0.711074"
       d="M 185.24609 253.70703 L 185.24609 273.61719 L 189.79688 273.61719 L 189.79688 261.5293 L 199.72461 273.61719 L 203.50586 273.61719 L 203.50586 253.70703 L 198.95508 253.70703 L 198.95508 265.79492 L 189.05859 253.70703 L 185.24609 253.70703 z M 206.06641 253.70703 L 206.06641 257.4043 L 210.04883 257.4043 L 210.04883 273.61719 L 214.65625 273.61719 L 214.65625 253.70703 L 206.06641 253.70703 z "
       transform="translate(-260.566,848.94472)" />
    <path
       id="path3171"
       style="font-weight:bold;font-size:28.443px;line-height:1.25;font-family:Montserrat;-inkscape-font-specification:Montserrat;fill:#ffffff;stroke-width:0.711074"
       d="M 56.152344 386.23242 L 56.152344 406.14258 L 60.703125 406.14258 L 60.703125 394.05469 L 70.628906 406.14258 L 74.412109 406.14258 L 74.412109 386.23242 L 69.861328 386.23242 L 69.861328 398.32031 L 59.962891 386.23242 L 56.152344 386.23242 z M 76.972656 386.23242 L 76.972656 389.92969 L 80.955078 389.92969 L 80.955078 406.14258 L 85.5625 406.14258 L 85.5625 386.23242 L 76.972656 386.23242 z "
       transform="translate(-260.566,848.94472)" />
    <path
       id="path3176"
       style="font-weight:bold;font-size:28.443px;line-height:1.25;font-family:Montserrat;-inkscape-font-specification:Montserrat;fill:#ffffff;stroke-width:0.711074"
       d="M 185.24609 386.06055 L 185.24609 405.9707 L 189.79688 405.9707 L 189.79688 393.88281 L 199.72461 405.9707 L 203.50586 405.9707 L 203.50586 386.06055 L 198.95508 386.06055 L 198.95508 398.15039 L 189.05859 386.06055 L 185.24609 386.06055 z M 206.06641 386.06055 L 206.06641 389.75977 L 210.04883 389.75977 L 210.04883 405.9707 L 214.65625 405.9707 L 214.65625 386.06055 L 206.06641 386.06055 z "
       transform="translate(-260.566,848.94472)" />
    <path
       id="path35541"
       style="fill:#ffffff;fill-opacity:1;stroke-width:0.946982;stroke-linecap:round;paint-order:stroke fill markers;stop-color:#000000"
       d="m -271.84423,1221.8553 h 33.06456 c 3.64175,0 6.57356,2.9318 6.57356,6.5736 v 33.0645 c 0,3.6417 -2.93181,6.5736 -6.57356,6.5736 h -33.06456 c -3.64175,0 -6.57355,-2.9319 -6.57355,-6.5736 v -33.0645 c 0,-3.6418 2.9318,-6.5736 6.57355,-6.5736 z" />
    <path
       d="m -233.20802,907.95502 v -6.4 c 3,-0.32 6.12,-0.76 9.24,-1.28 0.04,2.64 0.2,5.2 0.44,7.68 z m 26.72,4.72 v -4.72 h -12 c -0.28,-2.72 -0.4,-5.6 -0.4,-8.6 3.44,-0.64 6.68,-1.44 9.56,-2.28 l -3.72,-3.96 c -5.2,1.64 -13.24,3.2 -20.88,4.2 l -4.16,-1 v 27.92 c -1.56,0.2 -3.04,0.4 -4.32,0.56 l 1.12,5.04 c 5.32,-0.88 12.44,-2.08 19.08,-3.28 l -0.28,-4.64 c -3.56,0.56 -7.28,1.12 -10.72,1.64 v -10.88 h 10.28 c 1.56,10.24 5.04,17.76 11.28,17.8 3.68,0 5.28,-1.56 6.04,-8.04 -1.24,-0.48 -3.04,-1.48 -4.08,-2.52 -0.24,4.12 -0.68,5.64 -1.64,5.64 -2.92,0 -5.28,-5.32 -6.56,-12.88 z"
       style="font-weight:bold;font-size:40px;line-height:1.25;font-family:Montserrat;-inkscape-font-specification:Montserrat;fill:#f32727;fill-opacity:1"
       id="path89866" />
    <path
       d="m -162.58103,912.15502 c 4.52,-0.36 10.76,-0.88 16.72,-1.36 0.6,1.04 1.08,2 1.44,2.84 l 3.92,-2.12 c -1.08,-2.56 -3.76,-6.36 -6,-9.12 l -3.64,1.96 c 0.6,0.8 1.2,1.64 1.8,2.52 -2.24,0.16 -4.48,0.32 -6.64,0.48 0.8,-1.68 1.68,-3.6 2.48,-5.4 h 11.2 v -4.24 h -8.92 v -4.64 h -4.84 v 4.64 h -8.16 v 4.24 h 5.4 c -0.52,1.88 -1.28,3.96 -2,5.72 -1.12,0.08 -2.2,0.12 -3.16,0.16 z m -14,4.32 c -0.32,3.36 -0.96,6.92 -2.12,9.28 1.04,0.36 2.8,1.2 3.64,1.72 1.16,-2.56 2,-6.56 2.4,-10.32 z m 10.64,-2.52 c 0.24,0.76 0.4,1.44 0.52,2.04 l 3.36,-1.52 c -0.44,-2.28 -2,-5.76 -3.52,-8.48 l -3.16,1.32 c 0.48,0.88 0.96,1.88 1.4,2.88 l -3.84,0.16 c 2.52,-3.24 5.28,-7.28 7.48,-10.76 l -3.88,-1.8 c -0.92,1.96 -2.2,4.24 -3.56,6.48 -0.4,-0.48 -0.84,-1.04 -1.36,-1.6 1.44,-2.24 3.04,-5.32 4.48,-8.04 l -4.12,-1.52 c -0.68,2.12 -1.8,4.76 -2.92,6.96 -0.32,-0.28 -0.64,-0.56 -0.92,-0.8 l -2.28,3.24 c 1.64,1.6 3.56,3.72 4.72,5.44 -0.64,0.92 -1.28,1.8 -1.88,2.56 l -2.88,0.12 0.4,4.12 5.8,-0.36 v 16.08 h 4.12 v -16.36 z m 3.88,9.4 c -0.44,-2 -1.48,-4.92 -2.48,-7.2 l -3.36,1.04 c 0.92,2.36 1.96,5.44 2.32,7.44 z m 3.28,-10.12 c -0.24,6.96 -0.76,11.24 -6.8,13.76 0.96,0.8 2.16,2.44 2.68,3.52 7.24,-3.16 8.32,-8.8 8.64,-17.28 z m 12.44,12.76 c -0.56,0 -0.64,-0.12 -0.64,-1.28 v -11.52 h -4.48 v 11.56 c 0,4.04 0.8,5.4 4.28,5.4 h 2.64 c 2.88,0 3.96,-1.52 4.32,-7.32 -1.2,-0.32 -3.08,-1.04 -3.96,-1.8 -0.08,4.32 -0.2,4.96 -0.84,4.96 z"
       style="font-weight:bold;font-size:40px;line-height:1.25;font-family:Montserrat;-inkscape-font-specification:Montserrat;fill:#f32727;fill-opacity:1"
       id="path89868" />
    <path
       d="m -251.95561,985.81201 v -2.48 h -4.84 v 2.48 h -5.76 c 1.04,-1.04 2.04,-2.16 2.84,-3.32 h 11.28 c 0.84,1.16 1.8,2.28 2.88,3.32 z m -8.56,-9 h 12.52 v 1.8 h -12.52 z m 12.52,-10.12 v 1.76 h -12.52 v -1.76 z m -12.52,5.04 h 12.52 v 1.76 h -12.52 z m 24.8,10.76 v -3.88 h -7.4 v -11.92 h 5.48 v -3.84 h -5.48 v -3 h -4.88 v 3 h -12.52 v -3 h -4.76 v 3 h -5.52 v 3.84 h 5.52 v 11.92 h -7.6 v 3.88 h 7.68 c -2.2,2.12 -5.16,3.96 -8.08,5.04 1,0.88 2.36,2.52 3.04,3.64 2.24,-1 4.4,-2.4 6.36,-4.08 v 2.48 h 7.08 v 2.6 h -12.56 v 3.92 h 30.48 v -3.92 h -13.08 v -2.6 h 7.28 v -2.96 c 1.96,1.76 4.12,3.2 6.28,4.2 0.68,-1.16 2.12,-2.8 3.16,-3.68 -2.88,-1 -5.68,-2.72 -7.8,-4.64 z"
       style="font-weight:bold;font-size:40px;line-height:1.25;font-family:Montserrat;-inkscape-font-specification:Montserrat;fill:#f32727;fill-opacity:1"
       id="path89870" />
    <path
       d="m -40.427055,893.17502 c -1.96,5.52 -5.24,11.04 -8.68,14.52 0.76,1.16 2,3.68 2.44,4.8 0.84,-0.88 1.64,-1.88 2.44,-2.96 v 20.88 h 4.48 v -28 c 1.36,-2.56 2.6,-5.24 3.6,-7.88 z m 17.36,13.08 h -2.64 v -5 h 2.64 z m 6.68,16.96 h -2.68 v -12.84 h 2.68 z m -15.84,-12.84 h 2.48 v 12.84 h -2.48 z m 9.16,0 v 12.84 h -2.68 v -12.84 z m 11.44,-9.12 v -4.24 h -25.4 v 4.24 h 6.84 v 5 h -6.44 v 23.32 h 4.4 v -2.28 h 15.84 v 2.04 h 4.56 v -23.08 h -6.76 v -5 z"
       style="font-weight:bold;font-size:40px;line-height:1.25;font-family:Montserrat;-inkscape-font-specification:Montserrat;fill:#f32727;fill-opacity:1"
       id="path89872" />
    <path
       d="m -113.74164,965.932 h -10.8 v -2 h 10.8 z m 0,5.08 h -10.8 v -2.04 h 10.8 z m 4.56,-10.44 h -19.71999 v 13.8 h 19.71999 z m -21.71999,19.96 -0.64,-4.28 -3.6,0.96 v -5.91999 h 4 v -4.4 h -4 v -7.56 h -4.32 v 7.56 h -4.32 v 4.4 h 4.32 v 7.08 c -1.8,0.44 -3.4,0.88 -4.76,1.16 l 1.08,4.6 c 1.16,-0.32001 2.36,-0.68 3.68,-1.04 v 8 c 0,0.52 -0.2,0.68 -0.68,0.68 -0.48,0.04 -1.84,0.04 -3.32,0 0.6,1.24 1.12,3.2 1.24,4.36 2.56,0.04 4.32,-0.12 5.52,-0.92 1.2,-0.72 1.56,-1.88 1.56,-4.08 V 981.812 Z m 13.96,6.76 h 7.64 v -3.72 h -7.64 v -3.52 h 9.76 v -3.84 h -23.64 v 3.84 h 9.4 v 10.44 c -1.44,-0.92 -2.6,-2.36 -3.48,-4.68 0.32,-1.24 0.56,-2.6 0.76,-4.03999 l -4.32,-0.52 c -0.6,5.44 -2.24,9.88 -5.56,12.52 0.96,0.6 2.76,2.08 3.52,2.84 1.72,-1.64 3.16,-3.76 4.16,-6.28 2.72,4.84 6.76,5.8 12,5.8 h 6.96 c 0.16,-1.20001 0.72,-3.20001 1.28,-4.16 -1.72,0.04 -6.68,0.04 -8.04,0.04 -1,0 -1.88,-0.04 -2.8,-0.12 z"
       style="font-weight:bold;font-size:40px;line-height:1.25;font-family:Montserrat;-inkscape-font-specification:Montserrat;fill:#f32727;fill-opacity:1"
       id="path89874" />
    <path
       d="m -161.92104,1045.169 h -8.84 c 1.24001,-1 2.4,-2.12 3.48,-3.32 0.12,0.48 0.24,0.96 0.32,1.32 1.6,-0.04 3.32,-0.16 5.04,-0.28 z m 7.28,-8.44 c 2.56002,4.64 6.60001,8.8 11.16001,11.08 0.72,-1.2 2.16,-3 3.2,-3.88 -3.68,-1.48 -7.16,-4.2 -9.44,-7.2 h 8.32 v -4.32 h -7.44 c 1.24,-1.52 2.56,-3.32 3.76,-5.04 l -5.12,-1.6 c -0.88,2.04 -2.48,4.68 -3.88,6.64 h -4.72001 l 2.24,-1.04 c -0.68,-1.72 -2.28,-4.12 -3.76,-5.92 l -4,1.72 c 1.2,1.6 2.44,3.64 3.12,5.24 h -5.91999 l 1.47999,-0.76 c -0.84,-1.68 -2.63999,-4.04 -4.24,-5.76 l -4,2.04 c 1.08,1.32 2.32,3 3.16,4.48 h -6.56 v 4.32 h 8.64 c -2.36,3.32 -6.08,6.24 -10,7.84 1,0.84 2.4,2.56 3.08,3.64 1.6,-0.76 3.12,-1.72 4.56,-2.84 v 3.44 h 9.08 v 2.4 h -14.08 v 3.92 h 14.08 v 2.88 c 0,0.64 -0.24,0.84 -1.03999,0.84 -0.76,0 -3.72,0 -6.2,-0.08 0.64,1.12 1.44,2.88 1.72,4.08 3.52,0 6.04,-0.04 7.8,-0.64 1.8,-0.64 2.36,-1.72 2.36,-4.12 v -2.96 h 14.24001 v -3.92 h -14.24001 v -2.4 h 9.24001 v -3.64 h -9.24001 v -2.72 c 2.04,-0.24 3.96001,-0.56 5.64001,-0.96 l -2.96,-3.2 c -2.68001,0.68 -6.96001,1.16 -11.00001,1.48 0.72,-0.96 1.36,-2 1.92,-3.04 z"
       style="font-weight:bold;font-size:40px;line-height:1.25;font-family:Montserrat;-inkscape-font-specification:Montserrat;fill:#f32727;fill-opacity:1"
       id="path89876" />
    <path
       d="m -234.78802,1034.649 h 28.88 v -4.52 h -14.44 v -4.6 h -4.96 v 4.6 h -14.24 v 10.08 c 0,5.76 -0.28,14.16 -3.56,19.88 1.12,0.52 3.24,1.88 4.12,2.68 3.6,-6.24 4.2,-16.12 4.2,-22.56 z m 21,5.92 c -2.16,-1.88 -6.48,-4.28 -9.68,-5.8 l -3.16,3.12 c 3.28,1.68 7.48,4.36 9.4,6.24 z m -17.48,18.8 c 1.80001,-3.2 2.52001,-8.48 2.96001,-13.08 l -4.28001,-0.92 c -0.4,4.44 -1.24,9.08 -2.91999,12.12 z m 10.36,-1.52 c -1.12,0 -1.28,-0.2 -1.28,-1.64 v -13.92 h -4.72 v 13.96 c 0,4.44 1,5.84 5.24,5.84 h 4.44 c 3.72,0 4.92,-1.92 5.36,-8.76 -1.24,-0.32 -3.19999,-1.08 -4.19999,-1.92 -0.16,5.52 -0.4,6.44 -1.6,6.44 z m 6.44,-11.88 c 2.28,4.24 4.36,9.8 4.88,13.36 l 4.68,-1.92 c -0.64,-3.64 -2.96,-8.92 -5.32,-13.08 z"
       style="font-weight:bold;font-size:40px;line-height:1.25;font-family:Montserrat;-inkscape-font-specification:Montserrat;fill:#f32727;fill-opacity:1"
       id="path89878" />
    <path
       d="m -97.81404,1025.929 c -3,5.08 -9.44,11.44 -16.36,15 1.04,1 2.4,2.76 3,3.84 6.6,-3.72 12.76,-9.28 16,-14.16 3.44,4.92 10.12,10.68 16.32,14.12 0.92,-1.48 2,-3.04 3.2,-4.28 -6.4,-2.76 -12.96,-8.2 -17.28,-14.52 z m 5.56,24.12 h 10.72 v -4.2 h -10.72 v -8.56 h -5 v 20.76 h -5.68 v -13.88 h -4.68 v 13.88 h -4.36 v 4.32 h 34.04 v -4.32 h -14.32 z"
       style="font-weight:bold;font-size:40px;line-height:1.25;font-family:Montserrat;-inkscape-font-specification:Montserrat;fill:#f32727;fill-opacity:1"
       id="path89880" />
    <path
       d="m -30.267055,1048.409 v -3.76 h 3.96 v 2.4 c 0,0.44 0,0.92 -0.04,1.36 z m 12.48,-3.76 v 3.76 h -4.28 c 0.04,-0.4 0.04,-0.84 0.04,-1.24 v -2.52 z m -11.04,-10.12 c 1.88,-1.6 3.52,-3.36 4.64,-5.04 1.2,1.68 2.92,3.48 4.84,5.04 z m 15.32,17.52 v -11.04 h -8.52 v -2.56 h 5.28 v -1.96 c 1.04,0.68 2.12,1.32 3.16,1.84 0.64,-1.28 1.56,-3.04 2.44,-4.16 -4.16,-1.56 -8.24,-4.92 -11,-8.76 h -4.32 c -1.92,3.08 -5.4,6.48 -9.28,8.44 v -0.28 h -3.64 v -8.2 h -4.4 v 8.2 h -4.88 v 4.4 h 4.6 c -1.04,4.76 -3.2,10.28 -5.52,13.44 0.72,1.12 1.72,2.96 2.16,4.24 1.36,-1.92 2.6,-4.68 3.64,-7.68 v 14.72 h 4.4 v -17 c 0.84,1.68 1.64,3.4 2.08,4.56 l 2.4,-3.68 c -0.6,-1 -3.4,-5.28 -4.48,-6.68 v -1.92 h 3.64 v -1.92 c 0.48,0.8 0.88,1.64 1.16,2.32 1.12,-0.56 2.2,-1.2 3.28,-1.96 v 2.04 h 5 v 2.56 h -8.08 v 11.04 h 7.32 c -1.12,2.84 -3.8,5.44 -9.92,7.36 0.72,0.76 2.08,2.56 2.52,3.52 5.88,-1.88 9.08,-4.72 10.76,-7.92 2.44,4.32 5.6,6.36 9.56,7.88 0.52,-1.4 1.64,-2.96 2.72,-3.96 -3.84,-1.2 -6.84,-2.72 -9.16,-6.88 z"
       style="font-weight:bold;font-size:40px;line-height:1.25;font-family:Montserrat;-inkscape-font-specification:Montserrat;fill:#f32727;fill-opacity:1"
       id="path89882" />
    <path
       d="m -5.2476649,1102.4271 h 4.72 v -2.4 H 7.992335 v 2.24 h 4.76 v -2.24 h 8.88 v -3.84 h -8.88 v -2.32 h -4.76 v 2.32 h -8.5199999 v -2.32 h -4.72 v 2.32 h -8.7600001 v 3.84 h 8.7600001 z m 12.2799999,20.32 c -2.9999999,1.32 -5.9999999,2.6 -8.1199999,3.32 l 1.76,3.44 c 2.2,-1.12 4.7599999,-2.44 7.1599999,-3.72 z m 5.12,1 v -7.56 h -3.96 v 11.2 c 0,0.36 -0.12,0.48 -0.52,0.48 -0.4,0 -1.64,0 -2.7599999,-0.04 0.4399999,1 0.8799999,2.36 1.0399999,3.36 2.08,0 3.6,0 4.76,-0.56 1.16,-0.56 1.44,-1.4 1.44,-3.16 v -1.96 c 2.4,1.4 5.16,3.24 6.56,4.44 l 2.68,-2.64 c -1.8,-1.48 -5.32,-3.52 -7.88,-4.84 z m -2.96,-11.92 c 0.32,-0.68 0.6,-1.4 0.84,-2.12 h 1.28 c 0.24,0.72 0.48,1.44 0.76,2.12 z m -17.7999999,5.2 c 0.04,-1.04 0.04,-2.04 0.04,-2.96 v -0.44 h 3 v 3.4 z m 3.04,-10.16 v 3.16 h -3 v -3.16 z m 27.5599999,8.16 v -3.2 h -6 c -0.36,-0.68 -0.68,-1.4 -0.96,-2.12 h 5.72 v -3.12 h -3.4 c 0.52,-0.88 1.12,-1.96 1.76,-3.0799 l -3.96,-1 c -0.32,1.2 -1,2.92 -1.48,4.0799 h -2.76 c 0.28,-1.2 0.52,-2.48 0.72,-3.8399 l -3.96,-0.32 c -0.16,1.48 -0.4,2.88 -0.72,4.16 h -1.76 l 0.64,-0.2 c -0.16,-1.04 -0.8799999,-2.6 -1.6399999,-3.76 l -3.28,1 c 0.52,0.88 0.96,2 1.24,2.96 h -2 v 3.12 H 5.912335 c -0.28,0.76 -0.64,1.44 -0.9999999,2.1199 h -5.6 v 3.2 h 3.12 c -1.12,1.12 -2.44,2.08 -4,2.84 v -14.68 H -12.407665 v 10.88 c 0,4.6 -0.2,10.84 -2.76,15.2001 0.92,0.3599 2.64,1.44 3.32,2.0799 1.76,-2.96 2.6000001,-6.92 3.0000001,-10.76 h 3.28 v 6.28 c 0,0.4001 -0.12,0.56 -0.52,0.56 -0.36,0 -1.56,0 -2.72,-0.04 0.52,1.04 1,2.68 1.12,3.76 2.12,0 3.64,-0.08 4.76,-0.72 1.08,-0.64 1.36,-1.68 1.36,-3.52 v -8.08 c 0.72,0.8 1.6,1.8801 1.96,2.48 0.68,-0.3599 1.32,-0.76 1.92,-1.16 0.8,0.96 1.52,2.04 1.84,2.84 l 3.0799999,-1.8 c -0.4,-0.96 -1.32,-2.2 -2.3199999,-3.16 0.9599999,-0.92 1.7599999,-1.92 2.5199999,-3 h 6.24 c 0.6,0.92 1.24,1.8 1.96,2.6 -0.64,1.04 -1.8,2.64 -2.64,3.6 l 2.72,1.36 c 0.8,-0.68 1.72,-1.6 2.68,-2.68 0.68,0.44 1.4,0.84 2.16,1.16 0.56,-1.04 1.64,-2.56 2.48,-3.32 -1.76,-0.6 -3.28,-1.52 -4.56,-2.72 z"
       style="font-weight:bold;font-size:40px;line-height:1.25;font-family:Montserrat;-inkscape-font-specification:Montserrat;fill:#f32727;fill-opacity:1"
       id="path89884" />
    <path
       d="m -233.20802,1174.9441 v -6.4 c 3,-0.3199 6.12,-0.7599 9.24,-1.2799 0.04,2.6399 0.2,5.1999 0.44,7.6799 z m 26.72,4.7201 v -4.7201 h -12 c -0.28,-2.7199 -0.4,-5.5999 -0.4,-8.5999 3.44,-0.64 6.68,-1.4401 9.56,-2.28 l -3.72,-3.96 c -5.2,1.64 -13.24,3.2 -20.88,4.2 l -4.16,-1 v 27.92 c -1.56,0.2 -3.04,0.4 -4.32,0.56 l 1.12,5.04 c 5.32,-0.8801 12.44,-2.08 19.08,-3.28 l -0.28,-4.6401 c -3.56,0.56 -7.28,1.12 -10.72,1.6401 v -10.88 h 10.28 c 1.56,10.2399 5.04,17.7599 11.28,17.7999 3.68,0 5.28,-1.56 6.04,-8.04 -1.24,-0.48 -3.04,-1.48 -4.08,-2.52 -0.24,4.12 -0.68,5.6401 -1.64,5.6401 -2.92,0 -5.28,-5.32 -6.56,-12.88 z"
       style="font-weight:bold;font-size:40px;line-height:1.25;font-family:Montserrat;-inkscape-font-specification:Montserrat;fill:#f32727;fill-opacity:1"
       id="path91713" />
    <path
       d="m -162.58103,1179.1441 c 4.52,-0.3599 10.76,-0.88 16.72,-1.3599 0.6,1.04 1.08,2 1.44,2.8399 l 3.92,-2.1199 c -1.08,-2.56 -3.76,-6.36 -6,-9.12 l -3.64,1.96 c 0.6,0.8 1.2,1.64 1.8,2.52 -2.24,0.16 -4.48,0.32 -6.64,0.48 0.8,-1.68 1.68,-3.6 2.48,-5.4 h 11.2 v -4.24 h -8.92 v -4.64 h -4.84 v 4.64 h -8.16 v 4.24 h 5.4 c -0.52,1.88 -1.28,3.96 -2,5.72 -1.12,0.08 -2.2,0.12 -3.16,0.16 z m -14,4.32 c -0.32,3.36 -0.96,6.92 -2.12,9.28 1.04,0.36 2.8,1.2 3.64,1.72 1.16,-2.56 2,-6.56 2.4,-10.32 z m 10.64,-2.52 c 0.24,0.76 0.4,1.44 0.52,2.04 l 3.36,-1.52 c -0.44,-2.28 -2,-5.76 -3.52,-8.48 l -3.16,1.32 c 0.48,0.88 0.96,1.88 1.4,2.88 l -3.84,0.1601 c 2.52,-3.2401 5.28,-7.28 7.48,-10.76 l -3.88,-1.8 c -0.92,1.96 -2.2,4.24 -3.56,6.48 -0.4,-0.48 -0.84,-1.04 -1.36,-1.6 1.44,-2.24 3.04,-5.32 4.48,-8.04 l -4.12,-1.52 c -0.68,2.12 -1.8,4.76 -2.92,6.96 -0.32,-0.28 -0.64,-0.56 -0.92,-0.8 l -2.28,3.24 c 1.64,1.6 3.56,3.72 4.72,5.44 -0.64,0.92 -1.28,1.8 -1.88,2.56 l -2.88,0.12 0.4,4.12 5.8,-0.36 v 16.08 h 4.12 v -16.36 z m 3.88,9.4001 c -0.44,-2 -1.48,-4.9201 -2.48,-7.2001 l -3.36,1.04 c 0.92,2.36 1.96,5.44 2.32,7.44 z m 3.28,-10.12 c -0.24,6.96 -0.76,11.24 -6.8,13.76 0.96,0.8 2.16,2.44 2.68,3.52 7.24,-3.16 8.32,-8.8 8.64,-17.28 z m 12.44,12.76 c -0.56,0 -0.64,-0.12 -0.64,-1.28 v -11.52 h -4.48 v 11.56 c 0,4.04 0.8,5.4 4.28,5.4 h 2.64 c 2.88,0 3.96,-1.52 4.32,-7.32 -1.2,-0.32 -3.08,-1.04 -3.96,-1.8 -0.08,4.32 -0.2,4.96 -0.84,4.96 z"
       style="font-weight:bold;font-size:40px;line-height:1.25;font-family:Montserrat;-inkscape-font-specification:Montserrat;fill:#f32727;fill-opacity:1"
       id="path91715" />
    <path
       d="m -92.614039,1186.6241 v -2.48 h -4.84 v 2.48 h -5.760001 c 1.04,-1.0399 2.04,-2.16 2.84,-3.3199 h 11.280001 c 0.84,1.16 1.8,2.28 2.88,3.3199 z m -8.560001,-9 h 12.520001 v 1.8 h -12.520001 z m 12.520001,-10.1199 v 1.76 h -12.520001 v -1.76 z m -12.520001,5.04 h 12.520001 v 1.76 h -12.520001 z m 24.800001,10.76 v -3.8801 h -7.4 v -11.92 h 5.48 v -3.84 h -5.48 v -3 h -4.88 v 3 h -12.520001 v -3 h -4.76 v 3 h -5.52 v 3.84 h 5.52 v 11.92 h -7.6 v 3.8801 h 7.68 c -2.2,2.1199 -5.16,3.96 -8.08,5.04 1,0.88 2.36,2.5199 3.04,3.64 2.24,-1 4.4,-2.4 6.36,-4.08 v 2.48 h 7.080001 v 2.6 h -12.560001 v 3.92 h 30.480001 v -3.92 h -13.08 v -2.6 h 7.28 v -2.96 c 1.96,1.76 4.12,3.2 6.28,4.2 0.68,-1.16 2.12,-2.8 3.16,-3.68 -2.88,-1 -5.68,-2.72 -7.8,-4.64 z"
       style="font-weight:bold;font-size:40px;line-height:1.25;font-family:Montserrat;-inkscape-font-specification:Montserrat;fill:#f32727;fill-opacity:1"
       id="path91717" />
    <path
       d="m -40.427055,1160.1642 c -1.96,5.52 -5.24,11.04 -8.68,14.52 0.76,1.16 2,3.6799 2.44,4.7999 0.84,-0.88 1.64,-1.88 2.44,-2.96 v 20.88 h 4.48 v -28 c 1.36,-2.5599 2.6,-5.2399 3.6,-7.88 z m 17.36,13.08 h -2.64 v -5 h 2.64 z m 6.68,16.96 h -2.68 v -12.8401 h 2.68 z m -15.84,-12.8401 h 2.48 v 12.8401 h -2.48 z m 9.16,0 v 12.8401 h -2.68 v -12.8401 z m 11.44,-9.1199 v -4.24 h -25.4 v 4.24 h 6.84 v 5 h -6.44 v 23.32 h 4.4 v -2.28 h 15.84 v 2.04 h 4.56 v -23.08 h -6.76 v -5 z"
       style="font-weight:bold;font-size:40px;line-height:1.25;font-family:Montserrat;-inkscape-font-specification:Montserrat;fill:#f32727;fill-opacity:1"
       id="path91719" />
    <path
       d="m -5.2476649,835.43799 h 4.72 V 833.038 H 7.992335 v 2.24 h 4.76 v -2.24 h 8.88 v -3.84001 h -8.88 v -2.32 h -4.76 v 2.32 h -8.5199999 v -2.32 h -4.72 v 2.32 h -8.7600001 v 3.84001 h 8.7600001 z M 7.032335,855.758 c -2.9999999,1.32 -5.9999999,2.6 -8.1199999,3.32 l 1.76,3.44 c 2.2,-1.12 4.7599999,-2.44 7.1599999,-3.72 z m 5.12,1 v -7.56 h -3.96 v 11.2 c 0,0.36 -0.12,0.48 -0.52,0.48 -0.4,0 -1.64,0 -2.76,-0.04 0.44,1 0.88,2.36 1.04,3.36 2.08,0 3.6,0 4.76,-0.56 1.16,-0.56 1.44,-1.4 1.44,-3.16 v -1.96 c 2.4,1.4 5.16,3.24 6.56,4.44 l 2.68,-2.64 c -1.8,-1.48 -5.32,-3.52 -7.88,-4.84 z m -2.96,-11.92 c 0.32,-0.68 0.6,-1.4 0.84,-2.12 h 1.28 c 0.24,0.72 0.48,1.44 0.76,2.12 z m -17.7999999,5.2 c 0.04,-1.04 0.04,-2.04 0.04,-2.96 v -0.44 h 3 v 3.4 z m 3.04,-10.16 v 3.16 h -3 v -3.16 z m 27.5599999,8.16 v -3.2 h -6 c -0.36,-0.68 -0.68,-1.4 -0.96,-2.12 h 5.72 v -3.12 h -3.4 c 0.52,-0.88 1.12,-1.96 1.76,-3.08 l -3.96,-1 c -0.32,1.2 -1,2.91999 -1.48,4.08 h -2.76 c 0.28,-1.2 0.52,-2.48 0.72,-3.84 l -3.96,-0.32001 c -0.16,1.48001 -0.4,2.88 -0.72,4.16 h -1.76 l 0.64,-0.2 c -0.16,-1.04 -0.88,-2.6 -1.6399999,-3.76 l -3.28,1 c 0.52,0.88 0.96,2 1.24,2.96 h -2 v 3.12 H 5.912335 c -0.28,0.76 -0.64,1.44001 -1,2.12 h -5.5999999 v 3.20001 h 3.12 c -1.12,1.12 -2.44,2.08 -4,2.84 v -14.68 H -12.407665 v 10.88 c 0,4.6 -0.2,10.84 -2.76,15.2 0.92,0.36 2.64,1.44 3.32,2.08 1.76,-2.96 2.6000001,-6.92 3.0000001,-10.76 h 3.28 v 6.28 c 0,0.4 -0.12,0.56 -0.52,0.56 -0.36,0 -1.56,0 -2.72,-0.04 0.52,1.04 1,2.68 1.12,3.76 2.12,0 3.64,-0.08 4.76,-0.72 1.08,-0.64 1.36,-1.68 1.36,-3.52 v -8.08 c 0.72,0.8 1.6,1.88 1.96,2.48 0.68,-0.36 1.32,-0.76 1.92,-1.16 0.8,0.96 1.52,2.04 1.84,2.84 l 3.0799999,-1.8 c -0.4,-0.96 -1.32,-2.2 -2.32,-3.16 0.96,-0.92 1.76,-1.92 2.52,-3 h 6.24 c 0.6,0.92 1.24,1.8 1.96,2.6 -0.64,1.04 -1.8,2.64 -2.64,3.6 l 2.72,1.36 c 0.8,-0.68 1.72,-1.6 2.68,-2.68 0.68,0.44 1.4,0.84 2.16,1.16 0.56,-1.04 1.64,-2.56 2.48,-3.32 -1.76,-0.6 -3.28,-1.52 -4.56,-2.72 z"
       style="font-weight:bold;font-size:40px;line-height:1.25;font-family:Montserrat;-inkscape-font-specification:Montserrat;fill:#f32727;fill-opacity:1"
       id="path91721" />
    <path
       d="m -131.68163,831.07799 c -1.64,-1.4 -4.96,-3.15999 -7.52,-4.12 l -2.6,3.52 c 2.56,1.12 5.84,3.04 7.32,4.48 z m -2.4,10.6 c -1.64,-1.36 -5.04,-3.03999 -7.56,-4 l -2.48,3.56 c 2.56,1.12 5.84,2.96 7.4,4.36 z m -2.04,6.16 c -2.2,4.68 -5.04,9.72 -7,12.76 l 4.12,3.04 c 2.24,-3.96 4.56,-8.56 6.52,-12.8 z m 11.72,-8.16 v -6.48 h 10.88 v 7.8 h -10.88 z m 15.8,6.04 v -17.24 h -20.64 v 11.2 c 0,6.56 -0.48,15.68 -5.76,21.88 1.2,0.52 3.32,1.84001 4.16,2.72001 4.16,-4.96001 5.68,-12.20001 6.2,-18.56 h 2.88 c 2.2,8.24 5.72,14.88 11.96,18.44 0.8,-1.4 2.4,-3.44 3.6,-4.48 -5.28,-2.6 -8.76,-7.8 -10.68,-13.96 z"
       style="font-weight:bold;font-size:40px;line-height:1.25;font-family:Montserrat;-inkscape-font-specification:Montserrat;fill:#f32727;fill-opacity:1"
       id="path91723" />
    <path
       d="m 45.59993,1166.7442 h -10.8 v -2 h 10.8 z m 0,5.08 h -10.8 v -2.04 h 10.8 z m 4.56,-10.4401 h -19.72 v 13.8001 h 19.72 z m -21.72,19.9601 -0.64,-4.28 -3.6,0.96 v -5.92 h 4 v -4.4 h -4 v -7.56 h -4.32 v 7.56 h -4.32 v 4.4 h 4.32 v 7.08 c -1.8,0.44 -3.4,0.88 -4.76,1.16 l 1.08,4.5999 c 1.16,-0.3199 2.36,-0.6799 3.68,-1.04 v 8 c 0,0.52 -0.2,0.6801 -0.68,0.6801 -0.48,0.04 -1.84,0.04 -3.32,0 0.6,1.24 1.12,3.2 1.24,4.3599 2.56,0.04 4.32,-0.1199 5.52,-0.92 1.2,-0.7199 1.56,-1.88 1.56,-4.08 v -9.3199 z m 13.96,6.76 h 7.64 v -3.7201 h -7.64 v -3.52 h 9.76 v -3.8399 h -23.64 v 3.8399 h 9.4 v 10.4401 c -1.44,-0.9201 -2.6,-2.36 -3.48,-4.68 0.32,-1.2401 0.56,-2.6 0.76,-4.04 l -4.32,-0.52 c -0.6,5.44 -2.24,9.88 -5.56,12.52 0.96,0.6 2.76,2.08 3.52,2.8399 1.72,-1.6399 3.16,-3.7599 4.16,-6.2799 2.72,4.8399 6.76,5.7999 12,5.7999 h 6.96 c 0.16,-1.1999 0.72,-3.1999 1.28,-4.1599 -1.72,0.04 -6.68,0.04 -8.04,0.04 -1,0 -1.88,-0.04 -2.8,-0.12 z"
       style="font-weight:bold;font-size:40px;line-height:1.25;font-family:Montserrat;-inkscape-font-specification:Montserrat;fill:#f32727;fill-opacity:1"
       id="path91824" />
    <path
       d="m 24.97993,1040.309 v -6.4 c 3,-0.32 6.12,-0.76 9.24,-1.28 0.04,2.64 0.2,5.2 0.44,7.68 z m 26.72,4.72 v -4.72 h -12 c -0.28,-2.72 -0.4,-5.6 -0.4,-8.6 3.44,-0.64 6.68,-1.44 9.56,-2.28 l -3.72,-3.96 c -5.2,1.64 -13.24,3.2 -20.88,4.2 l -4.16,-1 v 27.92 c -1.56,0.2 -3.04,0.4 -4.32,0.56 l 1.12,5.04 c 5.32,-0.88 12.44,-2.08 19.08,-3.28 l -0.28,-4.64 c -3.56,0.56 -7.28,1.12 -10.72,1.64 v -10.88 h 10.28 c 1.56,10.24 5.04,17.76 11.28,17.8 3.68,0 5.28,-1.56 6.04,-8.04 -1.24,-0.48 -3.04,-1.48 -4.08,-2.52 -0.24,4.12 -0.68,5.64 -1.64,5.64 -2.92,0 -5.28,-5.32 -6.56,-12.88 z"
       style="font-weight:bold;font-size:40px;line-height:1.25;font-family:Montserrat;-inkscape-font-specification:Montserrat;fill:#f32727;fill-opacity:1"
       id="path91826" />
    <path
       d="m 23.39993,902.29502 h 28.88 v -4.52 h -14.44 v -4.6 h -4.96 v 4.6 h -14.24 v 10.08 c 0,5.76 -0.28,14.16 -3.56,19.88 1.12,0.52 3.24,1.88 4.12,2.68 3.6,-6.24 4.2,-16.12 4.2,-22.56 z m 21,5.92 c -2.16,-1.88 -6.48,-4.28 -9.68,-5.8 l -3.16,3.12 c 3.28,1.68 7.48,4.36 9.4,6.24 z m -17.48,18.8 c 1.8,-3.2 2.52,-8.48 2.96,-13.08 l -4.28,-0.92 c -0.4,4.44 -1.24,9.08 -2.92,12.12 z m 10.36,-1.52 c -1.12,0 -1.28,-0.2 -1.28,-1.64 v -13.92 h -4.72 v 13.96 c 0,4.44 1,5.84 5.24,5.84 h 4.44 c 3.72,0 4.92,-1.92 5.36,-8.76 -1.24,-0.32 -3.2,-1.08 -4.2,-1.92 -0.16,5.52 -0.4,6.44 -1.6,6.44 z m 6.44,-11.88 c 2.28,4.24 4.36,9.8 4.88,13.36 l 4.68,-1.92 c -0.64,-3.64 -2.96,-8.92 -5.32,-13.08 z"
       style="font-weight:bold;font-size:40px;line-height:1.25;font-family:Montserrat;-inkscape-font-specification:Montserrat;fill:#f32727;fill-opacity:1"
       id="path91828" />
    <path
       d="m -243.89195,1232.9212 h -10.8 v -2 h 10.8 z m 0,5.08 h -10.8 v -2.04 h 10.8 z m 4.56,-10.44 h -19.72 v 13.7999 h 19.72 z m -21.72,19.96 -0.64,-4.2801 -3.59999,0.96 v -5.92 h 4 v -4.4 h -4 v -7.56 h -4.32 v 7.56 h -4.32 v 4.4 h 4.32 v 7.08 c -1.8,0.44 -3.4,0.88 -4.76,1.1601 l 1.08,4.6 c 1.16,-0.3201 2.36,-0.6801 3.68,-1.04 v 8 c 0,0.52 -0.2,0.6799 -0.68,0.6799 -0.48001,0.04 -1.84,0.04 -3.32,0 0.6,1.2401 1.12,3.2001 1.24,4.3601 2.56,0.04 4.32,-0.12 5.52,-0.9201 1.2,-0.72 1.56,-1.88 1.56,-4.0799 v -9.3201 z m 13.96001,6.7599 h 7.63999 v -3.7199 h -7.63999 v -3.52 h 9.75999 v -3.8401 h -23.63999 v 3.8401 h 9.4 v 10.44 c -1.44,-0.92 -2.6,-2.36 -3.48,-4.6801 0.32,-1.2399 0.56,-2.6 0.76,-4.04 l -4.32,-0.52 c -0.60001,5.44 -2.24,9.8801 -5.56,12.52 0.95999,0.6 2.76,2.08 3.52,2.8401 1.72,-1.6401 3.16,-3.7601 4.16,-6.2801 2.72,4.8401 6.76,5.8001 12,5.8001 h 6.96 c 0.16,-1.2001 0.72,-3.2001 1.28,-4.1601 -1.72,0.04 -6.68,0.04 -8.04,0.04 -1,0 -1.88,-0.04 -2.8,-0.12 z"
       style="font-weight:bold;font-size:40px;line-height:1.25;font-family:Montserrat;-inkscape-font-specification:Montserrat;fill:#f32727;fill-opacity:1"
       id="path91830" />
    <path
       d="m -253.01194,1120.4471 v -2.48 h -4.84 v 2.48 h -5.76 c 1.03999,-1.04 2.03999,-2.16 2.84,-3.32 h 11.28 c 0.84,1.16 1.8,2.28 2.88,3.32 z m -8.56001,-9 h 12.52001 v 1.8 h -12.52001 z m 12.52001,-10.12 v 1.76 h -12.52001 v -1.76 z m -12.52001,5.04 h 12.52001 v 1.76 h -12.52001 z m 24.80001,10.76 v -3.88 h -7.4 v -11.92 h 5.48 v -3.84 h -5.48 v -3 h -4.88 v 3 h -12.52001 v -3 h -4.76 v 3 h -5.51999 v 3.84 h 5.51999 v 11.92 h -7.6 v 3.88 h 7.68 c -2.2,2.12 -5.16,3.96 -8.08,5.04 1,0.88 2.36001,2.52 3.04001,3.64 2.24,-1 4.39999,-2.4 6.36,-4.0799 v 2.48 h 7.08 v 2.5999 h -12.56 v 3.9201 h 30.48 v -3.9201 h -13.08 v -2.5999 h 7.28 v -2.96 c 1.96,1.76 4.12,3.2 6.28,4.2 0.68,-1.1601 2.12,-2.8 3.16,-3.68 -2.88,-1 -5.68,-2.7201 -7.8,-4.6401 z"
       style="font-weight:bold;font-size:40px;line-height:1.25;font-family:Montserrat;-inkscape-font-specification:Montserrat;fill:#f32727;fill-opacity:1"
       id="path91832" />
    <path
       d="m -257.77195,846.638 h -8.84 c 1.24,-1 2.4,-2.12 3.48,-3.32001 0.12,0.48001 0.24,0.96001 0.32,1.32001 1.6,-0.04 3.32,-0.16 5.04,-0.28 z m 7.28,-8.44001 c 2.56001,4.64 6.60001,8.8 11.16001,11.08001 0.72,-1.20001 2.16,-3 3.2,-3.88 -3.68,-1.48 -7.16,-4.20001 -9.44,-7.20001 h 8.32 v -4.32 h -7.44 c 1.24,-1.52 2.56,-3.32 3.76,-5.04 l -5.12,-1.6 c -0.88,2.04 -2.48,4.68 -3.88,6.64 h -4.72001 l 2.24,-1.04 c -0.68,-1.72 -2.28,-4.12 -3.76,-5.91999 l -4,1.72 c 1.2,1.6 2.44,3.64 3.12,5.24 h -5.92 l 1.48,-0.76 c -0.84,-1.68 -2.64,-4.04 -4.24,-5.76 l -4,2.04 c 1.08,1.32 2.32,3 3.16,4.48 h -6.56 v 4.32 h 8.64 c -2.36,3.32 -6.08,6.24 -10,7.84 1,0.84 2.4,2.56 3.08,3.64 1.6,-0.76 3.12,-1.72 4.56,-2.84 v 3.44 h 9.08 v 2.4 h -14.08 v 3.92 h 14.08 v 2.88 c 0,0.64 -0.24,0.84 -1.04,0.84 -0.76,0 -3.72,0 -6.2,-0.08 0.64,1.12 1.44,2.88 1.72,4.08 3.52,0 6.04,-0.04 7.8,-0.64 1.8,-0.64 2.36,-1.72 2.36,-4.12 v -2.96 h 14.24001 v -3.92 h -14.24001 v -2.4 h 9.24001 v -3.64 h -9.24001 v -2.72 c 2.04,-0.24 3.96001,-0.56 5.64001,-0.96 l -2.96,-3.2 c -2.68001,0.67999 -6.96001,1.16 -11.00001,1.48 0.72,-0.96 1.36,-2 1.92,-3.04 z"
       style="font-weight:bold;font-size:40px;line-height:1.25;font-family:Montserrat;-inkscape-font-specification:Montserrat;fill:#f32727;fill-opacity:1"
       id="path91834" />
    <path
       d="m -134.36163,1241.1212 v -6.4001 c 3,-0.32 6.12,-0.76 9.24,-1.28 0.04,2.6401 0.2,5.2001 0.44,7.6801 z m 26.72,4.7199 v -4.7199 h -12 c -0.28,-2.7201 -0.4,-5.6 -0.4,-8.6 3.44,-0.6401 6.68,-1.44 9.56,-2.2801 l -3.72,-3.96 c -5.2,1.6401 -13.24,3.2001 -20.88,4.2001 l -4.16,-1 v 27.92 c -1.56,0.2 -3.04,0.4 -4.32,0.56 l 1.12,5.04 c 5.32,-0.88 12.44,-2.08 19.08,-3.2801 l -0.28,-4.6399 c -3.56,0.56 -7.28,1.1199 -10.72,1.6399 v -10.88 h 10.28 c 1.56,10.2401 5.04,17.7601 11.28,17.8001 3.68,0 5.28,-1.56 6.04,-8.04 -1.24,-0.48 -3.04,-1.48 -4.08,-2.52 -0.24,4.1199 -0.68,5.6399 -1.64,5.6399 -2.92,0 -5.28,-5.3199 -6.56,-12.88 z"
       style="font-weight:bold;font-size:40px;line-height:1.25;font-family:Montserrat;-inkscape-font-specification:Montserrat;fill:#f32727;fill-opacity:1"
       id="path91836" />
    <path
       d="m 1.0323363,1226.7412 c -3.000003,5.08 -9.440003,11.44 -16.3600033,15 1.04,1 2.4,2.76 3,3.84 6.6000003,-3.72 12.7600033,-9.28 16.0000033,-14.1601 3.44,4.9201 10.1199997,10.6801 16.3199997,14.12 0.92,-1.48 2,-3.04 3.2,-4.28 -6.4,-2.76 -12.96,-8.2 -17.2799997,-14.52 z m 5.56,24.12 H 17.312336 v -4.2 H 6.5923363 v -8.56 h -5 v 20.76 h -5.680003 v -13.8801 h -4.68 v 13.8801 h -4.3600003 v 4.3199 h 34.040003 v -4.3199 H 6.5923363 Z"
       style="font-weight:bold;font-size:40px;line-height:1.25;font-family:Montserrat;-inkscape-font-specification:Montserrat;fill:#f32727;fill-opacity:1"
       id="path91838" />
    <path
       d="m -40.427055,893.17502 c -1.96,5.52 -5.24,11.04 -8.68,14.52 0.76,1.16 2,3.68 2.44,4.8 0.84,-0.88 1.64,-1.88 2.44,-2.96 v 20.88 h 4.48 v -28 c 1.36,-2.56 2.6,-5.24 3.6,-7.88 z m 17.36,13.08 h -2.64 v -5 h 2.64 z m 6.68,16.96 h -2.68 v -12.84 h 2.68 z m -15.84,-12.84 h 2.48 v 12.84 h -2.48 z m 9.16,0 v 12.84 h -2.68 v -12.84 z m 11.44,-9.12 v -4.24 h -25.4 v 4.24 h 6.84 v 5 h -6.44 v 23.32 h 4.4 v -2.28 h 15.84 v 2.04 h 4.56 v -23.08 h -6.76 v -5 z"
       style="font-weight:bold;font-size:40px;line-height:1.25;font-family:Montserrat;-inkscape-font-specification:Montserrat;fill:#f32727;fill-opacity:1"
       id="path91840" />
    <path
       d="m 0.81233475,978.332 c 4.52000055,-0.36 10.76000025,-0.88 16.72000025,-1.36 0.6,1.04 1.08,2 1.44,2.84 l 3.92,-2.12 c -1.08,-2.55999 -3.76,-6.36 -6,-9.12 l -3.64,1.96001 c 0.6,0.79999 1.2,1.64 1.8,2.51999 -2.24,0.16 -4.48,0.32001 -6.6399997,0.48001 0.8,-1.68 1.6799997,-3.60001 2.4799997,-5.4 h 11.2 v -4.24 h -8.92 v -4.64 H 8.3323353 v 4.64 H 0.17233475 v 4.24 H 5.5723353 c -0.52,1.88 -1.28,3.96 -2,5.72 -1.12,0.08 -2.2000005,0.12 -3.16000055,0.16 z m -13.99999975,4.32001 c -0.32,3.36 -0.96,6.91999 -2.12,9.27999 1.04,0.36001 2.8,1.20001 3.64,1.72001 1.16,-2.56 1.9999998,-6.56 2.3999998,-10.32001 z m 10.6399998,-2.52 c 0.24,0.76 0.4,1.44 0.52,2.04 l 3.36,-1.52 c -0.44000005,-2.28 -2.00000005,-5.76 -3.52,-8.48 l -3.16,1.32 c 0.48,0.88 0.96,1.88 1.4,2.88 l -3.84,0.16 c 2.52,-3.24 5.28,-7.28 7.47999995,-10.76 l -3.87999995,-1.8 c -0.92,1.96 -2.2,4.24 -3.56,6.48 -0.4,-0.48 -0.84,-1.04 -1.36,-1.6 1.44,-2.24 3.04,-5.32 4.48,-8.04 l -4.12,-1.52 c -0.68,2.12 -1.7999998,4.76 -2.9199998,6.96 -0.32,-0.28 -0.64,-0.56 -0.92,-0.8 l -2.28,3.24 c 1.64,1.6 3.56,3.72 4.72,5.44 -0.64,0.92 -1.28,1.8 -1.88,2.56 l -2.88,0.12 0.4,4.12 5.7999998,-0.36 v 16.08 h 4.12 v -16.36 z m 3.88,9.4 c -0.44000005,-2 -1.48000005,-4.92 -2.48,-7.20001 l -3.36,1.04 c 0.92,2.36 1.96,5.44 2.32,7.44 z m 3.2800005,-10.12 c -0.24,6.96 -0.76,11.24 -6.8000005,13.76 0.96,0.79999 2.15999995,2.44 2.67999995,3.51999 7.24000055,-3.15999 8.32000055,-8.79999 8.64000055,-17.27999 z m 12.4399997,12.76 c -0.56,0 -0.64,-0.12001 -0.64,-1.28 v -11.52 h -4.48 V 990.932 c 0,4.04 0.8,5.4 4.28,5.4 h 2.64 c 2.88,0 3.96,-1.52 4.32,-7.32 -1.2,-0.32 -3.08,-1.04 -3.96,-1.8 -0.08,4.32001 -0.2,4.96001 -0.84,4.96001 z"
       style="font-weight:bold;font-size:40px;line-height:1.25;font-family:Montserrat;-inkscape-font-specification:Montserrat;fill:#f32727;fill-opacity:1"
       id="path91842" />
    <path
       d="m -105.69404,902.29502 h 28.880001 v -4.52 h -14.44 v -4.6 h -4.96 v 4.6 h -14.240001 v 10.08 c 0,5.76 -0.28,14.16 -3.56,19.88 1.12,0.52 3.24,1.88 4.12,2.68 3.6,-6.24 4.2,-16.12 4.2,-22.56 z m 21.000001,5.92 c -2.16,-1.88 -6.48,-4.28 -9.68,-5.8 l -3.16,3.12 c 3.28,1.68 7.48,4.36 9.4,6.24 z m -17.480001,18.8 c 1.8,-3.2 2.520001,-8.48 2.960001,-13.08 l -4.280001,-0.92 c -0.4,4.44 -1.24,9.08 -2.92,12.12 z m 10.360001,-1.52 c -1.12,0 -1.28,-0.2 -1.28,-1.64 v -13.92 h -4.72 v 13.96 c 0,4.44 1,5.84 5.24,5.84 h 4.44 c 3.72,0 4.92,-1.92 5.36,-8.76 -1.24,-0.32 -3.2,-1.08 -4.2,-1.92 -0.16,5.52 -0.4,6.44 -1.6,6.44 z m 6.44,-11.88 c 2.28,4.24 4.36,9.8 4.88,13.36 l 4.68,-1.92 c -0.64,-3.64 -2.96,-8.92 -5.32,-13.08 z"
       style="font-weight:bold;font-size:40px;line-height:1.25;font-family:Montserrat;-inkscape-font-specification:Montserrat;fill:#f32727;fill-opacity:1"
       id="path92008" />
    <path
       d="m -113.74164,1100.5671 h -10.8 v -2 h 10.8 z m 0,5.08 h -10.8 v -2.04 h 10.8 z m 4.56,-10.44 h -19.71999 v 13.8001 h 19.71999 z m -21.71999,19.96 -0.64,-4.2799 -3.6,0.96 v -5.92 h 4 v -4.4001 h -4 v -7.5599 h -4.32 v 7.5599 h -4.32 v 4.4001 h 4.32 v 7.08 c -1.8,0.44 -3.4,0.88 -4.76,1.1599 l 1.08,4.6 c 1.16,-0.3199 2.36,-0.68 3.68,-1.04 v 8 c 0,0.52 -0.2,0.6801 -0.68,0.6801 -0.48,0.04 -1.84,0.04 -3.32,0 0.6,1.2399 1.12,3.1999 1.24,4.3599 2.56,0.04 4.32,-0.12 5.52,-0.92 1.2,-0.72 1.56,-1.88 1.56,-4.08 v -9.3199 z m 13.96,6.7601 h 7.64 v -3.7201 h -7.64 v -3.52 h 9.76 v -3.8399 h -23.64 v 3.8399 h 9.4 v 10.44 c -1.44,-0.92 -2.6,-2.3599 -3.48,-4.6799 0.32,-1.2401 0.56,-2.6 0.76,-4.04 l -4.32,-0.52 c -0.6,5.44 -2.24,9.88 -5.56,12.52 0.96,0.6 2.76,2.08 3.52,2.8399 1.72,-1.64 3.16,-3.7599 4.16,-6.2799 2.72,4.8399 6.76,5.7999 12,5.7999 h 6.96 c 0.16,-1.2 0.72,-3.2 1.28,-4.16 -1.72,0.04 -6.68,0.04 -8.04,0.04 -1,0 -1.88,-0.04 -2.8,-0.12 z"
       style="font-weight:bold;font-size:40px;line-height:1.25;font-family:Montserrat;-inkscape-font-specification:Montserrat;fill:#f32727;fill-opacity:1"
       id="path92174" />
  </g>
</svg>
