<?xml version="1.0" encoding="UTF-8" standalone="no"?>
<!-- Created with Inkscape (http://www.inkscape.org/) -->

<svg
   width="300"
   height="400.00006"
   viewBox="0 0 300.00001 400.00006"
   version="1.1"
   id="svg5"
   inkscape:version="1.1.1 (1:1.1+202109281949+c3084ef5ed)"
   sodipodi:docname="kanji_n3.svg"
   xmlns:inkscape="http://www.inkscape.org/namespaces/inkscape"
   xmlns:sodipodi="http://sodipodi.sourceforge.net/DTD/sodipodi-0.dtd"
   xmlns:xlink="http://www.w3.org/1999/xlink"
   xmlns="http://www.w3.org/2000/svg"
   xmlns:svg="http://www.w3.org/2000/svg">
  <sodipodi:namedview
     id="namedview7"
     pagecolor="#505050"
     bordercolor="#eeeeee"
     borderopacity="1"
     inkscape:pageshadow="0"
     inkscape:pageopacity="0"
     inkscape:pagecheckerboard="0"
     inkscape:document-units="px"
     showgrid="false"
     inkscape:zoom="1.5998291"
     inkscape:cx="154.07896"
     inkscape:cy="134.70189"
     inkscape:window-width="1366"
     inkscape:window-height="715"
     inkscape:window-x="0"
     inkscape:window-y="25"
     inkscape:window-maximized="1"
     inkscape:current-layer="layer1"
     inkscape:snap-page="true"
     fit-margin-top="0"
     fit-margin-left="0"
     fit-margin-right="0"
     fit-margin-bottom="0"
     inkscape:snap-global="false" />
  <defs
     id="defs2">
    <style
       id="style1171">.cls-1{fill:url(#linear-gradient);}.cls-2{fill:#f6b756;}.cls-3{fill:url(#linear-gradient-2);}.cls-4{fill:#cf4055;}.cls-5{fill:url(#linear-gradient-3);}.cls-6{fill:url(#linear-gradient-4);}.cls-7{fill:url(#linear-gradient-5);}.cls-8{fill:url(#linear-gradient-6);}.cls-9{fill:url(#linear-gradient-7);}.cls-10{fill:url(#linear-gradient-8);}.cls-11{fill:url(#linear-gradient-9);}.cls-12{fill:#eab39b;}.cls-13{fill:url(#linear-gradient-13);}.cls-14{fill:#c7cdd8;}.cls-15{fill:#dfe3ea;}</style>
    <linearGradient
       id="linear-gradient"
       x1="32"
       y1="36"
       x2="32"
       y2="1"
       gradientUnits="userSpaceOnUse">
      <stop
         offset="0"
         stop-color="#fbcc88"
         id="stop1173" />
      <stop
         offset="1"
         stop-color="#ffe5c3"
         id="stop1175" />
    </linearGradient>
    <linearGradient
       id="linear-gradient-2"
       x1="32"
       y1="25.09"
       x2="32"
       y2="9.0900002"
       gradientUnits="userSpaceOnUse">
      <stop
         offset="0"
         stop-color="#da5466"
         id="stop1178" />
      <stop
         offset="1"
         stop-color="#f4929c"
         id="stop1180" />
    </linearGradient>
    <linearGradient
       id="linear-gradient-3"
       x1="21"
       y1="15.09"
       x2="32"
       y2="15.09"
       gradientUnits="userSpaceOnUse">
      <stop
         offset="0"
         stop-color="#d4d8e1"
         id="stop1183" />
      <stop
         offset="1"
         stop-color="#f3f4f5"
         id="stop1185" />
    </linearGradient>
    <linearGradient
       id="linear-gradient-4"
       x1="32"
       y1="15.09"
       x2="43"
       y2="15.09"
       xlink:href="#linear-gradient-3" />
    <linearGradient
       id="linear-gradient-5"
       x1="32"
       y1="53"
       x2="32"
       y2="41"
       gradientUnits="userSpaceOnUse">
      <stop
         offset="0"
         stop-color="#f2c4b0"
         id="stop1189" />
      <stop
         offset="1"
         stop-color="#ffe3d7"
         id="stop1191" />
    </linearGradient>
    <linearGradient
       id="linear-gradient-6"
       x1="32"
       y1="63"
       y2="53"
       xlink:href="#linear-gradient-3" />
    <linearGradient
       id="linear-gradient-7"
       x1="52"
       x2="52"
       xlink:href="#linear-gradient-5" />
    <linearGradient
       id="linear-gradient-8"
       x1="52"
       y1="63"
       x2="52"
       y2="53"
       xlink:href="#linear-gradient-3" />
    <linearGradient
       id="linear-gradient-9"
       x1="12"
       x2="12"
       xlink:href="#linear-gradient-5" />
    <linearGradient
       id="linear-gradient-13"
       x1="12"
       y1="63"
       x2="12"
       y2="53"
       xlink:href="#linear-gradient-3" />
    <style
       id="style1327">.cls-1{fill:url(#linear-gradient);}.cls-2{fill:#42455e;}.cls-3{fill:#575f7c;}.cls-4{fill:url(#linear-gradient-2);}.cls-5{fill:url(#linear-gradient-3);}</style>
    <linearGradient
       id="linear-gradient-36"
       x1="32"
       y1="53"
       x2="32"
       y2="29.450001"
       gradientUnits="userSpaceOnUse">
      <stop
         offset="0"
         stop-color="#474f72"
         id="stop1329" />
      <stop
         offset="1"
         stop-color="#878c9f"
         id="stop1331" />
    </linearGradient>
    <linearGradient
       id="linear-gradient-2-7"
       y1="37"
       y2="11"
       xlink:href="#linear-gradient-36" />
    <linearGradient
       id="linear-gradient-3-5"
       x1="54"
       y1="53"
       x2="54"
       y2="47"
       gradientUnits="userSpaceOnUse">
      <stop
         offset="0"
         stop-color="#e9a254"
         id="stop1335" />
      <stop
         offset="1"
         stop-color="#f4bb79"
         id="stop1337" />
    </linearGradient>
    <style
       id="style1376">.cls-1{fill:url(#linear-gradient);}.cls-2{fill:#c7cdd8;}.cls-3{fill:url(#linear-gradient-2);}.cls-4{fill:url(#linear-gradient-3);}.cls-5{fill:url(#linear-gradient-4);}.cls-6{fill:#5b8dc9;}.cls-7{fill:#42455e;}</style>
    <linearGradient
       id="linear-gradient-35"
       x1="5"
       y1="59"
       x2="53"
       y2="59"
       gradientUnits="userSpaceOnUse">
      <stop
         offset="0"
         stop-color="#d4d8e1"
         id="stop1378" />
      <stop
         offset="1"
         stop-color="#f3f4f5"
         id="stop1380" />
    </linearGradient>
    <linearGradient
       id="linear-gradient-2-6"
       x1="29"
       y1="59"
       x2="29"
       y2="1"
       gradientUnits="userSpaceOnUse">
      <stop
         offset="0"
         stop-color="#7aa8d7"
         id="stop1383" />
      <stop
         offset="1"
         stop-color="#c3d2e7"
         id="stop1385" />
    </linearGradient>
    <linearGradient
       id="linear-gradient-3-2"
       x1="32"
       y1="34"
       x2="32"
       y2="8"
       xlink:href="#linear-gradient-35" />
    <linearGradient
       id="linear-gradient-4-9"
       x1="8"
       y1="59"
       x2="8"
       y2="1"
       gradientUnits="userSpaceOnUse">
      <stop
         offset="0"
         stop-color="#474f72"
         id="stop1389" />
      <stop
         offset="1"
         stop-color="#878c9f"
         id="stop1391" />
    </linearGradient>
    <style
       id="style1454">.cls-1{fill:url(#linear-gradient);}.cls-2{fill:#5b8dc9;}.cls-3{fill:url(#linear-gradient-2);}.cls-4{fill:#cf4055;}.cls-5{fill:url(#linear-gradient-3);}.cls-6{fill:#f6b756;}.cls-7{fill:url(#linear-gradient-4);}.cls-8{fill:url(#linear-gradient-5);}.cls-9{fill:url(#linear-gradient-6);}.cls-10{fill:url(#linear-gradient-7);}.cls-11{fill:#4da67f;}.cls-12{fill:url(#linear-gradient-8);}.cls-13{fill:#c7cdd8;}.cls-14{fill:url(#linear-gradient-9);}.cls-15{fill:url(#linear-gradient-10);}.cls-16{fill:url(#linear-gradient-11);}.cls-17{fill:#ffd39f;}.cls-18{fill:url(#linear-gradient-12);}.cls-19{fill:#fff;}.cls-20{fill:#7ece67;}</style>
    <linearGradient
       id="linear-gradient-1"
       x1="23"
       y1="63"
       x2="23"
       y2="1"
       gradientUnits="userSpaceOnUse">
      <stop
         offset="0"
         stop-color="#7aa8d7"
         id="stop1456" />
      <stop
         offset="1"
         stop-color="#c3d2e7"
         id="stop1458" />
    </linearGradient>
    <linearGradient
       id="linear-gradient-2-2"
       x1="9"
       y1="63"
       x2="9"
       y2="11"
       gradientUnits="userSpaceOnUse">
      <stop
         offset="0"
         stop-color="#da5466"
         id="stop1461" />
      <stop
         offset="1"
         stop-color="#f4929c"
         id="stop1463" />
    </linearGradient>
    <linearGradient
       id="linear-gradient-3-7"
       x1="9"
       y1="58"
       x2="9"
       y2="16"
       gradientUnits="userSpaceOnUse">
      <stop
         offset="0"
         stop-color="#fbcc88"
         id="stop1466" />
      <stop
         offset="1"
         stop-color="#ffe5c3"
         id="stop1468" />
    </linearGradient>
    <linearGradient
       id="linear-gradient-4-0"
       x1="33"
       y1="63"
       x2="33"
       y2="15"
       gradientUnits="userSpaceOnUse">
      <stop
         offset="0"
         stop-color="#8cdd79"
         id="stop1471" />
      <stop
         offset="1"
         stop-color="#d4e6b6"
         id="stop1473" />
    </linearGradient>
    <linearGradient
       id="linear-gradient-5-9"
       x1="33"
       y1="57"
       x2="33"
       y2="53"
       gradientUnits="userSpaceOnUse">
      <stop
         offset="0"
         stop-color="#6ab891"
         id="stop1476" />
      <stop
         offset="1"
         stop-color="#85cba9"
         id="stop1478" />
    </linearGradient>
    <linearGradient
       id="linear-gradient-6-3"
       y1="53"
       y2="49"
       xlink:href="#linear-gradient-5-9" />
    <linearGradient
       id="linear-gradient-7-6"
       x1="54.290001"
       y1="63"
       x2="54.290001"
       y2="7.4499998"
       gradientTransform="rotate(10,54.276582,35.217281)"
       xlink:href="#linear-gradient-5-9" />
    <linearGradient
       id="linear-gradient-8-0"
       x1="54.290001"
       y1="57.23"
       x2="54.290001"
       y2="13.21"
       gradientTransform="rotate(10,54.276582,35.217281)"
       gradientUnits="userSpaceOnUse">
      <stop
         offset="0"
         stop-color="#d4d8e1"
         id="stop1483" />
      <stop
         offset="1"
         stop-color="#f3f4f5"
         id="stop1485" />
    </linearGradient>
    <linearGradient
       id="linear-gradient-9-6"
       x1="54.290001"
       y1="53.009998"
       x2="54.290001"
       y2="17.43"
       gradientTransform="rotate(10,54.276582,35.217281)"
       xlink:href="#linear-gradient-5-9" />
    <linearGradient
       id="linear-gradient-10"
       x1="42"
       y1="63"
       x2="42"
       y2="18"
       xlink:href="#linear-gradient-3-7" />
    <linearGradient
       id="linear-gradient-11"
       x1="42"
       y1="59"
       x2="42"
       y2="22"
       gradientUnits="userSpaceOnUse">
      <stop
         offset="0"
         stop-color="#e9a254"
         id="stop1490" />
      <stop
         offset="1"
         stop-color="#f4bb79"
         id="stop1492" />
    </linearGradient>
    <linearGradient
       id="linear-gradient-12"
       x1="23"
       y1="58"
       x2="23"
       y2="6"
       xlink:href="#linear-gradient-8-0" />
    <style
       id="style1614">.cls-1{fill:url(#linear-gradient);}.cls-2{fill:url(#linear-gradient-2);}.cls-3{fill:url(#linear-gradient-3);}.cls-4{fill:#42455e;}.cls-5{fill:url(#linear-gradient-4);}.cls-6{fill:url(#linear-gradient-5);}.cls-7{fill:#f2a961;}.cls-8{fill:url(#linear-gradient-6);}.cls-9{fill:url(#linear-gradient-7);}.cls-10{fill:#c7cdd8;}.cls-11{fill:#dd8b37;}</style>
    <linearGradient
       id="linear-gradient-26"
       x1="27"
       y1="63"
       x2="27"
       y2="1"
       gradientUnits="userSpaceOnUse">
      <stop
         offset="0"
         stop-color="#e9a254"
         id="stop1616" />
      <stop
         offset="1"
         stop-color="#f4bb79"
         id="stop1618" />
    </linearGradient>
    <linearGradient
       id="linear-gradient-2-1"
       x1="60"
       y1="61"
       x2="60"
       y2="3"
       xlink:href="#linear-gradient-26" />
    <linearGradient
       id="linear-gradient-3-8"
       x1="56.98"
       y1="57.5"
       x2="63.02"
       y2="57.5"
       gradientUnits="userSpaceOnUse">
      <stop
         offset="0"
         stop-color="#d1a788"
         id="stop1622" />
      <stop
         offset="1"
         stop-color="#f2d3b8"
         id="stop1624" />
    </linearGradient>
    <linearGradient
       id="linear-gradient-4-7"
       x1="60"
       y1="10"
       x2="60"
       y2="3"
       gradientUnits="userSpaceOnUse">
      <stop
         offset="0"
         stop-color="#d96bb0"
         id="stop1627" />
      <stop
         offset="1"
         stop-color="#e49fc6"
         id="stop1629" />
    </linearGradient>
    <linearGradient
       id="linear-gradient-5-92"
       x1="57"
       y1="12"
       x2="63"
       y2="12"
       gradientUnits="userSpaceOnUse">
      <stop
         offset="0"
         stop-color="#949aaf"
         id="stop1632" />
      <stop
         offset="1"
         stop-color="#c6ccda"
         id="stop1634" />
    </linearGradient>
    <linearGradient
       id="linear-gradient-6-0"
       x1="6"
       y1="63"
       x2="6"
       y2="1"
       gradientUnits="userSpaceOnUse">
      <stop
         offset="0"
         stop-color="#474f72"
         id="stop1637" />
      <stop
         offset="1"
         stop-color="#878c9f"
         id="stop1639" />
    </linearGradient>
    <linearGradient
       id="linear-gradient-7-2"
       x1="30"
       y1="26"
       x2="30"
       y2="8"
       gradientUnits="userSpaceOnUse">
      <stop
         offset="0"
         stop-color="#d4d8e1"
         id="stop1642" />
      <stop
         offset="1"
         stop-color="#f3f4f5"
         id="stop1644" />
    </linearGradient>
    <style
       id="style1728">.cls-1{fill:#c7cdd8;}.cls-2{fill:url(#linear-gradient);}.cls-3{fill:#dfe3ea;}</style>
    <linearGradient
       id="linear-gradient-37"
       x1="29"
       y1="63"
       x2="29"
       y2="5"
       gradientUnits="userSpaceOnUse">
      <stop
         offset="0"
         stop-color="#d4d8e1"
         id="stop1730" />
      <stop
         offset="1"
         stop-color="#f3f4f5"
         id="stop1732" />
    </linearGradient>
    <style
       id="style1797">.cls-1{fill:url(#linear-gradient);}.cls-2{fill:#42455e;}.cls-3{fill:url(#linear-gradient-2);}.cls-4{fill:url(#linear-gradient-3);}.cls-5{fill:#c7cdd8;}.cls-6{fill:#dfe3ea;}.cls-7{fill:#e8677d;}</style>
    <linearGradient
       id="linear-gradient-59"
       x1="32"
       y1="63"
       x2="32"
       y2="1"
       gradientUnits="userSpaceOnUse">
      <stop
         offset="0"
         stop-color="#474f72"
         id="stop1799" />
      <stop
         offset="1"
         stop-color="#878c9f"
         id="stop1801" />
    </linearGradient>
    <linearGradient
       id="linear-gradient-2-22"
       x1="32"
       y1="55"
       x2="32"
       y2="5"
       gradientUnits="userSpaceOnUse">
      <stop
         offset="0"
         stop-color="#d4d8e1"
         id="stop1804" />
      <stop
         offset="1"
         stop-color="#f3f4f5"
         id="stop1806" />
    </linearGradient>
    <linearGradient
       id="linear-gradient-3-89"
       x1="46"
       y1="50"
       x2="46"
       y2="5"
       gradientUnits="userSpaceOnUse">
      <stop
         offset="0"
         stop-color="#da5466"
         id="stop1809" />
      <stop
         offset="1"
         stop-color="#f4929c"
         id="stop1811" />
    </linearGradient>
    <style
       id="style1897">.cls-1{fill:url(#linear-gradient);}.cls-2{fill:#8a6762;}.cls-3{fill:url(#linear-gradient-2);}.cls-4{fill:url(#linear-gradient-3);}.cls-5{fill:#231f20;}</style>
    <linearGradient
       id="linear-gradient-73"
       x1="15.44"
       y1="29.17"
       x2="15.44"
       y2="3.72"
       gradientUnits="userSpaceOnUse">
      <stop
         offset="0"
         stop-color="#9b756d"
         id="stop1899" />
      <stop
         offset="1"
         stop-color="#bc9388"
         id="stop1901" />
    </linearGradient>
    <linearGradient
       id="linear-gradient-2-61"
       x1="26.809999"
       y1="63"
       x2="26.809999"
       y2="5.4299998"
       gradientUnits="userSpaceOnUse">
      <stop
         offset="0"
         stop-color="#d1a788"
         id="stop1904" />
      <stop
         offset="1"
         stop-color="#f2d3b8"
         id="stop1906" />
    </linearGradient>
    <linearGradient
       id="linear-gradient-3-29"
       x1="33.759998"
       y1="51.540001"
       x2="33.759998"
       y2="1"
       xlink:href="#linear-gradient-2-61" />
    <style
       id="style1943">.cls-1{fill:url(#linear-gradient);}.cls-2{fill:#c7cdd8;}.cls-3{fill:none;stroke:#231f20;stroke-linecap:round;stroke-linejoin:round;stroke-width:2px;}.cls-4{fill:url(#linear-gradient-3);}.cls-5{fill:#42455e;}.cls-6{fill:url(#linear-gradient-4);}.cls-7{fill:#cba07a;}.cls-8{fill:url(#linear-gradient-5);}.cls-9{fill:url(#linear-gradient-6);}.cls-10{fill:#231f20;}</style>
    <linearGradient
       id="linear-gradient-31"
       x1="32"
       y1="43.77"
       x2="32"
       y2="8"
       gradientUnits="userSpaceOnUse">
      <stop
         offset="0"
         stop-color="#d4d8e1"
         id="stop1945" />
      <stop
         offset="1"
         stop-color="#f3f4f5"
         id="stop1947" />
    </linearGradient>
    <linearGradient
       id="linear-gradient-3-9"
       x1="32"
       y1="44"
       x2="32"
       y2="26"
       gradientUnits="userSpaceOnUse">
      <stop
         offset="0"
         stop-color="#474f72"
         id="stop1950" />
      <stop
         offset="1"
         stop-color="#878c9f"
         id="stop1952" />
    </linearGradient>
    <linearGradient
       id="linear-gradient-4-4"
       x1="32"
       y1="50"
       x2="32"
       y2="44"
       gradientUnits="userSpaceOnUse">
      <stop
         offset="0"
         stop-color="#d1a788"
         id="stop1955" />
      <stop
         offset="1"
         stop-color="#f2d3b8"
         id="stop1957" />
    </linearGradient>
    <linearGradient
       id="linear-gradient-5-7"
       x1="9"
       y1="56"
       x2="9"
       y2="50"
       xlink:href="#linear-gradient-4-4" />
    <linearGradient
       id="linear-gradient-6-8"
       x1="55"
       y1="56"
       x2="55"
       y2="50"
       xlink:href="#linear-gradient-4-4" />
    <style
       id="style2032">.cls-1{fill:url(#linear-gradient);}.cls-2{fill:#c7cdd8;}.cls-3{fill:url(#linear-gradient-3);}.cls-4{fill:#cf4055;}.cls-5{fill:url(#linear-gradient-4);}.cls-6{fill:#cba07a;}.cls-7{fill:url(#linear-gradient-5);}.cls-8{fill:url(#linear-gradient-6);}.cls-9{fill:#231f20;}</style>
    <linearGradient
       id="linear-gradient-45"
       x1="31.98"
       y1="37"
       x2="31.98"
       y2="23"
       gradientUnits="userSpaceOnUse">
      <stop
         offset="0"
         stop-color="#d4d8e1"
         id="stop2034" />
      <stop
         offset="1"
         stop-color="#f3f4f5"
         id="stop2036" />
    </linearGradient>
    <linearGradient
       id="linear-gradient-3-0"
       x1="31.93"
       y1="29.940001"
       x2="31.93"
       y2="14.99"
       gradientUnits="userSpaceOnUse">
      <stop
         offset="0"
         stop-color="#da5466"
         id="stop2039" />
      <stop
         offset="1"
         stop-color="#f4929c"
         id="stop2041" />
    </linearGradient>
    <linearGradient
       id="linear-gradient-4-3"
       x1="32"
       y1="43"
       x2="32"
       y2="37"
       gradientUnits="userSpaceOnUse">
      <stop
         offset="0"
         stop-color="#d1a788"
         id="stop2044" />
      <stop
         offset="1"
         stop-color="#f2d3b8"
         id="stop2046" />
    </linearGradient>
    <linearGradient
       id="linear-gradient-5-6"
       x1="9"
       y1="49"
       x2="9"
       y2="43"
       xlink:href="#linear-gradient-4-3" />
    <linearGradient
       id="linear-gradient-6-1"
       x1="55"
       y1="49"
       x2="55"
       y2="43"
       xlink:href="#linear-gradient-4-3" />
    <style
       id="style2118">.cls-1{fill:url(#linear-gradient);}.cls-2{fill:url(#linear-gradient-2);}.cls-3{fill:#c7cdd8;}.cls-4{fill:url(#linear-gradient-3);}.cls-5{fill:url(#linear-gradient-4);}.cls-6{fill:#cf4055;}.cls-7{fill:url(#linear-gradient-5);}.cls-8{fill:url(#linear-gradient-6);}.cls-9{fill:#adb3c4;}.cls-10{fill:#42455e;}</style>
    <linearGradient
       id="linear-gradient-0"
       x1="32"
       y1="51"
       x2="32"
       y2="7"
       gradientUnits="userSpaceOnUse">
      <stop
         offset="0"
         stop-color="#474f72"
         id="stop2120" />
      <stop
         offset="1"
         stop-color="#878c9f"
         id="stop2122" />
    </linearGradient>
    <linearGradient
       id="linear-gradient-2-63"
       x1="32"
       y1="51"
       x2="32"
       y2="43"
       gradientUnits="userSpaceOnUse">
      <stop
         offset="0"
         stop-color="#d4d8e1"
         id="stop2125" />
      <stop
         offset="1"
         stop-color="#f3f4f5"
         id="stop2127" />
    </linearGradient>
    <linearGradient
       id="linear-gradient-3-20"
       x1="32"
       y1="63"
       x2="32"
       y2="51"
       gradientUnits="userSpaceOnUse">
      <stop
         offset="0"
         stop-color="#949aaf"
         id="stop2130" />
      <stop
         offset="1"
         stop-color="#c6ccda"
         id="stop2132" />
    </linearGradient>
    <linearGradient
       id="linear-gradient-4-6"
       x1="32"
       y1="37"
       x2="32"
       y2="5"
       gradientUnits="userSpaceOnUse">
      <stop
         offset="0"
         stop-color="#da5466"
         id="stop2135" />
      <stop
         offset="1"
         stop-color="#f4929c"
         id="stop2137" />
    </linearGradient>
    <linearGradient
       id="linear-gradient-5-1"
       x1="13"
       y1="19"
       x2="32"
       y2="19"
       xlink:href="#linear-gradient-2-63" />
    <linearGradient
       id="linear-gradient-6-5"
       x1="32"
       y1="19"
       x2="51"
       y2="19"
       xlink:href="#linear-gradient-2-63" />
  </defs>
  <g
     inkscape:label="Layer 1"
     inkscape:groupmode="layer"
     id="layer1"
     transform="translate(313.09765,-797.70864)">
    <text
       xml:space="preserve"
       style="font-size:40px;line-height:1.25;font-family:Montserrat;-inkscape-font-specification:Montserrat"
       x="157.42043"
       y="822.27533"
       id="text1530"><tspan
         sodipodi:role="line"
         id="tspan1528"
         x="157.42043"
         y="822.27533" /></text>
    <text
       xml:space="preserve"
       style="font-size:40px;line-height:1.25;font-family:Montserrat;-inkscape-font-specification:Montserrat"
       x="97.076279"
       y="766.35168"
       id="text1530-7"><tspan
         sodipodi:role="line"
         id="tspan1528-5"
         x="97.076279"
         y="766.35168" /></text>
    <text
       xml:space="preserve"
       style="font-size:40px;line-height:1.25;font-family:Montserrat;-inkscape-font-specification:Montserrat"
       x="230.66394"
       y="709.87347"
       id="text1530-3"><tspan
         sodipodi:role="line"
         id="tspan1528-6"
         x="230.66394"
         y="709.87347" /></text>
    <path
       id="path2112"
       style="fill:#ff297e;fill-opacity:1;stroke-width:5.04577;stroke-linecap:round;paint-order:stroke fill markers;stop-color:#000000"
       d="M -313.09765,797.70864 H -13.097646 V 1197.7087 H -313.09765 Z" />
    <g
       id="g2116"
       transform="matrix(1.0805702,0,0,1.4407592,-457.01231,-447.16433)">
      <rect
         style="opacity:0.05;fill:#000000;fill-opacity:1;stroke:none;stroke-width:1.18447;stroke-linecap:round;paint-order:stroke fill markers;stop-color:#000000"
         id="rect2114"
         width="277.6312"
         height="277.63141"
         x="133.18399"
         y="864.03961" />
    </g>
    <path
       id="path2118"
       style="fill:#ffffff;fill-opacity:1;stroke-width:0.946982;stroke-linecap:round;paint-order:stroke fill markers;stop-color:#000000"
       d="m -324.37588,771.27607 h 33.06456 c 3.64175,0 6.57356,2.93176 6.57356,6.57357 v 33.06455 c 0,3.64172 -2.93181,6.57357 -6.57356,6.57357 h -33.06456 c -3.64175,0 -6.57355,-2.93185 -6.57355,-6.57357 v -33.06455 c 0,-3.64181 2.9318,-6.57357 6.57355,-6.57357 z" />
    <path
       id="path2120"
       style="fill:#000000;fill-opacity:1;stroke-width:0.946982;stroke-linecap:round;paint-order:stroke fill markers;stop-color:#000000"
       d="m -258.77257,771.27607 h 33.06457 c 3.64175,0 6.57356,2.93176 6.57356,6.57357 v 33.06455 c 0,3.64172 -2.93181,6.57357 -6.57356,6.57357 h -33.06457 c -3.64175,0 -6.57355,-2.93185 -6.57355,-6.57357 v -33.06455 c 0,-3.64181 2.93181,-6.57357 6.57355,-6.57357 z" />
    <path
       id="path2122"
       style="fill:#ffffff;fill-opacity:1;stroke-width:0.946982;stroke-linecap:round;paint-order:stroke fill markers;stop-color:#000000"
       d="m -194.22558,771.27607 h 33.06458 c 3.64175,0 6.57356,2.93176 6.57356,6.57357 v 33.06455 c 0,3.64172 -2.93181,6.57357 -6.57356,6.57357 h -33.06457 c -3.64176,0 -6.57356,-2.93185 -6.57356,-6.57357 v -33.06455 c 0,-3.64181 2.9318,-6.57357 6.57355,-6.57357 z" />
    <path
       id="path2124"
       style="fill:#000000;fill-opacity:1;stroke-width:0.946982;stroke-linecap:round;paint-order:stroke fill markers;stop-color:#000000"
       d="m -129.6786,771.27607 h 33.064574 c 3.64176,0 6.57357,2.93176 6.57357,6.57357 v 33.06455 c 0,3.64172 -2.93181,6.57357 -6.57357,6.57357 H -129.6786 c -3.64176,0 -6.57355,-2.93185 -6.57355,-6.57357 v -33.06455 c 0,-3.64181 2.93179,-6.57357 6.57355,-6.57357 z" />
    <path
       id="path2126"
       style="fill:#ffffff;fill-opacity:1;stroke-width:0.946982;stroke-linecap:round;paint-order:stroke fill markers;stop-color:#000000"
       d="m -65.131616,771.27607 h 33.06458 c 3.64176,0 6.573566,2.93176 6.573566,6.57357 v 33.06455 c 0,3.64172 -2.931806,6.57357 -6.573566,6.57357 h -33.06458 c -3.64175,0 -6.57354,-2.93185 -6.57354,-6.57357 v -33.06455 c 0,-3.64181 2.93179,-6.57357 6.57354,-6.57357 z" />
    <path
       id="path2128"
       style="fill:#ffffff;fill-opacity:1;stroke-width:0.946982;stroke-linecap:round;paint-order:stroke fill markers;stop-color:#000000"
       d="m -293.07196,837.45309 h 33.06457 c 3.64175,0 6.57356,2.93176 6.57356,6.57357 v 33.06455 c 0,3.64171 -2.93181,6.57357 -6.57356,6.57357 h -33.06457 c -3.64175,0 -6.57354,-2.93186 -6.57354,-6.57357 v -33.06455 c 0,-3.64181 2.9318,-6.57357 6.57354,-6.57357 z" />
    <path
       id="path2130"
       style="fill:#ffffff;fill-opacity:1;stroke-width:0.946982;stroke-linecap:round;paint-order:stroke fill markers;stop-color:#000000"
       d="m -228.52497,837.45309 h 33.06457 c 3.64175,0 6.57356,2.93176 6.57356,6.57357 v 33.06455 c 0,3.64171 -2.93181,6.57357 -6.57356,6.57357 h -33.06457 c -3.64175,0 -6.57355,-2.93186 -6.57355,-6.57357 v -33.06455 c 0,-3.64181 2.93181,-6.57357 6.57355,-6.57357 z" />
    <path
       id="path2132"
       style="fill:#ffffff;fill-opacity:1;stroke-width:0.946982;stroke-linecap:round;paint-order:stroke fill markers;stop-color:#000000"
       d="m -163.97798,837.45309 h 33.06457 c 3.64175,0 6.57357,2.93176 6.57357,6.57357 v 33.06455 c 0,3.64171 -2.93182,6.57357 -6.57357,6.57357 h -33.06457 c -3.64176,0 -6.57356,-2.93186 -6.57356,-6.57357 v -33.06455 c 0,-3.64181 2.9318,-6.57357 6.57356,-6.57357 z" />
    <path
       id="path2134"
       style="fill:#ffffff;fill-opacity:1;stroke-width:0.946982;stroke-linecap:round;paint-order:stroke fill markers;stop-color:#000000"
       d="m -99.431006,837.45309 h 33.06458 c 3.64176,0 6.57357,2.93176 6.57357,6.57357 v 33.06455 c 0,3.64171 -2.93181,6.57357 -6.57357,6.57357 h -33.06458 c -3.641754,0 -6.573544,-2.93186 -6.573544,-6.57357 v -33.06455 c 0,-3.64181 2.93179,-6.57357 6.573544,-6.57357 z" />
    <path
       id="path2136"
       style="fill:#ffffff;fill-opacity:1;stroke-width:0.946982;stroke-linecap:round;paint-order:stroke fill markers;stop-color:#000000"
       d="m -34.884016,837.45309 h 33.064583 c 3.641753,0 6.573563,2.93176 6.573563,6.57357 v 33.06455 c 0,3.64171 -2.93181,6.57357 -6.573563,6.57357 h -33.064583 c -3.64175,0 -6.57355,-2.93186 -6.57355,-6.57357 v -33.06455 c 0,-3.64181 2.9318,-6.57357 6.57355,-6.57357 z" />
    <path
       id="path2138"
       style="fill:#ffffff;fill-opacity:1;stroke-width:0.946982;stroke-linecap:round;paint-order:stroke fill markers;stop-color:#000000"
       d="m -323.31955,903.63003 h 33.06456 c 3.64175,0 6.57356,2.9318 6.57356,6.5736 v 33.0645 c 0,3.64174 -2.93181,6.57364 -6.57356,6.57364 h -33.06456 c -3.64175,0 -6.57355,-2.9319 -6.57355,-6.57364 v -33.0645 c 0,-3.6418 2.9318,-6.5736 6.57355,-6.5736 z" />
    <path
       id="path2140"
       style="fill:#000000;fill-opacity:1;stroke-width:0.946982;stroke-linecap:round;paint-order:stroke fill markers;stop-color:#000000"
       d="m -258.77257,903.63003 h 33.06457 c 3.64175,0 6.57356,2.9318 6.57356,6.5736 v 33.0645 c 0,3.64174 -2.93181,6.57364 -6.57356,6.57364 h -33.06457 c -3.64175,0 -6.57355,-2.9319 -6.57355,-6.57364 v -33.0645 c 0,-3.6418 2.93181,-6.5736 6.57355,-6.5736 z" />
    <path
       id="path2142"
       style="fill:#ffffff;fill-opacity:1;stroke-width:0.946982;stroke-linecap:round;paint-order:stroke fill markers;stop-color:#000000"
       d="m -194.22558,903.63003 h 33.06458 c 3.64175,0 6.57356,2.9318 6.57356,6.5736 v 33.0645 c 0,3.64174 -2.93181,6.57364 -6.57356,6.57364 h -33.06457 c -3.64176,0 -6.57356,-2.9319 -6.57356,-6.57364 v -33.0645 c 0,-3.6418 2.9318,-6.5736 6.57355,-6.5736 z" />
    <path
       id="path2144"
       style="fill:#000000;fill-opacity:1;stroke-width:0.946982;stroke-linecap:round;paint-order:stroke fill markers;stop-color:#000000"
       d="m -129.6786,903.63003 h 33.064574 c 3.64176,0 6.57357,2.9318 6.57357,6.5736 v 33.0645 c 0,3.64174 -2.93181,6.57364 -6.57357,6.57364 H -129.6786 c -3.64176,0 -6.57355,-2.9319 -6.57355,-6.57364 v -33.0645 c 0,-3.6418 2.93179,-6.5736 6.57355,-6.5736 z" />
    <path
       id="path2146"
       style="fill:#ffffff;fill-opacity:1;stroke-width:0.946982;stroke-linecap:round;paint-order:stroke fill markers;stop-color:#000000"
       d="m -65.131616,903.63003 h 33.06458 c 3.64176,0 6.573566,2.9318 6.573566,6.5736 v 33.0645 c 0,3.64174 -2.931806,6.57364 -6.573566,6.57364 h -33.06458 c -3.64175,0 -6.57354,-2.9319 -6.57354,-6.57364 v -33.0645 c 0,-3.6418 2.93179,-6.5736 6.57354,-6.5736 z" />
    <path
       id="path2148"
       style="fill:#ffffff;fill-opacity:1;stroke-width:0.946982;stroke-linecap:round;paint-order:stroke fill markers;stop-color:#000000"
       d="m -293.07196,969.80707 h 33.06457 c 3.64175,0 6.57356,2.9318 6.57356,6.5736 v 33.06453 c 0,3.6418 -2.93181,6.5736 -6.57356,6.5736 h -33.06457 c -3.64175,0 -6.57354,-2.9318 -6.57354,-6.5736 v -33.06453 c 0,-3.6418 2.9318,-6.5736 6.57354,-6.5736 z" />
    <path
       id="path2150"
       style="fill:#ffffff;fill-opacity:1;stroke-width:0.946982;stroke-linecap:round;paint-order:stroke fill markers;stop-color:#000000"
       d="m -228.52497,969.80707 h 33.06457 c 3.64175,0 6.57356,2.9318 6.57356,6.5736 v 33.06453 c 0,3.6418 -2.93181,6.5736 -6.57356,6.5736 h -33.06457 c -3.64175,0 -6.57355,-2.9318 -6.57355,-6.5736 v -33.06453 c 0,-3.6418 2.93181,-6.5736 6.57355,-6.5736 z" />
    <path
       id="path2152"
       style="fill:#ffffff;fill-opacity:1;stroke-width:0.946982;stroke-linecap:round;paint-order:stroke fill markers;stop-color:#000000"
       d="m -163.97798,969.80707 h 33.06457 c 3.64175,0 6.57357,2.9318 6.57357,6.5736 v 33.06453 c 0,3.6418 -2.93182,6.5736 -6.57357,6.5736 h -33.06457 c -3.64176,0 -6.57356,-2.9318 -6.57356,-6.5736 v -33.06453 c 0,-3.6418 2.9318,-6.5736 6.57356,-6.5736 z" />
    <path
       id="path2154"
       style="fill:#ffffff;fill-opacity:1;stroke-width:0.946982;stroke-linecap:round;paint-order:stroke fill markers;stop-color:#000000"
       d="m -99.431006,969.80707 h 33.06458 c 3.64176,0 6.57357,2.9318 6.57357,6.5736 v 33.06453 c 0,3.6418 -2.93181,6.5736 -6.57357,6.5736 h -33.06458 c -3.641754,0 -6.573544,-2.9318 -6.573544,-6.5736 v -33.06453 c 0,-3.6418 2.93179,-6.5736 6.573544,-6.5736 z" />
    <path
       id="path2156"
       style="fill:#ffffff;fill-opacity:1;stroke-width:0.946982;stroke-linecap:round;paint-order:stroke fill markers;stop-color:#000000"
       d="m -34.884016,969.80707 h 33.064583 c 3.641753,0 6.573563,2.9318 6.573563,6.5736 v 33.06453 c 0,3.6418 -2.93181,6.5736 -6.573563,6.5736 h -33.064583 c -3.64175,0 -6.57355,-2.9318 -6.57355,-6.5736 v -33.06453 c 0,-3.6418 2.9318,-6.5736 6.57355,-6.5736 z" />
    <path
       id="path3060"
       style="fill:#ffffff;fill-opacity:1;stroke-width:0.946982;stroke-linecap:round;paint-order:stroke fill markers;stop-color:#000000"
       d="m -324.37588,1038.2652 h 33.06456 c 3.64175,0 6.57356,2.9318 6.57356,6.5736 v 33.0645 c 0,3.6418 -2.93181,6.5736 -6.57356,6.5736 h -33.06456 c -3.64175,0 -6.57355,-2.9318 -6.57355,-6.5736 v -33.0645 c 0,-3.6418 2.9318,-6.5736 6.57355,-6.5736 z" />
    <path
       id="path3062"
       style="fill:#000000;fill-opacity:1;stroke-width:0.946982;stroke-linecap:round;paint-order:stroke fill markers;stop-color:#000000"
       d="m -258.77257,1038.2652 h 33.06457 c 3.64175,0 6.57356,2.9318 6.57356,6.5736 v 33.0645 c 0,3.6418 -2.93181,6.5736 -6.57356,6.5736 h -33.06457 c -3.64175,0 -6.57355,-2.9318 -6.57355,-6.5736 v -33.0645 c 0,-3.6418 2.93181,-6.5736 6.57355,-6.5736 z" />
    <path
       id="path3064"
       style="fill:#ffffff;fill-opacity:1;stroke-width:0.946982;stroke-linecap:round;paint-order:stroke fill markers;stop-color:#000000"
       d="m -194.22558,1038.2652 h 33.06458 c 3.64175,0 6.57356,2.9318 6.57356,6.5736 v 33.0645 c 0,3.6418 -2.93181,6.5736 -6.57356,6.5736 h -33.06457 c -3.64176,0 -6.57356,-2.9318 -6.57356,-6.5736 v -33.0645 c 0,-3.6418 2.9318,-6.5736 6.57355,-6.5736 z" />
    <path
       id="path3066"
       style="fill:#000000;fill-opacity:1;stroke-width:0.946982;stroke-linecap:round;paint-order:stroke fill markers;stop-color:#000000"
       d="m -129.6786,1038.2652 h 33.064574 c 3.64176,0 6.57357,2.9318 6.57357,6.5736 v 33.0645 c 0,3.6418 -2.93181,6.5736 -6.57357,6.5736 H -129.6786 c -3.64176,0 -6.57355,-2.9318 -6.57355,-6.5736 v -33.0645 c 0,-3.6418 2.93179,-6.5736 6.57355,-6.5736 z" />
    <path
       id="path3068"
       style="fill:#ffffff;fill-opacity:1;stroke-width:0.946982;stroke-linecap:round;paint-order:stroke fill markers;stop-color:#000000"
       d="m -65.131616,1038.2652 h 33.06458 c 3.64176,0 6.573566,2.9318 6.573566,6.5736 v 33.0645 c 0,3.6418 -2.931806,6.5736 -6.573566,6.5736 h -33.06458 c -3.64175,0 -6.57354,-2.9318 -6.57354,-6.5736 v -33.0645 c 0,-3.6418 2.93179,-6.5736 6.57354,-6.5736 z" />
    <path
       id="path3070"
       style="fill:#ffffff;fill-opacity:1;stroke-width:0.946982;stroke-linecap:round;paint-order:stroke fill markers;stop-color:#000000"
       d="m -293.07196,1104.4422 h 33.06457 c 3.64175,0 6.57356,2.9318 6.57356,6.5736 v 33.0646 c 0,3.6417 -2.93181,6.5735 -6.57356,6.5735 h -33.06457 c -3.64175,0 -6.57354,-2.9318 -6.57354,-6.5735 v -33.0646 c 0,-3.6418 2.9318,-6.5736 6.57354,-6.5736 z" />
    <path
       id="path3072"
       style="fill:#ffffff;fill-opacity:1;stroke-width:0.946982;stroke-linecap:round;paint-order:stroke fill markers;stop-color:#000000"
       d="m -228.52497,1104.4422 h 33.06457 c 3.64175,0 6.57356,2.9318 6.57356,6.5736 v 33.0646 c 0,3.6417 -2.93181,6.5735 -6.57356,6.5735 h -33.06457 c -3.64175,0 -6.57355,-2.9318 -6.57355,-6.5735 v -33.0646 c 0,-3.6418 2.93181,-6.5736 6.57355,-6.5736 z" />
    <path
       id="path3074"
       style="fill:#ffffff;fill-opacity:1;stroke-width:0.946982;stroke-linecap:round;paint-order:stroke fill markers;stop-color:#000000"
       d="m -163.97798,1104.4422 h 33.06457 c 3.64175,0 6.57357,2.9318 6.57357,6.5736 v 33.0646 c 0,3.6417 -2.93182,6.5735 -6.57357,6.5735 h -33.06457 c -3.64176,0 -6.57356,-2.9318 -6.57356,-6.5735 v -33.0646 c 0,-3.6418 2.9318,-6.5736 6.57356,-6.5736 z" />
    <path
       id="path3076"
       style="fill:#ffffff;fill-opacity:1;stroke-width:0.946982;stroke-linecap:round;paint-order:stroke fill markers;stop-color:#000000"
       d="m -99.431006,1104.4422 h 33.06458 c 3.64176,0 6.57357,2.9318 6.57357,6.5736 v 33.0646 c 0,3.6417 -2.93181,6.5735 -6.57357,6.5735 h -33.06458 c -3.641754,0 -6.573544,-2.9318 -6.573544,-6.5735 v -33.0646 c 0,-3.6418 2.93179,-6.5736 6.573544,-6.5736 z" />
    <path
       id="path3078"
       style="fill:#ffffff;fill-opacity:1;stroke-width:0.946982;stroke-linecap:round;paint-order:stroke fill markers;stop-color:#000000"
       d="m -34.884016,1104.4422 h 33.064583 c 3.641753,0 6.573563,2.9318 6.573563,6.5736 v 33.0646 c 0,3.6417 -2.93181,6.5735 -6.573563,6.5735 h -33.064583 c -3.64175,0 -6.57355,-2.9318 -6.57355,-6.5735 v -33.0646 c 0,-3.6418 2.9318,-6.5736 6.57355,-6.5736 z" />
    <path
       id="path3080"
       style="fill:#ffffff;fill-opacity:1;stroke-width:0.946982;stroke-linecap:round;paint-order:stroke fill markers;stop-color:#000000"
       d="m -323.31955,1170.6192 h 33.06456 c 3.64175,0 6.57356,2.9317 6.57356,6.5735 v 33.0646 c 0,3.6417 -2.93181,6.5736 -6.57356,6.5736 h -33.06456 c -3.64175,0 -6.57355,-2.9319 -6.57355,-6.5736 v -33.0646 c 0,-3.6418 2.9318,-6.5735 6.57355,-6.5735 z" />
    <path
       id="path3082"
       style="fill:#000000;fill-opacity:1;stroke-width:0.946982;stroke-linecap:round;paint-order:stroke fill markers;stop-color:#000000"
       d="m -258.77257,1170.6192 h 33.06457 c 3.64175,0 6.57356,2.9317 6.57356,6.5735 v 33.0646 c 0,3.6417 -2.93181,6.5736 -6.57356,6.5736 h -33.06457 c -3.64175,0 -6.57355,-2.9319 -6.57355,-6.5736 v -33.0646 c 0,-3.6418 2.93181,-6.5735 6.57355,-6.5735 z" />
    <path
       id="path3084"
       style="fill:#ffffff;fill-opacity:1;stroke-width:0.946982;stroke-linecap:round;paint-order:stroke fill markers;stop-color:#000000"
       d="m -194.22558,1170.6192 h 33.06458 c 3.64175,0 6.57356,2.9317 6.57356,6.5735 v 33.0646 c 0,3.6417 -2.93181,6.5736 -6.57356,6.5736 h -33.06457 c -3.64176,0 -6.57356,-2.9319 -6.57356,-6.5736 v -33.0646 c 0,-3.6418 2.9318,-6.5735 6.57355,-6.5735 z" />
    <path
       id="path3086"
       style="fill:#000000;fill-opacity:1;stroke-width:0.946982;stroke-linecap:round;paint-order:stroke fill markers;stop-color:#000000"
       d="m -129.6786,1170.6192 h 33.064574 c 3.64176,0 6.57357,2.9317 6.57357,6.5735 v 33.0646 c 0,3.6417 -2.93181,6.5736 -6.57357,6.5736 H -129.6786 c -3.64176,0 -6.57355,-2.9319 -6.57355,-6.5736 v -33.0646 c 0,-3.6418 2.93179,-6.5735 6.57355,-6.5735 z" />
    <path
       id="path3088"
       style="fill:#ffffff;fill-opacity:1;stroke-width:0.946982;stroke-linecap:round;paint-order:stroke fill markers;stop-color:#000000"
       d="m -65.131616,1170.6192 h 33.06458 c 3.64176,0 6.573566,2.9317 6.573566,6.5735 v 33.0646 c 0,3.6417 -2.931806,6.5736 -6.573566,6.5736 h -33.06458 c -3.64175,0 -6.57354,-2.9319 -6.57354,-6.5736 v -33.0646 c 0,-3.6418 2.93179,-6.5735 6.57354,-6.5735 z" />
    <path
       id="path2324"
       style="font-weight:bold;font-size:28.443px;line-height:1.25;font-family:Montserrat;-inkscape-font-specification:Montserrat;fill:#ffffff;stroke-width:0.711074"
       d="M 52.46875 -13.453125 L 52.46875 6.4570312 L 57.019531 6.4570312 L 57.019531 -5.6308594 L 66.947266 6.4570312 L 70.728516 6.4570312 L 70.728516 -13.453125 L 66.177734 -13.453125 L 66.177734 -1.3632812 L 56.28125 -13.453125 L 52.46875 -13.453125 z M 74.056641 -13.453125 L 74.056641 -9.7539062 L 82.533203 -9.7539062 L 78.4375 -5.1191406 L 78.4375 -2.0761719 L 80.542969 -2.0761719 C 83.159729 -2.0761719 84.267578 -1.1363862 84.267578 0.37109375 C 84.267578 1.9923438 82.846859 2.9316406 80.542969 2.9316406 C 78.466629 2.9316406 76.360996 2.2763919 74.853516 1.1386719 L 73.0625 4.6660156 C 74.99663 6.0312856 77.86883 6.7988281 80.65625 6.7988281 C 86.3164 6.7988281 88.904297 3.7273637 88.904297 0.37109375 C 88.904297 -2.5585362 87.08381 -4.7768431 83.5 -5.3457031 L 87.994141 -10.466797 L 87.994141 -13.453125 L 74.056641 -13.453125 z "
       transform="translate(-313.09765,797.70864)" />
    <path
       id="path2319"
       style="font-weight:bold;font-size:28.443px;line-height:1.25;font-family:Montserrat;-inkscape-font-specification:Montserrat;fill:#ffffff;stroke-width:0.711074"
       d="M 181.5625 -13.453125 L 181.5625 6.4570312 L 186.11328 6.4570312 L 186.11328 -5.6308594 L 196.04102 6.4570312 L 199.82422 6.4570312 L 199.82422 -13.453125 L 195.27344 -13.453125 L 195.27344 -1.3632812 L 185.375 -13.453125 L 181.5625 -13.453125 z M 203.15039 -13.453125 L 203.15039 -9.7539062 L 211.62695 -9.7539062 L 207.53125 -5.1191406 L 207.53125 -2.0761719 L 209.63672 -2.0761719 C 212.25347 -2.0761719 213.36133 -1.1363862 213.36133 0.37109375 C 213.36133 1.9923438 211.9406 2.9316406 209.63672 2.9316406 C 207.56038 2.9316406 205.45475 2.2763919 203.94727 1.1386719 L 202.15625 4.6660156 C 204.09037 6.0312856 206.96258 6.7988281 209.75 6.7988281 C 215.41015 6.7988281 217.99805 3.7273637 217.99805 0.37109375 C 217.99805 -2.5585362 216.17757 -4.7768431 212.59375 -5.3457031 L 217.08789 -10.466797 L 217.08789 -13.453125 L 203.15039 -13.453125 z "
       transform="translate(-313.09765,797.70864)" />
    <path
       id="path2309"
       style="font-weight:bold;font-size:28.443px;line-height:1.25;font-family:Montserrat;-inkscape-font-specification:Montserrat;fill:#ffffff;stroke-width:0.711074"
       d="M 52.46875 118.90234 L 52.46875 138.8125 L 57.019531 138.8125 L 57.019531 126.72266 L 66.947266 138.8125 L 70.728516 138.8125 L 70.728516 118.90234 L 66.177734 118.90234 L 66.177734 130.99023 L 56.28125 118.90234 L 52.46875 118.90234 z M 74.056641 118.90234 L 74.056641 122.59961 L 82.533203 122.59961 L 78.4375 127.23438 L 78.4375 130.2793 L 80.542969 130.2793 C 83.159729 130.2793 84.267578 131.21713 84.267578 132.72461 C 84.267578 134.34586 82.846859 135.28516 80.542969 135.28516 C 78.466629 135.28516 76.360996 134.62991 74.853516 133.49219 L 73.0625 137.01953 C 74.99663 138.3848 77.86883 139.15234 80.65625 139.15234 C 86.3164 139.15234 88.904297 136.08089 88.904297 132.72461 C 88.904297 129.79498 87.08381 127.57667 83.5 127.00781 L 87.994141 121.88867 L 87.994141 118.90234 L 74.056641 118.90234 z "
       transform="translate(-313.09765,797.70864)" />
    <path
       id="path2314"
       style="font-weight:bold;font-size:28.443px;line-height:1.25;font-family:Montserrat;-inkscape-font-specification:Montserrat;fill:#ffffff;stroke-width:0.711074"
       d="M 181.5625 118.90234 L 181.5625 138.8125 L 186.11328 138.8125 L 186.11328 126.72266 L 196.04102 138.8125 L 199.82422 138.8125 L 199.82422 118.90234 L 195.27344 118.90234 L 195.27344 130.99023 L 185.375 118.90234 L 181.5625 118.90234 z M 203.15039 118.90234 L 203.15039 122.59961 L 211.62695 122.59961 L 207.53125 127.23438 L 207.53125 130.2793 L 209.63672 130.2793 C 212.25347 130.2793 213.36133 131.21713 213.36133 132.72461 C 213.36133 134.34586 211.9406 135.28516 209.63672 135.28516 C 207.56038 135.28516 205.45475 134.62991 203.94727 133.49219 L 202.15625 137.01953 C 204.09037 138.3848 206.96258 139.15234 209.75 139.15234 C 215.41015 139.15234 217.99805 136.08089 217.99805 132.72461 C 217.99805 129.79498 216.17757 127.57667 212.59375 127.00781 L 217.08789 121.88867 L 217.08789 118.90234 L 203.15039 118.90234 z "
       transform="translate(-313.09765,797.70864)" />
    <path
       id="path2299"
       style="font-weight:bold;font-size:28.443px;line-height:1.25;font-family:Montserrat;-inkscape-font-specification:Montserrat;fill:#ffffff;stroke-width:0.711074"
       d="M 52.46875 253.53711 L 52.46875 273.44727 L 57.019531 273.44727 L 57.019531 261.35938 L 66.947266 273.44727 L 70.728516 273.44727 L 70.728516 253.53711 L 66.177734 253.53711 L 66.177734 265.625 L 56.28125 253.53711 L 52.46875 253.53711 z M 74.056641 253.53711 L 74.056641 257.23438 L 82.533203 257.23438 L 78.4375 261.87109 L 78.4375 264.91406 L 80.542969 264.91406 C 83.159729 264.91406 84.267578 265.85188 84.267578 267.35938 C 84.267578 268.98058 82.846859 269.91992 80.542969 269.91992 C 78.466629 269.91992 76.360996 269.26661 74.853516 268.12891 L 73.0625 271.6543 C 74.99663 273.0196 77.86883 273.78711 80.65625 273.78711 C 86.3164 273.78711 88.904297 270.71568 88.904297 267.35938 C 88.904297 264.42978 87.08381 262.21138 83.5 261.64258 L 87.994141 256.52344 L 87.994141 253.53711 L 74.056641 253.53711 z "
       transform="translate(-313.09765,797.70864)" />
    <path
       id="path2304"
       style="font-weight:bold;font-size:28.443px;line-height:1.25;font-family:Montserrat;-inkscape-font-specification:Montserrat;fill:#ffffff;stroke-width:0.711074"
       d="M 181.5625 253.53711 L 181.5625 273.44727 L 186.11328 273.44727 L 186.11328 261.35938 L 196.04102 273.44727 L 199.82422 273.44727 L 199.82422 253.53711 L 195.27344 253.53711 L 195.27344 265.625 L 185.375 253.53711 L 181.5625 253.53711 z M 203.15039 253.53711 L 203.15039 257.23438 L 211.62695 257.23438 L 207.53125 261.87109 L 207.53125 264.91406 L 209.63672 264.91406 C 212.25347 264.91406 213.36133 265.85188 213.36133 267.35938 C 213.36133 268.98058 211.9406 269.91992 209.63672 269.91992 C 207.56038 269.91992 205.45475 269.26661 203.94727 268.12891 L 202.15625 271.6543 C 204.09037 273.0196 206.96258 273.78711 209.75 273.78711 C 215.41015 273.78711 217.99805 270.71568 217.99805 267.35938 C 217.99805 264.42978 216.17757 262.21138 212.59375 261.64258 L 217.08789 256.52344 L 217.08789 253.53711 L 203.15039 253.53711 z "
       transform="translate(-313.09765,797.70864)" />
    <path
       id="path2294"
       style="font-weight:bold;font-size:28.443px;line-height:1.25;font-family:Montserrat;-inkscape-font-specification:Montserrat;fill:#ffffff;stroke-width:0.711074"
       d="M 52.46875 385.89062 L 52.46875 405.80078 L 57.019531 405.80078 L 57.019531 393.71289 L 66.947266 405.80078 L 70.728516 405.80078 L 70.728516 385.89062 L 66.177734 385.89062 L 66.177734 397.97852 L 56.28125 385.89062 L 52.46875 385.89062 z M 74.056641 385.89062 L 74.056641 389.58789 L 82.533203 389.58789 L 78.4375 394.22461 L 78.4375 397.26758 L 80.542969 397.26758 C 83.159729 397.26758 84.267578 398.20734 84.267578 399.71484 C 84.267578 401.33604 82.846859 402.27344 80.542969 402.27344 C 78.466629 402.27344 76.360996 401.62012 74.853516 400.48242 L 73.0625 404.00977 C 74.99663 405.37507 77.86883 406.14258 80.65625 406.14258 C 86.3164 406.14258 88.904297 403.07114 88.904297 399.71484 C 88.904297 396.78524 87.08381 394.56489 83.5 393.99609 L 87.994141 388.87695 L 87.994141 385.89062 L 74.056641 385.89062 z "
       transform="translate(-313.09765,797.70864)" />
    <path
       id="path2289"
       style="font-weight:bold;font-size:28.443px;line-height:1.25;font-family:Montserrat;-inkscape-font-specification:Montserrat;fill:#ffffff;stroke-width:0.711074"
       d="M 181.5625 385.89062 L 181.5625 405.80078 L 186.11328 405.80078 L 186.11328 393.71289 L 196.04102 405.80078 L 199.82422 405.80078 L 199.82422 385.89062 L 195.27344 385.89062 L 195.27344 397.97852 L 185.375 385.89062 L 181.5625 385.89062 z M 203.15039 385.89062 L 203.15039 389.58789 L 211.62695 389.58789 L 207.53125 394.22461 L 207.53125 397.26758 L 209.63672 397.26758 C 212.25347 397.26758 213.36133 398.20734 213.36133 399.71484 C 213.36133 401.33604 211.9406 402.27344 209.63672 402.27344 C 207.56038 402.27344 205.45475 401.62012 203.94727 400.48242 L 202.15625 404.00977 C 204.09037 405.37507 206.96258 406.14258 209.75 406.14258 C 215.41015 406.14258 217.99805 403.07114 217.99805 399.71484 C 217.99805 396.78524 216.17757 394.56489 212.59375 393.99609 L 217.08789 388.87695 L 217.08789 385.89062 L 203.15039 385.89062 z "
       transform="translate(-313.09765,797.70864)" />
    <path
       id="path35541"
       style="fill:#ffffff;fill-opacity:1;stroke-width:0.946982;stroke-linecap:round;paint-order:stroke fill markers;stop-color:#000000"
       d="m -324.37588,1170.6192 h 33.06456 c 3.64175,0 6.57356,2.9318 6.57356,6.5736 v 33.0645 c 0,3.6417 -2.93181,6.5736 -6.57356,6.5736 h -33.06456 c -3.64175,0 -6.57355,-2.9319 -6.57355,-6.5736 v -33.0645 c 0,-3.6418 2.9318,-6.5736 6.57355,-6.5736 z" />
    <path
       d="m -270.65967,853.51893 h 5.52 c -0.52,4.08 -1.36,7.56 -2.68,10.6 -1.32,-3.04 -2.36,-6.44 -3.04,-10.08 z m 12.8,0 v -4.4 h -11.4 c 0.6,-2.12 1.12,-4.32 1.48,-6.55999 l -4.72,-0.72001 c -0.88,5.64 -2.48,11.04 -4.96,14.92 v -1 h -4.56 v -7 h 5.68 v -4.56 h -18.32 v 4.56 h 8 v 20.6 l -2.56,0.48 v -16.27999 h -4.27999 v 17.03999 l -2.08,0.36 0.84,4.84001 c 5.12,-1.16 12.19999,-2.68 18.76,-4.20001 l -0.4,-4.36 c -1.88,0.4 -3.76,0.8 -5.64,1.20001 v -8.20001 h 4.56 v -0.36 c 0.88,0.76 1.72,1.6 2.2,2.16 0.48,-0.6 0.96,-1.28 1.4,-1.96 0.88,3.24 1.92,6.16 3.27999,8.8 -2,2.6 -4.68,4.68 -8.16,6.2 0.88,1 2.28,3.12 2.68,4.2 3.36,-1.64 6,-3.72 8.16,-6.2 1.92001,2.48 4.24,4.56 7.16001,6.08 0.68,-1.28 2.16,-3.12 3.24,-4.08 -3.04001,-1.4 -5.52,-3.52 -7.48,-6.16 2.27999,-4.16 3.72,-9.24 4.63999,-15.4 z"
       style="font-weight:bold;font-size:40px;line-height:1.25;font-family:Montserrat;-inkscape-font-specification:Montserrat;fill:#f32778;fill-opacity:1"
       id="path60305" />
    <path
       d="m -143.48569,982.47294 h -7.12 v 3 h 7.12 v 1.6 h -9.64 v 3.4 h 23.84 v -3.4 h -9.64 v -1.6 h 7.6 v -3 h -7.6 v -1.48 h 8.84 v -3.16 h -4.32 c 0.56,-0.79999 1.2,-1.72 1.88,-2.67999 l -4.16,-1 c -0.36,1.03999 -1.12,2.55999 -1.8,3.67999 h -4.96 c -0.4,-1.08 -1.4,-2.64 -2.24,-3.67999 l -3.36,1.16 c 0.52,0.75999 1.08,1.67999 1.52,2.51999 h -4.36 v 3.16 h 8.4 z m -10.64,-7.08 h -10.24 v 3.6 h 10.24 z m 1.08,5.36 h -13.2 v 3.76 h 13.2 z m -4.84,20.27996 v 4.6 h -3.16 v -4.6 z m 3.8,-3.71996 h -10.64 v 13.63996 h 3.68 v -1.6 h 6.96 z m -10.52,-1.96 h 10.6 v -3.56 h -10.6 z m 0,-5.4 h 10.6 v -3.64 h -10.6 z m 20.52,6.68 v -2.28 c 1.2,-0.24 2.36,-0.48 3.4,-0.76 0.04,1.04 0.08,2.08 0.16,3.04 z m 10.2,3.91996 c -0.52,0.88 -1.2,1.72 -1.92,2.48 -0.2,-0.88 -0.4,-1.84 -0.56,-2.96 h 7.04 v -3.43996 h -2.84 l 2.6,-1.88 c -0.8,-1.12 -2.6,-2.68 -4.08,-3.68 l -2.72,1.88 c 1.4,1 3,2.52 3.8,3.68 h -4.12 c -0.08,-1.6 -0.12,-3.4 -0.12,-5.32 h -3.96 c 0,0.76 0.04,1.52 0.08,2.28 l -2.44,-2.8 c -2.36,0.76 -6.36,1.36 -9.72,1.68 0.36,0.76 0.8,1.96 0.92,2.76 1.2,-0.08 2.44,-0.16 3.72,-0.32 v 1.72 h -5 v 3.43996 h 5 v 1.92 c -1.96,0.16 -3.72,0.32 -5.24,0.44 l 0.44,3.64 c 1.44,-0.16 3.08,-0.32 4.8,-0.56 v 2.08 c 0,0.44 -0.16,0.56 -0.64,0.6 -0.44,0 -1.96,0 -3.32,-0.04 0.48,0.96 1,2.36 1.16,3.36 2.36,0 4.08,-0.04 5.36,-0.56 1.2,-0.56 1.56,-1.4 1.56,-3.24 v -2.68 l 3.28,-0.4 -0.08,-3.36 -3.2,0.32 v -1.52 h 3.88 c 0.28,2.16 0.68,4.08 1.2,5.72 -1.6,1.12 -3.32,2.08 -5,2.76 0.76,0.64 1.8,1.76 2.28,2.48 1.36,-0.6 2.72,-1.32 4.08,-2.2 1.16,1.8 2.68,2.84 4.72,2.84 2.48,0 3.72,-1.4 4.28,-5.24 -0.84,-0.36 -1.92,-0.92 -2.72,-1.64 -0.12,2.16 -0.52,3.2 -1.12,3.2 -0.76,0 -1.48,-0.52 -2.08,-1.52 1.52,-1.32 2.84,-2.8 3.88,-4.36 z"
       style="font-weight:bold;font-size:40px;line-height:1.25;font-family:Montserrat;-inkscape-font-specification:Montserrat;fill:#f32778;fill-opacity:1"
       id="path60307" />
    <path
       d="m -187.03328,926.0559 v -3.96 h 8.72 c 0.12,1.36 0.28,2.68 0.48,3.96 z m 19.2,-12.68 v 4.32 h -19.2 v -4.32 z m 7.68,17.12 v -4.44 h -12.72 c -0.24,-1.28 -0.4,-2.6 -0.52,-3.96 h 10.4 v -13.16 h -28.92 v 29.48 c -1.52,0.2 -2.96,0.32 -4.2,0.44 l 0.96,4.96 c 5.2,-0.68 12.28,-1.6 18.88,-2.52 l -0.16,-4.72 c -3.52,0.44 -7.2,0.88 -10.6,1.32 v -7.4 h 10.16 c 2.2,8.08 6.44,14 11.64,14.04 3.6,0 5.28,-1.48 5.96,-8.2 -1.24,-0.36 -3.04,-1.32 -4.12,-2.28 -0.2,4.04 -0.64,5.72 -1.56,5.72 -2.32,0.04 -5.08,-3.84 -6.8,-9.28 z"
       style="font-weight:bold;font-size:40px;line-height:1.25;font-family:Montserrat;-inkscape-font-specification:Montserrat;fill:#f32778;fill-opacity:1"
       id="path60309" />
    <path
       d="m -179.37328,1061.531 v -2 h 4.04 v 2 z m 0,-7 h 4.04 v 1.92 h -4.04 z m 12.84,0 v 1.92 h -4.16 v -1.92 z m 0,7 h -4.16 v -2 h 4.16 z m -8.8,12.6401 h 4.64 v -3.7201 h 10.96 v -3.88 h -10.96 v -1.76 h 8.72 v -13.6 h -8.72 v -1.64 h 10.47999 v -3.84 h -10.47999 v -2.8399 h -4.64 v 2.8399 h -9.96 v 3.84 h 9.96 v 1.64 h -8.36 v 13.6 h 8.36 v 1.76 h -10.44 v 3.88 h 10.44 z m -10.64,-23.9601 c -1.28,-1.92 -4.04,-4.5599 -6.28,-6.3599 l -3.64,2.72 c 2.24,1.92 4.88,4.68 6,6.64 z m -1.08,8.1601 h -9 v 4.3599 h 4.48 v 8.72 c -1.6,1.36 -3.4,2.6801 -4.96,3.6801 l 2.24,4.72 c 2.04,-1.72 3.68,-3.24 5.28,-4.8 2.4,3.08 5.6,4.24 10.36,4.44 4.88,0.2 13.36,0.12 18.32,-0.12 0.24,-1.32 0.92,-3.52 1.48,-4.64 -5.52,0.44 -14.96,0.56 -19.76,0.36 -4.08,-0.16 -6.88,-1.28 -8.44,-3.96 z"
       style="font-weight:bold;font-size:40px;line-height:1.25;font-family:Montserrat;-inkscape-font-specification:Montserrat;fill:#f32778;fill-opacity:1"
       id="path60311" />
    <path
       d="m -82.658701,991.01294 h 3.2 c 0.76,2.4 1.68,4.56 2.88,6.44 -2.04,0.4 -4.12,0.84 -6.08,1.24 z m 10.04,-11.72 v 2.08 h -10.04 v -2.08 z m 3.16,11.72 c -1.16,1.04 -2.68,2.2 -4.04,3.12 -0.64,-0.96 -1.2,-2 -1.64,-3.12 z m -13.2,-4 v -2.2 h 10.04 v 2.2 z m -6.32,17.51996 c 3.72,-0.88 8.44,-1.96 12.92,-3.04 l -0.32,-3.71996 c 2.08,3.19996 4.96,5.55996 8.92,6.99996 0.64,-1.28 2,-3.12 3,-4.08 -2.72,-0.75996 -4.92,-2.03996 -6.68,-3.71996 1.92,-1.04 4.16,-2.44 6.2,-3.76 l -3.04,-2.52 v -15.4 h -19.28 v 24.28 c -0.88,0.16 -1.72,0.32 -2.48,0.43996 z m -1.6,-23.55996 c -1.4,-1.88 -4.320004,-4.36 -6.680004,-6.04 l -3.519995,2.88 c 2.359995,1.76 5.199995,4.4 6.399995,6.32 z m -1.16,8.48 h -9.239999 v 4.36 h 4.599995 v 8.43996 c -1.76,1.36 -3.760005,2.68 -5.480005,3.68 l 2.320005,4.96 c 2.2,-1.68 3.96,-3.24 5.720004,-4.8 2.6,3.12 5.88,4.24 10.8,4.44 4.76,0.2 12.8,0.12 17.6,-0.12 0.24,-1.36 0.96,-3.68 1.48,-4.8 -5.32,0.4 -14.32,0.52 -19,0.32 -4.16,-0.16 -7.16,-1.24 -8.8,-3.92 z"
       style="font-weight:bold;font-size:40px;line-height:1.25;font-family:Montserrat;-inkscape-font-specification:Montserrat;fill:#f32778;fill-opacity:1"
       id="path60313" />
    <path
       d="m -145.96569,845.55894 h -7.36 v -3.56 h -4.6 v 3.56 h -7.32 v 4.12 h 19.28 z m -5.96,22.15999 v 5.28 h -7.48 v -5.28 z m -11.88,11.4 h 4.4 v -2 h 7.48 v 1.84 h 4.64 v -15.36 h -16.52 z m 11.52,-29.32 c -0.32,1.84 -1.04,4.36 -1.64,6.04 l 3.24,0.84 h -10.48 l 3.76,-0.88 c -0.16,-1.64 -0.8,-4.04 -1.64,-5.84 l -3.88,0.8 c 0.68,1.84 1.28,4.32 1.4,5.92 h -4.56 v 4.32 h 20.56 v -4.32 h -4.64 c 0.68,-1.56 1.52,-3.72 2.36,-5.92 z m 20,-5.96 -0.72,0.16 h -11.28 v 35.08 h 4.64 v -30.6 h 4.84 c -0.96,3.04 -2.24,7.12 -3.4,9.96 3.2,3.12 4.08,6 4.08,8.16 0,1.36 -0.24,2.28 -0.96,2.72 -0.4,0.2 -0.92,0.32 -1.48,0.32 -0.6,0.04 -1.36,0 -2.24,-0.04 0.76,1.32001 1.16,3.36 1.16,4.64 1.12,0.04 2.28,0.04 3.2,-0.08 1,-0.16 1.96,-0.48 2.72,-1 1.52,-1.08 2.16,-3.04 2.16,-5.96 0,-2.64 -0.6,-5.76 -4,-9.36 1.6,-3.4 3.36,-8 4.76,-11.84 z"
       style="font-weight:bold;font-size:40px;line-height:1.25;font-family:Montserrat;-inkscape-font-specification:Montserrat;fill:#f32778;fill-opacity:1"
       id="path60315" />
    <path
       d="m -204.11268,999.39296 v 6.52004 h -15.8 v -6.52004 z m -20.48,12.19994 h 4.68 v -1.48 h 15.8 v 1.48 h 4.88 v -16.39994 h -25.36 z m 4.44,-24.55994 c 3.28,-2.60001 6.08,-5.44001 7.96,-8.12001 1.92,2.64 4.88,5.52 8.2,8.12001 z m 5.28,-12.8 c -3,4.88 -9.4,10.92 -16.28,14.24 1.04,1 2.36,2.72 3,3.88 2.12,-1.16 4.24,-2.48 6.2,-3.92 v 2.8 h 19.92 v -2.76 c 2,1.44 4.08,2.76 6.12,3.8 0.84,-1.48001 1.92,-3.04 3.08,-4.28 -6.36,-2.56 -12.84,-7.64 -17.12,-13.76 z"
       style="font-weight:bold;font-size:40px;line-height:1.25;font-family:Montserrat;-inkscape-font-specification:Montserrat;fill:#f32778;fill-opacity:1"
       id="path60317" />
    <path
       d="m -64.6587,851.61893 v -4.64 h -15.88 v -5.2 h -5.08 v 5.2 h -15.52001 v 4.64 h 15.56001 v 4.2 h -11.800005 v 18.68 h 4.800005 v -14.04 h 7 v 18.88 h 4.96 v -18.88 h 7.64 v 8.8 c 0,0.44 -0.2,0.64 -0.84,0.64 -0.64,0 -3,0 -5,-0.08 0.68,1.28 1.4,3.32 1.6,4.68 3.12,0 5.4,-0.08 7.08,-0.8 1.64,-0.72 2.12,-2.08 2.12,-4.36 v -13.52 h -12.6 v -4.2 z"
       style="font-weight:bold;font-size:40px;line-height:1.25;font-family:Montserrat;-inkscape-font-specification:Montserrat;fill:#f32778;fill-opacity:1"
       id="path60319" />
    <path
       d="m -200.29268,853.11894 v 14.44 c -2.2,-2.76 -6.48,-6.84 -9.88,-9.92 0.32,-1.56 0.48,-3.04 0.56,-4.52 z m -23.36,0 h 9.12 c -0.2,4.92 -1.56,10.84 -9.12,14.76 z m 28.08,-4.64 h -14 v -6.64 h -4.92 v 6.64 h -13.92 v 30.8 h 4.76 v -11.28 c 1.16,0.88 2.64,2.56 3.32,3.52 4.36,-2.56 7.04,-5.84 8.6,-9.20001 2.92,2.92 5.92,6.16 7.52,8.36001 l 3.92,-3.04 v 6 c 0,0.72 -0.24,0.92 -1,0.96 -0.76,0 -3.44,0.04 -5.8,-0.08 0.68,1.24 1.4,3.36 1.56,4.72 3.56,0 6.12,-0.08 7.76,-0.84 1.68,-0.76 2.2,-2.08001 2.2,-4.64 z"
       style="font-weight:bold;font-size:40px;line-height:1.25;font-family:Montserrat;-inkscape-font-specification:Montserrat;fill:#f32778;fill-opacity:1"
       id="path60321" />
    <path
       d="m -283.45967,986.93294 h 5 v -4.48 h -5 v -8.2 h -4.56 v 8.2 h -5.72 v 4.48 h 5.16 c -1.27999,4.76 -3.6,10.2 -6.2,13.35996 0.76,1.2 1.80001,3.12 2.24,4.48 1.72001,-2.2 3.24001,-5.47996 4.52,-8.99996 v 15.79996 h 4.56 v -16.63996 c 1.12,1.8 2.28,3.68 2.88,4.96 l 2.72001,-3.88 c -0.80001,-1 -4.2,-5.12 -5.60001,-6.64 z m 10.96,17.71996 v -5.11996 h 9.4 v 5.11996 z m 9.4,-14.51996 v 5.08 h -9.4 v -5.08 z m 0,-9.24 v 4.96 h -9.4 v -4.96 z m -13.96,-4.48 v 34.83996 h 4.56 v -2.28 h 9.4 v 2.04 h 4.80001 v -34.59996 z"
       style="font-weight:bold;font-size:40px;line-height:1.25;font-family:Montserrat;-inkscape-font-specification:Montserrat;fill:#f32778;fill-opacity:1"
       id="path60323" />
    <path
       d="m -50.279313,926.8959 v -2 h 4.04 v 2 z m 0,-7 h 4.04 v 1.92 h -4.04 z m 12.84,0 v 1.92 h -4.16 v -1.92 z m 0,7 h -4.16 v -2 h 4.16 z m -8.8,12.64 h 4.64 v -3.72 h 10.96 v -3.88 h -10.96 v -1.76 h 8.72 v -13.6 h -8.72 v -1.64 h 10.48 v -3.84 h -10.48 v -2.84 h -4.64 v 2.84 h -9.96 v 3.84 h 9.96 v 1.64 h -8.36 v 13.6 h 8.36 v 1.76 h -10.44 v 3.88 h 10.44 z m -10.64,-23.96 c -1.28,-1.92 -4.04,-4.56 -6.28,-6.36 l -3.64,2.72 c 2.24,1.92 4.88,4.68 6,6.64 z m -1.08,8.16 h -9 v 4.36 h 4.48 v 8.72 c -1.6,1.36 -3.4,2.68 -4.96,3.68 l 2.24,4.72 c 2.04,-1.72 3.68,-3.24 5.28,-4.8 2.4,3.08 5.6,4.24 10.36,4.44 4.88,0.2 13.36,0.12 18.32,-0.12 0.24,-1.32 0.92,-3.52 1.48,-4.64 -5.52,0.44 -14.96,0.56 -19.76,0.36 -4.08,-0.16 -6.88,-1.28 -8.44,-3.96 z"
       style="font-weight:bold;font-size:40px;line-height:1.25;font-family:Montserrat;-inkscape-font-specification:Montserrat;fill:#f32778;fill-opacity:1"
       id="path61877" />
    <path
       d="m -30.35931,1052.4311 v -4.6401 h -15.880001 v -5.2 h -5.079999 v 5.2 h -15.520005 v 4.6401 h 15.560005 v 4.2 h -11.800005 v 18.68 h 4.800005 v -14.04 h 7 v 18.88 h 4.96 v -18.88 h 7.64 v 8.8 c 0,0.44 -0.2,0.64 -0.84,0.64 -0.64,0 -3,0 -5,-0.08 0.68,1.28 1.4,3.32 1.6,4.68 3.12,0 5.4,-0.08 7.08,-0.8 1.64,-0.72 2.12,-2.08 2.12,-4.36 v -13.52 h -12.6 v -4.2 z"
       style="font-weight:bold;font-size:40px;line-height:1.25;font-family:Montserrat;-inkscape-font-specification:Montserrat;fill:#f32778;fill-opacity:1"
       id="path61879" />
    <path
       d="m -299.96359,1067.8511 v 6.52 h -15.8 v -6.52 z m -20.48001,12.1999 h 4.68001 v -1.48 h 15.8 v 1.48 h 4.88 v -16.3999 h -25.36001 z m 4.44,-24.5599 c 3.28,-2.6 6.08,-5.44 7.96,-8.12 1.92,2.64 4.88,5.52 8.2,8.12 z m 5.28,-12.8 c -3,4.88 -9.4,10.92 -16.28,14.24 1.04,1 2.36,2.72 3,3.88 2.12,-1.16 4.24,-2.48 6.2,-3.92 v 2.8 h 19.92 v -2.76 c 2,1.44 4.08,2.76 6.12,3.8 0.84,-1.48 1.92,-3.04 3.08,-4.28 -6.36,-2.56 -12.84,-7.64 -17.12,-13.76 z"
       style="font-weight:bold;font-size:40px;line-height:1.25;font-family:Montserrat;-inkscape-font-specification:Montserrat;fill:#f32778;fill-opacity:1"
       id="path61881" />
    <path
       d="m -179.37328,1193.8849 v -2 h 4.04 v 2 z m 0,-7 h 4.04 v 1.9201 h -4.04 z m 12.84,0 v 1.9201 h -4.16 v -1.9201 z m 0,7 h -4.16 v -2 h 4.16 z m -8.8,12.6402 h 4.64 v -3.7201 h 10.96 v -3.8801 h -10.96 v -1.76 h 8.72 v -13.5999 h -8.72 v -1.6401 h 10.47999 v -3.8399 h -10.47999 v -2.8399 h -4.64 v 2.8399 h -9.96 v 3.8399 h 9.96 v 1.6401 h -8.36 v 13.5999 h 8.36 v 1.76 h -10.44 v 3.8801 h 10.44 z m -10.64,-23.9601 c -1.28,-1.9201 -4.04,-4.5599 -6.28,-6.3599 l -3.64,2.72 c 2.24,1.92 4.88,4.68 6,6.64 z m -1.08,8.1601 h -9 v 4.3599 h 4.48 v 8.72 c -1.6,1.3599 -3.4,2.6801 -4.96,3.6801 l 2.24,4.72 c 2.04,-1.72 3.68,-3.24 5.28,-4.8 2.4,3.08 5.6,4.24 10.36,4.44 4.88,0.2 13.36,0.12 18.32,-0.12 0.24,-1.32 0.92,-3.52 1.48,-4.64 -5.52,0.44 -14.96,0.56 -19.76,0.36 -4.08,-0.16 -6.88,-1.28 -8.44,-3.96 z"
       style="font-weight:bold;font-size:40px;line-height:1.25;font-family:Montserrat;-inkscape-font-specification:Montserrat;fill:#f32778;fill-opacity:1"
       id="path61982" />
    <path
       d="m -30.35931,1184.7851 v -4.6401 h -15.88 v -5.2 h -5.08 v 5.2 h -15.52 v 4.6401 h 15.56 v 4.2 h -11.8 v 18.68 h 4.8 v -14.04 h 7 v 18.88 h 4.96 v -18.88 h 7.64 v 8.8 c 0,0.44 -0.2,0.64 -0.84,0.64 -0.64,0 -3,0 -5,-0.08 0.68,1.28 1.4,3.32 1.6,4.68 3.12,0 5.4,-0.08 7.08,-0.8 1.64,-0.72 2.12,-2.08 2.12,-4.36 v -13.52 h -12.6 v -4.2 z"
       style="font-weight:bold;font-size:40px;line-height:1.25;font-family:Montserrat;-inkscape-font-specification:Montserrat;fill:#f32778;fill-opacity:1"
       id="path61984" />
    <path
       d="m -299.96359,1200.2051 v 6.52 h -15.8 v -6.52 z m -20.48001,12.1999 h 4.68001 v -1.48 h 15.8 v 1.48 h 4.88 v -16.3999 h -25.36001 z m 4.44,-24.5599 c 3.28,-2.6 6.08,-5.44 7.96,-8.12 1.92,2.64 4.88,5.52 8.2,8.12 z m 5.28,-12.8 c -3,4.88 -9.4,10.92 -16.28,14.24 1.04,1 2.36,2.72 3,3.88 2.12,-1.16 4.24,-2.48 6.2,-3.92 v 2.8 h 19.92 v -2.76 c 2,1.44 4.08,2.76 6.12,3.8 0.84,-1.48 1.92,-3.04 3.08,-4.28 -6.36,-2.56 -12.84,-7.64 -17.12,-13.76 z"
       style="font-weight:bold;font-size:40px;line-height:1.25;font-family:Montserrat;-inkscape-font-specification:Montserrat;fill:#f32778;fill-opacity:1"
       id="path61986" />
    <path
       d="m -272.57967,1117.108 h -7.12 v 3 h 7.12 v 1.6 h -9.64 v 3.4 h 23.84 v -3.4 h -9.64 v -1.6 h 7.60001 v -3 h -7.60001 v -1.48 h 8.84 v -3.1599 h -4.32 c 0.56,-0.8001 1.2,-1.7201 1.88,-2.6801 l -4.16,-1 c -0.36,1.04 -1.12,2.56 -1.8,3.6801 h -4.96 c -0.4,-1.08 -1.4,-2.6401 -2.24,-3.6801 l -3.36,1.1601 c 0.52,0.7599 1.08,1.6799 1.52,2.52 h -4.36 v 3.1599 h 8.4 z m -10.64,-7.08 h -10.24 v 3.6 h 10.24 z m 1.08,5.3601 h -13.2 v 3.7599 h 13.2 z m -4.83999,20.2799 v 4.6 h -3.16001 v -4.6 z m 3.8,-3.7199 h -10.64 v 13.6399 h 3.68 v -1.5999 h 6.96 z m -10.52,-1.96 h 10.6 v -3.56 h -10.6 z m 0,-5.4001 h 10.6 v -3.64 h -10.6 z m 20.52,6.68 v -2.2799 c 1.2,-0.2401 2.36,-0.48 3.39999,-0.7601 0.04,1.04 0.08,2.08 0.16001,3.04 z m 10.2,3.92 c -0.52,0.88 -1.2,1.7201 -1.92001,2.48 -0.2,-0.88 -0.39999,-1.8399 -0.56,-2.96 h 7.04001 v -3.44 h -2.84 l 2.6,-1.88 c -0.8,-1.12 -2.6,-2.68 -4.08,-3.68 l -2.72,1.88 c 1.4,1 3,2.52 3.8,3.68 h -4.12 c -0.08,-1.6 -0.12,-3.4 -0.12,-5.3199 h -3.96 c 0,0.7599 0.04,1.52 0.08,2.2799 l -2.44,-2.7999 c -2.36,0.7599 -6.36,1.3599 -9.72,1.6799 0.36,0.7601 0.8,1.96 0.92,2.7601 1.2,-0.08 2.44,-0.1601 3.72,-0.3201 v 1.7201 h -5 v 3.44 h 5 v 1.92 c -1.96,0.16 -3.72,0.32 -5.24,0.44 l 0.44,3.64 c 1.44,-0.16 3.08,-0.32 4.8,-0.56 v 2.08 c 0,0.44 -0.16,0.56 -0.64,0.6 -0.44,0 -1.96,0 -3.32,-0.04 0.48,0.96 1,2.36 1.16,3.36 2.36,0 4.08,-0.04 5.36,-0.56 1.2,-0.56 1.56,-1.4 1.56,-3.24 v -2.68 l 3.28,-0.4 -0.08,-3.36 -3.2,0.32 v -1.52 h 3.88 c 0.28,2.16 0.68,4.08 1.2,5.72 -1.6,1.1199 -3.32,2.08 -5,2.76 0.76,0.64 1.8,1.76 2.28,2.48 1.36,-0.6 2.72,-1.32 4.08,-2.2 1.16,1.8 2.68,2.84 4.72,2.84 2.48,0 3.72,-1.4 4.28,-5.2401 -0.84,-0.3599 -1.92,-0.92 -2.72,-1.6399 -0.12,2.1599 -0.52,3.1999 -1.12,3.1999 -0.76,0 -1.48,-0.52 -2.08,-1.52 1.52,-1.3199 2.84,-2.7999 3.88,-4.3599 z"
       style="font-weight:bold;font-size:40px;line-height:1.25;font-family:Montserrat;-inkscape-font-specification:Montserrat;fill:#f32778;fill-opacity:1"
       id="path61988" />
    <path
       d="m -154.36569,1121.568 h 5 v -4.48 h -5 v -8.1999 h -4.56 v 8.1999 h -5.72 v 4.48 h 5.16 c -1.28,4.7601 -3.6,10.2001 -6.2,13.3601 0.76,1.1999 1.8,3.1199 2.24,4.48 1.72,-2.2001 3.24,-5.48 4.52,-9 v 15.7999 h 4.56 v -16.64 c 1.12,1.8 2.28,3.68 2.88,4.96 l 2.72,-3.88 c -0.8,-1 -4.2,-5.12 -5.6,-6.64 z m 10.96,17.7201 v -5.12 h 9.4 v 5.12 z m 9.4,-14.52 v 5.08 h -9.4 v -5.08 z m 0,-9.2401 v 4.9601 h -9.4 v -4.9601 z m -13.96,-4.48 v 34.8401 h 4.56 v -2.2801 h 9.4 v 2.04 h 4.8 v -34.6 z"
       style="font-weight:bold;font-size:40px;line-height:1.25;font-family:Montserrat;-inkscape-font-specification:Montserrat;fill:#f32778;fill-opacity:1"
       id="path61990" />
    <path
       d="m -210.51268,1112.548 h -7.36 v -3.5599 h -4.6 v 3.5599 h -7.32 v 4.12 h 19.28 z m -5.96,22.16 v 5.2801 h -7.48 v -5.2801 z m -11.88,11.4 h 4.4 v -2 h 7.48 v 1.8401 h 4.64 v -15.3601 h -16.52 z m 11.52,-29.3199 c -0.32,1.8399 -1.04,4.3599 -1.64,6.04 l 3.24,0.8399 h -10.48 l 3.76,-0.88 c -0.16,-1.64 -0.8,-4.04 -1.64,-5.8399 l -3.88,0.7999 c 0.68,1.84 1.28,4.32 1.4,5.92 h -4.56 v 4.3201 h 20.56 v -4.3201 h -4.64 c 0.68,-1.56 1.52,-3.7199 2.36,-5.92 z m 20,-5.96 -0.72,0.16 h -11.28 v 35.0799 h 4.64 v -30.5999 h 4.84 c -0.96,3.04 -2.24,7.1199 -3.4,9.96 3.2,3.1199 4.08,6 4.08,8.16 0,1.36 -0.24,2.28 -0.96,2.72 -0.4,0.2 -0.92,0.32 -1.48,0.32 -0.6,0.04 -1.36,0 -2.24,-0.04 0.76,1.32 1.16,3.36 1.16,4.64 1.12,0.04 2.28,0.04 3.2,-0.08 1,-0.16 1.96,-0.48 2.72,-1 1.52,-1.08 2.16,-3.04 2.16,-5.96 0,-2.64 -0.6,-5.76 -4,-9.36 1.6,-3.4 3.36,-8 4.76,-11.84 z"
       style="font-weight:bold;font-size:40px;line-height:1.25;font-family:Montserrat;-inkscape-font-specification:Montserrat;fill:#f32778;fill-opacity:1"
       id="path61992" />
    <path
       d="m -50.279313,794.54192 v -2 h 4.04 v 2 z m 0,-7 h 4.04 v 1.92 h -4.04 z m 12.84,0 v 1.92 h -4.16 v -1.92 z m 0,7 h -4.16 v -2 h 4.16 z m -8.8,12.64 h 4.64 v -3.72 h 10.96 v -3.88 h -10.96 v -1.76 h 8.72 v -13.6 h -8.72 v -1.64 h 10.48 v -3.84 h -10.48 v -2.84 h -4.64 v 2.84 h -9.96 v 3.84 h 9.96 v 1.64 h -8.36 v 13.6 h 8.36 v 1.76 h -10.44 v 3.88 h 10.44 z m -10.64,-23.96 c -1.28,-1.92 -4.04,-4.56 -6.28,-6.36 l -3.64,2.72 c 2.24,1.92 4.88,4.68 6,6.64 z m -1.08,8.16 h -9 v 4.36 h 4.48 v 8.72 c -1.6,1.36 -3.4,2.68 -4.96,3.68 l 2.24,4.72 c 2.04,-1.72 3.68,-3.24 5.28,-4.8 2.4,3.08 5.6,4.24 10.36,4.44 4.88,0.2 13.36,0.12 18.32,-0.12 0.24,-1.32 0.92,-3.52 1.48,-4.64 -5.52,0.44 -14.96,0.56 -19.76,0.36 -4.08,-0.16 -6.88,-1.28 -8.44,-3.96 z"
       style="font-weight:bold;font-size:40px;line-height:1.25;font-family:Montserrat;-inkscape-font-specification:Montserrat;fill:#f32778;fill-opacity:1"
       id="path61994" />
    <path
       d="m -71.198704,1120.1081 v 14.44 c -2.2,-2.76 -6.48,-6.84 -9.88,-9.92 0.32,-1.56 0.48,-3.04 0.56,-4.52 z m -23.36,0 h 9.12 c -0.2,4.92 -1.56,10.84 -9.12,14.76 z m 28.08,-4.64 h -14 v -6.6401 h -4.92 v 6.6401 h -13.919998 v 30.8 h 4.759998 v -11.28 c 1.16,0.88 2.64,2.5599 3.32,3.52 4.36,-2.56 7.04,-5.84 8.6,-9.2001 2.92,2.9201 5.92,6.1601 7.52,8.36 l 3.92,-3.04 v 6 c 0,0.72 -0.24,0.92 -1,0.96 -0.76,0 -3.44,0.04 -5.8,-0.08 0.68,1.24 1.4,3.3599 1.56,4.72 3.56,0 6.12,-0.08 7.76,-0.84 1.68,-0.76 2.2,-2.08 2.2,-4.64 z"
       style="font-weight:bold;font-size:40px;line-height:1.25;font-family:Montserrat;-inkscape-font-specification:Montserrat;fill:#f32778;fill-opacity:1"
       id="path61996" />
    <path
       d="m -187.03328,793.70191 v -3.96 h 8.72 c 0.12,1.36 0.28,2.68 0.48,3.96 z m 19.2,-12.68 v 4.32 h -19.2 v -4.32 z m 7.68,17.12 v -4.44 h -12.72 c -0.24,-1.28 -0.4,-2.6 -0.52,-3.96 h 10.4 v -13.16 h -28.92 v 29.48 c -1.52,0.2 -2.96,0.32 -4.2,0.44 l 0.96,4.96 c 5.2,-0.67999 12.28,-1.6 18.88,-2.52 l -0.16,-4.72 c -3.52,0.44001 -7.2,0.88 -10.6,1.32001 v -7.4 h 10.16 c 2.2,8.08 6.44,14 11.64,14.03999 3.6,0 5.28,-1.48 5.96,-8.2 -1.24,-0.36 -3.04,-1.32 -4.12,-2.28 -0.2,4.04 -0.64,5.72001 -1.56,5.72001 -2.32,0.04 -5.08,-3.84001 -6.8,-9.28 z"
       style="font-weight:bold;font-size:40px;line-height:1.25;font-family:Montserrat;-inkscape-font-specification:Montserrat;fill:#f32778;fill-opacity:1"
       id="path61998" />
    <path
       d="m -12.471718,985.87295 h 5.5200002 c -0.52,4.08 -1.36,7.56 -2.68,10.6 -1.3200002,-3.04 -2.3600002,-6.44 -3.0400002,-10.08 z m 12.79999985,0 v -4.4 H -11.071718 c 0.6,-2.12 1.1200002,-4.32 1.4800002,-6.56 l -4.7200002,-0.72 c -0.88,5.64 -2.48,11.04 -4.96,14.92 v -1 h -4.56 v -7 h 5.68 v -4.56 h -18.32 v 4.56 h 8 v 20.59995 l -2.56,0.48 v -16.27995 h -4.28 v 17.03995 l -2.08,0.36 0.84,4.84 c 5.12,-1.16 12.2,-2.68 18.76,-4.2 l -0.4,-4.35995 c -1.88,0.4 -3.76,0.80005 -5.64,1.20005 v -8.20005 h 4.56 v -0.36 c 0.88,0.76 1.72,1.6 2.2,2.16 0.48,-0.6 0.96,-1.28 1.4,-1.96 0.88,3.24 1.92,6.16 3.28,8.79995 -2,2.6 -4.68,4.68 -8.16,6.2 0.88,1 2.28,3.12 2.68,4.2 3.36,-1.64 6,-3.72 8.1600002,-6.2 1.92,2.48 4.24,4.56 7.16,6.08 0.68,-1.28 2.15999995,-3.12 3.23999965,-4.08 -3.03999965,-1.4 -5.51999965,-3.52 -7.47999965,-6.16 2.28,-4.15995 3.72,-9.23995 4.64,-15.39995 z"
       style="font-weight:bold;font-size:40px;line-height:1.25;font-family:Montserrat;-inkscape-font-specification:Montserrat;fill:#f32778;fill-opacity:1"
       id="path62000" />
    <path
       d="m -12.471718,1120.5081 h 5.5200004 c -0.52,4.08 -1.36,7.56 -2.68,10.6 -1.3200004,-3.04 -2.3600004,-6.44 -3.0400004,-10.08 z m 12.7999996,0 v -4.4 H -11.071718 c 0.6,-2.12 1.1200004,-4.32 1.4800004,-6.56 l -4.7200004,-0.72 c -0.88,5.64 -2.48,11.04 -4.96,14.92 v -1 h -4.56 v -7 h 5.68 v -4.56 h -18.32 v 4.56 h 8 v 20.5999 l -2.56,0.48 v -16.2799 h -4.28 v 17.0399 l -2.08,0.36 0.84,4.84 c 5.12,-1.16 12.2,-2.68 18.76,-4.2 l -0.4,-4.3599 c -1.88,0.4 -3.76,0.8 -5.64,1.2 v -8.2 h 4.56 v -0.36 c 0.88,0.76 1.72,1.6 2.2,2.16 0.48,-0.6 0.96,-1.28 1.4,-1.96 0.88,3.24 1.92,6.16 3.28,8.8 -2,2.5999 -4.68,4.6799 -8.16,6.1999 0.88,1 2.28,3.12 2.68,4.2 3.36,-1.64 6,-3.72 8.1600004,-6.2 1.92,2.48 4.2399995,4.56 7.1599995,6.08 0.68,-1.28 2.16,-3.12 3.2399997,-4.08 -3.0399997,-1.4 -5.5199997,-3.52 -7.4799992,-6.1599 2.2799995,-4.16 3.7199995,-9.24 4.6399995,-15.4 z"
       style="font-weight:bold;font-size:40px;line-height:1.25;font-family:Montserrat;-inkscape-font-specification:Montserrat;fill:#f32778;fill-opacity:1"
       id="path62002" />
    <path
       d="m -25.271718,854.57894 h 5 v -4.48 h -5 v -8.2 h -4.56 v 8.2 h -5.72 v 4.48 h 5.16 c -1.28,4.76 -3.6,10.2 -6.2,13.36 0.76,1.2 1.8,3.12 2.24,4.48 1.72,-2.2 3.24,-5.48 4.52,-9 v 15.79999 h 4.56 v -16.63999 c 1.12,1.8 2.28,3.68 2.88,4.96 l 2.72,-3.88 c -0.8,-1 -4.2,-5.12 -5.6,-6.64 z m 10.96,17.72 v -5.12 h 9.4 v 5.12 z m 9.4,-14.52 v 5.08 h -9.4 v -5.08 z m 0,-9.24 v 4.96 h -9.4 v -4.96 z m -13.96,-4.48 v 34.83999 h 4.56 v -2.28 h 9.4 v 2.04 h 4.80000005 v -34.59999 z"
       style="font-weight:bold;font-size:40px;line-height:1.25;font-family:Montserrat;-inkscape-font-specification:Montserrat;fill:#f32778;fill-opacity:1"
       id="path62004" />
    <path
       d="m -307.6036,792.48192 h 3.2 c 0.76,2.4 1.68,4.56 2.88,6.44 -2.04,0.4 -4.12,0.84 -6.08,1.24 z m 10.04,-11.72 v 2.08 h -10.04 v -2.08 z m 3.16,11.72 c -1.16,1.04 -2.68,2.2 -4.04,3.12 -0.64,-0.96 -1.2,-2 -1.64,-3.12 z m -13.2,-4 v -2.2 h 10.04 v 2.2 z m -6.32,17.52 c 3.72,-0.88 8.44,-1.96 12.92,-3.04 l -0.32,-3.72 c 2.08,3.2 4.96,5.56 8.92,7 0.64,-1.28 2,-3.12 3,-4.08 -2.72,-0.76 -4.92,-2.04 -6.68,-3.72 1.92,-1.04 4.16,-2.44 6.2,-3.76 l -3.04,-2.52 v -15.4 h -19.28 v 24.28 c -0.88,0.16 -1.72,0.32 -2.48,0.44 z m -1.6,-23.56 c -1.4,-1.88 -4.32,-4.36 -6.68,-6.04 l -3.52,2.88 c 2.36,1.76 5.2,4.4 6.4,6.32 z m -1.16,8.48 h -9.24 v 4.36 h 4.6 v 8.44 c -1.76,1.36 -3.76,2.68 -5.48,3.67998 l 2.32,4.96 c 2.2,-1.67999 3.96,-3.24 5.72,-4.79999 2.6,3.12 5.88,4.24 10.8,4.44 4.76,0.2 12.8,0.12 17.6,-0.12 0.24,-1.36 0.96,-3.68 1.48,-4.79998 -5.32,0.39998 -14.32,0.51998 -19,0.31998 -4.16,-0.15998 -7.16,-1.23998 -8.8,-3.91998 z"
       style="font-weight:bold;font-size:40px;line-height:1.25;font-family:Montserrat;-inkscape-font-specification:Montserrat;fill:#f32778;fill-opacity:1"
       id="path62006" />
    <path
       d="m -305.30727,911.7359 h -7.36 v -3.56 h -4.6 v 3.56 h -7.32 v 4.12 h 19.28 z m -5.96,22.16 v 5.28 h -7.48 v -5.28 z m -11.88,11.4 h 4.4 v -2 h 7.48 v 1.84 h 4.64 v -15.36 h -16.52 z m 11.52,-29.32 c -0.32,1.84 -1.04,4.36 -1.64,6.04 l 3.24,0.84 h -10.48 l 3.76,-0.88 c -0.16,-1.64 -0.8,-4.04 -1.64,-5.84 l -3.88,0.8 c 0.68,1.84 1.28,4.32 1.4,5.92 h -4.56 v 4.32 h 20.56 v -4.32 h -4.64 c 0.68,-1.56 1.52,-3.72 2.36,-5.92 z m 20,-5.96 -0.72,0.16 h -11.28 v 35.08 h 4.64 v -30.6 h 4.84 c -0.96,3.04 -2.24,7.12 -3.4,9.96 3.2,3.12 4.08,6 4.08,8.16 0,1.36 -0.24,2.28 -0.96,2.72 -0.4,0.2 -0.92,0.32 -1.48,0.32 -0.6,0.04 -1.36,0 -2.24,-0.04 0.76,1.32 1.16,3.36 1.16,4.64 1.12,0.04 2.28,0.04 3.2,-0.08 1,-0.16 1.96,-0.48 2.72,-1 1.52,-1.08 2.16,-3.04 2.16,-5.96 0,-2.64 -0.6,-5.76 -4,-9.36 1.6,-3.4 3.36,-8 4.76,-11.84 z"
       style="font-weight:bold;font-size:40px;line-height:1.25;font-family:Montserrat;-inkscape-font-specification:Montserrat;fill:#f32778;fill-opacity:1"
       id="path62227" />
  </g>
</svg>
