<?xml version="1.0" encoding="UTF-8" standalone="no"?>
<!-- Created with Inkscape (http://www.inkscape.org/) -->

<svg
   width="300"
   height="400.00003"
   viewBox="0 0 300.00001 400.00003"
   version="1.1"
   id="svg5"
   inkscape:version="1.1.1 (1:1.1+202109281949+c3084ef5ed)"
   sodipodi:docname="kanji_n4.svg"
   xmlns:inkscape="http://www.inkscape.org/namespaces/inkscape"
   xmlns:sodipodi="http://sodipodi.sourceforge.net/DTD/sodipodi-0.dtd"
   xmlns:xlink="http://www.w3.org/1999/xlink"
   xmlns="http://www.w3.org/2000/svg"
   xmlns:svg="http://www.w3.org/2000/svg">
  <sodipodi:namedview
     id="namedview7"
     pagecolor="#505050"
     bordercolor="#eeeeee"
     borderopacity="1"
     inkscape:pageshadow="0"
     inkscape:pageopacity="0"
     inkscape:pagecheckerboard="0"
     inkscape:document-units="px"
     showgrid="false"
     inkscape:zoom="1.8101934"
     inkscape:cx="205.22669"
     inkscape:cy="368.74513"
     inkscape:window-width="1366"
     inkscape:window-height="715"
     inkscape:window-x="0"
     inkscape:window-y="25"
     inkscape:window-maximized="1"
     inkscape:current-layer="layer1"
     inkscape:snap-page="true"
     fit-margin-top="0"
     fit-margin-left="0"
     fit-margin-right="0"
     fit-margin-bottom="0"
     inkscape:snap-global="false" />
  <defs
     id="defs2">
    <style
       id="style1171">.cls-1{fill:url(#linear-gradient);}.cls-2{fill:#f6b756;}.cls-3{fill:url(#linear-gradient-2);}.cls-4{fill:#cf4055;}.cls-5{fill:url(#linear-gradient-3);}.cls-6{fill:url(#linear-gradient-4);}.cls-7{fill:url(#linear-gradient-5);}.cls-8{fill:url(#linear-gradient-6);}.cls-9{fill:url(#linear-gradient-7);}.cls-10{fill:url(#linear-gradient-8);}.cls-11{fill:url(#linear-gradient-9);}.cls-12{fill:#eab39b;}.cls-13{fill:url(#linear-gradient-13);}.cls-14{fill:#c7cdd8;}.cls-15{fill:#dfe3ea;}</style>
    <linearGradient
       id="linear-gradient"
       x1="32"
       y1="36"
       x2="32"
       y2="1"
       gradientUnits="userSpaceOnUse">
      <stop
         offset="0"
         stop-color="#fbcc88"
         id="stop1173" />
      <stop
         offset="1"
         stop-color="#ffe5c3"
         id="stop1175" />
    </linearGradient>
    <linearGradient
       id="linear-gradient-2"
       x1="32"
       y1="25.09"
       x2="32"
       y2="9.0900002"
       gradientUnits="userSpaceOnUse">
      <stop
         offset="0"
         stop-color="#da5466"
         id="stop1178" />
      <stop
         offset="1"
         stop-color="#f4929c"
         id="stop1180" />
    </linearGradient>
    <linearGradient
       id="linear-gradient-3"
       x1="21"
       y1="15.09"
       x2="32"
       y2="15.09"
       gradientUnits="userSpaceOnUse">
      <stop
         offset="0"
         stop-color="#d4d8e1"
         id="stop1183" />
      <stop
         offset="1"
         stop-color="#f3f4f5"
         id="stop1185" />
    </linearGradient>
    <linearGradient
       id="linear-gradient-4"
       x1="32"
       y1="15.09"
       x2="43"
       y2="15.09"
       xlink:href="#linear-gradient-3" />
    <linearGradient
       id="linear-gradient-5"
       x1="32"
       y1="53"
       x2="32"
       y2="41"
       gradientUnits="userSpaceOnUse">
      <stop
         offset="0"
         stop-color="#f2c4b0"
         id="stop1189" />
      <stop
         offset="1"
         stop-color="#ffe3d7"
         id="stop1191" />
    </linearGradient>
    <linearGradient
       id="linear-gradient-6"
       x1="32"
       y1="63"
       y2="53"
       xlink:href="#linear-gradient-3" />
    <linearGradient
       id="linear-gradient-7"
       x1="52"
       x2="52"
       xlink:href="#linear-gradient-5" />
    <linearGradient
       id="linear-gradient-8"
       x1="52"
       y1="63"
       x2="52"
       y2="53"
       xlink:href="#linear-gradient-3" />
    <linearGradient
       id="linear-gradient-9"
       x1="12"
       x2="12"
       xlink:href="#linear-gradient-5" />
    <linearGradient
       id="linear-gradient-13"
       x1="12"
       y1="63"
       x2="12"
       y2="53"
       xlink:href="#linear-gradient-3" />
    <style
       id="style1327">.cls-1{fill:url(#linear-gradient);}.cls-2{fill:#42455e;}.cls-3{fill:#575f7c;}.cls-4{fill:url(#linear-gradient-2);}.cls-5{fill:url(#linear-gradient-3);}</style>
    <linearGradient
       id="linear-gradient-36"
       x1="32"
       y1="53"
       x2="32"
       y2="29.450001"
       gradientUnits="userSpaceOnUse">
      <stop
         offset="0"
         stop-color="#474f72"
         id="stop1329" />
      <stop
         offset="1"
         stop-color="#878c9f"
         id="stop1331" />
    </linearGradient>
    <linearGradient
       id="linear-gradient-2-7"
       y1="37"
       y2="11"
       xlink:href="#linear-gradient-36" />
    <linearGradient
       id="linear-gradient-3-5"
       x1="54"
       y1="53"
       x2="54"
       y2="47"
       gradientUnits="userSpaceOnUse">
      <stop
         offset="0"
         stop-color="#e9a254"
         id="stop1335" />
      <stop
         offset="1"
         stop-color="#f4bb79"
         id="stop1337" />
    </linearGradient>
    <style
       id="style1376">.cls-1{fill:url(#linear-gradient);}.cls-2{fill:#c7cdd8;}.cls-3{fill:url(#linear-gradient-2);}.cls-4{fill:url(#linear-gradient-3);}.cls-5{fill:url(#linear-gradient-4);}.cls-6{fill:#5b8dc9;}.cls-7{fill:#42455e;}</style>
    <linearGradient
       id="linear-gradient-35"
       x1="5"
       y1="59"
       x2="53"
       y2="59"
       gradientUnits="userSpaceOnUse">
      <stop
         offset="0"
         stop-color="#d4d8e1"
         id="stop1378" />
      <stop
         offset="1"
         stop-color="#f3f4f5"
         id="stop1380" />
    </linearGradient>
    <linearGradient
       id="linear-gradient-2-6"
       x1="29"
       y1="59"
       x2="29"
       y2="1"
       gradientUnits="userSpaceOnUse">
      <stop
         offset="0"
         stop-color="#7aa8d7"
         id="stop1383" />
      <stop
         offset="1"
         stop-color="#c3d2e7"
         id="stop1385" />
    </linearGradient>
    <linearGradient
       id="linear-gradient-3-2"
       x1="32"
       y1="34"
       x2="32"
       y2="8"
       xlink:href="#linear-gradient-35" />
    <linearGradient
       id="linear-gradient-4-9"
       x1="8"
       y1="59"
       x2="8"
       y2="1"
       gradientUnits="userSpaceOnUse">
      <stop
         offset="0"
         stop-color="#474f72"
         id="stop1389" />
      <stop
         offset="1"
         stop-color="#878c9f"
         id="stop1391" />
    </linearGradient>
    <style
       id="style1454">.cls-1{fill:url(#linear-gradient);}.cls-2{fill:#5b8dc9;}.cls-3{fill:url(#linear-gradient-2);}.cls-4{fill:#cf4055;}.cls-5{fill:url(#linear-gradient-3);}.cls-6{fill:#f6b756;}.cls-7{fill:url(#linear-gradient-4);}.cls-8{fill:url(#linear-gradient-5);}.cls-9{fill:url(#linear-gradient-6);}.cls-10{fill:url(#linear-gradient-7);}.cls-11{fill:#4da67f;}.cls-12{fill:url(#linear-gradient-8);}.cls-13{fill:#c7cdd8;}.cls-14{fill:url(#linear-gradient-9);}.cls-15{fill:url(#linear-gradient-10);}.cls-16{fill:url(#linear-gradient-11);}.cls-17{fill:#ffd39f;}.cls-18{fill:url(#linear-gradient-12);}.cls-19{fill:#fff;}.cls-20{fill:#7ece67;}</style>
    <linearGradient
       id="linear-gradient-1"
       x1="23"
       y1="63"
       x2="23"
       y2="1"
       gradientUnits="userSpaceOnUse">
      <stop
         offset="0"
         stop-color="#7aa8d7"
         id="stop1456" />
      <stop
         offset="1"
         stop-color="#c3d2e7"
         id="stop1458" />
    </linearGradient>
    <linearGradient
       id="linear-gradient-2-2"
       x1="9"
       y1="63"
       x2="9"
       y2="11"
       gradientUnits="userSpaceOnUse">
      <stop
         offset="0"
         stop-color="#da5466"
         id="stop1461" />
      <stop
         offset="1"
         stop-color="#f4929c"
         id="stop1463" />
    </linearGradient>
    <linearGradient
       id="linear-gradient-3-7"
       x1="9"
       y1="58"
       x2="9"
       y2="16"
       gradientUnits="userSpaceOnUse">
      <stop
         offset="0"
         stop-color="#fbcc88"
         id="stop1466" />
      <stop
         offset="1"
         stop-color="#ffe5c3"
         id="stop1468" />
    </linearGradient>
    <linearGradient
       id="linear-gradient-4-0"
       x1="33"
       y1="63"
       x2="33"
       y2="15"
       gradientUnits="userSpaceOnUse">
      <stop
         offset="0"
         stop-color="#8cdd79"
         id="stop1471" />
      <stop
         offset="1"
         stop-color="#d4e6b6"
         id="stop1473" />
    </linearGradient>
    <linearGradient
       id="linear-gradient-5-9"
       x1="33"
       y1="57"
       x2="33"
       y2="53"
       gradientUnits="userSpaceOnUse">
      <stop
         offset="0"
         stop-color="#6ab891"
         id="stop1476" />
      <stop
         offset="1"
         stop-color="#85cba9"
         id="stop1478" />
    </linearGradient>
    <linearGradient
       id="linear-gradient-6-3"
       y1="53"
       y2="49"
       xlink:href="#linear-gradient-5-9" />
    <linearGradient
       id="linear-gradient-7-6"
       x1="54.290001"
       y1="63"
       x2="54.290001"
       y2="7.4499998"
       gradientTransform="rotate(10,54.276582,35.217281)"
       xlink:href="#linear-gradient-5-9" />
    <linearGradient
       id="linear-gradient-8-0"
       x1="54.290001"
       y1="57.23"
       x2="54.290001"
       y2="13.21"
       gradientTransform="rotate(10,54.276582,35.217281)"
       gradientUnits="userSpaceOnUse">
      <stop
         offset="0"
         stop-color="#d4d8e1"
         id="stop1483" />
      <stop
         offset="1"
         stop-color="#f3f4f5"
         id="stop1485" />
    </linearGradient>
    <linearGradient
       id="linear-gradient-9-6"
       x1="54.290001"
       y1="53.009998"
       x2="54.290001"
       y2="17.43"
       gradientTransform="rotate(10,54.276582,35.217281)"
       xlink:href="#linear-gradient-5-9" />
    <linearGradient
       id="linear-gradient-10"
       x1="42"
       y1="63"
       x2="42"
       y2="18"
       xlink:href="#linear-gradient-3-7" />
    <linearGradient
       id="linear-gradient-11"
       x1="42"
       y1="59"
       x2="42"
       y2="22"
       gradientUnits="userSpaceOnUse">
      <stop
         offset="0"
         stop-color="#e9a254"
         id="stop1490" />
      <stop
         offset="1"
         stop-color="#f4bb79"
         id="stop1492" />
    </linearGradient>
    <linearGradient
       id="linear-gradient-12"
       x1="23"
       y1="58"
       x2="23"
       y2="6"
       xlink:href="#linear-gradient-8-0" />
    <style
       id="style1614">.cls-1{fill:url(#linear-gradient);}.cls-2{fill:url(#linear-gradient-2);}.cls-3{fill:url(#linear-gradient-3);}.cls-4{fill:#42455e;}.cls-5{fill:url(#linear-gradient-4);}.cls-6{fill:url(#linear-gradient-5);}.cls-7{fill:#f2a961;}.cls-8{fill:url(#linear-gradient-6);}.cls-9{fill:url(#linear-gradient-7);}.cls-10{fill:#c7cdd8;}.cls-11{fill:#dd8b37;}</style>
    <linearGradient
       id="linear-gradient-26"
       x1="27"
       y1="63"
       x2="27"
       y2="1"
       gradientUnits="userSpaceOnUse">
      <stop
         offset="0"
         stop-color="#e9a254"
         id="stop1616" />
      <stop
         offset="1"
         stop-color="#f4bb79"
         id="stop1618" />
    </linearGradient>
    <linearGradient
       id="linear-gradient-2-1"
       x1="60"
       y1="61"
       x2="60"
       y2="3"
       xlink:href="#linear-gradient-26" />
    <linearGradient
       id="linear-gradient-3-8"
       x1="56.98"
       y1="57.5"
       x2="63.02"
       y2="57.5"
       gradientUnits="userSpaceOnUse">
      <stop
         offset="0"
         stop-color="#d1a788"
         id="stop1622" />
      <stop
         offset="1"
         stop-color="#f2d3b8"
         id="stop1624" />
    </linearGradient>
    <linearGradient
       id="linear-gradient-4-7"
       x1="60"
       y1="10"
       x2="60"
       y2="3"
       gradientUnits="userSpaceOnUse">
      <stop
         offset="0"
         stop-color="#d96bb0"
         id="stop1627" />
      <stop
         offset="1"
         stop-color="#e49fc6"
         id="stop1629" />
    </linearGradient>
    <linearGradient
       id="linear-gradient-5-92"
       x1="57"
       y1="12"
       x2="63"
       y2="12"
       gradientUnits="userSpaceOnUse">
      <stop
         offset="0"
         stop-color="#949aaf"
         id="stop1632" />
      <stop
         offset="1"
         stop-color="#c6ccda"
         id="stop1634" />
    </linearGradient>
    <linearGradient
       id="linear-gradient-6-0"
       x1="6"
       y1="63"
       x2="6"
       y2="1"
       gradientUnits="userSpaceOnUse">
      <stop
         offset="0"
         stop-color="#474f72"
         id="stop1637" />
      <stop
         offset="1"
         stop-color="#878c9f"
         id="stop1639" />
    </linearGradient>
    <linearGradient
       id="linear-gradient-7-2"
       x1="30"
       y1="26"
       x2="30"
       y2="8"
       gradientUnits="userSpaceOnUse">
      <stop
         offset="0"
         stop-color="#d4d8e1"
         id="stop1642" />
      <stop
         offset="1"
         stop-color="#f3f4f5"
         id="stop1644" />
    </linearGradient>
    <style
       id="style1728">.cls-1{fill:#c7cdd8;}.cls-2{fill:url(#linear-gradient);}.cls-3{fill:#dfe3ea;}</style>
    <linearGradient
       id="linear-gradient-37"
       x1="29"
       y1="63"
       x2="29"
       y2="5"
       gradientUnits="userSpaceOnUse">
      <stop
         offset="0"
         stop-color="#d4d8e1"
         id="stop1730" />
      <stop
         offset="1"
         stop-color="#f3f4f5"
         id="stop1732" />
    </linearGradient>
    <style
       id="style1797">.cls-1{fill:url(#linear-gradient);}.cls-2{fill:#42455e;}.cls-3{fill:url(#linear-gradient-2);}.cls-4{fill:url(#linear-gradient-3);}.cls-5{fill:#c7cdd8;}.cls-6{fill:#dfe3ea;}.cls-7{fill:#e8677d;}</style>
    <linearGradient
       id="linear-gradient-59"
       x1="32"
       y1="63"
       x2="32"
       y2="1"
       gradientUnits="userSpaceOnUse">
      <stop
         offset="0"
         stop-color="#474f72"
         id="stop1799" />
      <stop
         offset="1"
         stop-color="#878c9f"
         id="stop1801" />
    </linearGradient>
    <linearGradient
       id="linear-gradient-2-22"
       x1="32"
       y1="55"
       x2="32"
       y2="5"
       gradientUnits="userSpaceOnUse">
      <stop
         offset="0"
         stop-color="#d4d8e1"
         id="stop1804" />
      <stop
         offset="1"
         stop-color="#f3f4f5"
         id="stop1806" />
    </linearGradient>
    <linearGradient
       id="linear-gradient-3-89"
       x1="46"
       y1="50"
       x2="46"
       y2="5"
       gradientUnits="userSpaceOnUse">
      <stop
         offset="0"
         stop-color="#da5466"
         id="stop1809" />
      <stop
         offset="1"
         stop-color="#f4929c"
         id="stop1811" />
    </linearGradient>
    <style
       id="style1897">.cls-1{fill:url(#linear-gradient);}.cls-2{fill:#8a6762;}.cls-3{fill:url(#linear-gradient-2);}.cls-4{fill:url(#linear-gradient-3);}.cls-5{fill:#231f20;}</style>
    <linearGradient
       id="linear-gradient-73"
       x1="15.44"
       y1="29.17"
       x2="15.44"
       y2="3.72"
       gradientUnits="userSpaceOnUse">
      <stop
         offset="0"
         stop-color="#9b756d"
         id="stop1899" />
      <stop
         offset="1"
         stop-color="#bc9388"
         id="stop1901" />
    </linearGradient>
    <linearGradient
       id="linear-gradient-2-61"
       x1="26.809999"
       y1="63"
       x2="26.809999"
       y2="5.4299998"
       gradientUnits="userSpaceOnUse">
      <stop
         offset="0"
         stop-color="#d1a788"
         id="stop1904" />
      <stop
         offset="1"
         stop-color="#f2d3b8"
         id="stop1906" />
    </linearGradient>
    <linearGradient
       id="linear-gradient-3-29"
       x1="33.759998"
       y1="51.540001"
       x2="33.759998"
       y2="1"
       xlink:href="#linear-gradient-2-61" />
    <style
       id="style1943">.cls-1{fill:url(#linear-gradient);}.cls-2{fill:#c7cdd8;}.cls-3{fill:none;stroke:#231f20;stroke-linecap:round;stroke-linejoin:round;stroke-width:2px;}.cls-4{fill:url(#linear-gradient-3);}.cls-5{fill:#42455e;}.cls-6{fill:url(#linear-gradient-4);}.cls-7{fill:#cba07a;}.cls-8{fill:url(#linear-gradient-5);}.cls-9{fill:url(#linear-gradient-6);}.cls-10{fill:#231f20;}</style>
    <linearGradient
       id="linear-gradient-31"
       x1="32"
       y1="43.77"
       x2="32"
       y2="8"
       gradientUnits="userSpaceOnUse">
      <stop
         offset="0"
         stop-color="#d4d8e1"
         id="stop1945" />
      <stop
         offset="1"
         stop-color="#f3f4f5"
         id="stop1947" />
    </linearGradient>
    <linearGradient
       id="linear-gradient-3-9"
       x1="32"
       y1="44"
       x2="32"
       y2="26"
       gradientUnits="userSpaceOnUse">
      <stop
         offset="0"
         stop-color="#474f72"
         id="stop1950" />
      <stop
         offset="1"
         stop-color="#878c9f"
         id="stop1952" />
    </linearGradient>
    <linearGradient
       id="linear-gradient-4-4"
       x1="32"
       y1="50"
       x2="32"
       y2="44"
       gradientUnits="userSpaceOnUse">
      <stop
         offset="0"
         stop-color="#d1a788"
         id="stop1955" />
      <stop
         offset="1"
         stop-color="#f2d3b8"
         id="stop1957" />
    </linearGradient>
    <linearGradient
       id="linear-gradient-5-7"
       x1="9"
       y1="56"
       x2="9"
       y2="50"
       xlink:href="#linear-gradient-4-4" />
    <linearGradient
       id="linear-gradient-6-8"
       x1="55"
       y1="56"
       x2="55"
       y2="50"
       xlink:href="#linear-gradient-4-4" />
    <style
       id="style2032">.cls-1{fill:url(#linear-gradient);}.cls-2{fill:#c7cdd8;}.cls-3{fill:url(#linear-gradient-3);}.cls-4{fill:#cf4055;}.cls-5{fill:url(#linear-gradient-4);}.cls-6{fill:#cba07a;}.cls-7{fill:url(#linear-gradient-5);}.cls-8{fill:url(#linear-gradient-6);}.cls-9{fill:#231f20;}</style>
    <linearGradient
       id="linear-gradient-45"
       x1="31.98"
       y1="37"
       x2="31.98"
       y2="23"
       gradientUnits="userSpaceOnUse">
      <stop
         offset="0"
         stop-color="#d4d8e1"
         id="stop2034" />
      <stop
         offset="1"
         stop-color="#f3f4f5"
         id="stop2036" />
    </linearGradient>
    <linearGradient
       id="linear-gradient-3-0"
       x1="31.93"
       y1="29.940001"
       x2="31.93"
       y2="14.99"
       gradientUnits="userSpaceOnUse">
      <stop
         offset="0"
         stop-color="#da5466"
         id="stop2039" />
      <stop
         offset="1"
         stop-color="#f4929c"
         id="stop2041" />
    </linearGradient>
    <linearGradient
       id="linear-gradient-4-3"
       x1="32"
       y1="43"
       x2="32"
       y2="37"
       gradientUnits="userSpaceOnUse">
      <stop
         offset="0"
         stop-color="#d1a788"
         id="stop2044" />
      <stop
         offset="1"
         stop-color="#f2d3b8"
         id="stop2046" />
    </linearGradient>
    <linearGradient
       id="linear-gradient-5-6"
       x1="9"
       y1="49"
       x2="9"
       y2="43"
       xlink:href="#linear-gradient-4-3" />
    <linearGradient
       id="linear-gradient-6-1"
       x1="55"
       y1="49"
       x2="55"
       y2="43"
       xlink:href="#linear-gradient-4-3" />
    <style
       id="style2118">.cls-1{fill:url(#linear-gradient);}.cls-2{fill:url(#linear-gradient-2);}.cls-3{fill:#c7cdd8;}.cls-4{fill:url(#linear-gradient-3);}.cls-5{fill:url(#linear-gradient-4);}.cls-6{fill:#cf4055;}.cls-7{fill:url(#linear-gradient-5);}.cls-8{fill:url(#linear-gradient-6);}.cls-9{fill:#adb3c4;}.cls-10{fill:#42455e;}</style>
    <linearGradient
       id="linear-gradient-0"
       x1="32"
       y1="51"
       x2="32"
       y2="7"
       gradientUnits="userSpaceOnUse">
      <stop
         offset="0"
         stop-color="#474f72"
         id="stop2120" />
      <stop
         offset="1"
         stop-color="#878c9f"
         id="stop2122" />
    </linearGradient>
    <linearGradient
       id="linear-gradient-2-63"
       x1="32"
       y1="51"
       x2="32"
       y2="43"
       gradientUnits="userSpaceOnUse">
      <stop
         offset="0"
         stop-color="#d4d8e1"
         id="stop2125" />
      <stop
         offset="1"
         stop-color="#f3f4f5"
         id="stop2127" />
    </linearGradient>
    <linearGradient
       id="linear-gradient-3-20"
       x1="32"
       y1="63"
       x2="32"
       y2="51"
       gradientUnits="userSpaceOnUse">
      <stop
         offset="0"
         stop-color="#949aaf"
         id="stop2130" />
      <stop
         offset="1"
         stop-color="#c6ccda"
         id="stop2132" />
    </linearGradient>
    <linearGradient
       id="linear-gradient-4-6"
       x1="32"
       y1="37"
       x2="32"
       y2="5"
       gradientUnits="userSpaceOnUse">
      <stop
         offset="0"
         stop-color="#da5466"
         id="stop2135" />
      <stop
         offset="1"
         stop-color="#f4929c"
         id="stop2137" />
    </linearGradient>
    <linearGradient
       id="linear-gradient-5-1"
       x1="13"
       y1="19"
       x2="32"
       y2="19"
       xlink:href="#linear-gradient-2-63" />
    <linearGradient
       id="linear-gradient-6-5"
       x1="32"
       y1="19"
       x2="51"
       y2="19"
       xlink:href="#linear-gradient-2-63" />
  </defs>
  <g
     inkscape:label="Layer 1"
     inkscape:groupmode="layer"
     id="layer1"
     transform="translate(252.7535,-853.63227)">
    <text
       xml:space="preserve"
       style="font-size:40px;line-height:1.25;font-family:Montserrat;-inkscape-font-specification:Montserrat"
       x="157.42043"
       y="822.27533"
       id="text1530"><tspan
         sodipodi:role="line"
         id="tspan1528"
         x="157.42043"
         y="822.27533" /></text>
    <text
       xml:space="preserve"
       style="font-size:40px;line-height:1.25;font-family:Montserrat;-inkscape-font-specification:Montserrat"
       x="291.00809"
       y="765.79712"
       id="text1530-3"><tspan
         sodipodi:role="line"
         id="tspan1528-6"
         x="291.00809"
         y="765.79712" /></text>
    <path
       id="path2112"
       style="fill:#00ccff;fill-opacity:1;stroke-width:5.04577;stroke-linecap:round;paint-order:stroke fill markers;stop-color:#000000"
       d="m -252.7535,853.63227 h 300 v 400.00003 h -300 z" />
    <g
       id="g2116"
       transform="matrix(1.0805702,0,0,1.4407592,-396.66816,-391.2407)">
      <rect
         style="opacity:0.05;fill:#000000;fill-opacity:1;stroke:none;stroke-width:1.18447;stroke-linecap:round;paint-order:stroke fill markers;stop-color:#000000"
         id="rect2114"
         width="277.6312"
         height="277.63141"
         x="133.18399"
         y="864.03961" />
    </g>
    <path
       id="path2118"
       style="fill:#ffffff;fill-opacity:1;stroke-width:0.946982;stroke-linecap:round;paint-order:stroke fill markers;stop-color:#000000"
       d="m -264.03173,827.1997 h 33.06456 c 3.64175,0 6.57356,2.93176 6.57356,6.57357 v 33.06455 c 0,3.64172 -2.93181,6.57357 -6.57356,6.57357 h -33.06456 c -3.64175,0 -6.57355,-2.93185 -6.57355,-6.57357 v -33.06455 c 0,-3.64181 2.9318,-6.57357 6.57355,-6.57357 z" />
    <path
       id="path2120"
       style="fill:#000000;fill-opacity:1;stroke-width:0.946982;stroke-linecap:round;paint-order:stroke fill markers;stop-color:#000000"
       d="m -198.42842,827.1997 h 33.06457 c 3.64175,0 6.57356,2.93176 6.57356,6.57357 v 33.06455 c 0,3.64172 -2.93181,6.57357 -6.57356,6.57357 h -33.06457 c -3.64175,0 -6.57355,-2.93185 -6.57355,-6.57357 v -33.06455 c 0,-3.64181 2.93181,-6.57357 6.57355,-6.57357 z" />
    <path
       id="path2122"
       style="fill:#ffffff;fill-opacity:1;stroke-width:0.946982;stroke-linecap:round;paint-order:stroke fill markers;stop-color:#000000"
       d="m -133.88143,827.1997 h 33.06458 c 3.64175,0 6.57356,2.93176 6.57356,6.57357 v 33.06455 c 0,3.64172 -2.93181,6.57357 -6.57356,6.57357 h -33.06457 c -3.64176,0 -6.57356,-2.93185 -6.57356,-6.57357 v -33.06455 c 0,-3.64181 2.9318,-6.57357 6.57355,-6.57357 z" />
    <path
       id="path2124"
       style="fill:#000000;fill-opacity:1;stroke-width:0.946982;stroke-linecap:round;paint-order:stroke fill markers;stop-color:#000000"
       d="m -69.33445,827.1997 h 33.06457 c 3.64176,0 6.57357,2.93176 6.57357,6.57357 v 33.06455 c 0,3.64172 -2.93181,6.57357 -6.57357,6.57357 h -33.06457 c -3.64176,0 -6.57355,-2.93185 -6.57355,-6.57357 v -33.06455 c 0,-3.64181 2.93179,-6.57357 6.57355,-6.57357 z" />
    <path
       id="path2126"
       style="fill:#ffffff;fill-opacity:1;stroke-width:0.946982;stroke-linecap:round;paint-order:stroke fill markers;stop-color:#000000"
       d="m -4.78747,827.1997 h 33.06458 c 3.64176,0 6.573566,2.93176 6.573566,6.57357 v 33.06455 c 0,3.64172 -2.931806,6.57357 -6.573566,6.57357 H -4.78747 c -3.64175,0 -6.57354,-2.93185 -6.57354,-6.57357 v -33.06455 c 0,-3.64181 2.93179,-6.57357 6.57354,-6.57357 z" />
    <path
       id="path2128"
       style="fill:#ffffff;fill-opacity:1;stroke-width:0.946982;stroke-linecap:round;paint-order:stroke fill markers;stop-color:#000000"
       d="m -232.72781,893.37672 h 33.06457 c 3.64175,0 6.57356,2.93176 6.57356,6.57357 v 33.06455 c 0,3.64171 -2.93181,6.57357 -6.57356,6.57357 h -33.06457 c -3.64175,0 -6.57354,-2.93186 -6.57354,-6.57357 v -33.06455 c 0,-3.64181 2.9318,-6.57357 6.57354,-6.57357 z" />
    <path
       id="path2130"
       style="fill:#ffffff;fill-opacity:1;stroke-width:0.946982;stroke-linecap:round;paint-order:stroke fill markers;stop-color:#000000"
       d="m -168.18082,893.37672 h 33.06457 c 3.64175,0 6.57356,2.93176 6.57356,6.57357 v 33.06455 c 0,3.64171 -2.93181,6.57357 -6.57356,6.57357 h -33.06457 c -3.64175,0 -6.57355,-2.93186 -6.57355,-6.57357 v -33.06455 c 0,-3.64181 2.93181,-6.57357 6.57355,-6.57357 z" />
    <path
       id="path2132"
       style="fill:#ffffff;fill-opacity:1;stroke-width:0.946982;stroke-linecap:round;paint-order:stroke fill markers;stop-color:#000000"
       d="m -103.63383,893.37672 h 33.06457 c 3.64175,0 6.57357,2.93176 6.57357,6.57357 v 33.06455 c 0,3.64171 -2.93182,6.57357 -6.57357,6.57357 h -33.06457 c -3.64176,0 -6.57356,-2.93186 -6.57356,-6.57357 v -33.06455 c 0,-3.64181 2.9318,-6.57357 6.57356,-6.57357 z" />
    <path
       id="path2134"
       style="fill:#ffffff;fill-opacity:1;stroke-width:0.946982;stroke-linecap:round;paint-order:stroke fill markers;stop-color:#000000"
       d="m -39.08686,893.37672 h 33.06458 c 3.64176,0 6.57357,2.93176 6.57357,6.57357 v 33.06455 c 0,3.64171 -2.93181,6.57357 -6.57357,6.57357 h -33.06458 c -3.64175,0 -6.57354,-2.93186 -6.57354,-6.57357 v -33.06455 c 0,-3.64181 2.93179,-6.57357 6.57354,-6.57357 z" />
    <path
       id="path2136"
       style="fill:#ffffff;fill-opacity:1;stroke-width:0.946982;stroke-linecap:round;paint-order:stroke fill markers;stop-color:#000000"
       d="m 25.46013,893.37672 h 33.064583 c 3.641753,0 6.573563,2.93176 6.573563,6.57357 v 33.06455 c 0,3.64171 -2.93181,6.57357 -6.573563,6.57357 H 25.46013 c -3.64175,0 -6.57355,-2.93186 -6.57355,-6.57357 v -33.06455 c 0,-3.64181 2.9318,-6.57357 6.57355,-6.57357 z" />
    <path
       id="path2138"
       style="fill:#ffffff;fill-opacity:1;stroke-width:0.946982;stroke-linecap:round;paint-order:stroke fill markers;stop-color:#000000"
       d="m -262.9754,959.55366 h 33.06456 c 3.64175,0 6.57356,2.9318 6.57356,6.5736 v 33.0645 c 0,3.64174 -2.93181,6.57364 -6.57356,6.57364 h -33.06456 c -3.64175,0 -6.57355,-2.9319 -6.57355,-6.57364 v -33.0645 c 0,-3.6418 2.9318,-6.5736 6.57355,-6.5736 z" />
    <path
       id="path2140"
       style="fill:#000000;fill-opacity:1;stroke-width:0.946982;stroke-linecap:round;paint-order:stroke fill markers;stop-color:#000000"
       d="m -198.42842,959.55366 h 33.06457 c 3.64175,0 6.57356,2.9318 6.57356,6.5736 v 33.0645 c 0,3.64174 -2.93181,6.57364 -6.57356,6.57364 h -33.06457 c -3.64175,0 -6.57355,-2.9319 -6.57355,-6.57364 v -33.0645 c 0,-3.6418 2.93181,-6.5736 6.57355,-6.5736 z" />
    <path
       id="path2142"
       style="fill:#ffffff;fill-opacity:1;stroke-width:0.946982;stroke-linecap:round;paint-order:stroke fill markers;stop-color:#000000"
       d="m -133.88143,959.55366 h 33.06458 c 3.64175,0 6.57356,2.9318 6.57356,6.5736 v 33.0645 c 0,3.64174 -2.93181,6.57364 -6.57356,6.57364 h -33.06457 c -3.64176,0 -6.57356,-2.9319 -6.57356,-6.57364 v -33.0645 c 0,-3.6418 2.9318,-6.5736 6.57355,-6.5736 z" />
    <path
       id="path2144"
       style="fill:#000000;fill-opacity:1;stroke-width:0.946982;stroke-linecap:round;paint-order:stroke fill markers;stop-color:#000000"
       d="m -69.33445,959.55366 h 33.06457 c 3.64176,0 6.57357,2.9318 6.57357,6.5736 v 33.0645 c 0,3.64174 -2.93181,6.57364 -6.57357,6.57364 h -33.06457 c -3.64176,0 -6.57355,-2.9319 -6.57355,-6.57364 v -33.0645 c 0,-3.6418 2.93179,-6.5736 6.57355,-6.5736 z" />
    <path
       id="path2146"
       style="fill:#ffffff;fill-opacity:1;stroke-width:0.946982;stroke-linecap:round;paint-order:stroke fill markers;stop-color:#000000"
       d="m -4.78747,959.55366 h 33.06458 c 3.64176,0 6.573566,2.9318 6.573566,6.5736 v 33.0645 c 0,3.64174 -2.931806,6.57364 -6.573566,6.57364 H -4.78747 c -3.64175,0 -6.57354,-2.9319 -6.57354,-6.57364 v -33.0645 c 0,-3.6418 2.93179,-6.5736 6.57354,-6.5736 z" />
    <path
       id="path2148"
       style="fill:#ffffff;fill-opacity:1;stroke-width:0.946982;stroke-linecap:round;paint-order:stroke fill markers;stop-color:#000000"
       d="m -232.72781,1025.7307 h 33.06457 c 3.64175,0 6.57356,2.9318 6.57356,6.5736 v 33.0645 c 0,3.6418 -2.93181,6.5736 -6.57356,6.5736 h -33.06457 c -3.64175,0 -6.57354,-2.9318 -6.57354,-6.5736 v -33.0645 c 0,-3.6418 2.9318,-6.5736 6.57354,-6.5736 z" />
    <path
       id="path2150"
       style="fill:#ffffff;fill-opacity:1;stroke-width:0.946982;stroke-linecap:round;paint-order:stroke fill markers;stop-color:#000000"
       d="m -168.18082,1025.7307 h 33.06457 c 3.64175,0 6.57356,2.9318 6.57356,6.5736 v 33.0645 c 0,3.6418 -2.93181,6.5736 -6.57356,6.5736 h -33.06457 c -3.64175,0 -6.57355,-2.9318 -6.57355,-6.5736 v -33.0645 c 0,-3.6418 2.93181,-6.5736 6.57355,-6.5736 z" />
    <path
       id="path2152"
       style="fill:#ffffff;fill-opacity:1;stroke-width:0.946982;stroke-linecap:round;paint-order:stroke fill markers;stop-color:#000000"
       d="m -103.63383,1025.7307 h 33.06457 c 3.64175,0 6.57357,2.9318 6.57357,6.5736 v 33.0645 c 0,3.6418 -2.93182,6.5736 -6.57357,6.5736 h -33.06457 c -3.64176,0 -6.57356,-2.9318 -6.57356,-6.5736 v -33.0645 c 0,-3.6418 2.9318,-6.5736 6.57356,-6.5736 z" />
    <path
       id="path2154"
       style="fill:#ffffff;fill-opacity:1;stroke-width:0.946982;stroke-linecap:round;paint-order:stroke fill markers;stop-color:#000000"
       d="m -39.08686,1025.7307 h 33.06458 c 3.64176,0 6.57357,2.9318 6.57357,6.5736 v 33.0645 c 0,3.6418 -2.93181,6.5736 -6.57357,6.5736 h -33.06458 c -3.64175,0 -6.57354,-2.9318 -6.57354,-6.5736 v -33.0645 c 0,-3.6418 2.93179,-6.5736 6.57354,-6.5736 z" />
    <path
       id="path2156"
       style="fill:#ffffff;fill-opacity:1;stroke-width:0.946982;stroke-linecap:round;paint-order:stroke fill markers;stop-color:#000000"
       d="m 25.46013,1025.7307 h 33.064583 c 3.641753,0 6.573563,2.9318 6.573563,6.5736 v 33.0645 c 0,3.6418 -2.93181,6.5736 -6.573563,6.5736 H 25.46013 c -3.64175,0 -6.57355,-2.9318 -6.57355,-6.5736 v -33.0645 c 0,-3.6418 2.9318,-6.5736 6.57355,-6.5736 z" />
    <path
       id="path3060"
       style="fill:#ffffff;fill-opacity:1;stroke-width:0.946982;stroke-linecap:round;paint-order:stroke fill markers;stop-color:#000000"
       d="m -264.03173,1094.1888 h 33.06456 c 3.64175,0 6.57356,2.9318 6.57356,6.5736 v 33.0645 c 0,3.6418 -2.93181,6.5736 -6.57356,6.5736 h -33.06456 c -3.64175,0 -6.57355,-2.9318 -6.57355,-6.5736 v -33.0645 c 0,-3.6418 2.9318,-6.5736 6.57355,-6.5736 z" />
    <path
       id="path3062"
       style="fill:#000000;fill-opacity:1;stroke-width:0.946982;stroke-linecap:round;paint-order:stroke fill markers;stop-color:#000000"
       d="m -198.42842,1094.1888 h 33.06457 c 3.64175,0 6.57356,2.9318 6.57356,6.5736 v 33.0645 c 0,3.6418 -2.93181,6.5736 -6.57356,6.5736 h -33.06457 c -3.64175,0 -6.57355,-2.9318 -6.57355,-6.5736 v -33.0645 c 0,-3.6418 2.93181,-6.5736 6.57355,-6.5736 z" />
    <path
       id="path3064"
       style="fill:#ffffff;fill-opacity:1;stroke-width:0.946982;stroke-linecap:round;paint-order:stroke fill markers;stop-color:#000000"
       d="m -133.88143,1094.1888 h 33.06458 c 3.64175,0 6.57356,2.9318 6.57356,6.5736 v 33.0645 c 0,3.6418 -2.93181,6.5736 -6.57356,6.5736 h -33.06457 c -3.64176,0 -6.57356,-2.9318 -6.57356,-6.5736 v -33.0645 c 0,-3.6418 2.9318,-6.5736 6.57355,-6.5736 z" />
    <path
       id="path3066"
       style="fill:#000000;fill-opacity:1;stroke-width:0.946982;stroke-linecap:round;paint-order:stroke fill markers;stop-color:#000000"
       d="m -69.33445,1094.1888 h 33.06457 c 3.64176,0 6.57357,2.9318 6.57357,6.5736 v 33.0645 c 0,3.6418 -2.93181,6.5736 -6.57357,6.5736 h -33.06457 c -3.64176,0 -6.57355,-2.9318 -6.57355,-6.5736 v -33.0645 c 0,-3.6418 2.93179,-6.5736 6.57355,-6.5736 z" />
    <path
       id="path3068"
       style="fill:#ffffff;fill-opacity:1;stroke-width:0.946982;stroke-linecap:round;paint-order:stroke fill markers;stop-color:#000000"
       d="m -4.78747,1094.1888 h 33.06458 c 3.64176,0 6.573566,2.9318 6.573566,6.5736 v 33.0645 c 0,3.6418 -2.931806,6.5736 -6.573566,6.5736 H -4.78747 c -3.64175,0 -6.57354,-2.9318 -6.57354,-6.5736 v -33.0645 c 0,-3.6418 2.93179,-6.5736 6.57354,-6.5736 z" />
    <path
       id="path3070"
       style="fill:#ffffff;fill-opacity:1;stroke-width:0.946982;stroke-linecap:round;paint-order:stroke fill markers;stop-color:#000000"
       d="m -232.72781,1160.3658 h 33.06457 c 3.64175,0 6.57356,2.9318 6.57356,6.5736 v 33.0646 c 0,3.6417 -2.93181,6.5735 -6.57356,6.5735 h -33.06457 c -3.64175,0 -6.57354,-2.9318 -6.57354,-6.5735 v -33.0646 c 0,-3.6418 2.9318,-6.5736 6.57354,-6.5736 z" />
    <path
       id="path3072"
       style="fill:#ffffff;fill-opacity:1;stroke-width:0.946982;stroke-linecap:round;paint-order:stroke fill markers;stop-color:#000000"
       d="m -168.18082,1160.3658 h 33.06457 c 3.64175,0 6.57356,2.9318 6.57356,6.5736 v 33.0646 c 0,3.6417 -2.93181,6.5735 -6.57356,6.5735 h -33.06457 c -3.64175,0 -6.57355,-2.9318 -6.57355,-6.5735 v -33.0646 c 0,-3.6418 2.93181,-6.5736 6.57355,-6.5736 z" />
    <path
       id="path3074"
       style="fill:#ffffff;fill-opacity:1;stroke-width:0.946982;stroke-linecap:round;paint-order:stroke fill markers;stop-color:#000000"
       d="m -103.63383,1160.3658 h 33.06457 c 3.64175,0 6.57357,2.9318 6.57357,6.5736 v 33.0646 c 0,3.6417 -2.93182,6.5735 -6.57357,6.5735 h -33.06457 c -3.64176,0 -6.57356,-2.9318 -6.57356,-6.5735 v -33.0646 c 0,-3.6418 2.9318,-6.5736 6.57356,-6.5736 z" />
    <path
       id="path3076"
       style="fill:#ffffff;fill-opacity:1;stroke-width:0.946982;stroke-linecap:round;paint-order:stroke fill markers;stop-color:#000000"
       d="m -39.08686,1160.3658 h 33.06458 c 3.64176,0 6.57357,2.9318 6.57357,6.5736 v 33.0646 c 0,3.6417 -2.93181,6.5735 -6.57357,6.5735 h -33.06458 c -3.64175,0 -6.57354,-2.9318 -6.57354,-6.5735 v -33.0646 c 0,-3.6418 2.93179,-6.5736 6.57354,-6.5736 z" />
    <path
       id="path3078"
       style="fill:#ffffff;fill-opacity:1;stroke-width:0.946982;stroke-linecap:round;paint-order:stroke fill markers;stop-color:#000000"
       d="m 25.46013,1160.3658 h 33.064583 c 3.641753,0 6.573563,2.9318 6.573563,6.5736 v 33.0646 c 0,3.6417 -2.93181,6.5735 -6.573563,6.5735 H 25.46013 c -3.64175,0 -6.57355,-2.9318 -6.57355,-6.5735 v -33.0646 c 0,-3.6418 2.9318,-6.5736 6.57355,-6.5736 z" />
    <path
       id="path3080"
       style="fill:#ffffff;fill-opacity:1;stroke-width:0.946982;stroke-linecap:round;paint-order:stroke fill markers;stop-color:#000000"
       d="m -262.9754,1226.5428 h 33.06456 c 3.64175,0 6.57356,2.9317 6.57356,6.5735 v 33.0646 c 0,3.6417 -2.93181,6.5736 -6.57356,6.5736 h -33.06456 c -3.64175,0 -6.57355,-2.9319 -6.57355,-6.5736 v -33.0646 c 0,-3.6418 2.9318,-6.5735 6.57355,-6.5735 z" />
    <path
       id="path3082"
       style="fill:#000000;fill-opacity:1;stroke-width:0.946982;stroke-linecap:round;paint-order:stroke fill markers;stop-color:#000000"
       d="m -198.42842,1226.5428 h 33.06457 c 3.64175,0 6.57356,2.9317 6.57356,6.5735 v 33.0646 c 0,3.6417 -2.93181,6.5736 -6.57356,6.5736 h -33.06457 c -3.64175,0 -6.57355,-2.9319 -6.57355,-6.5736 v -33.0646 c 0,-3.6418 2.93181,-6.5735 6.57355,-6.5735 z" />
    <path
       id="path3084"
       style="fill:#ffffff;fill-opacity:1;stroke-width:0.946982;stroke-linecap:round;paint-order:stroke fill markers;stop-color:#000000"
       d="m -133.88143,1226.5428 h 33.06458 c 3.64175,0 6.57356,2.9317 6.57356,6.5735 v 33.0646 c 0,3.6417 -2.93181,6.5736 -6.57356,6.5736 h -33.06457 c -3.64176,0 -6.57356,-2.9319 -6.57356,-6.5736 v -33.0646 c 0,-3.6418 2.9318,-6.5735 6.57355,-6.5735 z" />
    <path
       id="path3086"
       style="fill:#000000;fill-opacity:1;stroke-width:0.946982;stroke-linecap:round;paint-order:stroke fill markers;stop-color:#000000"
       d="m -69.33445,1226.5428 h 33.06457 c 3.64176,0 6.57357,2.9317 6.57357,6.5735 v 33.0646 c 0,3.6417 -2.93181,6.5736 -6.57357,6.5736 h -33.06457 c -3.64176,0 -6.57355,-2.9319 -6.57355,-6.5736 v -33.0646 c 0,-3.6418 2.93179,-6.5735 6.57355,-6.5735 z" />
    <path
       id="path3088"
       style="fill:#ffffff;fill-opacity:1;stroke-width:0.946982;stroke-linecap:round;paint-order:stroke fill markers;stop-color:#000000"
       d="m -4.78747,1226.5428 h 33.06458 c 3.64176,0 6.573566,2.9317 6.573566,6.5735 v 33.0646 c 0,3.6417 -2.931806,6.5736 -6.573566,6.5736 H -4.78747 c -3.64175,0 -6.57354,-2.9319 -6.57354,-6.5736 v -33.0646 c 0,-3.6418 2.93179,-6.5735 6.57354,-6.5735 z" />
    <path
       id="path1996"
       style="font-weight:bold;font-size:28.443px;line-height:1.25;font-family:Montserrat;-inkscape-font-specification:Montserrat;fill:#ffffff;stroke-width:0.711074"
       d="M 52.46875 -13.453125 L 52.46875 6.4570312 L 57.019531 6.4570312 L 57.019531 -5.6308594 L 66.947266 6.4570312 L 70.728516 6.4570312 L 70.728516 -13.453125 L 66.177734 -13.453125 L 66.177734 -1.3632812 L 56.28125 -13.453125 L 52.46875 -13.453125 z M 83.357422 -13.453125 L 73.972656 -0.82421875 L 73.972656 2.2773438 L 84.695312 2.2773438 L 84.695312 6.4570312 L 89.189453 6.4570312 L 89.189453 2.2773438 L 92.431641 2.2773438 L 92.431641 -1.4785156 L 89.189453 -1.4785156 L 89.189453 -5.203125 L 84.837891 -5.203125 L 84.837891 -1.4785156 L 79.490234 -1.4785156 L 88.193359 -13.453125 L 83.357422 -13.453125 z "
       transform="translate(-252.7535,853.63227)" />
    <path
       id="path1991"
       style="font-weight:bold;font-size:28.443px;line-height:1.25;font-family:Montserrat;-inkscape-font-specification:Montserrat;fill:#ffffff;stroke-width:0.711074"
       d="M 181.5625 -13.453125 L 181.5625 6.4570312 L 186.11328 6.4570312 L 186.11328 -5.6308594 L 196.04102 6.4570312 L 199.82422 6.4570312 L 199.82422 -13.453125 L 195.27344 -13.453125 L 195.27344 -1.3632812 L 185.375 -13.453125 L 181.5625 -13.453125 z M 212.45117 -13.453125 L 203.06641 -0.82421875 L 203.06641 2.2773438 L 213.78906 2.2773438 L 213.78906 6.4570312 L 218.2832 6.4570312 L 218.2832 2.2773438 L 221.52539 2.2773438 L 221.52539 -1.4785156 L 218.2832 -1.4785156 L 218.2832 -5.203125 L 213.93164 -5.203125 L 213.93164 -1.4785156 L 208.58398 -1.4785156 L 217.28711 -13.453125 L 212.45117 -13.453125 z "
       transform="translate(-252.7535,853.63227)" />
    <path
       id="path1986"
       style="font-weight:bold;font-size:28.443px;line-height:1.25;font-family:Montserrat;-inkscape-font-specification:Montserrat;fill:#ffffff;stroke-width:0.711074"
       d="M 52.46875 118.90234 L 52.46875 138.8125 L 57.019531 138.8125 L 57.019531 126.72266 L 66.947266 138.8125 L 70.728516 138.8125 L 70.728516 118.90234 L 66.177734 118.90234 L 66.177734 130.99023 L 56.28125 118.90234 L 52.46875 118.90234 z M 83.357422 118.90234 L 73.972656 131.5293 L 73.972656 134.63086 L 84.695312 134.63086 L 84.695312 138.8125 L 89.189453 138.8125 L 89.189453 134.63086 L 92.431641 134.63086 L 92.431641 130.87695 L 89.189453 130.87695 L 89.189453 127.15039 L 84.837891 127.15039 L 84.837891 130.87695 L 79.490234 130.87695 L 88.193359 118.90234 L 83.357422 118.90234 z "
       transform="translate(-252.7535,853.63227)" />
    <path
       id="path1981"
       style="font-weight:bold;font-size:28.443px;line-height:1.25;font-family:Montserrat;-inkscape-font-specification:Montserrat;fill:#ffffff;stroke-width:0.711074"
       d="M 181.5625 118.90234 L 181.5625 138.8125 L 186.11328 138.8125 L 186.11328 126.72266 L 196.04102 138.8125 L 199.82422 138.8125 L 199.82422 118.90234 L 195.27344 118.90234 L 195.27344 130.99023 L 185.375 118.90234 L 181.5625 118.90234 z M 212.45117 118.90234 L 203.06641 131.5293 L 203.06641 134.63086 L 213.78906 134.63086 L 213.78906 138.8125 L 218.2832 138.8125 L 218.2832 134.63086 L 221.52539 134.63086 L 221.52539 130.87695 L 218.2832 130.87695 L 218.2832 127.15039 L 213.93164 127.15039 L 213.93164 130.87695 L 208.58398 130.87695 L 217.28711 118.90234 L 212.45117 118.90234 z "
       transform="translate(-252.7535,853.63227)" />
    <path
       id="path1971"
       style="font-weight:bold;font-size:28.443px;line-height:1.25;font-family:Montserrat;-inkscape-font-specification:Montserrat;fill:#ffffff;stroke-width:0.711074"
       d="M 52.46875 253.53711 L 52.46875 273.44727 L 57.019531 273.44727 L 57.019531 261.35938 L 66.947266 273.44727 L 70.728516 273.44727 L 70.728516 253.53711 L 66.177734 253.53711 L 66.177734 265.625 L 56.28125 253.53711 L 52.46875 253.53711 z M 83.357422 253.53711 L 73.972656 266.16602 L 73.972656 269.26562 L 84.695312 269.26562 L 84.695312 273.44727 L 89.189453 273.44727 L 89.189453 269.26562 L 92.431641 269.26562 L 92.431641 265.51172 L 89.189453 265.51172 L 89.189453 261.78516 L 84.837891 261.78516 L 84.837891 265.51172 L 79.490234 265.51172 L 88.193359 253.53711 L 83.357422 253.53711 z "
       transform="translate(-252.7535,853.63227)" />
    <path
       id="path1976"
       style="font-weight:bold;font-size:28.443px;line-height:1.25;font-family:Montserrat;-inkscape-font-specification:Montserrat;fill:#ffffff;stroke-width:0.711074"
       d="M 181.5625 253.53711 L 181.5625 273.44727 L 186.11328 273.44727 L 186.11328 261.35938 L 196.04102 273.44727 L 199.82422 273.44727 L 199.82422 253.53711 L 195.27344 253.53711 L 195.27344 265.625 L 185.375 253.53711 L 181.5625 253.53711 z M 212.45117 253.53711 L 203.06641 266.16602 L 203.06641 269.26562 L 213.78906 269.26562 L 213.78906 273.44727 L 218.2832 273.44727 L 218.2832 269.26562 L 221.52539 269.26562 L 221.52539 265.51172 L 218.2832 265.51172 L 218.2832 261.78516 L 213.93164 261.78516 L 213.93164 265.51172 L 208.58398 265.51172 L 217.28711 253.53711 L 212.45117 253.53711 z "
       transform="translate(-252.7535,853.63227)" />
    <path
       id="path1966"
       style="font-weight:bold;font-size:28.443px;line-height:1.25;font-family:Montserrat;-inkscape-font-specification:Montserrat;fill:#ffffff;stroke-width:0.711074"
       d="M 52.46875 385.89062 L 52.46875 405.80078 L 57.019531 405.80078 L 57.019531 393.71289 L 66.947266 405.80078 L 70.728516 405.80078 L 70.728516 385.89062 L 66.177734 385.89062 L 66.177734 397.97852 L 56.28125 385.89062 L 52.46875 385.89062 z M 83.357422 385.89062 L 73.972656 398.51953 L 73.972656 401.61914 L 84.695312 401.61914 L 84.695312 405.80078 L 89.189453 405.80078 L 89.189453 401.61914 L 92.431641 401.61914 L 92.431641 397.86523 L 89.189453 397.86523 L 89.189453 394.13867 L 84.837891 394.13867 L 84.837891 397.86523 L 79.490234 397.86523 L 88.193359 385.89062 L 83.357422 385.89062 z "
       transform="translate(-252.7535,853.63227)" />
    <path
       id="path1961"
       style="font-weight:bold;font-size:28.443px;line-height:1.25;font-family:Montserrat;-inkscape-font-specification:Montserrat;fill:#ffffff;stroke-width:0.711074"
       d="M 181.5625 385.89062 L 181.5625 405.80078 L 186.11328 405.80078 L 186.11328 393.71289 L 196.04102 405.80078 L 199.82422 405.80078 L 199.82422 385.89062 L 195.27344 385.89062 L 195.27344 397.97852 L 185.375 385.89062 L 181.5625 385.89062 z M 212.45117 385.89062 L 203.06641 398.51953 L 203.06641 401.61914 L 213.78906 401.61914 L 213.78906 405.80078 L 218.2832 405.80078 L 218.2832 401.61914 L 221.52539 401.61914 L 221.52539 397.86523 L 218.2832 397.86523 L 218.2832 394.13867 L 213.93164 394.13867 L 213.93164 397.86523 L 208.58398 397.86523 L 217.28711 385.89062 L 212.45117 385.89062 z "
       transform="translate(-252.7535,853.63227)" />
    <path
       d="m -223.69552,909.76256 c 3.04,-2.36 5.6,-4.96 7.32,-7.4 1.84,2.48 4.6,5.08 7.68,7.4 z m -1.96,4.36 h 18.68 v -3.16 c 2.2,1.52 4.52,2.84 6.72,3.88 0.84,-1.4 1.88,-3.12 3.08,-4.36 -6.32,-2.24 -12.68,-6.8 -16.92,-12.68 h -4.96 c -3,4.72 -9.36,10.4 -16.16,13.4 1,1.04 2.24,2.84 2.8,4 2.32,-1.12 4.64,-2.48 6.76,-4 z m -7.08,7.72 h 9.28 c -0.84,2.36 -1.96,5 -3.04,7.24 l -6.04,0.2 0.64,4.64 c 6.8,-0.32 16.68,-0.72 26.08,-1.24 0.64,0.88 1.2,1.72 1.6,2.48 l 4.44,-2.67999 c -1.88,-3 -5.6,-7.16 -9.16,-10.28 l -4.2,2.2 c 1.32,1.2 2.68,2.64 3.92,4.08 -4.08,0.16 -8.2,0.32 -12.04,0.44 1.2,-2.24 2.52,-4.72 3.68,-7.08 h 17.92 v -4.4 h -33.08 z"
       style="font-weight:bold;font-size:40px;line-height:1.25;font-family:Montserrat;-inkscape-font-specification:Montserrat;fill:#00c2f3;fill-opacity:1"
       id="path33340" />
    <path
       d="m -147.92853,917.04257 v 5.52 h -7.48 v -5.52 z m 4.4,9.44 v -13.36 h -16.28 v 16 h 4.4 v -2.64 z m 1.8,-20.44 h -19.96 v 4 h 19.96 z m 7.04,-7.32 h -33.92 v 35.48 h 4.64 v -30.96 h 24.6 v 25.44 c 0,0.64 -0.28,0.88 -0.96,0.92 -0.68,0.04 -3,0.04 -5.12,-0.08 0.72,1.24 1.44,3.4 1.64,4.72001 3.32,0 5.56,-0.12001 7.08,-0.92 1.52,-0.8 2.04,-2.12 2.04,-4.6 z"
       style="font-weight:bold;font-size:40px;line-height:1.25;font-family:Montserrat;-inkscape-font-specification:Montserrat;fill:#00c2f3;fill-opacity:1"
       id="path33342" />
    <path
       d="m -77.661541,925.86256 h -7.2 v -1.88 h 7.2 z m -7.2,-7.24 h 7.2 v 1.72 h -7.2 z m -11.12,-7.96 v -1.92 h 6.28 v 1.92 z m 17.6,-1.92 v 1.92 h -6.48 v -1.92 z m 9.72,11.6 h -4.16 v -4.92 h -12.04 v -1.76 h 11.36 v -7.91999 h -11.36 v -1.64 h 15.28 v -3.76 h -15.28 v -2.6 h -4.84 v 2.6 h -14.919999 v 3.76 h 14.919999 v 1.64 h -10.839999 v 7.91999 h 10.839999 v 1.76 h -11.839999 v 3.2 h 11.839999 v 1.72001 h -15.839999 v 3.64 h 15.839999 v 1.88 h -12.159999 v 3.44 h 12.159999 v 1.24 c 0,0.72 -0.24,0.96 -1,1 -0.64,0 -3,0 -4.92,-0.08 0.6,1 1.32,2.64 1.56,3.76 3.4,0 5.56,-0.08 7.08,-0.68 1.56,-0.68 2.12,-1.64 2.12,-4 v -1.24 h 7.2 v 1.64 h 4.84 v -6.96 h 4.16 z"
       style="font-weight:bold;font-size:40px;line-height:1.25;font-family:Montserrat;-inkscape-font-specification:Montserrat;fill:#00c2f3;fill-opacity:1"
       id="path33344" />
    <path
       d="m -32.174555,928.78256 v -4.16 h 19 v 4.16 z m 19,-12.68 v 4.12 h -19 v -4.12 z m 0,-8.52 v 4.12 h -19 v -4.12 z m -8.64,-4.56 c 0.64,-1.44 1.28,-3 1.88,-4.6 l -5.76,-0.64 c -0.2,1.6 -0.64,3.52 -1.08,5.24 h -10.24 v 32.16 h 4.84 v -2 h 19 v 1.96 h 5.0799999 v -32.12 z"
       style="font-weight:bold;font-size:40px;line-height:1.25;font-family:Montserrat;-inkscape-font-specification:Montserrat;fill:#00c2f3;fill-opacity:1"
       id="path33346" />
    <path
       d="m -118.18913,986.55952 c -0.84,-0.8 -3.92,-3.56 -5.84,-5.12 1.92,-2.64 3.52,-5.52 4.72,-8.56 l -2.68,-1.72 -0.84,0.2 h -1.8 v -7.36 h -4.72 v 7.36 h -5.68 v 4.32 h 9.64 c -2.6,4.6 -6.8,8.8 -11.16,11.16 0.72,0.92 1.84,3.24 2.24,4.52 1.68,-1.04 3.36,-2.36 4.96,-3.84 v 13.79998 h 4.72 v -15.07998 c 1.36,1.48 2.72,3.08 3.56,4.2 z m 11.52,8.96 v -14.64 h 7.559995 v -4.6 h -7.559995 v -11.96 h -4.88 v 11.96 h -7.6 v 4.6 h 7.6 v 14.64 h -9.24 v 4.63998 h 22.639995 v -4.63998 z"
       style="font-weight:bold;font-size:40px;line-height:1.25;font-family:Montserrat;-inkscape-font-specification:Montserrat;fill:#00c2f3;fill-opacity:1"
       id="path33348" />
    <path
       d="m -213.97551,1052.5766 h -4.92 v -4.52 h 4.92 z m 8.6,-4.52 v -1.28 c 1.52,1.16 3.16,2.16 4.91999,3 0.72,-1.28 2.16,-3.16 3.28,-4.08 -2.28,-0.92 -4.36,-2.16 -6.24,-3.68 1.76,-1.24 3.68,-2.8 5.32,-4.32 l -3.48,-2.48 c -1.12,1.36 -2.88,3 -4.52,4.32 -0.6,-0.68 -1.2,-1.36 -1.76,-2.08 1.64,-1.2 3.48,-2.76 5.12,-4.24 l -3.6,-2.56 c -0.91999,1.12 -2.24,2.52 -3.56,3.72 -0.8,-1.36 -1.44,-2.8 -2,-4.28 l -4.28,1.2 c 1.76,4.72 4.16,8.88 7.28,12.24 h -14.47999 c 2.8,-2.88 5.08,-6.44 6.47999,-10.64 l -3.16,-1.48 -0.84,0.16 h -10.44 v 4.08 h 8.16 c -0.72,1.28 -1.56,2.48 -2.52,3.6 -1.12,-0.96 -2.64,-2.12 -3.84,-2.96 l -3,2.48 c 1.32,1 2.92,2.36 3.96,3.4 -2.04,1.76 -4.32,3.16 -6.63999,4.12 0.91999,0.88 2.24,2.52 2.87999,3.6 1.84001,-0.8801 3.64,-1.9201 5.32,-3.16 v 1.3199 h 3.36001 v 4.52 h -8.56 v 4.36 h 7.91999 c -1,2.68 -3.4,5.16 -8.91999,6.84 1,0.88 2.43999,2.72 3.03999,3.8 7.4,-2.48 10.04,-6.44 10.92,-10.64 h 5.28 v 4.36 c 0,4.44 1.08,5.84 5.4,5.84 h 4.36001 c 3.52,0 4.75999,-1.6 5.24,-6.88 -1.36001,-0.28 -3.28,-1.08 -4.28,-1.88 -0.16,3.76 -0.36001,4.56 -1.4,4.56 h -3.08001 c -1.12,0 -1.28,-0.24 -1.28,-1.68 v -4.32 h 8.52001 v -4.36 h -8.52001 v -4.52 z"
       style="font-weight:bold;font-size:40px;line-height:1.25;font-family:Montserrat;-inkscape-font-specification:Montserrat;fill:#00c2f3;fill-opacity:1"
       id="path33350" />
    <path
       d="m -151.38853,1038.5766 h 6.52 c -1.36,1.28 -2.8,2.48 -4.32,3.64 h -2.2 z m 8.72,17.48 h -13.76 v -2.56 h 13.76 z m -13.76,6.32 v -2.72 h 13.76 v 2.72 z m 23.32,-15.96 v -4.2001 h -9.28 c 2.92,-2.68 5.6,-5.64 7.88,-8.7999 l -4.08,-2.08 c -1.24,1.76 -2.6,3.44 -4.12,5.08 v -1.9601 h -8.68 v -4.3199 h -4.72 v 4.3199 h -9.4 v 4.12 h 9.4 v 3.64 h -12.84 v 4.2001 h 13.6 c -4.6,2.72 -9.6,5 -14.84,6.64 0.88,0.96 2.32,2.88 2.88,3.92 2.04,-0.76 4.12,-1.64 6.12,-2.52 v 13.08 h 4.76 v -1.2 h 13.76 v 1.04 h 5 v -17.76 h -14.56 c 1.64,-1.04 3.16,-2.08 4.72,-3.2 z"
       style="font-weight:bold;font-size:40px;line-height:1.25;font-family:Montserrat;-inkscape-font-specification:Montserrat;fill:#00c2f3;fill-opacity:1"
       id="path33352" />
    <path
       d="m -96.521542,1044.2765 h 4.04 v -4.52 h -4.04 v -8.68 h -4.439998 v 8.68 h -4.68 v 4.52 h 4.68 v 11.28 c -2,0.76 -3.76,1.44 -5.2,1.96 l 1.92,4.8 c 3.68,-1.68 8.239998,-3.84 12.479998,-5.96 l -1.08,-4.2 c -1.2,0.52 -2.44,1.04 -3.68,1.56 z m 13.640004,18.64 c -2.44,0 -2.800004,-0.36 -2.800004,-2.68 v -12.36 l 3.320004,-1.44 v 12.2 h 4.44 v -14.12 l 3.44,-1.52 c 0,5.68 -0.04,8.6 -0.12,9.24 -0.16,0.72 -0.4,0.88 -0.88,0.88 -0.36,0 -1.24,0 -1.92,-0.08 0.52,1 0.88,2.7601 1,4 1.28,0 3,-0.04 4.16,-0.56 1.2,-0.52 1.92,-1.48 2.04,-3.3199 0.2,-1.6401 0.28,-6.44 0.28,-14.04 l 0.16,-0.8 -3.32,-1.16 -0.84,0.56 -0.84,0.56 -3.16,1.3599 v -9.12 h -4.44 v 11.04 l -3.320004,1.4 v -8.5599 h -4.56 v 10.52 l -3.92,1.64 1.76,4.24 2.16,-0.92 v 10.28 c 0,5.52 1.56,7 6.960004,7 h 8.52 c 4.68,0 6.08,-1.92 6.72,-7.52 -1.32,-0.24 -3.16,-1 -4.16,-1.72 -0.36,4.0799 -0.76,5 -2.96,5 z"
       style="font-weight:bold;font-size:40px;line-height:1.25;font-family:Montserrat;-inkscape-font-specification:Montserrat;fill:#00c2f3;fill-opacity:1"
       id="path33354" />
    <path
       d="m -17.674555,1040.5566 c -0.44,1.08 -0.92,2.24 -1.4,3.2 h -7.48 l 0.68,-0.12 c -0.28,-0.84 -0.8,-2.04 -1.36,-3.08 z m 12.9199999,17.84 v -3.92 H -20.314555 v -1.76 h 12 v -3.44 h -12 v -1.8 h 13.88 v -3.72 h -7.84 c 0.6,-0.96 1.24,-2.04 1.88,-3.2 h 7.5199999 v -3.88 h -5.1999999 c 0.92,-1.4001 2,-3.2001 3.12,-5.04 l -5,-1.2001 c -0.56,1.76 -1.56,4.1601 -2.52,5.8 l 1.44,0.4401 h -3.56 v -6.52 h -4.48 v 6.52 h -2.96 v -6.52 h -4.44 v 6.52 h -3.64 l 1.96,-0.7201 c -0.56,-1.5599 -1.88,-3.92 -3.04,-5.64 l -4.08,1.4 c 0.88,1.52 1.92,3.4401 2.48,4.9601 h -5.36 v 3.88 h 8.36 l -0.48,0.08 c 0.52,0.92 1.04,2.1199 1.36,3.1199 h -7.6 v 3.72 h 13.52 v 1.8 h -11.52 v 3.44 h 11.52 v 1.76 h -15.28 v 3.9201 h 11.48 c -3.44,2.0799 -8.16,3.76 -12.64,4.68 1,0.96 2.36,2.8 3.04,3.96 4.76,-1.24 9.68,-3.56 13.4,-6.48 v 6.96 h 4.68 v -7.2 c 3.68,3.1199 8.52,5.52 13.44,6.76 0.72,-1.28 2.1199999,-3.28 3.1999999,-4.32 -4.6399999,-0.72 -9.2799999,-2.28 -12.6799999,-4.36 z"
       style="font-weight:bold;font-size:40px;line-height:1.25;font-family:Montserrat;-inkscape-font-specification:Montserrat;fill:#00c2f3;fill-opacity:1"
       id="path33356" />
    <path
       d="m 30.124833,974.83953 v -4.56 H 14.324834 v -6.52 H 9.4048335 v 6.52 H -5.9151668 v 4.56 H 5.5248335 c -0.44,8.56 -1.36,17.68 -12.1600003,22.68 1.24,1.04 2.68,2.71997 3.36,4.03997 8.0000003,-4.03997 11.3200003,-10.27997 12.8400003,-17.03997 H 20.564834 c -0.56,7.28 -1.28,10.76 -2.32,11.64 -0.48,0.44 -1.04,0.52 -1.92,0.52 -1.16,0 -3.960001,0 -6.7200005,-0.28 0.8799995,1.36 1.5999995,3.32 1.6799995,4.67997 2.680001,0.12 5.360001,0.16 6.840001,0 1.88,-0.16 3.119999,-0.56 4.319999,-1.83997 1.6,-1.76 2.44,-6.24 3.16,-17.12 0.12,-0.64 0.16,-2.08 0.16,-2.08 h -15.44 c 0.2,-1.72 0.32,-3.48 0.44,-5.2 z"
       style="font-weight:bold;font-size:40px;line-height:1.25;font-family:Montserrat;-inkscape-font-specification:Montserrat;fill:#00c2f3;fill-opacity:1"
       id="path33358" />
    <path
       d="m -223.69552,1176.7517 c 3.04,-2.36 5.6,-4.9601 7.32,-7.4 1.84,2.48 4.6,5.08 7.68,7.4 z m -1.96,4.3599 h 18.68 v -3.1599 c 2.2,1.52 4.52,2.84 6.72,3.88 0.84,-1.4 1.88,-3.12 3.08,-4.36 -6.32,-2.24 -12.68,-6.8 -16.92,-12.68 h -4.96 c -3,4.72 -9.36,10.4 -16.16,13.4 1,1.04 2.24,2.84 2.8,4 2.32,-1.1201 4.64,-2.48 6.76,-4 z m -7.08,7.7201 h 9.28 c -0.84,2.36 -1.96,5 -3.04,7.2399 l -6.04,0.2001 0.64,4.64 c 6.8,-0.3201 16.68,-0.72 26.08,-1.24 0.64,0.8799 1.2,1.72 1.6,2.48 l 4.44,-2.68 c -1.88,-3 -5.6,-7.16 -9.16,-10.28 l -4.2,2.2 c 1.32,1.2 2.68,2.64 3.92,4.08 -4.08,0.16 -8.2,0.32 -12.04,0.44 1.2,-2.24 2.52,-4.72 3.68,-7.08 h 17.92 v -4.4 h -33.08 z"
       style="font-weight:bold;font-size:40px;line-height:1.25;font-family:Montserrat;-inkscape-font-specification:Montserrat;fill:#00c2f3;fill-opacity:1"
       id="path35523" />
    <path
       d="m -147.92853,1184.0316 v 5.52 h -7.48 v -5.52 z m 4.4,9.44 v -13.36 h -16.28 v 16 h 4.4 v -2.64 z m 1.8,-20.44 h -19.96 v 4 h 19.96 z m 7.04,-7.32 h -33.92 v 35.48 h 4.64 v -30.96 h 24.6 v 25.44 c 0,0.64 -0.28,0.88 -0.96,0.92 -0.68,0.04 -3,0.04 -5.12,-0.08 0.72,1.24 1.44,3.4 1.64,4.7201 3.32,0 5.56,-0.1201 7.08,-0.92 1.52,-0.8 2.04,-2.12 2.04,-4.6 z"
       style="font-weight:bold;font-size:40px;line-height:1.25;font-family:Montserrat;-inkscape-font-specification:Montserrat;fill:#00c2f3;fill-opacity:1"
       id="path35525" />
    <path
       d="m -77.661541,1192.8516 h -7.2 v -1.88 h 7.2 z m -7.2,-7.24 h 7.2 v 1.72 h -7.2 z m -11.12,-7.96 v -1.92 h 6.28 v 1.92 z m 17.6,-1.92 v 1.92 h -6.48 v -1.92 z m 9.72,11.6 h -4.16 v -4.92 h -12.04 v -1.76 h 11.36 v -7.9199 h -11.36 v -1.6401 h 15.28 v -3.7599 h -15.28 v -2.6 h -4.84 v 2.6 h -14.919999 v 3.7599 h 14.919999 v 1.6401 h -10.839999 v 7.9199 h 10.839999 v 1.76 h -11.839999 v 3.2 h 11.839999 v 1.7201 h -15.839999 v 3.64 h 15.839999 v 1.88 h -12.159999 v 3.44 h 12.159999 v 1.24 c 0,0.72 -0.24,0.96 -1,1 -0.64,0 -3,0 -4.92,-0.08 0.6,1 1.32,2.6399 1.56,3.76 3.4,0 5.56,-0.08 7.08,-0.68 1.56,-0.68 2.12,-1.64 2.12,-4 v -1.24 h 7.2 v 1.64 h 4.84 v -6.96 h 4.16 z"
       style="font-weight:bold;font-size:40px;line-height:1.25;font-family:Montserrat;-inkscape-font-specification:Montserrat;fill:#00c2f3;fill-opacity:1"
       id="path35527" />
    <path
       d="m -32.174555,1195.7717 v -4.1601 h 19 v 4.1601 z m 19,-12.6801 v 4.1201 h -19 v -4.1201 z m 0,-8.52 v 4.1201 h -19 v -4.1201 z m -8.64,-4.5599 c 0.64,-1.4401 1.28,-3 1.88,-4.6 l -5.76,-0.64 c -0.2,1.6 -0.64,3.52 -1.08,5.24 h -10.24 v 32.16 h 4.84 v -2 h 19 v 1.96 h 5.0799999 v -32.12 z"
       style="font-weight:bold;font-size:40px;line-height:1.25;font-family:Montserrat;-inkscape-font-specification:Montserrat;fill:#00c2f3;fill-opacity:1"
       id="path35529" />
    <path
       d="m -118.18913,1121.1947 c -0.84,-0.8 -3.92,-3.56 -5.84,-5.12 1.92,-2.64 3.52,-5.52 4.72,-8.56 l -2.68,-1.72 -0.84,0.2 h -1.8 v -7.36 h -4.72 v 7.36 h -5.68 v 4.32 h 9.64 c -2.6,4.6 -6.8,8.8 -11.16,11.16 0.72,0.92 1.84,3.24 2.24,4.52 1.68,-1.04 3.36,-2.36 4.96,-3.84 v 13.7999 h 4.72 v -15.0799 c 1.36,1.48 2.72,3.08 3.56,4.2 z m 11.52,8.96 v -14.64 h 7.559995 v -4.6 h -7.559995 v -11.96 h -4.88 v 11.96 h -7.6 v 4.6 h 7.6 v 14.64 h -9.24 v 4.6399 h 22.639995 v -4.6399 z"
       style="font-weight:bold;font-size:40px;line-height:1.25;font-family:Montserrat;-inkscape-font-specification:Montserrat;fill:#00c2f3;fill-opacity:1"
       id="path35531" />
    <path
       d="m 30.124833,1109.4747 v -4.56 H 14.324834 v -6.52 H 9.4048335 v 6.52 H -5.9151668 v 4.56 H 5.5248335 c -0.44,8.56 -1.36,17.68 -12.1600003,22.68 1.24,1.04 2.68,2.7199 3.36,4.0399 8.0000003,-4.0399 11.3200003,-10.2799 12.8400003,-17.0399 H 20.564834 c -0.56,7.28 -1.28,10.76 -2.32,11.64 -0.48,0.44 -1.04,0.52 -1.92,0.52 -1.16,0 -3.960001,0 -6.7200005,-0.28 0.8799995,1.36 1.5999995,3.32 1.6799995,4.6799 2.680001,0.12 5.360001,0.16 6.840001,0 1.88,-0.16 3.119999,-0.56 4.319999,-1.8399 1.6,-1.76 2.44,-6.24 3.16,-17.12 0.12,-0.64 0.16,-2.08 0.16,-2.08 h -15.44 c 0.2,-1.72 0.32,-3.48 0.44,-5.2 z"
       style="font-weight:bold;font-size:40px;line-height:1.25;font-family:Montserrat;-inkscape-font-specification:Montserrat;fill:#00c2f3;fill-opacity:1"
       id="path35533" />
    <path
       d="m -247.23945,840.04554 h 6.52001 c -1.36001,1.28 -2.80001,2.48 -4.32,3.64 h -2.2 z m 8.72,17.48 h -13.75999 v -2.55999 h 13.75999 z m -13.75999,6.32001 v -2.72001 h 13.75999 v 2.72001 z m 23.31999,-15.96001 v -4.2001 h -9.28 c 2.92,-2.68 5.6,-5.64 7.88,-8.7999 l -4.08,-2.08 c -1.24,1.76 -2.6,3.44 -4.12,5.08 v -1.9601 h -8.68 v -4.3199 h -4.72 v 4.3199 h -9.4 v 4.12 h 9.4 v 3.64 h -12.84 v 4.2001 h 13.6 c -4.6,2.72 -9.6,5 -14.84,6.64 0.88,0.96 2.32,2.88 2.88,3.92 2.04,-0.76 4.12,-1.64 6.12,-2.52 v 13.08 h 4.76 v -1.2 h 13.76 v 1.04 h 5 v -17.76 h -14.56 c 1.64,-1.04 3.16,-2.08 4.72,-3.2 z"
       style="font-weight:bold;font-size:40px;line-height:1.25;font-family:Montserrat;-inkscape-font-specification:Montserrat;fill:#00c2f3;fill-opacity:1"
       id="path35535" />
    <path
       d="m -126.76913,845.74549 h 4.04 v -4.52 h -4.04 v -8.68 h -4.44 v 8.68 h -4.68 v 4.52 h 4.68 v 11.28 c -2,0.76 -3.76,1.44 -5.2,1.96 l 1.92,4.8 c 3.68,-1.68 8.24,-3.84 12.48,-5.96 l -1.08,-4.2 c -1.2,0.52 -2.44,1.04 -3.68,1.56 z m 13.64,18.64 c -2.44,0 -2.8,-0.36 -2.8,-2.68 v -12.36 l 3.32,-1.44 v 12.2 h 4.44 v -14.12 l 3.44,-1.52 c 0,5.68 -0.04,8.6 -0.12,9.24 -0.16,0.72 -0.4,0.88 -0.88,0.88 -0.36,0 -1.24,0 -1.92,-0.08 0.52,1 0.88,2.7601 1,4 1.28,0 3,-0.04 4.16,-0.56 1.2,-0.52 1.92,-1.48 2.04,-3.3199 0.2,-1.64009 0.28,-6.44 0.28,-14.04 l 0.16,-0.79999 -3.32,-1.16 -0.84,0.56 -0.84,0.55999 -3.16,1.35991 v -9.12 h -4.44 v 11.03999 l -3.32,1.4 v -8.5599 h -4.56 v 10.52 l -3.92,1.64 1.76,4.24 2.16,-0.92 v 10.28 c 0,5.52 1.56,7 6.96,7 h 8.52 c 4.68,0 6.079994,-1.91999 6.719994,-7.52 -1.319998,-0.24 -3.159994,-1 -4.159994,-1.72 -0.36,4.0799 -0.76,5 -2.96,5 z"
       style="font-weight:bold;font-size:40px;line-height:1.25;font-family:Montserrat;-inkscape-font-specification:Montserrat;fill:#00c2f3;fill-opacity:1"
       id="path35537" />
    <path
       d="m 16.624833,842.02554 c -0.44,1.08 -0.92,2.24 -1.4,3.2 h -7.48 l 0.68,-0.12 c -0.28,-0.84 -0.8,-2.04 -1.36,-3.08 z m 12.92,17.84 v -3.92 h -15.56 v -1.76 h 12 v -3.44 h -12 v -1.8 h 13.88 v -3.72 h -7.84 c 0.6,-0.96 1.24,-2.04 1.88,-3.2 h 7.52 v -3.88 h -5.2 c 0.92,-1.4001 2,-3.2001 3.12,-5.04 l -5,-1.2001 c -0.56,1.76 -1.56,4.1601 -2.52,5.8 l 1.44,0.4401 h -3.56 v -6.52 h -4.48 v 6.52 h -2.96 v -6.52 h -4.44 v 6.52 h -3.64 l 1.96,-0.7201 c -0.56,-1.5599 -1.88,-3.92 -3.04,-5.64 l -4.08,1.4 c 0.88,1.52 1.92,3.4401 2.48,4.9601 h -5.36 v 3.88 h 8.36 l -0.48,0.08 c 0.52,0.92 1.04,2.1199 1.36,3.1199 h -7.6 v 3.72 h 13.52 v 1.8 h -11.52 v 3.44 h 11.52 v 1.76 h -15.28 v 3.9201 h 11.48 c -3.44,2.0799 -8.16,3.76 -12.64,4.68 1,0.96 2.36,2.8 3.04,3.96 4.76,-1.24 9.68,-3.55999 13.4,-6.48 v 6.96 h 4.68 v -7.2 c 3.68,3.1199 8.52,5.52 13.44,6.76 0.72,-1.28 2.12,-3.28 3.2,-4.32 -4.64,-0.72 -9.28,-2.28 -12.68,-4.36 z"
       style="font-weight:bold;font-size:40px;line-height:1.25;font-family:Montserrat;-inkscape-font-specification:Montserrat;fill:#00c2f3;fill-opacity:1"
       id="path35539" />
    <path
       id="path35541"
       style="fill:#ffffff;fill-opacity:1;stroke-width:0.946982;stroke-linecap:round;paint-order:stroke fill markers;stop-color:#000000"
       d="m -264.03173,1226.5428 h 33.06456 c 3.64175,0 6.57356,2.9318 6.57356,6.5736 v 33.0645 c 0,3.6417 -2.93181,6.5736 -6.57356,6.5736 h -33.06456 c -3.64175,0 -6.57355,-2.9319 -6.57355,-6.5736 v -33.0645 c 0,-3.6418 2.9318,-6.5736 6.57355,-6.5736 z" />
    <path
       d="m -247.23945,1239.3886 h 6.52001 c -1.36001,1.28 -2.80001,2.48 -4.32,3.64 h -2.2 z m 8.72,17.48 h -13.75999 v -2.5599 h 13.75999 z m -13.75999,6.3201 v -2.7201 h 13.75999 v 2.7201 z m 23.31999,-15.9601 v -4.2001 h -9.28 c 2.92,-2.6799 5.6,-5.64 7.88,-8.7999 l -4.08,-2.08 c -1.24,1.76 -2.6,3.4401 -4.12,5.08 v -1.9601 h -8.68 v -4.3199 h -4.72 v 4.3199 h -9.4 v 4.12 h 9.4 v 3.64 h -12.84 v 4.2001 h 13.6 c -4.6,2.72 -9.6,5 -14.84,6.64 0.88,0.9601 2.32,2.88 2.88,3.92 2.04,-0.76 4.12,-1.64 6.12,-2.52 v 13.0801 h 4.76 v -1.2001 h 13.76 v 1.04 h 5 v -17.76 h -14.56 c 1.64,-1.04 3.16,-2.08 4.72,-3.2 z"
       style="font-weight:bold;font-size:40px;line-height:1.25;font-family:Montserrat;-inkscape-font-specification:Montserrat;fill:#00c2f3;fill-opacity:1"
       id="path35543" />
    <path
       d="m -126.76913,1245.0886 h 4.04 v -4.52 h -4.04 v -8.68 h -4.44 v 8.68 h -4.68 v 4.52 h 4.68 v 11.28 c -2,0.76 -3.76,1.44 -5.2,1.96 l 1.92,4.8 c 3.68,-1.68 8.24,-3.84 12.48,-5.96 l -1.08,-4.2 c -1.2,0.52 -2.44,1.04 -3.68,1.56 z m 13.64,18.64 c -2.44,0 -2.8,-0.36 -2.8,-2.68 v -12.36 l 3.32,-1.44 v 12.2 h 4.44 v -14.12 l 3.44,-1.52 c 0,5.68 -0.04,8.6 -0.12,9.24 -0.16,0.72 -0.4,0.88 -0.88,0.88 -0.36,0 -1.24,0 -1.92,-0.08 0.52,1 0.88,2.7601 1,4 1.28,0 3,-0.04 4.16,-0.56 1.2,-0.52 1.92,-1.48 2.04,-3.3199 0.2,-1.6401 0.28,-6.44 0.28,-14.04 l 0.16,-0.8 -3.32,-1.16 -0.84,0.56 -0.84,0.56 -3.16,1.3599 v -9.12 h -4.44 v 11.04 l -3.32,1.4 v -8.5599 h -4.56 v 10.52 l -3.92,1.64 1.76,4.24 2.16,-0.92 v 10.28 c 0,5.52 1.56,7 6.96,7 h 8.52 c 4.68,0 6.079994,-1.92 6.719994,-7.52 -1.319998,-0.24 -3.159994,-1 -4.159994,-1.72 -0.36,4.0799 -0.76,5 -2.96,5 z"
       style="font-weight:bold;font-size:40px;line-height:1.25;font-family:Montserrat;-inkscape-font-specification:Montserrat;fill:#00c2f3;fill-opacity:1"
       id="path35545" />
    <path
       d="m 16.624833,1241.3686 c -0.44,1.08 -0.92,2.24 -1.4,3.2 h -7.48 l 0.68,-0.12 c -0.28,-0.84 -0.8,-2.04 -1.36,-3.08 z m 12.92,17.84 v -3.9199 h -15.56 v -1.7601 h 12 v -3.44 h -12 v -1.7999 h 13.88 v -3.7201 h -7.84 c 0.6,-0.96 1.24,-2.04 1.88,-3.2 h 7.52 v -3.88 h -5.2 c 0.92,-1.4 2,-3.2001 3.12,-5.04 l -5,-1.2001 c -0.56,1.76 -1.56,4.1601 -2.52,5.8 l 1.44,0.4401 h -3.56 v -6.52 h -4.48 v 6.52 h -2.96 v -6.52 h -4.44 v 6.52 h -3.64 l 1.96,-0.7201 c -0.56,-1.5599 -1.88,-3.92 -3.04,-5.6399 l -4.08,1.3999 c 0.88,1.52 1.92,3.4401 2.48,4.9601 h -5.36 v 3.88 h 8.36 l -0.48,0.08 c 0.52,0.92 1.04,2.12 1.36,3.12 h -7.6 v 3.7199 h 13.52 v 1.8001 h -11.52 v 3.44 h 11.52 v 1.7599 h -15.28 v 3.9202 h 11.48 c -3.44,2.0798 -8.16,3.7599 -12.64,4.6799 1,0.9601 2.36,2.8 3.04,3.9601 4.76,-1.2401 9.68,-3.56 13.4,-6.4801 v 6.9601 h 4.68 v -7.2001 c 3.68,3.1199 8.52,5.52 13.44,6.76 0.72,-1.28 2.12,-3.28 3.2,-4.32 -4.64,-0.7199 -9.28,-2.2799 -12.68,-4.36 z"
       style="font-weight:bold;font-size:40px;line-height:1.25;font-family:Montserrat;-inkscape-font-specification:Montserrat;fill:#00c2f3;fill-opacity:1"
       id="path35547" />
    <path
       d="m -237.00312,992.03952 h -7.2 v -1.88 h 7.2 z m -7.2,-7.24 h 7.2 v 1.72 h -7.2 z m -11.12,-7.96 v -1.92 h 6.28 v 1.92 z m 17.6,-1.92 v 1.92 h -6.48 v -1.92 z m 9.72,11.6 h -4.16 v -4.92 h -12.04 v -1.76 h 11.36001 v -7.91999 h -11.36001 v -1.64 h 15.28 v -3.76 h -15.28 v -2.6 h -4.84 v 2.6 h -14.92 v 3.76 h 14.92 v 1.64 h -10.84 v 7.91999 h 10.84 v 1.76 h -11.84 v 3.2 h 11.84 v 1.72001 h -15.84 v 3.64 h 15.84 v 1.88 h -12.16 v 3.44 h 12.16 v 1.24 c 0,0.72 -0.24,0.96 -1,1 -0.64,0 -3,0 -4.92,-0.08 0.6,1 1.32,2.63997 1.56,3.75997 3.40001,0 5.56001,-0.08 7.08001,-0.68 1.56,-0.68 2.12,-1.63997 2.12,-3.99997 v -1.24 h 7.2 v 1.64 h 4.84 v -6.96 h 4.16 z"
       style="font-weight:bold;font-size:40px;line-height:1.25;font-family:Montserrat;-inkscape-font-specification:Montserrat;fill:#00c2f3;fill-opacity:1"
       id="path35631" />
    <path
       d="m -256.91944,1112.7346 h 4.04 v -4.52 h -4.04 v -8.68 h -4.44 v 8.68 h -4.68 v 4.52 h 4.68 v 11.28 c -2,0.76 -3.76,1.44 -5.2,1.96 l 1.92,4.8 c 3.68,-1.68 8.24,-3.84 12.48,-5.96 l -1.08,-4.2 c -1.2,0.52 -2.44,1.04 -3.68,1.56 z m 13.64,18.64 c -2.44,0 -2.8,-0.36 -2.8,-2.68 v -12.36 l 3.32,-1.44 v 12.2 h 4.44 v -14.12 l 3.44,-1.52 c 0,5.68 -0.04,8.6 -0.12,9.24 -0.16,0.72 -0.4,0.88 -0.88,0.88 -0.36,0 -1.24,0 -1.92,-0.08 0.52,1 0.88,2.7601 1,4 1.28,0 3,-0.04 4.16,-0.56 1.2,-0.52 1.92,-1.48 2.04,-3.3199 0.2,-1.6401 0.28,-6.44 0.28,-14.04 l 0.16,-0.8 -3.32,-1.16 -0.84,0.56 -0.84,0.56 -3.16,1.3599 v -9.12 h -4.44 v 11.04 l -3.32,1.4 v -8.5599 h -4.56 v 10.52 l -3.92,1.64 1.76,4.24 2.16,-0.92 v 10.28 c 0,5.52 1.56,7 6.96,7 h 8.52 c 4.68,0 6.07999,-1.92 6.71999,-7.52 -1.32,-0.24 -3.15999,-1 -4.15999,-1.72 -0.36,4.0799 -0.76,5 -2.96,5 z"
       style="font-weight:bold;font-size:40px;line-height:1.25;font-family:Montserrat;-inkscape-font-specification:Montserrat;fill:#00c2f3;fill-opacity:1"
       id="path35715" />
    <path
       d="m 34.492428,1176.7517 c 3.04,-2.36 5.6,-4.9601 7.32,-7.4001 1.84,2.48 4.6,5.08 7.68,7.4001 z m -1.96,4.3598 h 18.68 v -3.1599 c 2.2,1.52 4.52,2.84 6.72,3.88 0.84,-1.4 1.88,-3.1199 3.08,-4.3599 -6.32,-2.24 -12.68,-6.8 -16.92,-12.6801 h -4.96 c -3,4.7201 -9.36,10.4001 -16.16,13.4001 1,1.04 2.24,2.84 2.8,4 2.32,-1.1202 4.64,-2.48 6.76,-4 z m -7.08,7.7201 h 9.28 c -0.84,2.36 -1.96,5 -3.04,7.2399 l -6.04,0.2002 0.64,4.64 c 6.8,-0.3201 16.68,-0.72 26.08,-1.24 0.64,0.8799 1.2,1.72 1.6,2.48 l 4.44,-2.68 c -1.88,-3 -5.6,-7.1601 -9.16,-10.28 l -4.2,2.2 c 1.32,1.2 2.68,2.64 3.92,4.08 -4.08,0.16 -8.2,0.3199 -12.04,0.44 1.2,-2.24 2.52,-4.72 3.68,-7.08 h 17.92 v -4.4 h -33.08 z"
       style="font-weight:bold;font-size:40px;line-height:1.25;font-family:Montserrat;-inkscape-font-specification:Montserrat;fill:#00c2f3;fill-opacity:1"
       id="path35717" />
    <path
       d="m 45.712428,1049.3965 v 5.52 h -7.48 v -5.52 z m 4.4,9.44 v -13.36 h -16.28 v 16 h 4.4 v -2.64 z m 1.8,-20.44 h -19.96 v 4 h 19.96 z m 7.04,-7.32 h -33.92 v 35.48 h 4.64 v -30.96 h 24.6 v 25.44 c 0,0.64 -0.28,0.88 -0.96,0.92 -0.68,0.04 -3,0.04 -5.12,-0.08 0.72,1.24 1.44,3.4 1.64,4.7201 3.32,0 5.56,-0.1201 7.08,-0.92 1.52,-0.8 2.04,-2.12 2.04,-4.6 z"
       style="font-weight:bold;font-size:40px;line-height:1.25;font-family:Montserrat;-inkscape-font-specification:Montserrat;fill:#00c2f3;fill-opacity:1"
       id="path35719" />
    <path
       d="m 42.252428,906.22257 h 6.52 c -1.36,1.27999 -2.8,2.48 -4.32,3.64 h -2.2 z m 8.72,17.48 h -13.76 v -2.56 h 13.76 z m -13.76,6.31999 v -2.72 h 13.76 v 2.72 z m 23.32,-15.96 v -4.2001 h -9.28 c 2.92,-2.68 5.6,-5.64 7.88,-8.7999 l -4.08,-2.07999 c -1.24,1.76 -2.6,3.44 -4.12,5.07999 v -1.9601 h -8.68 v -4.3199 h -4.72 v 4.3199 h -9.4 v 4.12 h 9.4 v 3.64 h -12.84 v 4.2001 h 13.6 c -4.6,2.72 -9.6,5 -14.84,6.64001 0.88,0.96 2.32,2.88 2.88,3.92 2.04,-0.76 4.12,-1.64 6.12,-2.52 v 13.08 h 4.76 v -1.2 h 13.76 v 1.03999 h 5 v -17.76 h -14.56 c 1.64,-1.03999 3.16,-2.07999 4.72,-3.2 z"
       style="font-weight:bold;font-size:40px;line-height:1.25;font-family:Montserrat;-inkscape-font-specification:Montserrat;fill:#00c2f3;fill-opacity:1"
       id="path35885" />
  </g>
</svg>
